<svg width="18" height="18" viewBox="0 0 18 18" fill="none" xmlns="http://www.w3.org/2000/svg">
<path d="M8.99981 5.31204L13.4062 5.31208C15.2006 5.31208 16.0635 6.52003 16.0635 7.9693V13.6909C16.0635 15.0468 15.0014 16.3481 13.4062 16.3481H4.59338C2.92847 16.3481 1.93616 15.2261 1.93616 13.6909V7.9693C1.93616 6.63956 2.98823 5.31201 4.59338 5.31201L8.99981 5.31204ZM8.99981 5.31204L5.13587 1.65137M8.99981 5.31204L12.7555 1.65137M5.81377 7.56264C4.76132 7.56264 4.26816 8.25327 4.26816 9.10825V12.7147C4.26816 13.453 4.59338 14.1518 5.48838 14.1518H10.2337C11.1166 14.1518 11.5488 13.8315 11.5488 12.8367V9.10825C11.5488 8.23335 11.3755 7.56264 10.0032 7.56264H5.81377Z" stroke="white"/>
<circle cx="13.7064" cy="8.53243" r="0.657427" fill="white"/>
<circle cx="13.7063" cy="10.9631" r="0.657427" fill="white"/>
<circle cx="13.7063" cy="13.1145" r="0.657427" fill="white"/>
</svg>
