<svg width="18" height="18" viewBox="0 0 18 18" fill="none" xmlns="http://www.w3.org/2000/svg">
<path d="M10.1214 4.51334H4.61078C3.14381 4.51334 1.95459 5.70255 1.95459 7.16953V12.6801C1.95459 14.1471 3.14381 15.3363 4.61078 15.3363H10.1214C11.5883 15.3363 12.7776 14.1471 12.7776 12.6801V7.16953C12.7776 5.70256 11.5883 4.51334 10.1214 4.51334ZM10.1214 4.51334C9.67083 3.90674 8.55972 2.16077 7.91231 1.9873H4.84402M12.7776 11.6889L14.5019 12.9788C15.1451 13.5575 16.0452 13.086 16.0452 12.3573V7.32089C16.0452 6.54935 15.1665 5.92783 14.5019 6.54934L12.7776 7.97179" stroke="white"/>
<circle cx="9.74431" cy="7.49822" r="0.744314" fill="white"/>
</svg>
