<svg width="60" height="40" viewBox="0 0 60 40" fill="none" xmlns="http://www.w3.org/2000/svg">
<g clip-path="url(#clip0_824_3702)">
<path d="M37.6216 15.7588C38.6304 15.4711 39.2149 14.4202 38.9272 13.4115L35.8021 2.45279C35.5144 1.44408 34.4635 0.859522 33.4548 1.14719L22.4961 4.2723C21.4873 4.55997 20.9028 5.61089 21.1905 6.6196L24.3156 17.5783C24.6033 18.587 25.6542 19.1716 26.6629 18.8839L37.6216 15.7588Z" fill="#AAC8ED"/>
<path d="M52.6129 33.1003C53.5438 33.5838 54.6903 33.2212 55.1738 32.2904L60.4269 22.1778C60.9105 21.2469 60.5479 20.1004 59.617 19.6168L49.5044 14.3637C48.5736 13.8802 47.427 14.2428 46.9435 15.1736L41.6904 25.2862C41.2068 26.2171 41.5694 27.3636 42.5003 27.8472L52.6129 33.1003Z" fill="#D1DFF2"/>
<path d="M2.89941 7.13858H14.2949C15.0677 7.13861 15.6943 7.76523 15.6943 8.53799V19.9335C15.6943 20.7063 15.0677 21.3329 14.2949 21.3329H2.89941C2.12664 21.3329 1.50003 20.7063 1.5 19.9335V8.53799C1.5 7.76521 2.12663 7.13858 2.89941 7.13858Z" fill="url(#paint0_linear_824_3702)" stroke="url(#paint1_linear_824_3702)"/>
<path d="M14.2949 38.9261C15.3438 38.9261 16.1941 38.0758 16.1941 37.0269V25.6313C16.1941 24.5823 15.3438 23.732 14.2949 23.732H2.89927C1.85034 23.732 1 24.5823 1 25.6313V37.0269C1 38.0758 1.85034 38.9261 2.89927 38.9261H14.2949Z" fill="#478BE9"/>
<path d="M31.3886 38.9261C32.4376 38.9261 33.2879 38.0758 33.2879 37.0269V25.6313C33.2879 24.5823 32.4376 23.732 31.3886 23.732H19.993C18.9441 23.732 18.0938 24.5823 18.0938 25.6313V37.0269C18.0938 38.0758 18.9441 38.9261 19.993 38.9261H31.3886Z" fill="#478BE9"/>
</g>
<defs>
<linearGradient id="paint0_linear_824_3702" x1="8.59706" y1="6.63858" x2="8.59706" y2="21.8327" gradientUnits="userSpaceOnUse">
<stop stop-color="#48A3D2"/>
<stop offset="1" stop-color="#478BE9"/>
</linearGradient>
<linearGradient id="paint1_linear_824_3702" x1="8.59706" y1="6.63858" x2="8.59706" y2="21.8327" gradientUnits="userSpaceOnUse">
<stop stop-color="#478BEB"/>
<stop offset="1" stop-color="#478BEB" stop-opacity="0"/>
</linearGradient>
<clipPath id="clip0_824_3702">
<rect width="60" height="40" fill="white"/>
</clipPath>
</defs>
</svg>
