<svg width="60" height="40" viewBox="0 0 60 40" fill="none" xmlns="http://www.w3.org/2000/svg">
<g clip-path="url(#clip0_657_7460)">
<path opacity="0.2" fill-rule="evenodd" clip-rule="evenodd" d="M38.3828 34.386L40.9688 36.972C41.3439 37.347 41.8525 37.5576 42.3828 37.5576C42.9131 37.5576 43.4218 37.347 43.7968 36.972L59.3528 21.416C59.5386 21.2303 59.686 21.0098 59.7866 20.7671C59.8871 20.5244 59.9389 20.2642 59.9389 20.0015C59.9389 19.7388 59.8871 19.4787 59.7866 19.236C59.686 18.9932 59.5386 18.7727 59.3528 18.587L43.7968 3.03101C43.4218 2.65607 42.9131 2.44543 42.3828 2.44543C41.8525 2.44543 41.3439 2.65607 40.9688 3.03101L38.3828 5.61701L51.3528 18.587C51.5386 18.7727 51.686 18.9932 51.7866 19.236C51.8871 19.4787 51.9389 19.7388 51.9389 20.0015C51.9389 20.2642 51.8871 20.5244 51.7866 20.7671C51.686 21.0098 51.5386 21.2303 51.3528 21.416L38.3828 34.386Z" fill="#478BEB"/>
<path opacity="0.4" fill-rule="evenodd" clip-rule="evenodd" d="M30.3828 34.386L32.9688 36.972C33.3439 37.347 33.8525 37.5576 34.3828 37.5576C34.9131 37.5576 35.4218 37.347 35.7968 36.972L51.3528 21.416C51.5386 21.2303 51.686 21.0098 51.7866 20.7671C51.8871 20.5244 51.9389 20.2642 51.9389 20.0015C51.9389 19.7388 51.8871 19.4787 51.7866 19.236C51.686 18.9932 51.5386 18.7727 51.3528 18.587L35.7968 3.03101C35.4218 2.65607 34.9131 2.44543 34.3828 2.44543C33.8525 2.44543 33.3439 2.65607 32.9688 3.03101L30.3828 5.61701L43.3528 18.587C43.5386 18.7727 43.686 18.9932 43.7866 19.236C43.8871 19.4787 43.9389 19.7388 43.9389 20.0015C43.9389 20.2642 43.8871 20.5244 43.7866 20.7671C43.686 21.0098 43.5386 21.2303 43.3528 21.416L30.3828 34.386Z" fill="#478BEB"/>
<path opacity="0.7" d="M43.3534 18.5876L27.797 3.03122C27.016 2.25017 25.7496 2.25017 24.9686 3.03122L9.41225 18.5876C8.6312 19.3686 8.6312 20.6349 9.41225 21.416L24.9686 36.9723C25.7496 37.7534 27.016 37.7534 27.797 36.9723L43.3534 21.416C44.1344 20.6349 44.1344 19.3686 43.3534 18.5876Z" fill="#478BEB"/>
<path d="M35.3534 18.5876L19.797 3.03122C19.016 2.25017 17.7496 2.25017 16.9686 3.03122L1.41225 18.5876C0.631201 19.3686 0.631201 20.6349 1.41225 21.416L16.9686 36.9723C17.7496 37.7534 19.016 37.7534 19.797 36.9723L35.3534 21.416C36.1344 20.6349 36.1344 19.3686 35.3534 18.5876Z" fill="#478BEB"/>
<mask id="mask0_657_7460" style="mask-type:alpha" maskUnits="userSpaceOnUse" x="0" y="2" width="36" height="36">
<path d="M34.9998 18.941L19.4435 3.38467C18.8577 2.79888 17.9079 2.79888 17.3222 3.38467L1.7658 18.941C1.18002 19.5268 1.18002 20.4765 1.7658 21.0623L17.3222 36.6187C17.9079 37.2045 18.8577 37.2045 19.4435 36.6187L34.9998 21.0623C35.5856 20.4765 35.5856 19.5268 34.9998 18.941Z" stroke="black"/>
</mask>
<g mask="url(#mask0_657_7460)">
<g style="mix-blend-mode:overlay" filter="url(#filter0_f_657_7460)">
<path d="M18.5 17C26.5081 17 33 10.2843 33 2C33 -6.28427 26.5081 -13 18.5 -13C10.4919 -13 4 -6.28427 4 2C4 10.2843 10.4919 17 18.5 17Z" fill="#B3B3B3"/>
</g>
</g>
<mask id="mask1_657_7460" style="mask-type:alpha" maskUnits="userSpaceOnUse" x="0" y="2" width="60" height="36">
<path fill-rule="evenodd" clip-rule="evenodd" d="M32.9702 36.972L30.3852 34.386L27.7992 36.972C27.6135 37.1578 27.393 37.3052 27.1503 37.4058C26.9075 37.5063 26.6474 37.5581 26.3847 37.5581C26.122 37.5581 25.8618 37.5063 25.6191 37.4058C25.3764 37.3052 25.1559 37.1578 24.9702 36.972L22.3852 34.386L19.7992 36.972C19.6135 37.1578 19.393 37.3052 19.1503 37.4058C18.9075 37.5063 18.6474 37.5581 18.3847 37.5581C18.122 37.5581 17.8618 37.5063 17.6191 37.4058C17.3764 37.3052 17.1559 37.1578 16.9702 36.972L1.4142 21.416C1.22839 21.2303 1.081 21.0098 0.980443 20.7671C0.879883 20.5244 0.828125 20.2642 0.828125 20.0015C0.828125 19.7388 0.879883 19.4787 0.980443 19.236C1.081 18.9933 1.22839 18.7727 1.4142 18.587L16.9702 3.03101C17.1559 2.84521 17.3764 2.69782 17.6191 2.59726C17.8618 2.4967 18.122 2.44494 18.3847 2.44494C18.6474 2.44494 18.9075 2.4967 19.1503 2.59726C19.393 2.69782 19.6135 2.84521 19.7992 3.03101L22.3842 5.61701L24.9702 3.03001C25.1559 2.84421 25.3764 2.69682 25.6191 2.59626C25.8618 2.4957 26.122 2.44394 26.3847 2.44394C26.6474 2.44394 26.9075 2.4957 27.1503 2.59626C27.393 2.69682 27.6135 2.84421 27.7992 3.03001L30.3842 5.61601L32.9702 3.03001C33.1559 2.84421 33.3764 2.69682 33.6191 2.59626C33.8618 2.4957 34.122 2.44394 34.3847 2.44394C34.6474 2.44394 34.9076 2.4957 35.1503 2.59626C35.393 2.69682 35.6135 2.84421 35.7992 3.03001L38.3852 5.61601L40.9702 3.03001C41.1559 2.84421 41.3764 2.69682 41.6191 2.59626C41.8618 2.4957 42.122 2.44394 42.3847 2.44394C42.6474 2.44394 42.9076 2.4957 43.1503 2.59626C43.393 2.69682 43.6135 2.84421 43.7992 3.03001L59.3552 18.586C59.541 18.7717 59.6884 18.9923 59.789 19.235C59.8895 19.4777 59.9413 19.7378 59.9413 20.0005C59.9413 20.2632 59.8895 20.5234 59.789 20.7661C59.6884 21.0088 59.541 21.2293 59.3552 21.415L43.7992 36.972C43.6135 37.1578 43.393 37.3052 43.1503 37.4058C42.9076 37.5063 42.6474 37.5581 42.3847 37.5581C42.122 37.5581 41.8618 37.5063 41.6191 37.4058C41.3764 37.3052 41.1559 37.1578 40.9702 36.972L38.3852 34.386L35.7992 36.972C35.6135 37.1578 35.393 37.3052 35.1503 37.4058C34.9076 37.5063 34.6474 37.5581 34.3847 37.5581C34.122 37.5581 33.8618 37.5063 33.6191 37.4058C33.3764 37.3052 33.1559 37.1578 32.9702 36.972Z" fill="#42A9F3"/>
</mask>
<g mask="url(#mask1_657_7460)">
<g opacity="0.6" filter="url(#filter1_f_657_7460)">
<path d="M10 14C27.6731 14 42 3.92641 42 -8.5C42 -20.9264 27.6731 -31 10 -31C-7.67311 -31 -22 -20.9264 -22 -8.5C-22 3.92641 -7.67311 14 10 14Z" fill="#149CB7"/>
</g>
</g>
</g>
<defs>
<filter id="filter0_f_657_7460" x="-16" y="-33" width="69" height="70" filterUnits="userSpaceOnUse" color-interpolation-filters="sRGB">
<feFlood flood-opacity="0" result="BackgroundImageFix"/>
<feBlend mode="normal" in="SourceGraphic" in2="BackgroundImageFix" result="shape"/>
<feGaussianBlur stdDeviation="10" result="effect1_foregroundBlur_657_7460"/>
</filter>
<filter id="filter1_f_657_7460" x="-36" y="-45" width="92" height="73" filterUnits="userSpaceOnUse" color-interpolation-filters="sRGB">
<feFlood flood-opacity="0" result="BackgroundImageFix"/>
<feBlend mode="normal" in="SourceGraphic" in2="BackgroundImageFix" result="shape"/>
<feGaussianBlur stdDeviation="7" result="effect1_foregroundBlur_657_7460"/>
</filter>
<clipPath id="clip0_657_7460">
<rect width="60" height="40" fill="white"/>
</clipPath>
</defs>
</svg>
