<svg width="60" height="40" viewBox="0 0 60 40" fill="none" xmlns="http://www.w3.org/2000/svg">
<g opacity="0.1">
<rect x="12.6328" y="3.30573" width="17.1981" height="33.3118" fill="#F4F4F4"/>
<path fill-rule="evenodd" clip-rule="evenodd" d="M19.9089 22.0503H22.3783C22.4284 22.8103 23.0611 24.2129 23.8341 24.2129H24.1288C24.575 24.2129 25.0031 24.0355 25.3189 23.7207C25.6347 23.4048 25.8122 22.9767 25.8122 22.5306V17.8976C25.8122 17.2539 25.4452 16.6674 24.8677 16.3846L21.875 14.9248C21.4088 14.6973 20.8644 14.6973 20.3982 14.9248L17.4054 16.3846C16.8279 16.6674 16.4609 17.2539 16.4609 17.8976V22.5306C16.4609 22.9767 16.6384 23.4048 16.9542 23.7207C17.269 24.0355 17.6971 24.2129 18.1433 24.2129H18.4531C18.8401 24.2129 19.2111 24.0595 19.4848 23.7858C19.7354 23.5352 19.8848 22.4012 19.9089 22.0503Z" fill="#478BEB"/>
<path fill-rule="evenodd" clip-rule="evenodd" d="M31.198 5C31.198 3.1025 29.6592 1.5625 27.7605 1.5625H14.5117C12.613 1.5625 11.0742 3.1025 11.0742 5V35C11.0742 36.8988 12.613 38.4375 14.5117 38.4375H27.7605C29.6592 38.4375 31.198 36.8988 31.198 35V5ZM29.323 5V35C29.323 35.8638 28.623 36.5625 27.7605 36.5625H14.5117C13.648 36.5625 12.9492 35.8638 12.9492 35C12.9492 28.5575 12.9492 11.4438 12.9492 5C12.9492 4.1375 13.648 3.4375 14.5117 3.4375H27.7605C28.623 3.4375 29.323 4.1375 29.323 5Z" fill="#478BEB"/>
<path fill-rule="evenodd" clip-rule="evenodd" d="M27.6865 3.75V2.5C27.6865 1.9825 27.2665 1.5625 26.749 1.5625H15.499L14.5615 2.5175V3.75C14.5615 4.49625 14.8578 5.2125 15.3853 5.73875C15.9128 6.26625 16.629 6.5625 17.374 6.5625H24.874C25.6203 6.5625 26.3353 6.26625 26.8628 5.73875C27.3903 5.2125 27.6865 4.49625 27.6865 3.75Z" fill="#478BEB"/>
<path fill-rule="evenodd" clip-rule="evenodd" d="M17.374 35.7479H24.874C25.3915 35.7479 25.8115 35.3279 25.8115 34.8104C25.8115 34.2942 25.3915 33.8729 24.874 33.8729H17.374C16.8565 33.8729 16.4365 34.2942 16.4365 34.8104C16.4365 35.3279 16.8565 35.7479 17.374 35.7479Z" fill="#478BEB"/>
</g>
<g opacity="0.5">
<rect x="7.24609" y="2.95575" width="17.1981" height="33.3118" fill="#F4F4F4"/>
<path fill-rule="evenodd" clip-rule="evenodd" d="M14.5222 21.7004H16.9916C17.0417 22.4603 17.6743 23.863 18.4473 23.863H18.7421C19.1883 23.863 19.6164 23.6855 19.9322 23.3707C20.248 23.0549 20.4255 22.6268 20.4255 22.1806V17.5476C20.4255 16.9039 20.0585 16.3174 19.481 16.0347L16.4883 14.5749C16.0221 14.3473 15.4776 14.3473 15.0114 14.5749L12.0187 16.0347C11.4412 16.3174 11.0742 16.9039 11.0742 17.5476V22.1806C11.0742 22.6268 11.2517 23.0549 11.5675 23.3707C11.8823 23.6855 12.3104 23.863 12.7566 23.863H13.0664C13.4534 23.863 13.8244 23.7096 14.0981 23.4359C14.3487 23.1852 14.4981 22.0513 14.5222 21.7004Z" fill="#478BEB"/>
<path fill-rule="evenodd" clip-rule="evenodd" d="M25.8112 4.65002C25.8112 2.75252 24.2725 1.21252 22.3737 1.21252H9.125C7.22625 1.21252 5.6875 2.75252 5.6875 4.65002V34.65C5.6875 36.5488 7.22625 38.0875 9.125 38.0875H22.3737C24.2725 38.0875 25.8112 36.5488 25.8112 34.65V4.65002ZM23.9362 4.65002V34.65C23.9362 35.5138 23.2362 36.2125 22.3737 36.2125H9.125C8.26125 36.2125 7.5625 35.5138 7.5625 34.65C7.5625 28.2075 7.5625 11.0938 7.5625 4.65002C7.5625 3.78752 8.26125 3.08752 9.125 3.08752H22.3737C23.2362 3.08752 23.9362 3.78752 23.9362 4.65002Z" fill="#478BEB"/>
<path fill-rule="evenodd" clip-rule="evenodd" d="M22.2998 3.40002V2.15002C22.2998 1.63252 21.8798 1.21252 21.3623 1.21252H10.1123L9.1748 2.16752V3.40002C9.1748 4.14627 9.47105 4.86252 9.99855 5.38877C10.5261 5.91627 11.2423 6.21252 11.9873 6.21252H19.4873C20.2336 6.21252 20.9486 5.91627 21.4761 5.38877C22.0036 4.86252 22.2998 4.14627 22.2998 3.40002Z" fill="#478BEB"/>
<path fill-rule="evenodd" clip-rule="evenodd" d="M11.9873 35.3979H19.4873C20.0048 35.3979 20.4248 34.9779 20.4248 34.4604C20.4248 33.9442 20.0048 33.5229 19.4873 33.5229H11.9873C11.4698 33.5229 11.0498 33.9442 11.0498 34.4604C11.0498 34.9779 11.4698 35.3979 11.9873 35.3979Z" fill="#478BEB"/>
</g>
<rect x="1.55859" y="2.95575" width="17.1981" height="33.3118" fill="#F4F4F4"/>
<path fill-rule="evenodd" clip-rule="evenodd" d="M8.83466 21.7004H11.3041C11.3542 22.4603 11.9868 23.863 12.7598 23.863H13.0546C13.5008 23.863 13.9289 23.6855 14.2447 23.3707C14.5605 23.0549 14.738 22.6268 14.738 22.1806V17.5476C14.738 16.9039 14.371 16.3174 13.7935 16.0347L10.8008 14.5749C10.3346 14.3473 9.79014 14.3473 9.32393 14.5749L6.33117 16.0347C5.75367 16.3174 5.38672 16.9039 5.38672 17.5476V22.1806C5.38672 22.6268 5.56418 23.0549 5.88 23.3707C6.19481 23.6855 6.62293 23.863 7.06908 23.863H7.37889C7.76589 23.863 8.13685 23.7096 8.41056 23.4359C8.66121 23.1852 8.8106 22.0513 8.83466 21.7004Z" fill="#478BEB"/>
<path fill-rule="evenodd" clip-rule="evenodd" d="M20.1237 4.65002C20.1237 2.75252 18.585 1.21252 16.6862 1.21252H3.4375C1.53875 1.21252 0 2.75252 0 4.65002V34.65C0 36.5488 1.53875 38.0875 3.4375 38.0875H16.6862C18.585 38.0875 20.1237 36.5488 20.1237 34.65V4.65002ZM18.2487 4.65002V34.65C18.2487 35.5138 17.5487 36.2125 16.6862 36.2125H3.4375C2.57375 36.2125 1.875 35.5138 1.875 34.65C1.875 28.2075 1.875 11.0938 1.875 4.65002C1.875 3.78752 2.57375 3.08752 3.4375 3.08752H16.6862C17.5487 3.08752 18.2487 3.78752 18.2487 4.65002Z" fill="#478BEB"/>
<path fill-rule="evenodd" clip-rule="evenodd" d="M16.6123 3.40002V2.15002C16.6123 1.63252 16.1923 1.21252 15.6748 1.21252H4.4248L3.4873 2.16752V3.40002C3.4873 4.14627 3.78355 4.86252 4.31105 5.38877C4.83855 5.91627 5.5548 6.21252 6.2998 6.21252H13.7998C14.5461 6.21252 15.2611 5.91627 15.7886 5.38877C16.3161 4.86252 16.6123 4.14627 16.6123 3.40002Z" fill="#478BEB"/>
<path fill-rule="evenodd" clip-rule="evenodd" d="M6.2998 35.3979H13.7998C14.3173 35.3979 14.7373 34.9779 14.7373 34.4604C14.7373 33.9442 14.3173 33.5229 13.7998 33.5229H6.2998C5.7823 33.5229 5.3623 33.9442 5.3623 34.4604C5.3623 34.9779 5.7823 35.3979 6.2998 35.3979Z" fill="#478BEB"/>
</svg>
