<svg width="60" height="40" viewBox="0 0 60 40" fill="none" xmlns="http://www.w3.org/2000/svg">
<circle cx="18.525" cy="20" r="18.025" fill="#448BE8" stroke="url(#paint0_linear_657_7495)"/>
<path fill-rule="evenodd" clip-rule="evenodd" d="M12.2348 9.60616C12.5762 9.45451 12.9673 9.63349 13.099 9.98311C13.2307 10.3331 13.0527 10.7221 12.7123 10.8767C11.0901 11.6133 9.68555 12.7641 8.64296 14.2185C7.46852 15.8569 6.8059 17.8072 6.73964 19.822C6.67345 21.8366 7.20573 23.8259 8.26991 25.5378C9.21473 27.0577 10.5413 28.2987 12.1117 29.1403C12.4412 29.317 12.5932 29.7159 12.4389 30.0564C12.2845 30.3969 11.8821 30.5497 11.5512 30.3757C9.73755 29.4217 8.20667 27.9999 7.1205 26.2526C5.91487 24.3132 5.31105 22.0595 5.38612 19.7771C5.4612 17.4947 6.21192 15.2854 7.54237 13.4294C8.74105 11.7573 10.3623 10.4388 12.2348 9.60616ZM23.9506 9.98311C24.0823 9.6335 24.4734 9.45461 24.8148 9.60616C26.6872 10.4388 28.3085 11.7574 29.5072 13.4294C30.8377 15.2854 31.5884 17.4947 31.6635 19.7771C31.7385 22.0595 31.1347 24.3132 29.9291 26.2526C28.8429 27.9999 27.3121 29.4217 25.4984 30.3757C25.1675 30.5497 24.7651 30.3969 24.6107 30.0564C24.4564 29.7159 24.6085 29.317 24.9379 29.1403C26.5083 28.2987 27.8349 27.0577 28.7797 25.5378C29.8439 23.8259 30.3761 21.8366 30.3099 19.822C30.2437 17.8073 29.582 15.8568 28.4076 14.2185C27.365 12.7639 25.9596 11.6133 24.3373 10.8767C23.9968 10.7221 23.8189 10.3331 23.9506 9.98311ZM13.6859 13.613C14.0472 13.4341 14.4706 13.6283 14.6127 14.0056C14.7546 14.3828 14.5609 14.7999 14.2045 14.988C13.4044 15.4094 12.7098 16.0132 12.1791 16.7536C11.506 17.6926 11.1263 18.8099 11.0883 19.9646C11.0503 21.1193 11.3553 22.2597 11.9652 23.2409C12.4461 24.0145 13.0999 24.6614 13.8705 25.1345C14.2142 25.3455 14.3798 25.775 14.2133 26.1423C14.0468 26.5094 13.6118 26.6755 13.2631 26.4733C12.2315 25.875 11.3585 25.0305 10.725 24.0114C9.96265 22.785 9.58085 21.36 9.62831 19.9167C9.67578 18.4735 10.1504 17.0767 10.9916 15.903C11.6907 14.9278 12.6172 14.1422 13.6859 13.613ZM22.4369 14.0056C22.5789 13.6283 23.0024 13.4342 23.3637 13.613C24.4323 14.1422 25.3589 14.9278 26.058 15.903C26.8992 17.0767 27.3738 18.4734 27.4213 19.9167C27.4687 21.36 27.087 22.785 26.3246 24.0114C25.6911 25.0305 24.8181 25.875 23.7865 26.4733C23.4378 26.6754 23.0028 26.5094 22.8363 26.1423C22.6698 25.775 22.8355 25.3455 23.1791 25.1345C23.9497 24.6614 24.6035 24.0145 25.0844 23.2409C25.6943 22.2597 25.9993 21.1193 25.9613 19.9646C25.9233 18.8099 25.5436 17.6926 24.8705 16.7536C24.3398 16.0133 23.6461 15.4094 22.8461 14.988C22.4893 14.8 22.2949 14.383 22.4369 14.0056ZM18.6625 16.3933C20.7409 16.3933 22.4262 18.0785 22.4262 20.1569C22.426 22.2352 20.7408 23.9196 18.6625 23.9196C16.5842 23.9196 14.8989 22.2352 14.8988 20.1569C14.8988 18.0785 16.5841 16.3933 18.6625 16.3933Z" fill="url(#paint1_linear_657_7495)"/>
<defs>
<linearGradient id="paint0_linear_657_7495" x1="18.525" y1="1.47498" x2="18.525" y2="38.525" gradientUnits="userSpaceOnUse">
<stop stop-color="#33A3D0"/>
<stop offset="1" stop-color="#33A3D0" stop-opacity="0"/>
</linearGradient>
<linearGradient id="paint1_linear_657_7495" x1="31.6697" y1="20" x2="5.37988" y2="20" gradientUnits="userSpaceOnUse">
<stop stop-color="#D1DFF2" stop-opacity="0.35"/>
<stop offset="0.5" stop-color="white"/>
<stop offset="1" stop-color="#D1DFF2" stop-opacity="0.35"/>
</linearGradient>
</defs>
</svg>
