<svg width="64" height="64" viewBox="0 0 64 64" fill="none" xmlns="http://www.w3.org/2000/svg">
<path fill-rule="evenodd" clip-rule="evenodd" d="M7 31.294V59.588L7.28425 60.0098C8.1805 61.3398 9.8195 61.3398 10.7157 60.0098L11 59.588V40.7374C11 26.9935 11.0382 21.8028 11.1412 21.5769C11.4575 20.8826 12.5425 20.8826 12.8588 21.5769C12.9618 21.8028 13 26.9935 13 40.7374V59.588L13.2843 60.0098C14.1805 61.3398 15.8195 61.3398 16.7157 60.0098L17 59.588V31.294V3H15H13V10.6346V18.2693L12.6346 18.6346C12.1725 19.0968 11.8275 19.0968 11.3654 18.6346L11 18.2693V10.6346V3H9H7V31.294ZM28.1695 3.40625C28.2092 3.62975 29.0604 9.69063 30.0609 16.875C31.0614 24.0594 31.9005 30.0219 31.9255 30.125C31.9505 30.2281 31.9775 24.1672 31.9855 16.6562L32 3H30.0486H28.0971L28.1695 3.40625ZM34.0001 24.0312V45.0625L34.5024 48.5956C35.0541 52.4779 35.0629 52.2521 34.3219 53.243L34 53.6736V56.6307C34 59.4997 34.0085 59.6006 34.2842 60.0098C35.1805 61.3398 36.8195 61.3398 37.7158 60.0098L38 59.588V31.294V3H36H34L34.0001 24.0312ZM40 31.294V59.588L40.2842 60.0098C41.1805 61.3398 42.8195 61.3398 43.7158 60.0098L44 59.588V31.294V3H42H40V31.294ZM3.30687 6.30688C3.11337 6.50025 3 6.7565 3 7C3 7.63825 3.47275 8 4.30688 8H5V7V6H4.30688C3.7375 6 3.55875 6.05488 3.30687 6.30688ZM19 7V8H22.951H26.9021L26.8354 7.71875C26.7986 7.56413 26.7297 7.11413 26.6824 6.71875L26.5963 6H22.7981H19V7ZM46 7V8H46.6931C47.5273 8 48 7.63825 48 7C48 6.36175 47.5273 6 46.6931 6H46V7ZM30.2486 33.3854C30.2477 33.5516 29.8018 39.2274 29.2572 45.9982C28.7129 52.7692 28.2847 58.3264 28.3059 58.3475C28.327 58.3686 29.3889 56.8931 30.6658 55.0686L32.9871 51.7514L31.6881 42.4869C30.9738 37.3915 30.3579 33.1912 30.3196 33.1529C30.2814 33.1146 30.2494 33.2193 30.2486 33.3854ZM54.25 35.1974C53.025 35.5198 52.001 36.1253 50.9688 37.1376C50.1775 37.9136 50 38.158 50 38.4711C50 39.0309 50.1106 39.2361 50.5286 39.4523C51.0659 39.7301 51.3647 39.6029 52.2635 38.7136C53.9826 37.0128 56.1006 36.591 58.1685 37.5378C58.5247 37.7007 59.2508 38.2371 59.7819 38.7296C60.313 39.2221 60.8353 39.625 60.9425 39.625C61.2444 39.625 61.836 39.282 61.9224 39.0569C61.965 38.9456 62 38.678 62 38.4624C62 38.1383 61.8319 37.9051 61.0312 37.1198C59.9849 36.0933 58.9999 35.524 57.6925 35.1903C56.7684 34.9543 55.161 34.9576 54.25 35.1974ZM54.5244 39.0737C53.794 39.4377 53.125 40.1631 53.125 40.591C53.125 40.7472 53.2375 40.9875 53.375 41.125C53.7552 41.5052 54.2729 41.4406 54.875 40.9375C55.314 40.5708 55.4959 40.5 56 40.5C56.5041 40.5 56.686 40.5708 57.125 40.9375C57.7271 41.4406 58.2448 41.5052 58.625 41.125C58.9753 40.7747 58.9368 40.3817 58.5003 39.8522C57.9286 39.1587 57.0014 38.75 56 38.75C55.3619 38.75 55.0264 38.8236 54.5244 39.0737ZM51.6447 44.3251C50.9182 44.6881 50.3329 45.3736 50.1172 46.1139C50.0315 46.4086 49.9996 48.8594 50.0246 53.2599L50.0625 59.9574L50.4408 60.5691C50.6753 60.9482 51.0519 61.3247 51.431 61.5592L52.0429 61.9375H56H59.9571L60.569 61.5592C60.9482 61.3247 61.3247 60.9482 61.5592 60.569L61.9375 59.9571V53V46.0429L61.5592 45.431C61.3249 45.052 60.9481 44.6751 60.5692 44.4408L59.9577 44.0625L56.1351 44.027L52.3125 43.9915L51.6447 44.3251ZM55.5455 46.1411C55.2696 46.2799 55 46.743 55 47.078C55 47.3921 55.6979 48 56.0586 48C56.5122 48 57 48.5181 57 49C57 49.5139 56.5139 50 56 50C55.5536 50 55 49.522 55 49.1366C55 48.3679 54.299 47.8459 53.6357 48.1205C52.7634 48.4819 52.8779 49.986 53.858 51.0428C54.966 52.2371 57.034 52.2371 58.142 51.0428C58.7116 50.4286 58.9209 49.8799 58.9209 49C58.9209 47.8209 58.3714 46.8898 57.3721 46.3755C56.8094 46.0859 55.8899 45.968 55.5455 46.1411ZM55.3125 54.1169C53.6521 54.5211 52.703 56.1643 53.1806 57.8074C53.57 59.1466 54.6021 59.92 56 59.92C57.7276 59.92 58.9213 58.7265 58.9205 57C58.9198 55.6205 58.1528 54.5785 56.8541 54.1929C56.1581 53.9862 55.9012 53.9735 55.3125 54.1169ZM55.3069 56.3069C55.1134 56.5002 55 56.7565 55 57C55 57.2435 55.1134 57.4998 55.3069 57.6931C55.5002 57.8866 55.7565 58 56 58C56.2435 58 56.4998 57.8866 56.6931 57.6931C56.8866 57.4998 57 57.2435 57 57C57 56.7565 56.8866 56.5002 56.6931 56.3069C56.4998 56.1134 56.2435 56 56 56C55.7565 56 55.5002 56.1134 55.3069 56.3069ZM30.4114 58.8146L28.8854 61H29.7367C30.7056 61 31.2229 60.7411 31.7157 60.0098C31.9718 59.63 32 59.4405 32 58.1065C32 57.2916 31.9859 56.626 31.9688 56.6271C31.9516 56.6284 31.2507 57.6128 30.4114 58.8146Z" fill="black"/>
</svg>
