<svg width="170" height="170" viewBox="0 0 170 170" fill="none" xmlns="http://www.w3.org/2000/svg">
<g clip-path="url(#clip0_12157_86773)">
<path fill-rule="evenodd" clip-rule="evenodd" d="M85 170C15.0025 170 0 154.997 0 85C0 15.0025 15.0025 0 85 0C154.997 0 170 15.0025 170 85C170 154.997 154.997 170 85 170ZM77.9167 42.5C77.9167 38.5878 81.0886 35.4167 85 35.4167C88.9114 35.4167 92.0833 38.5878 92.0833 42.5V77.9167H127.5C131.411 77.9167 134.583 81.0879 134.583 85C134.583 88.9121 131.411 92.0833 127.5 92.0833H85C81.0886 92.0833 77.9167 88.9121 77.9167 85V42.5Z" fill="white"/>
</g>
<defs>
<clipPath id="clip0_12157_86773">
<rect width="170" height="170" fill="white"/>
</clipPath>
</defs>
</svg>
