<svg width="132" height="132" viewBox="0 0 132 132" fill="none" xmlns="http://www.w3.org/2000/svg">
<rect x="2" y="2" width="128" height="128" rx="30" fill="url(#paint0_radial_12157_86607)"/>
<rect x="2" y="2" width="128" height="128" rx="30" stroke="#73ADFF" stroke-width="4"/>
<path d="M85.7248 91.0304H82.9087V38.7936C82.9087 37.072 81.5008 35.6 79.7152 35.6H52.2848C50.5632 35.6 49.0912 37.008 49.0912 38.7936V91.0943H46.2752C45.5072 91.0943 44.8672 91.7343 44.8672 92.5024V94.992C44.8672 95.76 45.5072 96.4 46.2752 96.4H59.6064V82.3456C59.6064 81.7568 60.0864 81.2768 60.6752 81.2768H71.3248C71.9136 81.2768 72.3936 81.7568 72.3936 82.3456V96.4H85.7248C86.4928 96.4 87.1328 95.76 87.1328 94.992V92.5024C87.1328 91.6704 86.4928 91.0304 85.7248 91.0304ZM63.28 73.9616C63.28 74.5376 62.8384 75.0496 62.1984 75.0496H57.2704C56.7008 75.0496 56.1887 74.6016 56.1887 73.9616V69.04C56.1887 68.464 56.6368 67.952 57.2704 67.952H62.1984C62.7744 67.952 63.28 68.4 63.28 69.04V73.9616ZM63.28 61.3024C63.28 61.8784 62.8384 62.3904 62.1984 62.3904H57.2704C56.7008 62.3904 56.1887 61.9424 56.1887 61.3024V56.3808C56.1887 55.8048 56.6368 55.2927 57.2704 55.2927H62.1984C62.7744 55.2927 63.28 55.7408 63.28 56.3808V61.3024ZM63.28 48.6432C63.28 49.2192 62.8384 49.7311 62.1984 49.7311H57.2704C56.7008 49.7311 56.1887 49.2832 56.1887 48.6432V43.7216C56.1887 43.1456 56.6368 42.6336 57.2704 42.6336H62.1984C62.7744 42.6336 63.28 43.0816 63.28 43.7216V48.6432ZM75.9392 73.9616C75.9392 74.5376 75.4912 75.0496 74.8577 75.0496H69.9296C69.3536 75.0496 68.848 74.6016 68.848 73.9616V69.04C68.848 68.464 69.296 67.952 69.9296 67.952H74.8577C75.4272 67.952 75.9392 68.4 75.9392 69.04V73.9616ZM75.9392 61.3024C75.9392 61.8784 75.4912 62.3904 74.8577 62.3904H69.9296C69.3536 62.3904 68.848 61.9424 68.848 61.3024V56.3808C68.848 55.8048 69.296 55.2927 69.9296 55.2927H74.8577C75.4272 55.2927 75.9392 55.7408 75.9392 56.3808V61.3024ZM75.9392 48.6432C75.9392 49.2192 75.4912 49.7311 74.8577 49.7311H69.9296C69.3536 49.7311 68.848 49.2832 68.848 48.6432V43.7216C68.848 43.1456 69.296 42.6336 69.9296 42.6336H74.8577C75.4272 42.6336 75.9392 43.0816 75.9392 43.7216V48.6432Z" fill="white"/>
<defs>
<radialGradient id="paint0_radial_12157_86607" cx="0" cy="0" r="1" gradientUnits="userSpaceOnUse" gradientTransform="translate(66 66) rotate(90) scale(66)">
<stop stop-color="#00D0FF"/>
<stop offset="1" stop-color="#478BEB"/>
</radialGradient>
</defs>
</svg>
