<svg width="42" height="42" viewBox="0 0 42 42" fill="none" xmlns="http://www.w3.org/2000/svg">
<path d="M24 36H19.2942C10.8607 36 4 29.0464 4 20.5C4 11.9536 10.8607 5 19.2942 5H24V8.03371H19.2942C13.4561 8.03371 6.99339 14.5828 6.99339 20.5001C6.99339 26.4174 13.4561 32.9665 19.2942 32.9665H24V36Z" fill="white"/>
<path d="M35.5 8C36.8807 8 38 6.88071 38 5.5C38 4.11929 36.8807 3 35.5 3C34.1193 3 33 4.11929 33 5.5C33 6.88071 34.1193 8 35.5 8Z" fill="white"/>
<path d="M39 11.0566V12H32V11.0566C32 10.2453 32.4199 9.51884 33.0967 9C33.7734 9.40564 34.6017 9.64149 35.4999 9.64149C36.3982 9.64149 37.2266 9.40564 37.9032 9C37.9266 9.01884 37.9499 9.03767 37.9732 9.0566C38.6032 9.56606 39 10.2736 39 11.0566Z" fill="white"/>
<path d="M35.5 34C36.8807 34 38 32.8807 38 31.5C38 30.1193 36.8807 29 35.5 29C34.1193 29 33 30.1193 33 31.5C33 32.8807 34.1193 34 35.5 34Z" fill="white"/>
<path d="M39 36.7421V38H32V36.7421C32 35.6604 32.4199 34.6918 33.0967 34C33.7734 34.5409 34.6017 34.8553 35.4999 34.8553C36.3982 34.8553 37.2266 34.5409 37.9032 34C37.9266 34.0251 37.9499 34.0502 37.9732 34.0755C38.6032 34.7547 39 35.6982 39 36.7421Z" fill="white"/>
<path d="M28.9928 10C28.3961 10 28.0669 9.94077 27.802 9.89221C27.579 9.85188 27.4033 9.81989 27.0072 9.81989C26.4512 9.81989 26 9.41226 26 8.90994C26 8.40763 26.4512 8 27.0072 8C27.6039 8 27.9331 8.05923 28.198 8.10779C28.421 8.14812 28.5967 8.18011 28.9928 8.18011C29.5488 8.18011 30 8.58774 30 9.09006C30 9.59237 29.5488 10 28.9928 10Z" fill="white"/>
<path d="M28.9928 7C28.3961 7 28.0669 6.94077 27.802 6.89221C27.579 6.85188 27.4033 6.81989 27.0072 6.81989C26.4512 6.81989 26 6.41226 26 5.90994C26 5.40763 26.4512 5 27.0072 5C27.6039 5 27.9331 5.05923 28.198 5.10779C28.421 5.14812 28.5967 5.18011 28.9928 5.18011C29.5488 5.18011 30 5.58774 30 6.09006C30 6.59237 29.5488 7 28.9928 7Z" fill="white"/>
<path d="M28.9928 36C28.3961 36 28.0669 35.9408 27.802 35.8922C27.579 35.8519 27.4033 35.8199 27.0072 35.8199C26.4512 35.8199 26 35.4123 26 34.9099C26 34.4076 26.4512 34 27.0072 34C27.6039 34 27.9331 34.0592 28.198 34.1078C28.421 34.1481 28.5967 34.1801 28.9928 34.1801C29.5488 34.1801 30 34.5877 30 35.0901C30 35.5924 29.5488 36 28.9928 36Z" fill="white"/>
<path d="M28.9928 33C28.3961 33 28.0669 32.9408 27.802 32.8922C27.579 32.8519 27.4033 32.8199 27.0072 32.8199C26.4512 32.8199 26 32.4123 26 31.9099C26 31.4076 26.4512 31 27.0072 31C27.6039 31 27.9331 31.0592 28.198 31.1078C28.421 31.1481 28.5967 31.1801 28.9928 31.1801C29.5488 31.1801 30 31.5877 30 32.0901C30 32.5924 29.5488 33 28.9928 33Z" fill="white"/>
</svg>
