<svg width="42" height="42" viewBox="0 0 42 42" fill="none" xmlns="http://www.w3.org/2000/svg">
<path fill-rule="evenodd" clip-rule="evenodd" d="M15.9873 28.5152C16.1953 28.614 16.4269 28.7178 16.6602 28.8052C17.6102 28.9668 18.6391 29.3497 19.8955 29.0709C18.9073 29.3044 17.9135 29.2303 16.9482 28.9136C16.6222 28.8067 16.3022 28.6714 15.9873 28.5152ZM20.4619 28.9019C20.2677 28.974 20.0795 29.03 19.8955 29.0709C20.0847 29.0261 20.2734 28.9697 20.4619 28.9019ZM20.5371 28.8746C20.5121 28.884 20.487 28.8929 20.4619 28.9019C20.4868 28.8927 20.5121 28.8844 20.5371 28.8746ZM29.9209 13.5074C29.9033 13.6383 29.8945 13.772 29.8945 13.9078C29.8946 14.5093 30.0726 15.0692 30.3789 15.5376C28.712 16.5559 27.5445 18.5151 26.5039 21.1675C25.1821 24.5367 23.7158 26.7527 22.0986 27.9937C21.6266 28.3559 21.1454 28.6278 20.6621 28.8238C20.7502 28.7864 20.8404 28.7475 20.9307 28.7027C21.1176 28.5338 21.2265 28.3031 21.2266 27.9937C21.2266 27.4335 21.0723 26.9093 20.8037 26.4615C20.8289 26.4429 20.8557 26.4261 20.8809 26.4068C22.0767 25.4892 23.3752 23.6676 24.6426 20.4371C25.7639 17.5787 27.2236 14.9237 29.7354 13.6001L29.9209 13.5074ZM15.2637 28.1119C15.5012 28.2588 15.7425 28.3937 15.9873 28.5152C15.6383 28.3494 15.3583 28.1927 15.2646 28.1177C15.2646 28.1158 15.2637 28.1138 15.2637 28.1119ZM1.87305 16.7095C2.37705 16.9642 2.94607 17.0851 3.62207 17.1568C3.75558 17.1709 3.89029 17.1811 4.02734 17.1919C3.99708 17.1903 3.96681 17.1887 3.93652 17.1871C3.86041 17.3334 3.79544 17.4867 3.74414 17.646C3.65134 17.9343 3.60157 18.242 3.60156 18.5611C3.60156 18.7664 3.62252 18.967 3.66211 19.1607C5.84089 19.2693 7.14323 19.2668 8.45312 20.5914C8.69589 20.2034 9.32445 19.4324 9.51172 18.8531C9.9376 19.2284 10.3417 19.6864 10.7158 20.2476C11.6833 21.6989 12.7946 23.2074 13.9873 24.4546C14.6269 25.1235 15.2702 25.6946 15.9062 26.1412C15.8797 26.1889 15.2617 27.3082 15.2617 27.9937C15.2617 28.0333 15.2621 28.0727 15.2637 28.1119C14.2876 27.5082 13.3742 26.7068 12.542 25.8365C11.234 24.4687 10.0487 22.8525 9.05176 21.357C8.52808 20.5715 7.98218 20.1167 7.44141 19.8335C6.89067 19.5453 6.29057 19.4064 5.6123 19.3257C5.27122 19.2852 4.92281 19.2605 4.55176 19.2359C4.18883 19.2118 3.79831 19.1871 3.41113 19.146C2.63362 19.0636 1.78811 18.9077 0.970703 18.4947L1.87305 16.7095ZM20.8037 26.4615C19.699 27.2771 18.6402 27.3639 17.5713 27.0132C17.3701 26.9472 17.1679 26.8633 16.9639 26.7662C17.804 27.0868 19.1737 27.681 20.8018 26.4585C20.8023 26.4594 20.8032 26.4606 20.8037 26.4615ZM16.9639 26.7662C16.9617 26.7654 16.9592 26.765 16.957 26.7642C16.948 26.7608 16.9381 26.7544 16.9258 26.7486C16.9384 26.7547 16.9513 26.7602 16.9639 26.7662ZM16.9258 26.7486C16.9174 26.7445 16.9088 26.741 16.9004 26.7369C16.9094 26.7414 16.918 26.7449 16.9258 26.7486ZM15.9072 26.1402C15.9072 26.1402 16.5374 26.5413 16.8359 26.7037C16.5284 26.5484 16.2181 26.3601 15.9062 26.1412L15.9072 26.1402ZM9.51562 18.8453C9.51476 18.848 9.51261 18.8503 9.51172 18.8531C9.45247 18.8009 9.39415 18.7487 9.33398 18.6998C9.39395 18.7475 9.45593 18.7942 9.51562 18.8453ZM9.27051 18.649C9.2917 18.6657 9.31291 18.6826 9.33398 18.6998C9.31269 18.6828 9.29183 18.6655 9.27051 18.649ZM8.9043 18.3833C8.96865 18.4266 9.03227 18.4716 9.0957 18.5181C9.03173 18.4719 8.96856 18.4262 8.9043 18.3833ZM8.56543 18.1724C8.64163 18.2162 8.71698 18.2622 8.79199 18.3101C8.71655 18.2622 8.64125 18.216 8.56543 18.1724ZM8.36914 18.0621C8.40188 18.0792 8.43329 18.0989 8.46582 18.1167C8.38984 18.075 8.31366 18.0354 8.2373 17.9976C8.28091 18.019 8.32561 18.0393 8.36914 18.0621ZM7.93848 17.8599C7.99939 17.8857 8.06023 17.9127 8.12109 17.941C8.06042 17.9126 7.99937 17.886 7.93848 17.8599ZM7.6709 17.7535C7.70076 17.7645 7.73087 17.7751 7.76074 17.7867C7.73095 17.775 7.70075 17.7646 7.6709 17.7535ZM4.02734 17.1919C5.27073 17.2576 6.49042 17.3117 7.6709 17.7535C7.04971 17.5244 6.432 17.4088 5.84863 17.3394C5.44951 17.2919 5.05359 17.2643 4.68457 17.2398C4.4559 17.2246 4.2387 17.2087 4.02734 17.1919ZM35.71 12.9722C37.2909 13.286 39.0572 13.9129 41.0391 14.8765L40.6025 15.7759L40.165 16.6753C38.4202 15.8269 36.9308 15.2911 35.6514 15.0025C35.7853 14.6635 35.8594 14.2943 35.8594 13.9078C35.8594 13.581 35.807 13.2664 35.71 12.9722ZM30.8457 15.2808C32.0151 14.7204 33.55 14.5285 35.6514 15.0025C35.6508 15.004 35.651 15.0059 35.6504 15.0074C34.3755 14.7121 32.1507 14.4253 30.3799 15.5396L30.3789 15.5376C30.5307 15.4449 30.6853 15.3577 30.8457 15.2808ZM30.9307 13.1021C30.6033 13.2059 30.2869 13.3307 29.9814 13.4771C29.9611 13.4869 29.9411 13.4974 29.9209 13.5074C30.1894 13.3618 30.5299 13.2214 30.9307 13.1021ZM30.9307 13.1021C32.1603 12.7124 33.5491 12.626 35.1309 12.8697C33.45 12.621 31.9822 12.7891 30.9307 13.1021ZM35.1309 12.8697C35.3207 12.8978 35.514 12.9291 35.709 12.9683C35.7094 12.9695 35.7096 12.971 35.71 12.9722C35.5141 12.9333 35.3211 12.899 35.1309 12.8697Z" fill="white"/>
<circle cx="18.2528" cy="27.9938" r="1.79186" fill="white"/>
<circle cx="6.58873" cy="18.5614" r="1.79186" fill="white"/>
<circle cx="32.8778" cy="13.9068" r="1.79186" fill="white"/>
</svg>
