<svg width="18" height="18" viewBox="0 0 18 18" fill="none" xmlns="http://www.w3.org/2000/svg">
<g clip-path="url(#clip0_333_3856)">
<path d="M0 8.64C0 4.56705 0 2.5306 1.2653 1.2653C2.5306 0 4.56705 0 8.64 0H9.36C13.433 0 15.4694 0 16.7347 1.2653C18 2.5306 18 4.56705 18 8.64V9.36C18 13.433 18 15.4694 16.7347 16.7347C15.4694 18 13.433 18 9.36 18H8.64C4.56705 18 2.5306 18 1.2653 16.7347C0 15.4694 0 13.433 0 9.36V8.64Z" fill="#0A051A"/>
<path d="M9.57756 12.9671C5.47506 12.9671 3.1351 10.1546 3.0376 5.47461H5.0926C5.1601 8.90961 6.67506 10.3646 7.87506 10.6646V5.47461H9.81014V8.43711C10.9951 8.30961 12.24 6.95961 12.66 5.47461H14.595C14.2725 7.30461 12.9225 8.65461 11.9625 9.20961C12.9225 9.65961 14.4601 10.8371 15.0451 12.9671H12.915C12.4575 11.5421 11.3176 10.4396 9.81014 10.2896V12.9671H9.57756Z" fill="#F4F4F4"/>
</g>
<defs>
<clipPath id="clip0_333_3856">
<rect width="18" height="18" fill="white"/>
</clipPath>
</defs>
</svg>
