<svg width="18" height="18" viewBox="0 0 18 18" fill="none" xmlns="http://www.w3.org/2000/svg">
<g clip-path="url(#clip0_333_3852)">
<path d="M8.99063 15.2068C8.99063 15.2068 14.6294 15.2068 16.0281 14.8343C16.8156 14.6233 17.4079 14.015 17.6157 13.264C18.0001 11.8861 18.0001 8.98745 18.0001 8.98745C18.0001 8.98745 18.0001 6.10745 17.6157 4.74193C17.4079 3.97228 16.8156 3.37641 16.0281 3.17159C14.6294 2.79297 8.99063 2.79297 8.99063 2.79297C8.99063 2.79297 3.36443 2.79297 1.97206 3.17159C1.19712 3.37641 0.592291 3.97228 0.37178 4.74193C6.1141e-05 6.10745 6.10352e-05 8.98745 6.10352e-05 8.98745C6.10352e-05 8.98745 6.1141e-05 11.8861 0.37178 13.264C0.592291 14.015 1.19712 14.6233 1.97206 14.8343C3.36443 15.2068 8.99063 15.2068 8.99063 15.2068Z" fill="#0A051A"/>
<path d="M11.7934 9.00024L7.13824 6.3623V11.6382L11.7934 9.00024Z" fill="#F4F4F4"/>
</g>
<defs>
<clipPath id="clip0_333_3852">
<rect width="18" height="18" fill="white"/>
</clipPath>
</defs>
</svg>
