<svg width="32" height="32" viewBox="0 0 32 32" fill="none" xmlns="http://www.w3.org/2000/svg">
<path d="M23.2366 16.3367C23.0233 18.023 22.5034 19.666 21.6869 21.1924C20.6897 23.0392 19.3789 24.5155 17.7343 25.6981C16.7848 26.3623 15.7733 26.8301 14.7116 27.3011C14.076 27.5803 13.3748 27.8917 12.8086 28.2809C12.2847 28.6279 11.6857 29.2226 11.1823 30.0572C11.1223 30.1572 11.0124 30.2206 10.8957 30.2206H8.45288C8.259 30.2206 8.11306 30.0541 8.11963 29.8773C8.14963 28.9075 8.31956 27.9611 8.62619 27.0612C9.28988 25.1761 10.1594 24.1317 11.4922 22.6421C12.3814 21.6382 12.9467 21.0206 13.2586 19.9927C13.7263 18.5356 13.5232 17.0792 12.892 16.1268C9.72869 17.1954 6.5 14.8241 6.5 11.5411C6.5 8.87162 8.66956 6.70206 11.339 6.70206C11.399 6.70206 11.4623 6.70875 11.5223 6.70875C11.2004 2.97819 14.098 0 17.6177 0C21.2684 0 24.0509 3.14806 23.7131 6.70862C23.7731 6.70862 23.8364 6.70194 23.8998 6.70194C26.5659 6.70194 28.7388 8.8715 28.7388 11.5409C28.7388 14.4586 26.1556 16.7409 23.2366 16.3367Z" fill="#262626"/>
<path d="M30.2292 28.5941C29.8626 30.0371 29.0195 31.2569 27.923 31.9467C27.6605 32.1012 27.3536 31.8769 27.4198 31.5901C27.7065 30.327 27.8197 29.2839 27.7698 28.3041C27.7365 27.2643 27.4898 26.3844 27.1699 25.3447C26.86 24.2983 26.4367 22.8685 26.71 21.3455C26.8533 20.529 27.2398 19.7625 27.7664 19.2459C28.373 18.6328 29.1895 18.3161 29.8993 18.4228C30.176 18.4653 30.2921 18.8255 30.0559 19.016C29.2961 19.6134 29.0571 20.5275 29.1761 21.4788C29.2494 22.1353 29.4693 22.7986 29.726 23.5684C30.2406 25.1301 30.7338 26.6973 30.2292 28.5941Z" fill="#262626"/>
<path d="M5.16532 13.614C4.79538 15.0571 3.95557 16.2801 2.85582 16.9666C2.60957 17.1206 2.28813 16.9038 2.35595 16.61C2.64257 15.3469 2.75588 14.3038 2.70588 13.3273C2.67257 12.2842 2.42595 11.4044 2.10601 10.3646C1.79607 9.31813 1.37282 7.88838 1.64276 6.36538C1.78938 5.54888 2.17263 4.78238 2.6992 4.26913C3.30907 3.65257 4.12557 3.336 4.83545 3.44594C5.12545 3.49057 5.21376 3.85707 4.99207 4.03582C4.23688 4.62963 3.99026 5.54932 4.10895 6.49863C4.18557 7.15513 4.40551 7.81838 4.65882 8.58819C5.22557 10.2508 5.64332 11.7833 5.16532 13.614Z" fill="#262626"/>
</svg>
