<svg width="32" height="32" viewBox="0 0 32 32" fill="none" xmlns="http://www.w3.org/2000/svg">
<g clip-path="url(#clip0_12157_21945)">
<path d="M31.925 21.0625C31.4 24.6937 28.3312 27.4437 24.675 27.4875C21.6312 27.525 18.5875 27.4937 15.5437 27.4937C12.5 27.4937 9.45622 27.525 6.41247 27.4875C3.20622 27.4437 0.587468 25.2125 0.0999677 22.05C-0.318782 19.3375 0.699968 17.1812 2.94372 15.6125C3.16247 15.4562 3.23122 15.35 3.15622 15.0687C2.29372 11.825 5.29372 8.83125 8.56872 9.6625C8.80622 9.725 8.89372 9.66875 8.99372 9.4625C10.7 6.05 14.45 4.05 18.125 4.56875C22.0375 5.125 25.125 8.01875 25.7875 11.8312C25.8937 12.4437 26.1 12.6875 26.6937 12.8625C30.225 13.9 32.45 17.425 31.925 21.0625Z" fill="#262626"/>
</g>
<defs>
<clipPath id="clip0_12157_21945">
<rect width="32" height="32" fill="white"/>
</clipPath>
</defs>
</svg>
