<svg width="32" height="32" viewBox="0 0 32 32" fill="none" xmlns="http://www.w3.org/2000/svg">
<path opacity="0.2" d="M24.179 17.468H21.2734C20.7556 17.468 20.3359 17.0483 20.3359 16.5305C20.3359 16.0127 20.7556 15.593 21.2734 15.593H24.179C24.6965 15.593 25.1165 16.0127 25.1165 16.5305C25.1165 17.0483 24.6965 17.468 24.179 17.468Z" fill="#262626"/>
<path opacity="0.4" d="M24.179 13.7173H21.2734C20.7556 13.7173 20.3359 13.2976 20.3359 12.7798C20.3359 12.262 20.7556 11.8423 21.2734 11.8423H24.179C24.6965 11.8423 25.1165 12.262 25.1165 12.7798C25.1165 13.2976 24.6965 13.7173 24.179 13.7173Z" fill="#262626"/>
<path opacity="0.7" d="M24.179 9.96655H21.2734C20.7556 9.96655 20.3359 9.54688 20.3359 9.02905C20.3359 8.51123 20.7556 8.09155 21.2734 8.09155H24.179C24.6965 8.09155 25.1165 8.51123 25.1165 9.02905C25.1165 9.54688 24.6965 9.96655 24.179 9.96655Z" fill="#262626"/>
<path d="M24.179 6.21582H21.2734C20.7556 6.21582 20.3359 5.79614 20.3359 5.27832C20.3359 4.76074 20.7556 4.34082 21.2734 4.34082H24.179C24.6965 4.34082 25.1165 4.76074 25.1165 5.27832C25.1165 5.79614 24.6965 6.21582 24.179 6.21582Z" fill="#262626"/>
<path d="M18.0759 19.6003L17.8359 19.4126V4.02832C17.8359 1.80713 16.0291 0 13.8081 0C11.5874 0 9.78052 1.80713 9.78052 4.02832V19.4126L9.54053 19.6001C7.84644 20.9243 6.875 22.9163 6.875 25.0654C6.875 28.8892 9.98535 32 13.8081 32C17.6311 32 20.7415 28.8892 20.7415 25.0654C20.7415 22.9163 19.7698 20.9243 18.0759 19.6003ZM13.8081 28.8743C11.7083 28.8743 10 27.1658 10 25.0654C10 23.2888 11.2227 21.7927 12.8706 21.3738V9.01367C12.8706 8.49585 13.2905 8.07617 13.8081 8.07617C14.3259 8.07617 14.7456 8.49585 14.7456 9.01367V21.3738C16.3936 21.7927 17.6165 23.2888 17.6165 25.0657C17.6165 27.1658 15.908 28.8743 13.8081 28.8743Z" fill="#262626"/>
<path d="M13.8081 26.9993C12.7422 26.9993 11.875 26.1318 11.875 25.0654C11.875 23.9993 12.7422 23.1318 13.8081 23.1318C14.8743 23.1318 15.7415 23.9993 15.7415 25.0654C15.7415 26.1318 14.8743 26.9993 13.8081 26.9993Z" fill="#262626"/>
</svg>
