<svg width="32" height="32" viewBox="0 0 32 32" fill="none" xmlns="http://www.w3.org/2000/svg">
<path fill-rule="evenodd" clip-rule="evenodd" d="M18.5844 2.65713C15.1985 4.51897 16.2253 9.67356 19.9822 9.67356C21.8351 9.67356 22.7144 9.1879 23.4552 7.75511C25.0571 4.65714 21.5747 1.01243 18.5844 2.65713ZM11.4525 10.475C10.6026 10.9104 8.94485 12.1268 7.76905 13.1786C6.01708 14.7459 5.67778 15.2371 5.88859 15.9012C6.38356 17.4617 7.4264 17.2919 9.87781 15.2516C12.121 13.3849 13.4261 12.6531 14.5117 12.6531C15.4138 12.6531 15.1136 13.4278 13.5564 15.1172C12.3423 16.4341 12.0667 17.0058 12.0667 18.2047C12.0667 19.7541 12.0931 19.7891 16.2611 23.7489C17.3322 24.7664 18.1952 26.0387 18.6365 27.2502C19.5107 29.6521 20.336 30.248 21.3636 29.2201C22.0585 28.5255 22.0716 28.3683 21.5729 26.7113C20.8518 24.315 19.1494 21.9381 16.9259 20.2237C15.9095 19.4397 15.0708 18.5421 15.0622 18.2285C15.0533 17.9153 15.6332 17.1053 16.3505 16.4286C17.0678 15.7522 17.7565 14.7924 17.8812 14.2959C18.2358 12.8829 17.7036 10.8684 16.8108 10.243C15.6656 9.44078 13.2697 9.54469 11.4525 10.475ZM24.2474 14.0043C24.1189 14.1328 23.0611 14.3425 21.8969 14.4699C19.536 14.7283 18.6443 15.4997 19.3687 16.6568C20.4306 18.3529 26.5919 17.1842 26.5919 15.2866C26.5919 14.3663 24.8425 13.4092 24.2474 14.0043ZM10.3512 24.0975C9.7687 24.861 8.74336 25.9679 8.07222 26.5567C6.79698 27.6767 6.54484 28.5839 7.29941 29.3385C8.14038 30.1795 9.07185 29.7843 11.1512 27.705C13.4387 25.4174 14.0168 24.3481 13.4994 23.3608C12.9158 22.2476 11.5114 22.5761 10.3512 24.0975Z" fill="#262626"/>
</svg>
