<svg width="32" height="32" viewBox="0 0 32 32" fill="none" xmlns="http://www.w3.org/2000/svg">
<path d="M12.0023 17.9822C12.0388 17.9863 12.0756 17.988 12.1123 17.9872H15.2523V1.76216H12.1123C11.3834 1.76345 10.6846 2.05359 10.1692 2.56904C9.65373 3.08448 9.36359 3.78321 9.36231 4.51216V15.2372C9.36194 15.9473 9.63673 16.63 10.129 17.1418C10.6213 17.6536 11.2927 17.9548 12.0023 17.9822Z" fill="#262626"/>
<path d="M20.0029 17.9822C20.7125 17.9548 21.384 17.6536 21.8762 17.1418C22.3685 16.63 22.6433 15.9473 22.6429 15.2372V4.51216C22.6416 3.78321 22.3515 3.08448 21.8361 2.56904C21.3206 2.05359 20.6219 1.76345 19.8929 1.76216H16.7529V17.9872H19.8929C19.9297 17.988 19.9664 17.9863 20.0029 17.9822Z" fill="#262626"/>
<path d="M12.1129 19.4872C12.0762 19.4879 12.0394 19.4862 12.0029 19.4822V20.6471C12.0038 21.2436 12.2412 21.8154 12.6629 22.2371C13.0847 22.6589 13.6565 22.8962 14.2529 22.8971H17.7529C18.3494 22.8962 18.9212 22.6589 19.3429 22.2371C19.7647 21.8154 20.002 21.2436 20.0029 20.6471V19.4822C19.9664 19.4862 19.9297 19.4879 19.8929 19.4872L12.1129 19.4872Z" fill="#262626"/>
<path d="M16.0027 26.8259C17.2621 26.8294 18.5096 26.583 19.6732 26.101C20.8367 25.619 21.893 24.911 22.781 24.018C22.9181 23.8766 22.9941 23.687 22.9926 23.4901C22.991 23.2932 22.9121 23.1048 22.7729 22.9655C22.6337 22.8263 22.4452 22.7474 22.2483 22.7459C22.0514 22.7444 21.8618 22.8204 21.7205 22.9575C20.1991 24.4647 18.1441 25.3102 16.0025 25.3102C13.861 25.3102 11.8061 24.4646 10.2847 22.9574C10.1433 22.8204 9.95369 22.7444 9.75681 22.746C9.55993 22.7475 9.37155 22.8265 9.23234 22.9657C9.09312 23.1049 9.01424 23.2933 9.01272 23.4902C9.01119 23.6871 9.08715 23.8767 9.22419 24.018C10.1123 24.911 11.1686 25.619 12.3322 26.101C13.4957 26.5829 14.7433 26.8293 16.0027 26.8259Z" fill="#262626"/>
<path d="M24.8641 25.531C24.7945 25.4613 24.7118 25.406 24.6208 25.3683C24.5298 25.3306 24.4323 25.3112 24.3338 25.3112C24.2353 25.3112 24.1378 25.3306 24.0468 25.3683C23.9558 25.406 23.8732 25.4613 23.8035 25.531C19.6968 29.8107 12.3085 29.8107 8.20199 25.5308C8.06062 25.3937 7.87097 25.3177 7.67402 25.3192C7.47706 25.3207 7.28859 25.3996 7.14933 25.5389C7.01007 25.6782 6.93118 25.8666 6.92971 26.0636C6.92824 26.2605 7.0043 26.4502 7.14147 26.5915C11.8062 31.4534 20.1992 31.4533 24.8641 26.5914C24.9337 26.5218 24.989 26.4391 25.0267 26.3481C25.0644 26.2572 25.0838 26.1596 25.0838 26.0612C25.0838 25.9627 25.0644 25.8652 25.0267 25.7742C24.989 25.6832 24.9338 25.6006 24.8641 25.531Z" fill="#262626"/>
</svg>
