<svg width="32" height="32" viewBox="0 0 32 32" fill="none" xmlns="http://www.w3.org/2000/svg">
<g clip-path="url(#clip0_12157_21977)">
<path d="M26.7831 0H19.7049C17.781 0 16.2217 1.55936 16.2217 3.48333V6.04431H23.2446C25.6008 6.04431 27.5113 7.95475 27.5113 10.311C27.5113 12.6672 25.6009 14.5777 23.2446 14.5777H16.2217V28.5167C16.2217 30.4407 17.781 32.0001 19.7049 32.0001H26.7831C28.7071 32.0001 30.2664 30.4407 30.2664 28.5167V3.48333C30.2664 1.55936 28.7071 0 26.7831 0ZM24.7622 22.6729V24.6495C24.7622 25.4202 24.1383 26.0453 23.3665 26.0453C22.5956 26.0453 21.9707 25.4202 21.9707 24.6495V22.6729C21.4062 22.2479 21.0374 21.5791 21.0374 20.8188C21.0374 19.5329 22.08 18.4886 23.3665 18.4886C24.6529 18.4886 25.6956 19.5329 25.6956 20.8188C25.6956 21.5792 25.3269 22.2479 24.7622 22.6729Z" fill="#262626"/>
<path d="M25.9115 10.311C25.9115 8.83797 24.7178 7.64429 23.2448 7.64429H4.40008C2.92708 7.64429 1.7334 8.83797 1.7334 10.311C1.7334 11.7839 2.92708 12.9776 4.40008 12.9776H23.2448C24.7178 12.9776 25.9115 11.7839 25.9115 10.311Z" fill="#262626"/>
</g>
<defs>
<clipPath id="clip0_12157_21977">
<rect width="32" height="32" fill="white"/>
</clipPath>
</defs>
</svg>
