<svg width="32" height="32" viewBox="0 0 32 32" fill="none" xmlns="http://www.w3.org/2000/svg">
<g clip-path="url(#clip0_12157_21983)">
<path d="M16 2C14.143 10.15 6 11.477 6 20.738C6 25.924 10.478 30 16 30C21.523 30 26 25.924 26 20.738C26 11.477 17.861 10.15 16 2ZM18.844 27.535C20.508 26.24 21.66 24.23 21.891 21.844C22.344 17.121 20.643 14.471 18.672 11.401C18.08 10.479 17.467 9.504 16.891 8.452C17.737 9.589 18.651 10.589 19.52 11.534C21.924 14.15 24 16.41 24 20.738C24 23.895 21.883 26.516 18.844 27.535Z" fill="#262626"/>
</g>
<defs>
<clipPath id="clip0_12157_21983">
<rect width="20" height="28" fill="white" transform="translate(6 2)"/>
</clipPath>
</defs>
</svg>
