<svg width="132" height="132" viewBox="0 0 132 132" fill="none" xmlns="http://www.w3.org/2000/svg">
<rect x="2" y="2" width="128" height="128" rx="30" fill="url(#paint0_radial_12157_86148)"/>
<rect x="2" y="2" width="128" height="128" rx="30" stroke="#848079" stroke-width="4"/>
<path d="M45.0342 95.793H38.4229C35.9826 95.7928 34 93.8121 34 91.376V53.8652C34 51.4251 35.9839 49.4484 38.4229 49.4482H45.0342V95.793ZM73.7354 36.207C77.3842 36.2072 80.3447 39.1762 80.3447 42.8232V49.4482H82.5518V95.793H49.4482V49.4482H51.6553V42.8232C51.6553 39.1694 54.6119 36.2072 58.2646 36.207H73.7354ZM93.5771 49.4482C96.0174 49.4484 98 51.4291 98 53.8652V91.376C98 93.8161 96.0161 95.7928 93.5771 95.793H86.9658V49.4482H93.5771ZM61.6172 68.751C59.1449 68.751 57.1406 70.7552 57.1406 73.2275C57.1406 75.6999 59.1449 77.7041 61.6172 77.7041H70.3877C72.86 77.7041 74.8642 75.6998 74.8643 73.2275C74.8643 70.7552 72.86 68.751 70.3877 68.751H61.6172ZM58.2646 40.6211C57.0514 40.6212 56.0693 41.6053 56.0693 42.8232V49.4482H75.9307V42.8232C75.9307 41.6111 74.9438 40.6212 73.7354 40.6211H58.2646Z" fill="white"/>
<rect x="67.9062" y="70.4517" width="5.38634" height="5.38634" rx="2.69317" fill="white"/>
<defs>
<radialGradient id="paint0_radial_12157_86148" cx="0" cy="0" r="1" gradientUnits="userSpaceOnUse" gradientTransform="translate(66 66) rotate(90) scale(66)">
<stop stop-color="#9A9792"/>
<stop offset="1" stop-color="#6A655E"/>
</radialGradient>
</defs>
</svg>
