<svg width="120" height="32" viewBox="0 0 120 32" fill="none" xmlns="http://www.w3.org/2000/svg">
<g clip-path="url(#clip0_333_2709)">
<path d="M1.56348 8.5H5.73535L10.1416 19.25H10.3291L14.7354 8.5H18.9072V24.5H15.626V14.0859H15.4932L11.3525 24.4219H9.11816L4.97754 14.0469H4.84473V24.5H1.56348V8.5ZM21.8818 24.5V12.5H25.21V24.5H21.8818ZM23.5537 10.9531C23.0589 10.9531 22.6344 10.7891 22.2803 10.4609C21.9313 10.1276 21.7568 9.72917 21.7568 9.26562C21.7568 8.80729 21.9313 8.41406 22.2803 8.08594C22.6344 7.7526 23.0589 7.58594 23.5537 7.58594C24.0485 7.58594 24.4704 7.7526 24.8193 8.08594C25.1735 8.41406 25.3506 8.80729 25.3506 9.26562C25.3506 9.72917 25.1735 10.1276 24.8193 10.4609C24.4704 10.7891 24.0485 10.9531 23.5537 10.9531ZM28.1885 8.5H32.3604L36.7666 19.25H36.9541L41.3604 8.5H45.5322V24.5H42.251V14.0859H42.1182L37.9775 24.4219H35.7432L31.6025 14.0469H31.4697V24.5H28.1885V8.5ZM48.5068 24.5V12.5H51.835V24.5H48.5068ZM50.1787 10.9531C49.6839 10.9531 49.2594 10.7891 48.9053 10.4609C48.5563 10.1276 48.3818 9.72917 48.3818 9.26562C48.3818 8.80729 48.5563 8.41406 48.9053 8.08594C49.2594 7.7526 49.6839 7.58594 50.1787 7.58594C50.6735 7.58594 51.0954 7.7526 51.4443 8.08594C51.7985 8.41406 51.9756 8.80729 51.9756 9.26562C51.9756 9.72917 51.7985 10.1276 51.4443 10.4609C51.0954 10.7891 50.6735 10.9531 50.1787 10.9531Z" fill="#00D0FF"/>
<path d="M63.4932 13.1016C63.4307 12.4714 63.1624 11.9818 62.6885 11.6328C62.2145 11.2839 61.5713 11.1094 60.7588 11.1094C60.2067 11.1094 59.7406 11.1875 59.3604 11.3437C58.9801 11.4948 58.6885 11.7057 58.4854 11.9766C58.2874 12.2474 58.1885 12.5547 58.1885 12.8984C58.1781 13.1849 58.238 13.4349 58.3682 13.6484C58.5036 13.862 58.6885 14.0469 58.9229 14.2031C59.1572 14.3542 59.4281 14.487 59.7354 14.6016C60.0426 14.7109 60.3708 14.8047 60.7197 14.8828L62.1572 15.2266C62.8551 15.3828 63.4958 15.5911 64.0791 15.8516C64.6624 16.112 65.1676 16.4323 65.5947 16.8125C66.0218 17.1927 66.3525 17.6406 66.5869 18.1562C66.8265 18.6719 66.9489 19.263 66.9541 19.9297C66.9489 20.9089 66.6989 21.7578 66.2041 22.4766C65.7145 23.1901 65.0062 23.7448 64.0791 24.1406C63.1572 24.5312 62.0452 24.7266 60.7432 24.7266C59.4515 24.7266 58.3265 24.5286 57.3682 24.1328C56.415 23.737 55.6702 23.151 55.1338 22.375C54.6025 21.5937 54.3239 20.6276 54.2979 19.4766H57.5713C57.6077 20.013 57.7614 20.4609 58.0322 20.8203C58.3083 21.1745 58.6755 21.4427 59.1338 21.625C59.5973 21.8021 60.1208 21.8906 60.7041 21.8906C61.277 21.8906 61.7744 21.8073 62.1963 21.6406C62.6234 21.474 62.9541 21.2422 63.1885 20.9453C63.4229 20.6484 63.54 20.3073 63.54 19.9219C63.54 19.5625 63.4333 19.2604 63.2197 19.0156C63.0114 18.7708 62.7041 18.5625 62.2979 18.3906C61.8968 18.2187 61.4046 18.0625 60.8213 17.9219L59.0791 17.4844C57.7301 17.1562 56.665 16.6432 55.8838 15.9453C55.1025 15.2474 54.7145 14.3073 54.7197 13.125C54.7145 12.1562 54.9723 11.3099 55.4932 10.5859C56.0192 9.86198 56.7406 9.29687 57.6572 8.89062C58.5739 8.48437 59.6156 8.28125 60.7822 8.28125C61.9697 8.28125 63.0062 8.48437 63.8916 8.89062C64.7822 9.29687 65.4749 9.86198 65.9697 10.5859C66.4645 11.3099 66.7197 12.1484 66.7354 13.1016H63.4932ZM69.417 24.5V12.5H72.5889V14.6172H72.7295C72.9795 13.9141 73.3962 13.3594 73.9795 12.9531C74.5628 12.5469 75.2607 12.3438 76.0732 12.3438C76.8962 12.3438 77.5967 12.5495 78.1748 12.9609C78.7529 13.3672 79.1383 13.9193 79.3311 14.6172H79.4561C79.7008 13.9297 80.1436 13.3802 80.7842 12.9687C81.43 12.5521 82.193 12.3438 83.0732 12.3438C84.193 12.3438 85.1019 12.7005 85.7998 13.4141C86.5029 14.1224 86.8545 15.1276 86.8545 16.4297V24.5H83.5342V17.0859C83.5342 16.4193 83.3571 15.9193 83.0029 15.5859C82.6488 15.2526 82.2061 15.0859 81.6748 15.0859C81.0706 15.0859 80.5993 15.2786 80.2607 15.6641C79.9222 16.0443 79.7529 16.5469 79.7529 17.1719V24.5H76.5264V17.0156C76.5264 16.4271 76.3571 15.9583 76.0186 15.6094C75.6852 15.2604 75.2451 15.0859 74.6982 15.0859C74.3285 15.0859 73.9951 15.1797 73.6982 15.3672C73.4066 15.5495 73.1748 15.8073 73.0029 16.1406C72.8311 16.4687 72.7451 16.8542 72.7451 17.2969V24.5H69.417ZM93.1553 24.7266C92.3896 24.7266 91.7074 24.5938 91.1084 24.3281C90.5094 24.0573 90.0355 23.6589 89.6865 23.1328C89.3428 22.6016 89.1709 21.9401 89.1709 21.1484C89.1709 20.4818 89.2933 19.9219 89.5381 19.4687C89.7829 19.0156 90.1162 18.651 90.5381 18.375C90.96 18.099 91.4391 17.8906 91.9756 17.75C92.5173 17.6094 93.085 17.5104 93.6787 17.4531C94.3766 17.3802 94.9391 17.3125 95.3662 17.25C95.7933 17.1823 96.1032 17.0833 96.2959 16.9531C96.4886 16.8229 96.585 16.6302 96.585 16.375V16.3281C96.585 15.8333 96.4287 15.4505 96.1162 15.1797C95.8089 14.9089 95.3714 14.7734 94.8037 14.7734C94.2048 14.7734 93.7282 14.9062 93.374 15.1719C93.0199 15.4323 92.7855 15.7604 92.6709 16.1562L89.5928 15.9062C89.749 15.1771 90.0563 14.5469 90.5146 14.0156C90.973 13.4792 91.5641 13.0677 92.2881 12.7812C93.0173 12.4896 93.861 12.3438 94.8193 12.3438C95.486 12.3438 96.124 12.4219 96.7334 12.5781C97.348 12.7344 97.8923 12.9766 98.3662 13.3047C98.8454 13.6328 99.223 14.0547 99.499 14.5703C99.7751 15.0807 99.9131 15.6927 99.9131 16.4062V24.5H96.7568V22.8359H96.6631C96.4704 23.2109 96.2126 23.5417 95.8896 23.8281C95.5667 24.1094 95.1787 24.3307 94.7256 24.4922C94.2725 24.6484 93.749 24.7266 93.1553 24.7266ZM94.1084 22.4297C94.598 22.4297 95.0303 22.3333 95.4053 22.1406C95.7803 21.9427 96.0745 21.6771 96.2881 21.3438C96.5016 21.0104 96.6084 20.6328 96.6084 20.2109V18.9375C96.5042 19.0052 96.361 19.0677 96.1787 19.125C96.0016 19.1771 95.8011 19.2266 95.5771 19.2734C95.3532 19.3151 95.1292 19.3542 94.9053 19.3906C94.6813 19.4219 94.4782 19.4505 94.2959 19.4766C93.9053 19.5339 93.5641 19.625 93.2725 19.75C92.9808 19.875 92.7542 20.0443 92.5928 20.2578C92.4313 20.4661 92.3506 20.7266 92.3506 21.0391C92.3506 21.4922 92.5146 21.8385 92.8428 22.0781C93.1761 22.3125 93.598 22.4297 94.1084 22.4297ZM102.745 24.5V12.5H105.972V14.5937H106.097C106.315 13.849 106.683 13.2865 107.198 12.9063C107.714 12.5208 108.308 12.3281 108.979 12.3281C109.146 12.3281 109.326 12.3385 109.519 12.3594C109.711 12.3802 109.881 12.4089 110.026 12.4453V15.3984C109.87 15.3516 109.654 15.3099 109.378 15.2734C109.102 15.237 108.849 15.2188 108.62 15.2188C108.131 15.2188 107.693 15.3255 107.308 15.5391C106.927 15.7474 106.625 16.0391 106.401 16.4141C106.183 16.7891 106.073 17.2214 106.073 17.7109V24.5H102.745ZM118.981 12.5V15H111.755V12.5H118.981ZM113.396 9.625H116.724V20.8125C116.724 21.1198 116.771 21.3594 116.864 21.5312C116.958 21.6979 117.088 21.8151 117.255 21.8828C117.427 21.9505 117.625 21.9844 117.849 21.9844C118.005 21.9844 118.161 21.9714 118.317 21.9453C118.474 21.9141 118.593 21.8906 118.677 21.875L119.2 24.3516C119.034 24.4036 118.799 24.4635 118.497 24.5313C118.195 24.6042 117.828 24.6484 117.396 24.6641C116.593 24.6953 115.89 24.5885 115.286 24.3437C114.687 24.099 114.221 23.7187 113.888 23.2031C113.554 22.6875 113.39 22.0365 113.396 21.25V9.625Z" fill="#262626"/>
</g>
<defs>
<clipPath id="clip0_333_2709">
<rect width="120" height="32" fill="white"/>
</clipPath>
</defs>
</svg>
