<svg width="60" height="40" viewBox="0 0 60 40" fill="none" xmlns="http://www.w3.org/2000/svg">
<g opacity="0.1">
<rect x="12.6328" y="3.30566" width="17.1981" height="33.3118" fill="#F4F4F4"/>
<path fill-rule="evenodd" clip-rule="evenodd" d="M19.9089 22.0503H22.3783C22.4284 22.8103 23.0611 24.2129 23.8341 24.2129H24.1288C24.575 24.2129 25.0031 24.0355 25.3189 23.7207C25.6347 23.4048 25.8122 22.9767 25.8122 22.5306V17.8976C25.8122 17.2539 25.4452 16.6674 24.8677 16.3846L21.875 14.9248C21.4088 14.6973 20.8644 14.6973 20.3982 14.9248L17.4054 16.3846C16.8279 16.6674 16.4609 17.2539 16.4609 17.8976V22.5306C16.4609 22.9767 16.6384 23.4048 16.9542 23.7207C17.269 24.0355 17.6971 24.2129 18.1433 24.2129H18.4531C18.8401 24.2129 19.2111 24.0595 19.4848 23.7858C19.7354 23.5352 19.8848 22.4012 19.9089 22.0503Z" fill="#478BEB"/>
<path fill-rule="evenodd" clip-rule="evenodd" d="M31.198 5C31.198 3.1025 29.6592 1.5625 27.7605 1.5625H14.5117C12.613 1.5625 11.0742 3.1025 11.0742 5V35C11.0742 36.8988 12.613 38.4375 14.5117 38.4375H27.7605C29.6592 38.4375 31.198 36.8988 31.198 35V5ZM29.323 5V35C29.323 35.8638 28.623 36.5625 27.7605 36.5625H14.5117C13.648 36.5625 12.9492 35.8638 12.9492 35C12.9492 28.5575 12.9492 11.4438 12.9492 5C12.9492 4.1375 13.648 3.4375 14.5117 3.4375H27.7605C28.623 3.4375 29.323 4.1375 29.323 5Z" fill="#478BEB"/>
<path fill-rule="evenodd" clip-rule="evenodd" d="M27.6865 3.75V2.5C27.6865 1.9825 27.2665 1.5625 26.749 1.5625H15.499L14.5615 2.5175V3.75C14.5615 4.49625 14.8578 5.2125 15.3853 5.73875C15.9128 6.26625 16.629 6.5625 17.374 6.5625H24.874C25.6203 6.5625 26.3353 6.26625 26.8628 5.73875C27.3903 5.2125 27.6865 4.49625 27.6865 3.75Z" fill="#478BEB"/>
<path fill-rule="evenodd" clip-rule="evenodd" d="M17.374 35.748H24.874C25.3915 35.748 25.8115 35.328 25.8115 34.8105C25.8115 34.2943 25.3915 33.873 24.874 33.873H17.374C16.8565 33.873 16.4365 34.2943 16.4365 34.8105C16.4365 35.328 16.8565 35.748 17.374 35.748Z" fill="#478BEB"/>
</g>
<g opacity="0.5">
<rect x="7.24606" y="2.95557" width="17.1981" height="33.3118" fill="#F4F4F4"/>
<path fill-rule="evenodd" clip-rule="evenodd" d="M14.5221 21.7002H16.9915C17.0417 22.4602 17.6743 23.8628 18.4473 23.8628H18.7421C19.1882 23.8628 19.6163 23.6854 19.9322 23.3706C20.248 23.0547 20.4254 22.6266 20.4254 22.1805V17.5475C20.4254 16.9038 20.0585 16.3173 19.481 16.0345L16.4882 14.5747C16.022 14.3472 15.4776 14.3472 15.0114 14.5747L12.0186 16.0345C11.4411 16.3173 11.0742 16.9038 11.0742 17.5475V22.1805C11.0742 22.6266 11.2516 23.0547 11.5675 23.3706C11.8823 23.6854 12.3104 23.8628 12.7566 23.8628H13.0664C13.4534 23.8628 13.8243 23.7094 14.098 23.4357C14.3487 23.1851 14.4981 22.0511 14.5221 21.7002Z" fill="#478BEB"/>
<path fill-rule="evenodd" clip-rule="evenodd" d="M25.8112 4.6499C25.8112 2.7524 24.2725 1.2124 22.3737 1.2124H9.12497C7.22622 1.2124 5.68747 2.7524 5.68747 4.6499V34.6499C5.68747 36.5487 7.22622 38.0874 9.12497 38.0874H22.3737C24.2725 38.0874 25.8112 36.5487 25.8112 34.6499V4.6499ZM23.9362 4.6499V34.6499C23.9362 35.5137 23.2362 36.2124 22.3737 36.2124H9.12497C8.26122 36.2124 7.56247 35.5137 7.56247 34.6499C7.56247 28.2074 7.56247 11.0937 7.56247 4.6499C7.56247 3.7874 8.26122 3.0874 9.12497 3.0874H22.3737C23.2362 3.0874 23.9362 3.7874 23.9362 4.6499Z" fill="#478BEB"/>
<path fill-rule="evenodd" clip-rule="evenodd" d="M22.2998 3.3999V2.1499C22.2998 1.6324 21.8798 1.2124 21.3623 1.2124H10.1123L9.17477 2.1674V3.3999C9.17477 4.14615 9.47102 4.8624 9.99852 5.38865C10.526 5.91615 11.2423 6.2124 11.9873 6.2124H19.4873C20.2335 6.2124 20.9485 5.91615 21.476 5.38865C22.0035 4.8624 22.2998 4.14615 22.2998 3.3999Z" fill="#478BEB"/>
<path fill-rule="evenodd" clip-rule="evenodd" d="M11.9873 35.3979H19.4873C20.0048 35.3979 20.4248 34.9779 20.4248 34.4604C20.4248 33.9442 20.0048 33.5229 19.4873 33.5229H11.9873C11.4698 33.5229 11.0498 33.9442 11.0498 34.4604C11.0498 34.9779 11.4698 35.3979 11.9873 35.3979Z" fill="#478BEB"/>
</g>
<rect x="1.55859" y="2.95557" width="17.1981" height="33.3118" fill="#F4F4F4"/>
<path fill-rule="evenodd" clip-rule="evenodd" d="M8.83466 21.7002H11.3041C11.3542 22.4602 11.9868 23.8628 12.7598 23.8628H13.0546C13.5008 23.8628 13.9289 23.6854 14.2447 23.3706C14.5605 23.0547 14.738 22.6266 14.738 22.1805V17.5475C14.738 16.9038 14.371 16.3173 13.7935 16.0345L10.8008 14.5747C10.3346 14.3472 9.79014 14.3472 9.32393 14.5747L6.33117 16.0345C5.75367 16.3173 5.38672 16.9038 5.38672 17.5475V22.1805C5.38672 22.6266 5.56418 23.0547 5.88 23.3706C6.19481 23.6854 6.62293 23.8628 7.06908 23.8628H7.37889C7.76589 23.8628 8.13685 23.7094 8.41056 23.4357C8.66121 23.1851 8.8106 22.0511 8.83466 21.7002Z" fill="#478BEB"/>
<path fill-rule="evenodd" clip-rule="evenodd" d="M20.1237 4.6499C20.1237 2.7524 18.585 1.2124 16.6862 1.2124H3.4375C1.53875 1.2124 0 2.7524 0 4.6499V34.6499C0 36.5487 1.53875 38.0874 3.4375 38.0874H16.6862C18.585 38.0874 20.1237 36.5487 20.1237 34.6499V4.6499ZM18.2487 4.6499V34.6499C18.2487 35.5137 17.5487 36.2124 16.6862 36.2124H3.4375C2.57375 36.2124 1.875 35.5137 1.875 34.6499C1.875 28.2074 1.875 11.0937 1.875 4.6499C1.875 3.7874 2.57375 3.0874 3.4375 3.0874H16.6862C17.5487 3.0874 18.2487 3.7874 18.2487 4.6499Z" fill="#478BEB"/>
<path fill-rule="evenodd" clip-rule="evenodd" d="M16.6123 3.3999V2.1499C16.6123 1.6324 16.1923 1.2124 15.6748 1.2124H4.4248L3.4873 2.1674V3.3999C3.4873 4.14615 3.78355 4.8624 4.31105 5.38865C4.83855 5.91615 5.5548 6.2124 6.2998 6.2124H13.7998C14.5461 6.2124 15.2611 5.91615 15.7886 5.38865C16.3161 4.8624 16.6123 4.14615 16.6123 3.3999Z" fill="#478BEB"/>
<path fill-rule="evenodd" clip-rule="evenodd" d="M6.2998 35.3979H13.7998C14.3173 35.3979 14.7373 34.9779 14.7373 34.4604C14.7373 33.9442 14.3173 33.5229 13.7998 33.5229H6.2998C5.7823 33.5229 5.3623 33.9442 5.3623 34.4604C5.3623 34.9779 5.7823 35.3979 6.2998 35.3979Z" fill="#478BEB"/>
</svg>
