<svg width="40" height="40" viewBox="0 0 40 40" fill="none" xmlns="http://www.w3.org/2000/svg">
<path d="M31.3237 33.5037V33.75C31.3237 35.8212 29.645 37.5 27.5737 37.5H6.25C4.17875 37.5 2.5 35.8212 2.5 33.75V29.915C2.5 22.3312 11.5425 18.2512 17.12 23.39C18.1975 24.3825 19.2762 25.545 20.3913 26.8762C21.1112 26.6312 21.9663 26.43 22.8888 26.27C27.31 25.505 31.3237 29.0162 31.3237 33.5037Z" fill="#478BEB"/>
<path d="M33.75 2.5H12.425C10.35 2.5 8.67499 4.175 8.67499 6.25V6.4275H27.5737C30.8812 6.4275 33.5737 9.11875 33.5737 12.4275V31.325H33.75C35.825 31.325 37.5 29.65 37.5 27.575V6.25C37.5 4.175 35.825 2.5 33.75 2.5Z" fill="#AECAF0"/>
<path d="M6.25 9.17627H27.5742C29.3691 9.17652 30.8242 10.6313 30.8242 12.4263V26.0688C29.0527 24.4265 26.6973 23.4166 24.1064 23.4165C23.5454 23.4165 22.9785 23.4654 22.4238 23.5601H22.4209C22.0473 23.6255 21.6867 23.6972 21.3398 23.7729C20.5279 22.8694 19.7503 22.0748 18.9844 21.3677H18.9834C16.8434 19.3973 14.1986 18.3491 11.3438 18.3491C8.06401 18.3491 5.10769 19.7199 3 21.9097V12.4263C3 10.6312 4.45489 9.17627 6.25 9.17627ZM22.4883 13.2476C20.4435 13.2478 18.7871 14.9054 18.7871 16.9487C18.7871 18.9936 20.445 20.6496 22.4883 20.6499C24.5332 20.6499 26.1904 18.9936 26.1904 16.9487C26.1904 14.9037 24.5318 13.2476 22.4883 13.2476Z" fill="#478BEB" stroke="url(#paint0_linear_12157_58966)"/>
<defs>
<linearGradient id="paint0_linear_12157_58966" x1="16.9119" y1="8.67627" x2="16.9119" y2="20.5" gradientUnits="userSpaceOnUse">
<stop stop-color="#33A3D0"/>
<stop offset="1" stop-color="#478BEB"/>
</linearGradient>
</defs>
</svg>
