<svg width="132" height="132" viewBox="0 0 132 132" fill="none" xmlns="http://www.w3.org/2000/svg">
<rect x="2" y="2" width="128" height="128" rx="30" fill="url(#paint0_radial_12157_85345)"/>
<rect x="2" y="2" width="128" height="128" rx="30" stroke="#D30E35" stroke-width="4"/>
<path d="M111.922 58.3024C111.663 55.7628 108.052 54.8762 106.612 56.9541C105.54 58.3578 106.325 60.1679 106.122 61.7748C105.984 64.1667 105.291 66.4848 104.238 68.6273C102.539 74.1222 85.5555 90.1544 88.4276 75.0734C90.5794 63.511 98.3092 50.1755 96.0466 38.4653C92.8697 27.6325 81.5659 33.9493 76.4312 39.6012C74.9443 30.6339 66.9652 28.085 59.9372 33.4229C53.5373 37.9389 48.7627 44.3573 44.4314 50.7942C45.3457 45.0684 44.7177 34.6512 36.6369 35.741C30.9573 36.9508 27.3002 42.1963 23.837 46.4537C22.0085 49.2058 16.8368 55.1255 22.4425 56.6678C25.3885 57.028 25.9149 53.5463 27.3833 51.7547C30.2277 48.0514 33.183 43.1014 37.8006 41.5868C41.4577 49.3259 33.6078 69.7263 30.6987 77.964C29.6921 80.8177 33.6355 83.1357 35.658 80.9101C37.0617 78.906 37.5974 76.3941 38.7148 74.2053C42.0949 66.2077 46.2322 58.4964 51.2285 51.3761C55.2735 46.1028 60.8053 37.8096 67.667 36.5444C71.0194 37.3571 70.8532 42.5103 71.1764 45.2901C61.7288 56.4 54.7101 69.5324 50.2957 83.4128C48.1901 90.8194 42.6028 109.28 51.7733 113.325C52.2074 113.473 52.6414 113.538 53.0663 113.538C53.251 113.538 53.4449 113.529 53.6296 113.501C60.7868 112.494 66.4295 92.4725 68.4613 87.1068C72.5524 74.233 76.6344 61.0545 77.1608 47.4696C96.5453 26.1179 90.6441 48.3377 86.0634 61.7933C84.1979 69.2553 78.0935 80.79 86.2851 86.3219C94.9661 90.0529 103.647 80.6977 108.006 74.0945C110.998 69.4492 112.633 63.8343 111.94 58.3024H111.922ZM62.1444 87.2823C59.771 94.0701 57.3791 101.089 53.3064 107.073C50.3973 91.6782 61.6642 68.5073 70.3822 55.9844C68.6367 66.651 65.5245 77.0405 62.1444 87.2823Z" fill="white"/>
<defs>
<radialGradient id="paint0_radial_12157_85345" cx="0" cy="0" r="1" gradientUnits="userSpaceOnUse" gradientTransform="translate(66 66) rotate(90) scale(66)">
<stop stop-color="#FF8CA3"/>
<stop offset="1" stop-color="#F90B3A"/>
</radialGradient>
</defs>
</svg>
