<svg width="42" height="42" viewBox="0 0 42 42" fill="none" xmlns="http://www.w3.org/2000/svg">
<path fill-rule="evenodd" clip-rule="evenodd" d="M7.45089 26.6594L5.06369 29.6983C4.61619 30.269 3.78978 30.3673 3.22065 29.9198C2.64996 29.4723 2.55173 28.6459 2.99924 28.0767L5.99923 24.2566C5.15879 22.4743 4.68792 20.4832 4.68792 18.3829C4.68792 10.7737 10.8657 4.59598 18.4748 4.59598C23.5533 4.59598 27.9925 7.3465 30.3859 11.438L35.4114 5.25242H32.9181C32.1931 5.25242 31.6053 4.66459 31.6053 3.93954C31.6053 3.21449 32.1931 2.62665 32.9181 2.62665H38.1712C38.4737 2.62665 38.7638 2.72956 38.9992 2.91979C39.3064 3.17083 39.4841 3.54349 39.4841 3.93954V9.19109C39.4841 9.91614 38.8947 10.504 38.1712 10.504C37.4462 10.504 36.8568 9.91614 36.8568 9.19109V7.63808L31.5896 14.1214C32.0262 15.464 32.2617 16.8953 32.2617 18.3829C32.2617 21.715 31.0766 24.7727 29.1058 27.1568L39.099 37.15C39.612 37.663 39.612 38.4941 39.099 39.0071C38.586 39.5201 37.7549 39.5201 37.2419 39.0071L27.2487 29.0138C24.8646 30.9847 21.8069 32.1698 18.4748 32.1698C13.9701 32.1698 9.96752 30.0055 7.45089 26.6594ZM9.14426 24.506C11.1401 27.5388 14.5751 29.544 18.4748 29.544C24.6354 29.544 29.6359 24.5435 29.6359 18.3829C29.6359 17.8059 29.5922 17.2384 29.5065 16.6848L25.7206 21.3454C24.7508 22.5383 23.1744 23.0591 21.6837 22.6755C20.1947 22.2935 19.0626 21.0788 18.7882 19.5648L18.2269 16.4806C18.1349 15.9723 17.7529 15.5653 17.2508 15.4406C16.7487 15.3158 16.2217 15.4983 15.902 15.9037L9.14426 24.506Z" fill="#F90B3A"/>
</svg>
