<svg width="42" height="42" viewBox="0 0 42 42" fill="none" xmlns="http://www.w3.org/2000/svg">
<path d="M30.996 27.6627V14.3372C30.9935 13.4545 30.6417 12.6086 30.0175 11.9844C29.3933 11.3602 28.5474 11.0084 27.6647 11.0059H14.3392C13.4564 11.0084 12.6106 11.3602 11.9864 11.9844C11.3622 12.6086 11.0104 13.4545 11.0078 14.3372V27.6627C11.0104 28.5455 11.3622 29.3913 11.9864 30.0155C12.6106 30.6397 13.4564 30.9915 14.3392 30.9941H27.6647C28.5474 30.9915 29.3933 30.6397 30.0175 30.0155C30.6416 29.3913 30.9935 28.5455 30.996 27.6627ZM21.0019 25.997C19.6844 25.9852 18.4248 25.4536 17.4973 24.5177C16.5698 23.5818 16.0494 22.3175 16.0494 20.9999C16.0494 19.6823 16.5698 18.418 17.4974 17.4822C18.4249 16.5463 19.6845 16.0147 21.002 16.0029C22.3196 16.0147 23.5792 16.5464 24.5067 17.4823C25.4342 18.4181 25.9546 19.6824 25.9545 21C25.9545 22.3176 25.4341 23.5819 24.5066 24.5178C23.5791 25.4536 22.3195 25.9853 21.0019 25.997Z" fill="#F90B3A"/>
<path d="M21.0037 18.2239C20.2727 18.2319 19.5743 18.5279 19.0602 19.0477C18.5461 19.5675 18.2578 20.269 18.2578 21.0001C18.2578 21.7311 18.5462 22.4327 19.0603 22.9524C19.5744 23.4722 20.2727 23.7682 21.0038 23.7762C21.7348 23.7681 22.4331 23.4721 22.9472 22.9524C23.4613 22.4326 23.7496 21.731 23.7496 21C23.7496 20.2689 23.4612 19.5674 22.9471 19.0476C22.433 18.5279 21.7347 18.2319 21.0037 18.2239ZM21.0037 22.1105C20.7123 22.1058 20.4344 21.9867 20.23 21.779C20.0255 21.5712 19.911 21.2915 19.911 21C19.911 20.7086 20.0255 20.4288 20.23 20.2211C20.4344 20.0133 20.7123 19.8943 21.0037 19.8896C21.2951 19.8943 21.573 20.0133 21.7774 20.2211C21.9818 20.4288 22.0964 20.7086 22.0964 21C22.0964 21.2915 21.9818 21.5712 21.7774 21.779C21.573 21.9867 21.2951 22.1058 21.0037 22.1105Z" fill="#F90B3A"/>
<path d="M26.9125 3.93967C29.8662 3.94878 32.6964 5.12617 34.785 7.21477C36.8736 9.30336 38.0511 12.1335 38.0602 15.0872C38.0629 15.2595 38.1333 15.4238 38.256 15.5447C38.3788 15.6656 38.5442 15.7333 38.7165 15.7333C38.8888 15.7333 39.0542 15.6655 39.177 15.5446C39.2997 15.4237 39.37 15.2594 39.3727 15.0871C39.3618 11.7858 38.0455 8.62292 35.7111 6.28862C33.3767 3.95433 30.2137 2.63818 26.9124 2.62744C26.7401 2.62995 26.5756 2.70019 26.4546 2.82297C26.3336 2.94575 26.2658 3.11121 26.2658 3.2836C26.2658 3.45598 26.3337 3.62144 26.4547 3.7442C26.5757 3.86697 26.7402 3.93718 26.9125 3.93967Z" fill="#F90B3A"/>
<path d="M26.9125 7.21539C28.9977 7.22374 30.9951 8.05576 32.4696 9.5302C33.9441 11.0046 34.7761 13.002 34.7845 15.0872C34.7867 15.2598 34.8568 15.4246 34.9797 15.5458C35.1025 15.6671 35.2682 15.7351 35.4408 15.7351C35.6134 15.7351 35.779 15.6671 35.9018 15.5458C36.0247 15.4245 36.0947 15.2597 36.0969 15.0871C36.0869 12.6544 35.1161 10.3241 33.3958 8.60393C31.6755 6.88375 29.3452 5.913 26.9125 5.90314C26.7401 5.90564 26.5756 5.97588 26.4546 6.09866C26.3336 6.22144 26.2658 6.38691 26.2658 6.5593C26.2658 6.73169 26.3337 6.89715 26.4547 7.01992C26.5757 7.14269 26.7402 7.2129 26.9125 7.21539Z" fill="#F90B3A"/>
<path d="M38.7157 26.2567C38.6295 26.2567 38.5442 26.2736 38.4646 26.3066C38.385 26.3396 38.3126 26.3879 38.2517 26.4489C38.1908 26.5098 38.1424 26.5821 38.1095 26.6618C38.0765 26.7414 38.0595 26.8267 38.0596 26.9129C38.0503 29.8666 36.8729 32.6967 34.7842 34.7853C32.6956 36.8738 29.8654 38.0512 26.9117 38.0602C26.7394 38.0629 26.5751 38.1333 26.4542 38.256C26.3334 38.3788 26.2656 38.5442 26.2656 38.7165C26.2656 38.8888 26.3334 39.0542 26.4543 39.177C26.5752 39.2997 26.7395 39.37 26.9118 39.3727C30.2131 39.3619 33.376 38.0457 35.7104 35.7113C38.0447 33.377 39.3609 30.214 39.3718 26.9128C39.3718 26.8266 39.3549 26.7413 39.3219 26.6617C39.289 26.5821 39.2406 26.5097 39.1797 26.4488C39.1188 26.3879 39.0464 26.3396 38.9668 26.3066C38.8872 26.2736 38.8019 26.2567 38.7157 26.2567Z" fill="#F90B3A"/>
<path d="M26.9144 36.0969C29.3472 36.087 31.6775 35.1163 33.3977 33.3961C35.118 31.6758 36.0888 29.3456 36.0988 26.9128C36.099 26.8265 36.0822 26.7409 36.0494 26.6611C36.0165 26.5812 35.9682 26.5087 35.9073 26.4475C35.8463 26.3864 35.7739 26.3379 35.6942 26.3048C35.6144 26.2717 35.5289 26.2546 35.4426 26.2546C35.3562 26.2546 35.2708 26.2717 35.191 26.3048C35.1113 26.3379 35.0389 26.3864 34.9779 26.4476C34.917 26.5087 34.8687 26.5813 34.8358 26.6612C34.803 26.741 34.7862 26.8265 34.7865 26.9129C34.7781 28.9981 33.946 30.9954 32.4715 32.4698C30.997 33.9442 28.9995 34.7762 26.9144 34.7845C26.7416 34.7865 26.5766 34.8565 26.4552 34.9794C26.3337 35.1022 26.2656 35.268 26.2656 35.4408C26.2656 35.6135 26.3338 35.7793 26.4552 35.9021C26.5767 36.025 26.7417 36.095 26.9144 36.0969Z" fill="#F90B3A"/>
<path d="M3.28497 15.7433C3.37115 15.7433 3.45648 15.7263 3.5361 15.6934C3.61572 15.6604 3.68807 15.6121 3.749 15.5511C3.80994 15.4902 3.85827 15.4179 3.89124 15.3382C3.9242 15.2586 3.94116 15.1733 3.94114 15.0871C3.95034 12.1334 5.12782 9.30328 7.21647 7.21472C9.30512 5.12616 12.1353 3.94881 15.089 3.93974C15.2613 3.93706 15.4256 3.86673 15.5465 3.74395C15.6673 3.62116 15.7351 3.45577 15.7351 3.28347C15.735 3.11117 15.6673 2.94579 15.5464 2.82303C15.4255 2.70027 15.2612 2.62997 15.0889 2.62732C11.7876 2.63813 8.62468 3.95433 6.29032 6.28867C3.95597 8.62301 2.63974 11.7859 2.62891 15.0872C2.62887 15.1734 2.64582 15.2587 2.67878 15.3383C2.71174 15.4179 2.76006 15.4903 2.82099 15.5512C2.88192 15.6121 2.95426 15.6604 3.03387 15.6934C3.11348 15.7264 3.19881 15.7433 3.28497 15.7433Z" fill="#F90B3A"/>
<path d="M15.0867 5.90308C12.6539 5.91297 10.3236 6.88376 8.60337 8.60397C6.88312 10.3242 5.91229 12.6545 5.90234 15.0872C5.9029 15.2609 5.97228 15.4272 6.09528 15.5498C6.21827 15.6724 6.38485 15.7412 6.55851 15.7412C6.73217 15.7412 6.89874 15.6724 7.02172 15.5498C7.1447 15.4272 7.21406 15.2608 7.2146 15.0871C7.22303 13.002 8.05514 11.0046 9.52964 9.53019C11.0041 8.05578 13.0016 7.2238 15.0867 7.21549C15.2595 7.21351 15.4245 7.1435 15.5459 7.02065C15.6674 6.89779 15.7355 6.73201 15.7355 6.55925C15.7355 6.3865 15.6673 6.22072 15.5459 6.09788C15.4244 5.97503 15.2594 5.90504 15.0867 5.90308Z" fill="#F90B3A"/>
<path d="M15.089 38.0603C12.1353 38.0512 9.30516 36.8738 7.21655 34.7852C5.12793 32.6966 3.95049 29.8665 3.94133 26.9128C3.93864 26.7405 3.86832 26.5762 3.74553 26.4553C3.62275 26.3344 3.45736 26.2667 3.28506 26.2667C3.11276 26.2667 2.94738 26.3345 2.82462 26.4554C2.70186 26.5763 2.63156 26.7406 2.62891 26.9129C2.6398 30.2142 3.95608 33.3771 6.29049 35.7114C8.62489 38.0457 11.7879 39.3618 15.0891 39.3726C15.2617 39.3704 15.4265 39.3003 15.5477 39.1774C15.669 39.0546 15.737 38.889 15.737 38.7164C15.7369 38.5438 15.6689 38.3781 15.5476 38.2553C15.4264 38.1325 15.2616 38.0625 15.089 38.0603Z" fill="#F90B3A"/>
<path d="M15.0867 34.7846C13.0015 34.7763 11.0041 33.9442 9.52967 32.4698C8.0552 30.9954 7.22313 28.998 7.21474 26.9128C7.21254 26.7402 7.14244 26.5754 7.0196 26.4541C6.89677 26.3329 6.73111 26.2649 6.5585 26.2649C6.38589 26.2649 6.22023 26.3329 6.09741 26.4542C5.9746 26.5755 5.90451 26.7403 5.90234 26.9129C5.91233 29.3456 6.8832 31.6759 8.60347 33.3961C10.3237 35.1162 12.654 36.087 15.0868 36.0969C15.2592 36.0944 15.4236 36.0241 15.5446 35.9013C15.6656 35.7786 15.7335 35.6131 15.7334 35.4407C15.7334 35.2683 15.6656 35.1028 15.5446 34.9801C15.4236 34.8573 15.2591 34.7871 15.0867 34.7846Z" fill="#F90B3A"/>
</svg>
