<svg width="42" height="42" viewBox="0 0 42 42" fill="none" xmlns="http://www.w3.org/2000/svg">
<path d="M11.373 18.5934H25.808C26.9334 19.2922 28.2317 19.6627 29.5565 19.663C31.4713 19.663 33.3077 18.9023 34.6617 17.5483C36.0157 16.1943 36.7764 14.3579 36.7764 12.4431C36.7764 10.5282 36.0157 8.69181 34.6617 7.33781C33.3077 5.98381 31.4713 5.22314 29.5565 5.22314C28.2314 5.22298 26.9327 5.59347 25.8071 6.29276H11.373C9.75196 6.3252 8.20638 6.98359 7.05994 8.13004C5.91349 9.27649 5.2551 10.8221 5.22266 12.4431C5.22455 14.0736 5.87314 15.6369 7.02613 16.7899C8.17913 17.9429 9.74238 18.5915 11.373 18.5934ZM8.18175 9.25774C9.02338 8.39957 10.171 7.91027 11.373 7.89719H23.9473C23.9115 7.94104 23.8867 7.99217 23.8522 8.03688C22.8691 9.29691 22.3356 10.8495 22.3365 12.4476C22.3374 14.0457 22.8727 15.5977 23.8571 16.8566C23.8899 16.8994 23.9134 16.9473 23.9473 16.9889H11.373C10.4739 16.9963 9.59326 16.7347 8.84401 16.2378C8.09475 15.7409 7.51114 15.0314 7.16812 14.2004C6.82509 13.3693 6.73832 12.4547 6.91894 11.574C7.09955 10.6933 7.53932 9.88667 8.18175 9.25774Z" fill="#F90B3A"/>
<path d="M30.6261 23.4067H16.191C15.0656 22.7078 13.7673 22.3373 12.4426 22.337C10.5277 22.337 8.69132 23.0977 7.33732 24.4517C5.98332 25.8057 5.22266 27.6421 5.22266 29.557C5.22266 31.4718 5.98332 33.3082 7.33732 34.6622C8.69132 36.0162 10.5277 36.7769 12.4426 36.7769C13.7677 36.777 15.0664 36.4065 16.1919 35.7073H30.6261C32.2572 35.7073 33.8216 35.0593 34.975 33.9059C36.1284 32.7525 36.7764 31.1881 36.7764 29.557C36.7764 27.9258 36.1284 26.3614 34.975 25.208C33.8216 24.0546 32.2572 23.4067 30.6261 23.4067ZM33.8333 32.7579C33.4136 33.1821 32.9142 33.5194 32.3638 33.7501C31.8134 33.9809 31.2229 34.1008 30.6261 34.1028H18.0518C18.0875 34.059 18.1122 34.008 18.1467 33.9638C19.1256 32.7019 19.6565 31.15 19.6556 29.553C19.6548 27.9559 19.1222 26.4046 18.1419 25.1438C18.1091 25.101 18.0857 25.0531 18.0518 25.0115H30.6261C31.5249 25.0086 32.4043 25.2731 33.1524 25.7713C33.9005 26.2696 34.4835 26.979 34.8273 27.8095C35.1711 28.6399 35.2602 29.5539 35.0832 30.4351C34.9062 31.3163 34.4711 32.1246 33.8333 32.7579Z" fill="#F90B3A"/>
</svg>
