<svg width="548" height="90" viewBox="0 0 548 90" fill="none" xmlns="http://www.w3.org/2000/svg">
<g filter="url(#filter0_iii_4672_10953)">
<path d="M68.1107 37.358C68.1107 45.2889 66.6074 52.0361 63.6007 57.5995C60.6178 63.163 56.5458 67.4125 51.3848 70.3481C46.2475 73.26 40.471 74.716 34.0553 74.716C27.5922 74.716 21.792 73.2482 16.6547 70.3126C11.5174 67.377 7.45728 63.1275 4.47432 57.564C1.49137 52.0006 -0.000110939 45.2652 -0.000110939 37.358C-0.000110939 29.4272 1.49137 22.68 4.47432 17.1166C7.45728 11.5531 11.5174 7.31543 16.6547 4.4035C21.792 1.46789 27.5922 8.60691e-05 34.0553 8.60691e-05C40.471 8.60691e-05 46.2475 1.46789 51.3848 4.4035C56.5458 7.31543 60.6178 11.5531 63.6007 17.1166C66.6074 22.68 68.1107 29.4272 68.1107 37.358ZM52.5212 37.358C52.5212 32.2207 51.7518 27.8883 50.213 24.3609C48.6978 20.8334 46.5553 18.1582 43.7854 16.3353C41.0155 14.5124 37.7721 13.6009 34.0553 13.6009C30.3384 13.6009 27.0951 14.5124 24.3252 16.3353C21.5553 18.1582 19.4009 20.8334 17.8621 24.3609C16.347 27.8883 15.5894 32.2207 15.5894 37.358C15.5894 42.4954 16.347 46.8277 17.8621 50.3552C19.4009 53.8827 21.5553 56.5579 24.3252 58.3808C27.0951 60.2037 30.3384 61.1151 34.0553 61.1151C37.7721 61.1151 41.0155 60.2037 43.7854 58.3808C46.5553 56.5579 48.6978 53.8827 50.213 50.3552C51.7518 46.8277 52.5212 42.4954 52.5212 37.358ZM99.8618 74.787C94.2746 74.787 89.4688 73.6033 85.4441 71.2359C81.4432 68.8448 78.3655 65.5304 76.2112 61.2927C74.0805 57.055 73.0152 52.1781 73.0152 46.662C73.0152 41.0749 74.0923 36.1743 76.2467 31.9603C78.4247 27.7226 81.5142 24.4201 85.5152 22.0526C89.5161 19.6615 94.2746 18.466 99.7907 18.466C104.549 18.466 108.716 19.3301 112.291 21.0583C115.866 22.7865 118.695 25.2132 120.778 28.3382C122.861 31.4632 124.009 35.1327 124.223 39.3467H109.947C109.545 36.6241 108.479 34.4343 106.751 32.7771C105.046 31.0962 102.809 30.2558 100.039 30.2558C97.6956 30.2558 95.6477 30.895 93.8958 32.1734C92.1676 33.4281 90.8182 35.2629 89.8475 37.6776C88.8769 40.0924 88.3916 43.0162 88.3916 46.449C88.3916 49.9291 88.8651 52.8883 89.812 55.3268C90.7827 57.7652 92.1439 59.6237 93.8958 60.9021C95.6477 62.1805 97.6956 62.8197 100.039 62.8197C101.768 62.8197 103.318 62.4646 104.691 61.7544C106.088 61.0441 107.236 60.0143 108.136 58.6649C109.059 57.2918 109.663 55.6464 109.947 53.7288H124.223C123.986 57.8954 122.849 61.565 120.813 64.7373C118.801 67.886 116.019 70.3481 112.468 72.1237C108.917 73.8992 104.715 74.787 99.8618 74.787ZM129.908 73.7217V19.1762H153.168C159.892 19.1762 165.207 20.4546 169.113 23.0114C173.019 25.5683 174.972 29.2023 174.972 33.9134C174.972 36.8727 173.871 39.3348 171.67 41.2998C169.468 43.2648 166.414 44.5905 162.508 45.2771C165.775 45.5138 168.556 46.2596 170.853 47.5143C173.173 48.7454 174.937 50.3434 176.144 52.3083C177.375 54.2733 177.991 56.4513 177.991 58.8424C177.991 61.9437 177.162 64.6071 175.505 66.8325C173.871 69.0579 171.468 70.7624 168.296 71.9461C165.147 73.1298 161.3 73.7217 156.755 73.7217H129.908ZM144.006 62.3936H156.755C158.862 62.3936 160.507 61.8964 161.691 60.9021C162.898 59.8841 163.502 58.4991 163.502 56.7472C163.502 54.806 162.898 53.279 161.691 52.1663C160.507 51.0536 158.862 50.4972 156.755 50.4972H144.006V62.3936ZM144.006 41.6194H153.488C155.003 41.6194 156.293 41.4063 157.359 40.9802C158.448 40.5304 159.276 39.8912 159.844 39.0626C160.436 38.234 160.732 37.2515 160.732 36.1151C160.732 34.4343 160.057 33.1204 158.708 32.1734C157.359 31.2264 155.512 30.7529 153.168 30.7529H144.006V41.6194ZM208.383 74.787C202.773 74.787 197.943 73.6507 193.895 71.3779C189.87 69.0815 186.769 65.8382 184.591 61.6478C182.413 57.4338 181.324 52.4504 181.324 46.6975C181.324 41.0867 182.413 36.1625 184.591 31.9248C186.769 27.6871 189.835 24.3846 193.788 22.0171C197.766 19.6497 202.429 18.466 207.78 18.466C211.378 18.466 214.728 19.046 217.829 20.2061C220.954 21.3424 223.677 23.0588 225.997 25.3552C228.341 27.6516 230.164 30.5399 231.466 34.02C232.768 37.4764 233.419 41.5247 233.419 46.1649V50.3197H187.361V40.9447H219.179C219.179 38.7667 218.705 36.8372 217.758 35.1563C216.811 33.4755 215.498 32.1615 213.817 31.2146C212.159 30.2439 210.23 29.7586 208.028 29.7586C205.732 29.7586 203.696 30.2913 201.92 31.3566C200.168 32.3983 198.795 33.8069 197.801 35.5825C196.807 37.3344 196.298 39.2875 196.274 41.4418V50.3552C196.274 53.0541 196.771 55.386 197.766 57.3509C198.784 59.3159 200.216 60.8311 202.062 61.8964C203.909 62.9617 206.099 63.4944 208.632 63.4944C210.313 63.4944 211.852 63.2577 213.248 62.7842C214.645 62.3107 215.841 61.6005 216.835 60.6535C217.829 59.7065 218.587 58.5465 219.108 57.1734L233.099 58.0967C232.389 61.4584 230.933 64.394 228.731 66.9035C226.553 69.3893 223.736 71.3306 220.28 72.7274C216.847 74.1005 212.882 74.787 208.383 74.787ZM324.98 61.8254L323.915 89.3467H310.03V73.7217H303.957V61.8254H324.98ZM239.291 19.1762H253.744V61.7188H269.121V19.1762H283.574V61.7188H298.95V19.1762H313.403V73.7217H239.291V19.1762ZM354.29 74.787C348.679 74.787 343.849 73.6507 339.801 71.3779C335.776 69.0815 332.675 65.8382 330.497 61.6478C328.319 57.4338 327.23 52.4504 327.23 46.6975C327.23 41.0867 328.319 36.1625 330.497 31.9248C332.675 27.6871 335.741 24.3846 339.694 22.0171C343.672 19.6497 348.336 18.466 353.686 18.466C357.284 18.466 360.634 19.046 363.736 20.2061C366.861 21.3424 369.583 23.0588 371.903 25.3552C374.247 27.6516 376.07 30.5399 377.372 34.02C378.674 37.4764 379.325 41.5247 379.325 46.1649V50.3197H333.267V40.9447H365.085C365.085 38.7667 364.612 36.8372 363.665 35.1563C362.718 33.4755 361.404 32.1615 359.723 31.2146C358.066 30.2439 356.136 29.7586 353.935 29.7586C351.638 29.7586 349.602 30.2913 347.827 31.3566C346.075 32.3983 344.702 33.8069 343.707 35.5825C342.713 37.3344 342.204 39.2875 342.18 41.4418V50.3552C342.18 53.0541 342.677 55.386 343.672 57.3509C344.69 59.3159 346.122 60.8311 347.969 61.8964C349.815 62.9617 352.005 63.4944 354.538 63.4944C356.219 63.4944 357.758 63.2577 359.155 62.7842C360.552 62.3107 361.747 61.6005 362.741 60.6535C363.736 59.7065 364.493 58.5465 365.014 57.1734L379.006 58.0967C378.295 61.4584 376.839 64.394 374.638 66.9035C372.46 69.3893 369.642 71.3306 366.186 72.7274C362.753 74.1005 358.788 74.787 354.29 74.787ZM423.159 40.412V52.3083H394.679V40.412H423.159ZM399.65 19.1762V73.7217H385.197V19.1762H399.65ZM432.641 19.1762V73.7217H418.294V19.1762H432.641ZM454.83 53.7643L474.468 19.1762H489.383V73.7217H474.965V39.0271L455.398 73.7217H440.377V19.1762H454.83V53.7643ZM522.368 74.787C516.757 74.787 511.927 73.6507 507.879 71.3779C503.855 69.0815 500.753 65.8382 498.575 61.6478C496.397 57.4338 495.308 52.4504 495.308 46.6975C495.308 41.0867 496.397 36.1625 498.575 31.9248C500.753 27.6871 503.819 24.3846 507.773 22.0171C511.75 19.6497 516.414 18.466 521.764 18.466C525.363 18.466 528.712 19.046 531.814 20.2061C534.939 21.3424 537.661 23.0588 539.981 25.3552C542.325 27.6516 544.148 30.5399 545.45 34.02C546.752 37.4764 547.403 41.5247 547.403 46.1649V50.3197H501.345V40.9447H533.163C533.163 38.7667 532.69 36.8372 531.743 35.1563C530.796 33.4755 529.482 32.1615 527.801 31.2146C526.144 30.2439 524.214 29.7586 522.013 29.7586C519.716 29.7586 517.68 30.2913 515.905 31.3566C514.153 32.3983 512.78 33.8069 511.785 35.5825C510.791 37.3344 510.282 39.2875 510.258 41.4418V50.3552C510.258 53.0541 510.756 55.386 511.75 57.3509C512.768 59.3159 514.2 60.8311 516.047 61.8964C517.893 62.9617 520.083 63.4944 522.616 63.4944C524.297 63.4944 525.836 63.2577 527.233 62.7842C528.63 62.3107 529.825 61.6005 530.819 60.6535C531.814 59.7065 532.571 58.5465 533.092 57.1734L547.084 58.0967C546.373 61.4584 544.918 64.394 542.716 66.9035C540.538 69.3893 537.721 71.3306 534.264 72.7274C530.831 74.1005 526.866 74.787 522.368 74.787Z" fill="black" fill-opacity="0.07"/>
</g>
<defs>
<filter id="filter0_iii_4672_10953" x="-2" y="-1" width="550.403" height="92.3467" filterUnits="userSpaceOnUse" color-interpolation-filters="sRGB">
<feFlood flood-opacity="0" result="BackgroundImageFix"/>
<feBlend mode="normal" in="SourceGraphic" in2="BackgroundImageFix" result="shape"/>
<feColorMatrix in="SourceAlpha" type="matrix" values="0 0 0 0 0 0 0 0 0 0 0 0 0 0 0 0 0 0 127 0" result="hardAlpha"/>
<feOffset dx="1" dy="-1"/>
<feGaussianBlur stdDeviation="0.5"/>
<feComposite in2="hardAlpha" operator="arithmetic" k2="-1" k3="1"/>
<feColorMatrix type="matrix" values="0 0 0 0 1 0 0 0 0 1 0 0 0 0 1 0 0 0 0.6 0"/>
<feBlend mode="normal" in2="shape" result="effect1_innerShadow_4672_10953"/>
<feColorMatrix in="SourceAlpha" type="matrix" values="0 0 0 0 0 0 0 0 0 0 0 0 0 0 0 0 0 0 127 0" result="hardAlpha"/>
<feOffset dx="-2" dy="2"/>
<feGaussianBlur stdDeviation="0.5"/>
<feComposite in2="hardAlpha" operator="arithmetic" k2="-1" k3="1"/>
<feColorMatrix type="matrix" values="0 0 0 0 0.996154 0 0 0 0 0.996154 0 0 0 0 0.996154 0 0 0 0.12 0"/>
<feBlend mode="normal" in2="effect1_innerShadow_4672_10953" result="effect2_innerShadow_4672_10953"/>
<feColorMatrix in="SourceAlpha" type="matrix" values="0 0 0 0 0 0 0 0 0 0 0 0 0 0 0 0 0 0 127 0" result="hardAlpha"/>
<feOffset dx="-2" dy="2"/>
<feGaussianBlur stdDeviation="1.5"/>
<feComposite in2="hardAlpha" operator="arithmetic" k2="-1" k3="1"/>
<feColorMatrix type="matrix" values="0 0 0 0 0 0 0 0 0 0 0 0 0 0 0 0 0 0 0.19 0"/>
<feBlend mode="normal" in2="effect2_innerShadow_4672_10953" result="effect3_innerShadow_4672_10953"/>
</filter>
</defs>
</svg>
