<svg width="351" height="74" viewBox="0 0 351 74" fill="none" xmlns="http://www.w3.org/2000/svg">
<g filter="url(#filter0_iii_4672_10997)">
<path d="M43.9986 72.7273L20.6321 41.7259H15.3764V72.7273H-2.22623e-05V2.00272e-05H15.3764V29.0483H18.4659L42.6136 2.00272e-05H61.7542L33.3807 33.7358L63.0682 72.7273H43.9986ZM63.3206 72.7273L63.2496 60.7245H65.0607C66.3391 60.7245 67.44 60.4167 68.3633 59.8012C69.3102 59.162 70.0915 58.1321 70.707 56.7117C71.3225 55.2912 71.8079 53.4091 72.163 51.0654C72.5181 48.6979 72.7548 45.786 72.8732 42.3296L73.761 18.1818H115.238V72.7273H100.821V30.0781H87.3618L86.5096 46.733C86.2965 51.3021 85.7402 55.232 84.8405 58.5227C83.9646 61.8135 82.7454 64.5123 81.1829 66.6193C79.6204 68.7027 77.7383 70.2415 75.5366 71.2358C73.3349 72.2301 70.778 72.7273 67.8661 72.7273H63.3206ZM137.419 52.7699L157.057 18.1818H171.972V72.7273H157.554V38.0327L137.987 72.7273H122.966V18.1818H137.419V52.7699ZM212.343 56.0014L227.116 18.1818H238.621L217.35 72.7273H207.3L186.526 18.1818H197.996L212.343 56.0014ZM194.552 18.1818V72.7273H180.099V18.1818H194.552ZM230.88 72.7273V18.1818H245.156V72.7273H230.88ZM268.41 73.7571C264.93 73.7571 261.829 73.1534 259.107 71.946C256.384 70.715 254.23 68.9039 252.643 66.5128C251.081 64.098 250.3 61.0914 250.3 57.4929C250.3 54.4626 250.856 51.9176 251.969 49.858C253.081 47.7983 254.597 46.1411 256.514 44.8864C258.432 43.6317 260.61 42.6847 263.048 42.0455C265.51 41.4063 268.091 40.9565 270.79 40.696C273.962 40.3646 276.519 40.0568 278.46 39.7727C280.401 39.465 281.81 39.0152 282.686 38.4233C283.562 37.8315 284 36.9555 284 35.7955V35.5824C284 33.3334 283.29 31.5933 281.869 30.3622C280.473 29.1312 278.484 28.5156 275.903 28.5156C273.181 28.5156 271.015 29.1193 269.405 30.3267C267.795 31.5104 266.73 33.0019 266.209 34.8012L252.217 33.6648C252.928 30.3504 254.324 27.4858 256.408 25.071C258.491 22.6326 261.178 20.7623 264.469 19.4602C267.783 18.1345 271.618 17.4716 275.974 17.4716C279.005 17.4716 281.905 17.8267 284.675 18.537C287.468 19.2472 289.942 20.348 292.097 21.8395C294.275 23.331 295.991 25.2486 297.246 27.5924C298.5 29.9124 299.128 32.6941 299.128 35.9375V72.7273H284.781V65.1634H284.355C283.479 66.8679 282.307 68.3712 280.839 69.6733C279.372 70.9517 277.608 71.9579 275.548 72.6918C273.489 73.402 271.109 73.7571 268.41 73.7571ZM272.743 63.3168C274.968 63.3168 276.933 62.8788 278.638 62.0029C280.342 61.1032 281.68 59.8959 282.651 58.3807C283.621 56.8656 284.107 55.1492 284.107 53.2316V47.4432C283.633 47.751 282.982 48.0351 282.153 48.2955C281.348 48.5322 280.437 48.7571 279.419 48.9702C278.401 49.1596 277.383 49.3371 276.365 49.5029C275.347 49.6449 274.424 49.7751 273.595 49.8935C271.82 50.1539 270.269 50.5682 268.943 51.1364C267.617 51.7046 266.588 52.474 265.854 53.4446C265.12 54.3916 264.753 55.5753 264.753 56.9958C264.753 59.0554 265.499 60.6298 266.99 61.7188C268.505 62.7841 270.423 63.3168 272.743 63.3168ZM301.387 30.0781V18.1818H350.819V30.0781H333.24V72.7273H318.823V30.0781H301.387Z" fill="black" fill-opacity="0.07"/>
</g>
<defs>
<filter id="filter0_iii_4672_10997" x="-2" y="-1" width="353.819" height="76.7571" filterUnits="userSpaceOnUse" color-interpolation-filters="sRGB">
<feFlood flood-opacity="0" result="BackgroundImageFix"/>
<feBlend mode="normal" in="SourceGraphic" in2="BackgroundImageFix" result="shape"/>
<feColorMatrix in="SourceAlpha" type="matrix" values="0 0 0 0 0 0 0 0 0 0 0 0 0 0 0 0 0 0 127 0" result="hardAlpha"/>
<feOffset dx="1" dy="-1"/>
<feGaussianBlur stdDeviation="0.5"/>
<feComposite in2="hardAlpha" operator="arithmetic" k2="-1" k3="1"/>
<feColorMatrix type="matrix" values="0 0 0 0 1 0 0 0 0 1 0 0 0 0 1 0 0 0 0.6 0"/>
<feBlend mode="normal" in2="shape" result="effect1_innerShadow_4672_10997"/>
<feColorMatrix in="SourceAlpha" type="matrix" values="0 0 0 0 0 0 0 0 0 0 0 0 0 0 0 0 0 0 127 0" result="hardAlpha"/>
<feOffset dx="-2" dy="2"/>
<feGaussianBlur stdDeviation="0.5"/>
<feComposite in2="hardAlpha" operator="arithmetic" k2="-1" k3="1"/>
<feColorMatrix type="matrix" values="0 0 0 0 0.996154 0 0 0 0 0.996154 0 0 0 0 0.996154 0 0 0 0.12 0"/>
<feBlend mode="normal" in2="effect1_innerShadow_4672_10997" result="effect2_innerShadow_4672_10997"/>
<feColorMatrix in="SourceAlpha" type="matrix" values="0 0 0 0 0 0 0 0 0 0 0 0 0 0 0 0 0 0 127 0" result="hardAlpha"/>
<feOffset dx="-2" dy="2"/>
<feGaussianBlur stdDeviation="1.5"/>
<feComposite in2="hardAlpha" operator="arithmetic" k2="-1" k3="1"/>
<feColorMatrix type="matrix" values="0 0 0 0 0 0 0 0 0 0 0 0 0 0 0 0 0 0 0.19 0"/>
<feBlend mode="normal" in2="effect2_innerShadow_4672_10997" result="effect3_innerShadow_4672_10997"/>
</filter>
</defs>
</svg>
