<svg width="585" height="67" viewBox="0 0 585 67" fill="none" xmlns="http://www.w3.org/2000/svg">
<g filter="url(#filter0_iii_4672_11366)">
<path d="M-4.44502e-05 65.4546V4.24385e-05H43.4339V11.4098H13.8387V24.1939H24.4815C29.659 24.1939 34.1228 25.0356 37.8728 26.7188C41.6441 28.3807 44.5525 30.7351 46.598 33.782C48.6434 36.8289 49.6661 40.4191 49.6661 44.5526C49.6661 48.6648 48.6434 52.2976 46.598 55.451C44.5525 58.5831 41.6441 61.0334 37.8728 62.8019C34.1228 64.5704 29.659 65.4546 24.4815 65.4546H-4.44502e-05ZM13.8387 54.3324H24.4815C26.9531 54.3324 29.0412 53.885 30.7457 52.9901C32.4502 52.0739 33.7393 50.8701 34.6129 49.3786C35.5078 47.8658 35.9552 46.2145 35.9552 44.4248C35.9552 41.8253 34.9644 39.6307 32.9829 37.841C31.0227 36.0299 28.1889 35.1243 24.4815 35.1243H13.8387V54.3324ZM76.7395 66.4134C71.6898 66.4134 67.3432 65.3907 63.6997 63.3452C60.0775 61.2785 57.2864 58.3594 55.3261 54.5881C53.3659 50.7955 52.3858 46.3104 52.3858 41.1329C52.3858 36.0831 53.3659 31.6513 55.3261 27.8374C57.2864 24.0235 60.0456 21.0512 63.6038 18.9205C67.1834 16.7898 71.3808 15.7245 76.1962 15.7245C79.4348 15.7245 82.4497 16.2465 85.2409 17.2905C88.0534 18.3133 90.5037 19.858 92.5918 21.9248C94.7011 23.9915 96.3418 26.591 97.5136 29.7231C98.6855 32.8338 99.2714 36.4773 99.2714 40.6535V44.3928H57.819V35.9553H86.4554C86.4554 33.9951 86.0293 32.2586 85.177 30.7458C84.3247 29.233 83.1422 28.0505 81.6294 27.1982C80.1379 26.3246 78.4014 25.8878 76.4199 25.8878C74.3531 25.8878 72.5207 26.3672 70.9227 27.326C69.346 28.2635 68.1102 29.5313 67.2153 31.1293C66.3204 32.706 65.8623 34.4638 65.841 36.4027V44.4248C65.841 46.8537 66.2885 48.9525 67.1834 50.7209C68.0996 52.4894 69.3886 53.853 71.0506 54.8118C72.7125 55.7706 74.6834 56.25 76.9632 56.25C78.476 56.25 79.8609 56.037 81.118 55.6108C82.3751 55.1847 83.4511 54.5455 84.346 53.6932C85.2409 52.841 85.9227 51.7969 86.3915 50.5611L98.9838 51.3921C98.3446 54.4177 97.0342 57.0597 95.0527 59.3182C93.0925 61.5554 90.557 63.3026 87.4462 64.5597C84.3567 65.7955 80.7878 66.4134 76.7395 66.4134ZM101.632 51.5519H114.831C114.895 53.1712 115.619 54.4496 117.004 55.3871C118.389 56.3246 120.179 56.7934 122.374 56.7934C124.59 56.7934 126.454 56.282 127.967 55.2593C129.48 54.2152 130.236 52.7238 130.236 50.7848C130.236 49.5917 129.938 48.5583 129.341 47.6847C128.744 46.7898 127.913 46.0867 126.848 45.5753C125.783 45.064 124.547 44.8083 123.141 44.8083H116.078V35.8914H123.141C125.25 35.8914 126.869 35.4013 127.999 34.4212C129.149 33.4411 129.725 32.216 129.725 30.7458C129.725 29.0839 129.128 27.7522 127.935 26.7508C126.763 25.728 125.176 25.2167 123.173 25.2167C121.149 25.2167 119.465 25.6748 118.123 26.591C116.802 27.4858 116.12 28.6577 116.078 30.1066H102.942C102.985 27.1662 103.869 24.6201 105.595 22.4681C107.342 20.3161 109.686 18.6542 112.626 17.4823C115.587 16.3104 118.901 15.7245 122.565 15.7245C126.571 15.7245 130.023 16.2891 132.921 17.4184C135.84 18.5263 138.077 20.1137 139.632 22.1804C141.209 24.2472 141.997 26.7081 141.997 29.5633C141.997 32.1627 141.145 34.336 139.44 36.0831C137.736 37.8303 135.35 39.0767 132.281 39.8225V40.3339C134.306 40.4617 136.138 41.005 137.779 41.9638C139.419 42.9226 140.73 44.2437 141.71 45.9269C142.69 47.5888 143.18 49.5597 143.18 51.8395C143.18 54.8864 142.285 57.4965 140.495 59.6698C138.727 61.8431 136.276 63.5157 133.144 64.6875C130.034 65.8381 126.465 66.4134 122.438 66.4134C118.517 66.4134 115.002 65.8488 111.891 64.7195C108.801 63.5689 106.34 61.8857 104.508 59.6698C102.697 57.4539 101.738 54.7479 101.632 51.5519ZM169.71 66.4134C164.745 66.4134 160.452 65.3587 156.83 63.2493C153.229 61.1187 150.448 58.157 148.488 54.3644C146.528 50.5505 145.548 46.1293 145.548 41.1009C145.548 36.0299 146.528 31.5981 148.488 27.8054C150.448 23.9915 153.229 21.0299 156.83 18.9205C160.452 16.7898 164.745 15.7245 169.71 15.7245C174.674 15.7245 178.957 16.7898 182.558 18.9205C186.18 21.0299 188.971 23.9915 190.931 27.8054C192.892 31.5981 193.872 36.0299 193.872 41.1009C193.872 46.1293 192.892 50.5505 190.931 54.3644C188.971 58.157 186.18 61.1187 182.558 63.2493C178.957 65.3587 174.674 66.4134 169.71 66.4134ZM169.774 55.8665C172.032 55.8665 173.918 55.2273 175.431 53.9489C176.943 52.6492 178.083 50.8807 178.85 48.6435C179.639 46.4063 180.033 43.8601 180.033 41.005C180.033 38.1499 179.639 35.6037 178.85 33.3665C178.083 31.1293 176.943 29.3608 175.431 28.0611C173.918 26.7614 172.032 26.1115 169.774 26.1115C167.494 26.1115 165.576 26.7614 164.021 28.0611C162.487 29.3608 161.326 31.1293 160.537 33.3665C159.77 35.6037 159.387 38.1499 159.387 41.005C159.387 43.8601 159.77 46.4063 160.537 48.6435C161.326 50.8807 162.487 52.6492 164.021 53.9489C165.576 55.2273 167.494 55.8665 169.774 55.8665ZM198.725 65.4546V16.3637H241.647V65.4546H228.64V27.0704H211.573V65.4546H198.725ZM262.512 66.3814C259.38 66.3814 256.589 65.8381 254.139 64.7515C251.689 63.6435 249.75 62.0135 248.322 59.8616C246.916 57.6883 246.213 54.9823 246.213 51.7437C246.213 49.0164 246.713 46.7259 247.715 44.8722C248.716 43.0185 250.08 41.527 251.806 40.3978C253.532 39.2685 255.492 38.4162 257.686 37.841C259.902 37.2657 262.225 36.8608 264.654 36.6265C267.509 36.3282 269.81 36.0512 271.557 35.7955C273.304 35.5185 274.572 35.1137 275.36 34.581C276.149 34.0483 276.543 33.26 276.543 32.216V32.0242C276.543 30 275.904 28.434 274.625 27.326C273.368 26.2181 271.578 25.6641 269.256 25.6641C266.806 25.6641 264.856 26.2074 263.407 27.2941C261.958 28.3594 261 29.7017 260.531 31.3211L247.939 30.2983C248.578 27.3154 249.835 24.7373 251.71 22.564C253.585 20.3694 256.003 18.6861 258.965 17.5142C261.948 16.3211 265.399 15.7245 269.32 15.7245C272.047 15.7245 274.657 16.0441 277.15 16.6833C279.664 17.3225 281.891 18.3133 283.83 19.6556C285.79 20.9979 287.335 22.7238 288.464 24.8331C289.593 26.9212 290.158 29.4248 290.158 32.3438V65.4546H277.246V58.6471H276.863C276.074 60.1812 275.019 61.5341 273.698 62.706C272.377 63.8566 270.79 64.7621 268.936 65.4226C267.083 66.0618 264.941 66.3814 262.512 66.3814ZM266.412 56.9851C268.414 56.9851 270.183 56.591 271.717 55.8026C273.251 54.9929 274.455 53.9063 275.328 52.5427C276.202 51.179 276.639 49.6343 276.639 47.9084V42.6989C276.213 42.9759 275.627 43.2316 274.881 43.466C274.157 43.679 273.336 43.8814 272.42 44.0732C271.504 44.2437 270.588 44.4035 269.671 44.5526C268.755 44.6804 267.924 44.7976 267.179 44.9042C265.581 45.1385 264.185 45.5114 262.992 46.0228C261.799 46.5341 260.872 47.2266 260.211 48.1002C259.551 48.9525 259.22 50.0178 259.22 51.2962C259.22 53.1499 259.892 54.5668 261.234 55.5469C262.598 56.5057 264.323 56.9851 266.412 56.9851ZM318.901 66.4134C313.873 66.4134 309.548 65.3481 305.925 63.2174C302.325 61.0654 299.555 58.0824 297.616 54.2685C295.698 50.4546 294.739 46.0654 294.739 41.1009C294.739 36.0725 295.709 31.662 297.648 27.8694C299.608 24.0554 302.388 21.0831 305.989 18.9525C309.59 16.8005 313.873 15.7245 318.837 15.7245C323.12 15.7245 326.87 16.5022 330.087 18.0576C333.305 19.613 335.851 21.7969 337.726 24.6094C339.601 27.4219 340.634 30.7245 340.826 34.5171H327.978C327.616 32.0668 326.657 30.0959 325.102 28.6044C323.567 27.0917 321.554 26.3353 319.061 26.3353C316.952 26.3353 315.109 26.9106 313.532 28.0611C311.977 29.1904 310.762 30.8417 309.888 33.015C309.015 35.1883 308.578 37.8196 308.578 40.9091C308.578 44.0412 309.004 46.7046 309.856 48.8992C310.73 51.0938 311.955 52.7664 313.532 53.9169C315.109 55.0675 316.952 55.6428 319.061 55.6428C320.616 55.6428 322.012 55.3232 323.248 54.684C324.505 54.0448 325.538 53.1179 326.348 51.9035C327.179 50.6677 327.722 49.1868 327.978 47.461H340.826C340.613 51.211 339.59 54.5135 337.758 57.3687C335.947 60.2025 333.443 62.4184 330.247 64.0164C327.051 65.6144 323.269 66.4134 318.901 66.4134ZM379.709 35.4759V46.1826H354.076V35.4759H379.709ZM358.551 16.3637V65.4546H345.543V16.3637H358.551ZM388.242 16.3637V65.4546H375.33V16.3637H388.242ZM416.985 66.4134C412.021 66.4134 407.727 65.3587 404.105 63.2493C400.504 61.1187 397.724 58.157 395.764 54.3644C393.803 50.5505 392.823 46.1293 392.823 41.1009C392.823 36.0299 393.803 31.5981 395.764 27.8054C397.724 23.9915 400.504 21.0299 404.105 18.9205C407.727 16.7898 412.021 15.7245 416.985 15.7245C421.95 15.7245 426.232 16.7898 429.833 18.9205C433.455 21.0299 436.247 23.9915 438.207 27.8054C440.167 31.5981 441.147 36.0299 441.147 41.1009C441.147 46.1293 440.167 50.5505 438.207 54.3644C436.247 58.157 433.455 61.1187 429.833 63.2493C426.232 65.3587 421.95 66.4134 416.985 66.4134ZM417.049 55.8665C419.308 55.8665 421.193 55.2273 422.706 53.9489C424.219 52.6492 425.359 50.8807 426.126 48.6435C426.914 46.4063 427.308 43.8601 427.308 41.005C427.308 38.1499 426.914 35.6037 426.126 33.3665C425.359 31.1293 424.219 29.3608 422.706 28.0611C421.193 26.7614 419.308 26.1115 417.049 26.1115C414.769 26.1115 412.852 26.7614 411.296 28.0611C409.762 29.3608 408.601 31.1293 407.813 33.3665C407.046 35.6037 406.662 38.1499 406.662 41.005C406.662 43.8601 407.046 46.4063 407.813 48.6435C408.601 50.8807 409.762 52.6492 411.296 53.9489C412.852 55.2273 414.769 55.8665 417.049 55.8665ZM468.181 66.4134C463.152 66.4134 458.827 65.3481 455.205 63.2174C451.604 61.0654 448.834 58.0824 446.895 54.2685C444.977 50.4546 444.019 46.0654 444.019 41.1009C444.019 36.0725 444.988 31.662 446.927 27.8694C448.887 24.0554 451.668 21.0831 455.269 18.9525C458.869 16.8005 463.152 15.7245 468.117 15.7245C472.399 15.7245 476.149 16.5022 479.367 18.0576C482.584 19.613 485.13 21.7969 487.005 24.6094C488.88 27.4219 489.913 30.7245 490.105 34.5171H477.257C476.895 32.0668 475.936 30.0959 474.381 28.6044C472.847 27.0917 470.833 26.3353 468.34 26.3353C466.231 26.3353 464.388 26.9106 462.811 28.0611C461.256 29.1904 460.041 30.8417 459.168 33.015C458.294 35.1883 457.857 37.8196 457.857 40.9091C457.857 44.0412 458.284 46.7046 459.136 48.8992C460.009 51.0938 461.235 52.7664 462.811 53.9169C464.388 55.0675 466.231 55.6428 468.34 55.6428C469.896 55.6428 471.291 55.3232 472.527 54.684C473.784 54.0448 474.818 53.1179 475.627 51.9035C476.458 50.6677 477.002 49.1868 477.257 47.461H490.105C489.892 51.211 488.869 54.5135 487.037 57.3687C485.226 60.2025 482.722 62.4184 479.526 64.0164C476.33 65.6144 472.548 66.4134 468.181 66.4134ZM491.475 27.0704V16.3637H535.963V27.0704H520.143V65.4546H507.167V27.0704H491.475ZM548.75 31.4489H563.42C569.919 31.4489 574.99 33.0043 578.633 36.1151C582.277 39.2046 584.098 43.3381 584.098 48.5157C584.098 51.8821 583.278 54.8438 581.637 57.4006C579.997 59.9361 577.632 61.9177 574.542 63.3452C571.453 64.7515 567.745 65.4546 563.42 65.4546H540.217V16.3637H553.225V54.7479H563.42C565.7 54.7479 567.575 54.1726 569.045 53.0221C570.515 51.8715 571.261 50.4013 571.282 48.6115C571.261 46.7152 570.515 45.1705 569.045 43.9773C567.575 42.7628 565.7 42.1556 563.42 42.1556H548.75V31.4489Z" fill="url(#paint0_linear_4672_11366)" fill-opacity="0.5"/>
</g>
<defs>
<filter id="filter0_iii_4672_11366" x="-2" y="-1" width="587.098" height="69.4133" filterUnits="userSpaceOnUse" color-interpolation-filters="sRGB">
<feFlood flood-opacity="0" result="BackgroundImageFix"/>
<feBlend mode="normal" in="SourceGraphic" in2="BackgroundImageFix" result="shape"/>
<feColorMatrix in="SourceAlpha" type="matrix" values="0 0 0 0 0 0 0 0 0 0 0 0 0 0 0 0 0 0 127 0" result="hardAlpha"/>
<feOffset dx="1" dy="-1"/>
<feGaussianBlur stdDeviation="0.5"/>
<feComposite in2="hardAlpha" operator="arithmetic" k2="-1" k3="1"/>
<feColorMatrix type="matrix" values="0 0 0 0 1 0 0 0 0 1 0 0 0 0 1 0 0 0 0.6 0"/>
<feBlend mode="normal" in2="shape" result="effect1_innerShadow_4672_11366"/>
<feColorMatrix in="SourceAlpha" type="matrix" values="0 0 0 0 0 0 0 0 0 0 0 0 0 0 0 0 0 0 127 0" result="hardAlpha"/>
<feOffset dx="-2" dy="2"/>
<feGaussianBlur stdDeviation="0.5"/>
<feComposite in2="hardAlpha" operator="arithmetic" k2="-1" k3="1"/>
<feColorMatrix type="matrix" values="0 0 0 0 0.111538 0 0 0 0 0.111538 0 0 0 0 0.111538 0 0 0 0.12 0"/>
<feBlend mode="normal" in2="effect1_innerShadow_4672_11366" result="effect2_innerShadow_4672_11366"/>
<feColorMatrix in="SourceAlpha" type="matrix" values="0 0 0 0 0 0 0 0 0 0 0 0 0 0 0 0 0 0 127 0" result="hardAlpha"/>
<feOffset dx="-2" dy="2"/>
<feGaussianBlur stdDeviation="1.5"/>
<feComposite in2="hardAlpha" operator="arithmetic" k2="-1" k3="1"/>
<feColorMatrix type="matrix" values="0 0 0 0 1 0 0 0 0 1 0 0 0 0 1 0 0 0 0.25 0"/>
<feBlend mode="normal" in2="effect2_innerShadow_4672_11366" result="effect3_innerShadow_4672_11366"/>
</filter>
<linearGradient id="paint0_linear_4672_11366" x1="-5.68896" y1="32.4546" x2="592.074" y2="32.4546" gradientUnits="userSpaceOnUse">
<stop stop-color="#9198A8" stop-opacity="0.15"/>
<stop offset="0.673364" stop-color="#AFE7FF"/>
<stop offset="1" stop-color="#9198A8" stop-opacity="0.15"/>
</linearGradient>
</defs>
</svg>
