<svg width="334" height="94" viewBox="0 0 334 94" fill="none" xmlns="http://www.w3.org/2000/svg">
<g filter="url(#filter0_iii_4672_11409)">
<path d="M4.45247e-05 -0.000224113H15.0214V60.3691H35.902V-0.000224113H50.8523V60.3691H71.4844V-0.000224113H86.4347V72.7271H4.45247e-05V-0.000224113ZM94.8459 30.0779V18.1816H144.278V30.0779H126.7V72.7271H112.282V30.0779H94.8459ZM172.14 73.7924C166.624 73.7924 161.854 72.6205 157.829 70.2768C153.828 67.9093 150.739 64.6186 148.561 60.4046C146.383 56.1669 145.294 51.2545 145.294 45.6674C145.294 40.0329 146.383 35.1087 148.561 30.8947C150.739 26.657 153.828 23.3663 157.829 21.0225C161.854 18.6551 166.624 17.4714 172.14 17.4714C177.656 17.4714 182.415 18.6551 186.416 21.0225C190.441 23.3663 193.542 26.657 195.72 30.8947C197.898 35.1087 198.987 40.0329 198.987 45.6674C198.987 51.2545 197.898 56.1669 195.72 60.4046C193.542 64.6186 190.441 67.9093 186.416 70.2768C182.415 72.6205 177.656 73.7924 172.14 73.7924ZM172.211 62.0736C174.721 62.0736 176.816 61.3634 178.497 59.943C180.178 58.4988 181.444 56.5339 182.297 54.0481C183.173 51.5623 183.61 48.7332 183.61 45.5609C183.61 42.3885 183.173 39.5594 182.297 37.0736C181.444 34.5878 180.178 32.6229 178.497 31.1788C176.816 29.7346 174.721 29.0126 172.211 29.0126C169.678 29.0126 167.548 29.7346 165.819 31.1788C164.115 32.6229 162.825 34.5878 161.949 37.0736C161.096 39.5594 160.67 42.3885 160.67 45.5609C160.67 48.7332 161.096 51.5623 161.949 54.0481C162.825 56.5339 164.115 58.4988 165.819 59.943C167.548 61.3634 169.678 62.0736 172.211 62.0736ZM204.824 93.1816V18.1816H219.738V27.3435H220.413C221.076 25.8757 222.035 24.3842 223.289 22.8691C224.568 21.3303 226.225 20.0519 228.261 19.0339C230.321 17.9922 232.878 17.4714 235.932 17.4714C239.909 17.4714 243.578 18.513 246.94 20.5964C250.302 22.656 252.989 25.7692 255.001 29.9359C257.013 34.0788 258.02 39.2753 258.02 45.5253C258.02 51.6096 257.037 56.7469 255.072 60.9373C253.131 65.1039 250.479 68.2645 247.118 70.4188C243.78 72.5495 240.039 73.6148 235.896 73.6148C232.96 73.6148 230.463 73.1295 228.403 72.1589C226.367 71.1882 224.698 69.969 223.396 68.5012C222.094 67.0097 221.1 65.5064 220.413 63.9913H219.951V93.1816H204.824ZM219.632 45.4543C219.632 48.6977 220.082 51.5268 220.981 53.9415C221.881 56.3563 223.183 58.2384 224.887 59.5878C226.592 60.9136 228.664 61.5765 231.102 61.5765C233.564 61.5765 235.647 60.9018 237.352 59.5523C239.057 58.1792 240.347 56.2853 241.223 53.8705C242.122 51.4321 242.572 48.6267 242.572 45.4543C242.572 42.3056 242.134 39.5358 241.258 37.1447C240.382 34.7536 239.092 32.8833 237.387 31.5339C235.683 30.1844 233.588 29.5097 231.102 29.5097C228.64 29.5097 226.557 30.1608 224.852 31.4628C223.171 32.7649 221.881 34.6115 220.981 37.0026C220.082 39.3937 219.632 42.211 219.632 45.4543ZM273.586 34.943H289.886C297.107 34.943 302.741 36.6712 306.789 40.1276C310.838 43.5604 312.862 48.1532 312.862 53.906C312.862 57.6466 311.95 60.9373 310.128 63.7782C308.305 66.5954 305.677 68.7971 302.244 70.3833C298.811 71.9458 294.692 72.7271 289.886 72.7271H264.105V18.1816H278.558V60.8307H289.886C292.419 60.8307 294.503 60.1915 296.136 58.9131C297.77 57.6347 298.598 56.0012 298.622 54.0126C298.598 51.9056 297.77 50.1892 296.136 48.8634C294.503 47.514 292.419 46.8393 289.886 46.8393H273.586V34.943ZM318.721 72.7271V18.1816H333.849V72.7271H318.721Z" fill="black" fill-opacity="0.07"/>
</g>
<defs>
<filter id="filter0_iii_4672_11409" x="-2" y="-1" width="336.849" height="96.1816" filterUnits="userSpaceOnUse" color-interpolation-filters="sRGB">
<feFlood flood-opacity="0" result="BackgroundImageFix"/>
<feBlend mode="normal" in="SourceGraphic" in2="BackgroundImageFix" result="shape"/>
<feColorMatrix in="SourceAlpha" type="matrix" values="0 0 0 0 0 0 0 0 0 0 0 0 0 0 0 0 0 0 127 0" result="hardAlpha"/>
<feOffset dx="1" dy="-1"/>
<feGaussianBlur stdDeviation="0.5"/>
<feComposite in2="hardAlpha" operator="arithmetic" k2="-1" k3="1"/>
<feColorMatrix type="matrix" values="0 0 0 0 1 0 0 0 0 1 0 0 0 0 1 0 0 0 0.6 0"/>
<feBlend mode="normal" in2="shape" result="effect1_innerShadow_4672_11409"/>
<feColorMatrix in="SourceAlpha" type="matrix" values="0 0 0 0 0 0 0 0 0 0 0 0 0 0 0 0 0 0 127 0" result="hardAlpha"/>
<feOffset dx="-2" dy="2"/>
<feGaussianBlur stdDeviation="0.5"/>
<feComposite in2="hardAlpha" operator="arithmetic" k2="-1" k3="1"/>
<feColorMatrix type="matrix" values="0 0 0 0 0.996154 0 0 0 0 0.996154 0 0 0 0 0.996154 0 0 0 0.12 0"/>
<feBlend mode="normal" in2="effect1_innerShadow_4672_11409" result="effect2_innerShadow_4672_11409"/>
<feColorMatrix in="SourceAlpha" type="matrix" values="0 0 0 0 0 0 0 0 0 0 0 0 0 0 0 0 0 0 127 0" result="hardAlpha"/>
<feOffset dx="-2" dy="2"/>
<feGaussianBlur stdDeviation="1.5"/>
<feComposite in2="hardAlpha" operator="arithmetic" k2="-1" k3="1"/>
<feColorMatrix type="matrix" values="0 0 0 0 0 0 0 0 0 0 0 0 0 0 0 0 0 0 0.19 0"/>
<feBlend mode="normal" in2="effect2_innerShadow_4672_11409" result="effect3_innerShadow_4672_11409"/>
</filter>
</defs>
</svg>
