<svg width="584" height="189" viewBox="0 0 584 189" fill="none" xmlns="http://www.w3.org/2000/svg">
<g filter="url(#filter0_iii_4672_11529)">
<path d="M0.284157 72.7271V-0.000224113H29.4035C34.7539 -0.000224113 39.2164 0.792863 42.7913 2.37904C46.3661 3.96521 49.0531 6.16692 50.8523 8.98415C52.6516 11.7777 53.5512 14.9974 53.5512 18.6432C53.5512 21.4842 52.983 23.9818 51.8467 26.1361C50.7103 28.2668 49.1478 30.0187 47.1592 31.3918C45.1942 32.7413 42.9451 33.7001 40.412 34.2682V34.9785C43.1819 35.0968 45.7742 35.8781 48.189 37.3222C50.6274 38.7663 52.6042 40.7905 54.1194 43.3947C55.6345 45.9752 56.3921 49.0528 56.3921 52.6276C56.3921 56.4865 55.4333 59.9311 53.5157 62.9614C51.6218 65.9681 48.8164 68.3473 45.0995 70.0992C41.3826 71.8511 36.8017 72.7271 31.3566 72.7271H0.284157ZM15.6606 60.156H28.1961C32.4811 60.156 35.6061 59.3393 37.5711 57.7057C39.5361 56.0485 40.5185 53.8468 40.5185 51.1006C40.5185 49.0883 40.0332 47.3128 39.0626 45.7739C38.0919 44.2351 36.707 43.0277 34.9077 42.1518C33.1322 41.2758 31.0133 40.8378 28.5512 40.8378H15.6606V60.156ZM15.6606 30.433H27.0597C29.1667 30.433 31.037 30.0661 32.6705 29.3322C34.3277 28.5746 35.6298 27.5092 36.5768 26.1361C37.5474 24.763 38.0327 23.1177 38.0327 21.2001C38.0327 18.5722 37.0976 16.4534 35.2273 14.8435C33.3807 13.2337 30.7529 12.4288 27.3438 12.4288H15.6606V30.433ZM76.5665 52.7697L96.2043 18.1816H111.119V72.7271H96.7014V38.0324L77.1347 72.7271H62.1133V18.1816H76.5665V52.7697ZM114.985 88.7072V60.7242H119.175C120.383 59.9666 121.353 58.7592 122.087 57.1021C122.845 55.4449 123.46 53.4917 123.934 51.2427C124.431 48.9936 124.81 46.567 125.07 43.9628C125.354 41.335 125.603 38.6835 125.816 36.0083L127.236 18.1816H169.069V60.7242H177.52V88.7072H163.103V72.7271H129.758V88.7072H114.985ZM134.232 60.7242H154.793V29.8293H140.091L139.523 36.0083C139.121 41.8322 138.541 46.7801 137.783 50.8521C137.026 54.9003 135.842 58.1911 134.232 60.7242ZM207.194 73.7924C201.583 73.7924 196.754 72.656 192.705 70.3833C188.681 68.0869 185.579 64.8435 183.401 60.6532C181.223 56.4392 180.134 51.4557 180.134 45.7029C180.134 40.0921 181.223 35.1679 183.401 30.9302C185.579 26.6925 188.645 23.3899 192.599 21.0225C196.576 18.6551 201.24 17.4714 206.59 17.4714C210.189 17.4714 213.539 18.0514 216.64 19.2114C219.765 20.3478 222.488 22.0642 224.808 24.3606C227.151 26.657 228.974 29.5452 230.276 33.0253C231.578 36.4818 232.229 40.5301 232.229 45.1702V49.3251H186.171V39.9501H217.989C217.989 37.772 217.516 35.8426 216.569 34.1617C215.622 32.4808 214.308 31.1669 212.627 30.2199C210.97 29.2493 209.041 28.764 206.839 28.764C204.542 28.764 202.506 29.2967 200.731 30.362C198.979 31.4037 197.606 32.8123 196.612 34.5878C195.617 36.3397 195.108 38.2929 195.085 40.4472V49.3606C195.085 52.0594 195.582 54.3913 196.576 56.3563C197.594 58.3213 199.026 59.8364 200.873 60.9018C202.72 61.9671 204.909 62.4998 207.443 62.4998C209.123 62.4998 210.662 62.263 212.059 61.7896C213.456 61.3161 214.651 60.6058 215.646 59.6589C216.64 58.7119 217.398 57.5519 217.918 56.1788L231.91 57.1021C231.2 60.4638 229.744 63.3994 227.542 65.9089C225.364 68.3947 222.547 70.336 219.09 71.7327C215.658 73.1058 211.692 73.7924 207.194 73.7924ZM262.747 73.7924C257.23 73.7924 252.46 72.6205 248.435 70.2768C244.434 67.9093 241.345 64.6186 239.167 60.4046C236.989 56.1669 235.9 51.2545 235.9 45.6674C235.9 40.0329 236.989 35.1087 239.167 30.8947C241.345 26.657 244.434 23.3663 248.435 21.0225C252.46 18.6551 257.23 17.4714 262.747 17.4714C268.263 17.4714 273.021 18.6551 277.022 21.0225C281.047 23.3663 284.148 26.657 286.326 30.8947C288.504 35.1087 289.593 40.0329 289.593 45.6674C289.593 51.2545 288.504 56.1669 286.326 60.4046C284.148 64.6186 281.047 67.9093 277.022 70.2768C273.021 72.6205 268.263 73.7924 262.747 73.7924ZM262.818 62.0736C265.327 62.0736 267.422 61.3634 269.103 59.943C270.784 58.4988 272.05 56.5339 272.903 54.0481C273.779 51.5623 274.217 48.7332 274.217 45.5609C274.217 42.3885 273.779 39.5594 272.903 37.0736C272.05 34.5878 270.784 32.6229 269.103 31.1788C267.422 29.7346 265.327 29.0126 262.818 29.0126C260.284 29.0126 258.154 29.7346 256.425 31.1788C254.721 32.6229 253.431 34.5878 252.555 37.0736C251.702 39.5594 251.276 42.3885 251.276 45.5609C251.276 48.7332 251.702 51.5623 252.555 54.0481C253.431 56.5339 254.721 58.4988 256.425 59.943C258.154 61.3634 260.284 62.0736 262.818 62.0736ZM329.414 36.8606V48.8634H296.247V36.8606H329.414ZM37.9617 139.417V151.314H9.4816V139.417H37.9617ZM14.4532 118.182V172.727H6.6787e-05V118.182H14.4532ZM47.4432 118.182V172.727H33.0967V118.182H47.4432ZM70.7337 173.757C67.2536 173.757 64.1523 173.153 61.4298 171.946C58.7072 170.715 56.5529 168.904 54.9667 166.513C53.4042 164.098 52.6229 161.091 52.6229 157.493C52.6229 154.462 53.1793 151.917 54.292 149.858C55.4047 147.798 56.9198 146.141 58.8374 144.886C60.755 143.631 62.9331 142.684 65.3715 142.045C67.8336 141.406 70.4141 140.956 73.113 140.696C76.2853 140.364 78.8422 140.057 80.7834 139.773C82.7247 139.465 84.1334 139.015 85.0093 138.423C85.8852 137.831 86.3232 136.955 86.3232 135.795V135.582C86.3232 133.333 85.613 131.593 84.1925 130.362C82.7958 129.131 80.8071 128.515 78.2266 128.515C75.5041 128.515 73.3379 129.119 71.7281 130.326C70.1182 131.51 69.0529 133.002 68.532 134.801L54.5405 133.665C55.2508 130.35 56.6476 127.486 58.7309 125.071C60.8142 122.632 63.5013 120.762 66.792 119.46C70.1064 118.134 73.9416 117.471 78.2977 117.471C81.328 117.471 84.2281 117.826 86.9979 118.537C89.7915 119.247 92.2655 120.348 94.4198 121.839C96.5978 123.331 98.3142 125.248 99.569 127.592C100.824 129.912 101.451 132.694 101.451 135.937V172.727H87.1045V165.163H86.6783C85.8024 166.868 84.6305 168.371 83.1627 169.673C81.6949 170.951 79.9312 171.958 77.8715 172.692C75.8119 173.402 73.4326 173.757 70.7337 173.757ZM75.0661 163.317C77.2915 163.317 79.2565 162.879 80.961 162.003C82.6655 161.103 84.0031 159.896 84.9738 158.38C85.9444 156.865 86.4298 155.149 86.4298 153.231V147.443C85.9563 147.751 85.3052 148.035 84.4766 148.295C83.6717 148.532 82.7602 148.757 81.7423 148.97C80.7243 149.159 79.7063 149.337 78.6883 149.503C77.6703 149.645 76.747 149.775 75.9184 149.893C74.1428 150.154 72.5922 150.568 71.2664 151.136C69.9406 151.704 68.9108 152.474 68.1769 153.444C67.443 154.391 67.0761 155.575 67.0761 156.996C67.0761 159.055 67.8218 160.63 69.3133 161.719C70.8284 162.784 72.746 163.317 75.0661 163.317ZM154.536 98.1532L159.152 108.025C157.613 109.304 155.909 110.251 154.038 110.866C152.168 111.458 149.931 111.849 147.327 112.038C144.746 112.228 141.598 112.358 137.881 112.429C133.667 112.476 130.234 113.151 127.582 114.453C124.931 115.755 122.919 117.803 121.546 120.596C120.172 123.366 119.273 126.988 118.847 131.463H119.379C121.013 128.125 123.309 125.544 126.269 123.721C129.251 121.898 132.933 120.987 137.313 120.987C141.953 120.987 146.013 122.005 149.493 124.041C152.997 126.077 155.719 129.001 157.661 132.812C159.602 136.624 160.573 141.193 160.573 146.52C160.573 152.059 159.483 156.877 157.305 160.973C155.151 165.045 152.085 168.205 148.108 170.454C144.131 172.68 139.396 173.792 133.903 173.792C128.387 173.792 123.629 172.632 119.628 170.312C115.651 167.992 112.573 164.571 110.395 160.049C108.241 155.528 107.163 149.964 107.163 143.359V138.885C107.163 125.746 109.72 116.004 114.834 109.659C119.948 103.314 127.464 100.094 137.384 99.9998C140.082 99.9524 142.521 99.9406 144.699 99.9643C146.877 99.9879 148.783 99.8814 150.416 99.6447C152.073 99.4079 153.447 98.9108 154.536 98.1532ZM133.975 162.074C136.295 162.074 138.283 161.47 139.94 160.263C141.621 159.055 142.912 157.327 143.811 155.078C144.734 152.829 145.196 150.142 145.196 147.017C145.196 143.915 144.734 141.288 143.811 139.133C142.912 136.955 141.621 135.298 139.94 134.162C138.26 133.025 136.247 132.457 133.903 132.457C132.152 132.457 130.577 132.777 129.18 133.416C127.784 134.055 126.588 135.002 125.594 136.257C124.623 137.488 123.866 139.015 123.321 140.838C122.8 142.637 122.54 144.697 122.54 147.017C122.54 151.681 123.546 155.362 125.558 158.061C127.594 160.736 130.4 162.074 133.975 162.074ZM163.417 172.727L163.346 160.724H165.157C166.436 160.724 167.537 160.416 168.46 159.801C169.407 159.162 170.188 158.132 170.804 156.711C171.419 155.291 171.905 153.409 172.26 151.065C172.615 148.698 172.852 145.786 172.97 142.329L173.858 118.182H215.335V172.727H200.917V130.078H187.459L186.606 146.733C186.393 151.302 185.837 155.232 184.937 158.523C184.061 161.813 182.842 164.512 181.28 166.619C179.717 168.702 177.835 170.241 175.633 171.236C173.432 172.23 170.875 172.727 167.963 172.727H163.417ZM253.212 139.737V151.74H223.631V139.737H253.212ZM235.314 118.182V172.727H220.222V118.182H235.314ZM269.547 173.792C264.149 173.792 259.485 172.585 255.555 170.17C251.626 167.755 248.595 164.417 246.465 160.156C244.358 155.895 243.304 151.006 243.304 145.49C243.304 139.974 244.358 135.109 246.465 130.895C248.595 126.681 251.626 123.39 255.555 121.023C259.485 118.655 264.149 117.471 269.547 117.471C274.968 117.471 279.632 118.655 283.538 121.023C287.468 123.39 290.487 126.681 292.594 130.895C294.724 135.109 295.79 139.974 295.79 145.49C295.79 151.006 294.724 155.895 292.594 160.156C290.487 164.417 287.468 167.755 283.538 170.17C279.632 172.585 274.968 173.792 269.547 173.792ZM269.547 161.576C272.364 161.576 274.637 160.89 276.365 159.517C278.093 158.12 279.36 156.214 280.165 153.799C280.97 151.361 281.372 148.591 281.372 145.49C281.372 142.389 280.97 139.642 280.165 137.251C279.36 134.836 278.093 132.942 276.365 131.569C274.637 130.196 272.364 129.51 269.547 129.51C266.753 129.51 264.481 130.196 262.729 131.569C260.977 132.919 259.687 134.789 258.858 137.18C258.053 139.571 257.651 142.341 257.651 145.49C257.651 148.615 258.053 151.385 258.858 153.799C259.687 156.214 260.977 158.12 262.729 159.517C264.481 160.89 266.753 161.576 269.547 161.576ZM297.809 188.707V160.724H301.999C303.207 159.967 304.177 158.759 304.911 157.102C305.669 155.445 306.284 153.492 306.758 151.243C307.255 148.994 307.634 146.567 307.894 143.963C308.178 141.335 308.427 138.683 308.64 136.008L310.06 118.182H351.893V160.724H360.345V188.707H345.927V172.727H312.582V188.707H297.809ZM317.056 160.724H337.617V129.829H322.916L322.347 136.008C321.945 141.832 321.365 146.78 320.607 150.852C319.85 154.9 318.666 158.191 317.056 160.724ZM390.018 173.792C384.407 173.792 379.578 172.656 375.53 170.383C371.505 168.087 368.404 164.844 366.226 160.653C364.048 156.439 362.959 151.456 362.959 145.703C362.959 140.092 364.048 135.168 366.226 130.93C368.404 126.692 371.469 123.39 375.423 121.023C379.4 118.655 384.064 117.471 389.414 117.471C393.013 117.471 396.363 118.051 399.464 119.211C402.589 120.348 405.312 122.064 407.632 124.361C409.976 126.657 411.798 129.545 413.101 133.025C414.403 136.482 415.054 140.53 415.054 145.17V149.325H368.995V139.95H400.814C400.814 137.772 400.34 135.843 399.393 134.162C398.446 132.481 397.132 131.167 395.451 130.22C393.794 129.249 391.865 128.764 389.663 128.764C387.367 128.764 385.331 129.297 383.555 130.362C381.803 131.404 380.43 132.812 379.436 134.588C378.441 136.34 377.932 138.293 377.909 140.447V149.361C377.909 152.059 378.406 154.391 379.4 156.356C380.418 158.321 381.851 159.836 383.697 160.902C385.544 161.967 387.734 162.5 390.267 162.5C391.948 162.5 393.486 162.263 394.883 161.79C396.28 161.316 397.476 160.606 398.47 159.659C399.464 158.712 400.222 157.552 400.743 156.179L414.734 157.102C414.024 160.464 412.568 163.399 410.366 165.909C408.188 168.395 405.371 170.336 401.914 171.733C398.482 173.106 394.516 173.792 390.018 173.792ZM458.887 139.417V151.314H430.407V139.417H458.887ZM435.379 118.182V172.727H420.926V118.182H435.379ZM468.369 118.182V172.727H454.022V118.182H468.369ZM490.559 152.77L510.196 118.182H525.111V172.727H510.694V138.032L491.127 172.727H476.106V118.182H490.559V152.77ZM558.096 173.792C552.486 173.792 547.656 172.656 543.608 170.383C539.583 168.087 536.482 164.844 534.304 160.653C532.126 156.439 531.037 151.456 531.037 145.703C531.037 140.092 532.126 135.168 534.304 130.93C536.482 126.692 539.548 123.39 543.501 121.023C547.478 118.655 552.142 117.471 557.493 117.471C561.091 117.471 564.441 118.051 567.542 119.211C570.667 120.348 573.39 122.064 575.71 124.361C578.054 126.657 579.877 129.545 581.179 133.025C582.481 136.482 583.132 140.53 583.132 145.17V149.325H537.074V139.95H568.892C568.892 137.772 568.418 135.843 567.471 134.162C566.524 132.481 565.21 131.167 563.53 130.22C561.872 129.249 559.943 128.764 557.741 128.764C555.445 128.764 553.409 129.297 551.633 130.362C549.881 131.404 548.508 132.812 547.514 134.588C546.52 136.34 546.011 138.293 545.987 140.447V149.361C545.987 152.059 546.484 154.391 547.478 156.356C548.496 158.321 549.929 159.836 551.775 160.902C553.622 161.967 555.812 162.5 558.345 162.5C560.026 162.5 561.565 162.263 562.961 161.79C564.358 161.316 565.554 160.606 566.548 159.659C567.542 158.712 568.3 157.552 568.821 156.179L582.812 157.102C582.102 160.464 580.646 163.399 578.444 165.909C576.266 168.395 573.449 170.336 569.993 171.733C566.56 173.106 562.594 173.792 558.096 173.792Z" fill="black" fill-opacity="0.07"/>
</g>
<defs>
<filter id="filter0_iii_4672_11529" x="-2" y="-1" width="586.132" height="191.707" filterUnits="userSpaceOnUse" color-interpolation-filters="sRGB">
<feFlood flood-opacity="0" result="BackgroundImageFix"/>
<feBlend mode="normal" in="SourceGraphic" in2="BackgroundImageFix" result="shape"/>
<feColorMatrix in="SourceAlpha" type="matrix" values="0 0 0 0 0 0 0 0 0 0 0 0 0 0 0 0 0 0 127 0" result="hardAlpha"/>
<feOffset dx="1" dy="-1"/>
<feGaussianBlur stdDeviation="0.5"/>
<feComposite in2="hardAlpha" operator="arithmetic" k2="-1" k3="1"/>
<feColorMatrix type="matrix" values="0 0 0 0 1 0 0 0 0 1 0 0 0 0 1 0 0 0 0.6 0"/>
<feBlend mode="normal" in2="shape" result="effect1_innerShadow_4672_11529"/>
<feColorMatrix in="SourceAlpha" type="matrix" values="0 0 0 0 0 0 0 0 0 0 0 0 0 0 0 0 0 0 127 0" result="hardAlpha"/>
<feOffset dx="-2" dy="2"/>
<feGaussianBlur stdDeviation="0.5"/>
<feComposite in2="hardAlpha" operator="arithmetic" k2="-1" k3="1"/>
<feColorMatrix type="matrix" values="0 0 0 0 0.996154 0 0 0 0 0.996154 0 0 0 0 0.996154 0 0 0 0.12 0"/>
<feBlend mode="normal" in2="effect1_innerShadow_4672_11529" result="effect2_innerShadow_4672_11529"/>
<feColorMatrix in="SourceAlpha" type="matrix" values="0 0 0 0 0 0 0 0 0 0 0 0 0 0 0 0 0 0 127 0" result="hardAlpha"/>
<feOffset dx="-2" dy="2"/>
<feGaussianBlur stdDeviation="1.5"/>
<feComposite in2="hardAlpha" operator="arithmetic" k2="-1" k3="1"/>
<feColorMatrix type="matrix" values="0 0 0 0 0 0 0 0 0 0 0 0 0 0 0 0 0 0 0.19 0"/>
<feBlend mode="normal" in2="effect2_innerShadow_4672_11529" result="effect3_innerShadow_4672_11529"/>
</filter>
</defs>
</svg>
