<svg width="503" height="95" viewBox="0 0 503 95" fill="none" xmlns="http://www.w3.org/2000/svg">
<g filter="url(#filter0_iii_4672_11651)">
<path d="M53.0894 31.9958V44.3183H21.7328V31.9958H53.0894ZM0.0709121 49.8936H15.3763C15.6367 54.0602 16.9388 57.1971 19.2826 59.3041C21.6263 61.4111 25.0946 62.4646 29.6874 62.4646C33.4279 62.4646 36.399 61.5886 38.6007 59.8367C40.8024 58.0848 42.3886 55.5635 43.3593 52.2728C44.3299 48.9584 44.8152 44.993 44.8152 40.3765V34.4816C44.8152 29.7231 44.2589 25.7103 43.1462 22.4433C42.0572 19.1526 40.3881 16.6668 38.1391 14.9859C35.9137 13.305 33.061 12.4646 29.5809 12.4646C26.1481 12.4646 23.4256 12.9854 21.4132 14.0271C19.4009 15.0687 17.9331 16.5602 17.0098 18.5015C16.0865 20.4191 15.5184 22.7392 15.3053 25.4617H-0.000110939C0.473374 20.6795 1.84648 16.3708 4.11921 12.5356C6.41561 8.6767 9.67082 5.62272 13.8848 3.37367C18.1225 1.12461 23.3545 8.60691e-05 29.5809 8.60691e-05C35.7598 8.60691e-05 41.1221 1.4087 45.6675 4.22594C50.213 7.04317 53.7286 11.0323 56.2144 16.1933C58.7002 21.3543 59.9431 27.4622 59.9431 34.5171V40.412C59.9431 47.4669 58.7239 53.5631 56.2854 58.7004C53.8706 63.814 50.4024 67.7676 45.8806 70.5612C41.3588 73.3311 35.9611 74.716 29.6874 74.716C23.6978 74.716 18.5605 73.6743 14.2755 71.591C9.99042 69.484 6.64051 66.5721 4.22574 62.8552C1.81097 59.1147 0.426026 54.7941 0.0709121 49.8936ZM63.8177 73.7217L63.7467 61.7188H65.5578C66.8362 61.7188 67.937 61.4111 68.8603 60.7955C69.8073 60.1563 70.5885 59.1265 71.2041 57.7061C71.8196 56.2856 72.3049 54.4035 72.66 52.0597C73.0152 49.6923 73.2519 46.7804 73.3703 43.324L74.2581 19.1762H115.735V73.7217H101.318V31.0725H87.8589L87.0066 47.7274C86.7936 52.2965 86.2372 56.2264 85.3376 59.5171C84.4617 62.8079 83.2424 65.5067 81.6799 67.6137C80.1174 69.6971 78.2353 71.2359 76.0336 72.2302C73.8319 73.2245 71.2751 73.7217 68.3632 73.7217H63.8177ZM148.321 74.787C142.71 74.787 137.881 73.6507 133.832 71.3779C129.808 69.0815 126.706 65.8382 124.528 61.6478C122.35 57.4338 121.261 52.4504 121.261 46.6975C121.261 41.0867 122.35 36.1625 124.528 31.9248C126.706 27.6871 129.772 24.3846 133.726 22.0171C137.703 19.6497 142.367 18.466 147.717 18.466C151.316 18.466 154.666 19.046 157.767 20.2061C160.892 21.3424 163.614 23.0588 165.935 25.3552C168.278 27.6516 170.101 30.5399 171.403 34.02C172.705 37.4764 173.356 41.5247 173.356 46.1649V50.3197H127.298V40.9447H159.116C159.116 38.7667 158.643 36.8372 157.696 35.1563C156.749 33.4755 155.435 32.1615 153.754 31.2146C152.097 30.2439 150.168 29.7586 147.966 29.7586C145.669 29.7586 143.633 30.2913 141.858 31.3566C140.106 32.3983 138.733 33.8069 137.739 35.5825C136.744 37.3344 136.235 39.2875 136.212 41.4418V50.3552C136.212 53.0541 136.709 55.386 137.703 57.3509C138.721 59.3159 140.153 60.8311 142 61.8964C143.846 62.9617 146.036 63.4944 148.569 63.4944C150.25 63.4944 151.789 63.2577 153.186 62.7842C154.583 62.3107 155.778 61.6005 156.773 60.6535C157.767 59.7065 158.525 58.5465 159.045 57.1734L173.037 58.0967C172.327 61.4584 170.871 64.394 168.669 66.9035C166.491 69.3893 163.674 71.3306 160.217 72.7274C156.784 74.1005 152.819 74.787 148.321 74.787ZM179.229 73.7217V19.1762H194.356V40.341H198.618L213.462 19.1762H231.217L211.935 46.2359L231.43 73.7217H213.462L200.003 54.368H194.356V73.7217H179.229ZM230.981 31.0725V19.1762H280.413V31.0725H262.835V73.7217H248.418V31.0725H230.981ZM285.584 94.1762V19.1762H300.499V28.3382H301.174C301.836 26.8704 302.795 25.3789 304.05 23.8637C305.328 22.3249 306.986 21.0465 309.022 20.0285C311.081 18.9868 313.638 18.466 316.692 18.466C320.669 18.466 324.339 19.5077 327.701 21.591C331.062 23.6507 333.749 26.7638 335.762 30.9305C337.774 35.0735 338.78 40.27 338.78 46.52C338.78 52.6043 337.798 57.7416 335.833 61.9319C333.891 66.0986 331.24 69.2591 327.878 71.4134C324.54 73.5441 320.799 74.6095 316.656 74.6095C313.721 74.6095 311.223 74.1241 309.164 73.1535C307.128 72.1829 305.459 70.9636 304.156 69.4958C302.854 68.0043 301.86 66.501 301.174 64.9859H300.712V94.1762H285.584ZM300.392 46.449C300.392 49.6923 300.842 52.5214 301.742 54.9362C302.641 57.3509 303.943 59.233 305.648 60.5825C307.353 61.9082 309.424 62.5711 311.862 62.5711C314.325 62.5711 316.408 61.8964 318.112 60.547C319.817 59.1739 321.107 57.2799 321.983 54.8651C322.883 52.4267 323.333 49.6213 323.333 46.449C323.333 43.3003 322.895 40.5304 322.019 38.1393C321.143 35.7482 319.853 33.8779 318.148 32.5285C316.443 31.1791 314.348 30.5043 311.862 30.5043C309.4 30.5043 307.317 31.1554 305.612 32.4575C303.932 33.7596 302.641 35.6061 301.742 37.9972C300.842 40.3883 300.392 43.2056 300.392 46.449ZM359.318 53.7643L378.956 19.1762H393.871V73.7217H379.453V39.0271L359.887 73.7217H344.865V19.1762H359.318V53.7643ZM401.998 73.7217V19.1762H417.126V40.341H421.387L436.231 19.1762H453.987L434.704 46.2359L454.2 73.7217H436.231L422.772 54.368H417.126V73.7217H401.998ZM472.146 74.7515C468.666 74.7515 465.564 74.1478 462.842 72.9404C460.119 71.7094 457.965 69.8983 456.379 67.5072C454.816 65.0924 454.035 62.0858 454.035 58.4873C454.035 55.457 454.591 52.912 455.704 50.8524C456.817 48.7927 458.332 47.1355 460.25 45.8808C462.167 44.626 464.345 43.6791 466.784 43.0399C469.246 42.4007 471.826 41.9508 474.525 41.6904C477.697 41.359 480.254 41.0512 482.196 40.7671C484.137 40.4594 485.545 40.0096 486.421 39.4177C487.297 38.8258 487.735 37.9499 487.735 36.7899V36.5768C487.735 34.3277 487.025 32.5877 485.605 31.3566C484.208 30.1256 482.219 29.51 479.639 29.51C476.916 29.51 474.75 30.1137 473.14 31.3211C471.53 32.5048 470.465 33.9963 469.944 35.7955L455.953 34.6592C456.663 31.3448 458.06 28.4802 460.143 26.0654C462.226 23.627 464.913 21.7567 468.204 20.4546C471.518 19.1289 475.354 18.466 479.71 18.466C482.74 18.466 485.64 18.8211 488.41 19.5313C491.204 20.2416 493.678 21.3424 495.832 22.8339C498.01 24.3254 499.726 26.243 500.981 28.5867C502.236 30.9068 502.863 33.6885 502.863 36.9319V73.7217H488.517V66.1578H488.09C487.214 67.8623 486.043 69.3656 484.575 70.6677C483.107 71.9461 481.343 72.9523 479.284 73.6862C477.224 74.3964 474.845 74.7515 472.146 74.7515ZM476.478 64.3112C478.704 64.3112 480.669 63.8732 482.373 62.9972C484.078 62.0976 485.415 60.8902 486.386 59.3751C487.357 57.8599 487.842 56.1436 487.842 54.2259V48.4376C487.368 48.7454 486.717 49.0294 485.889 49.2899C485.084 49.5266 484.172 49.7515 483.154 49.9646C482.136 50.154 481.118 50.3315 480.1 50.4972C479.082 50.6393 478.159 50.7695 477.331 50.8879C475.555 51.1483 474.004 51.5626 472.679 52.1308C471.353 52.699 470.323 53.4684 469.589 54.439C468.855 55.386 468.488 56.5697 468.488 57.9901C468.488 60.0498 469.234 61.6241 470.725 62.7132C472.241 63.7785 474.158 64.3112 476.478 64.3112Z" fill="black" fill-opacity="0.07"/>
</g>
<defs>
<filter id="filter0_iii_4672_11651" x="-2" y="-1" width="505.863" height="97.1763" filterUnits="userSpaceOnUse" color-interpolation-filters="sRGB">
<feFlood flood-opacity="0" result="BackgroundImageFix"/>
<feBlend mode="normal" in="SourceGraphic" in2="BackgroundImageFix" result="shape"/>
<feColorMatrix in="SourceAlpha" type="matrix" values="0 0 0 0 0 0 0 0 0 0 0 0 0 0 0 0 0 0 127 0" result="hardAlpha"/>
<feOffset dx="1" dy="-1"/>
<feGaussianBlur stdDeviation="0.5"/>
<feComposite in2="hardAlpha" operator="arithmetic" k2="-1" k3="1"/>
<feColorMatrix type="matrix" values="0 0 0 0 1 0 0 0 0 1 0 0 0 0 1 0 0 0 0.6 0"/>
<feBlend mode="normal" in2="shape" result="effect1_innerShadow_4672_11651"/>
<feColorMatrix in="SourceAlpha" type="matrix" values="0 0 0 0 0 0 0 0 0 0 0 0 0 0 0 0 0 0 127 0" result="hardAlpha"/>
<feOffset dx="-2" dy="2"/>
<feGaussianBlur stdDeviation="0.5"/>
<feComposite in2="hardAlpha" operator="arithmetic" k2="-1" k3="1"/>
<feColorMatrix type="matrix" values="0 0 0 0 0.996154 0 0 0 0 0.996154 0 0 0 0 0.996154 0 0 0 0.12 0"/>
<feBlend mode="normal" in2="effect1_innerShadow_4672_11651" result="effect2_innerShadow_4672_11651"/>
<feColorMatrix in="SourceAlpha" type="matrix" values="0 0 0 0 0 0 0 0 0 0 0 0 0 0 0 0 0 0 127 0" result="hardAlpha"/>
<feOffset dx="-2" dy="2"/>
<feGaussianBlur stdDeviation="1.5"/>
<feComposite in2="hardAlpha" operator="arithmetic" k2="-1" k3="1"/>
<feColorMatrix type="matrix" values="0 0 0 0 0 0 0 0 0 0 0 0 0 0 0 0 0 0 0.19 0"/>
<feBlend mode="normal" in2="effect2_innerShadow_4672_11651" result="effect3_innerShadow_4672_11651"/>
</filter>
</defs>
</svg>
