<svg width="496" height="94" viewBox="0 0 496 94" fill="none" xmlns="http://www.w3.org/2000/svg">
<g filter="url(#filter0_iii_4672_11798)">
<path d="M43.9986 72.7271L20.6321 41.7256H15.3764V72.7271H-2.22623e-05V-0.000224113H15.3764V29.0481H18.4659L42.6136 -0.000224113H61.7542L33.3807 33.7356L63.0682 72.7271H43.9986ZM80.9698 52.7697L100.608 18.1816H115.522V72.7271H101.105V38.0324L81.538 72.7271H66.5167V18.1816H80.9698V52.7697ZM161.611 39.4174V51.3137H133.131V39.4174H161.611ZM138.103 18.1816V72.7271H123.649V18.1816H138.103ZM171.093 18.1816V72.7271H156.746V18.1816H171.093ZM203.474 73.7924C197.958 73.7924 193.188 72.6205 189.163 70.2768C185.162 67.9093 182.073 64.6186 179.895 60.4046C177.716 56.1669 176.627 51.2545 176.627 45.6674C176.627 40.0329 177.716 35.1087 179.895 30.8947C182.073 26.657 185.162 23.3663 189.163 21.0225C193.188 18.6551 197.958 17.4714 203.474 17.4714C208.99 17.4714 213.749 18.6551 217.75 21.0225C221.774 23.3663 224.876 26.657 227.054 30.8947C229.232 35.1087 230.321 40.0329 230.321 45.6674C230.321 51.2545 229.232 56.1669 227.054 60.4046C224.876 64.6186 221.774 67.9093 217.75 70.2768C213.749 72.6205 208.99 73.7924 203.474 73.7924ZM203.545 62.0736C206.055 62.0736 208.15 61.3634 209.831 59.943C211.511 58.4988 212.778 56.5339 213.63 54.0481C214.506 51.5623 214.944 48.7332 214.944 45.5609C214.944 42.3885 214.506 39.5594 213.63 37.0736C212.778 34.5878 211.511 32.6229 209.831 31.1788C208.15 29.7346 206.055 29.0126 203.545 29.0126C201.012 29.0126 198.881 29.7346 197.153 31.1788C195.448 32.6229 194.158 34.5878 193.282 37.0736C192.43 39.5594 192.004 42.3885 192.004 45.5609C192.004 48.7332 192.43 51.5623 193.282 54.0481C194.158 56.5339 195.448 58.4988 197.153 59.943C198.881 61.3634 201.012 62.0736 203.545 62.0736ZM230.875 30.0779V18.1816H280.307V30.0779H262.729V72.7271H248.311V30.0779H230.875ZM308.382 73.7924C302.772 73.7924 297.942 72.656 293.894 70.3833C289.869 68.0869 286.768 64.8435 284.59 60.6532C282.412 56.4392 281.323 51.4557 281.323 45.7029C281.323 40.0921 282.412 35.1679 284.59 30.9302C286.768 26.6925 289.834 23.3899 293.787 21.0225C297.765 18.6551 302.428 17.4714 307.779 17.4714C311.377 17.4714 314.727 18.0514 317.828 19.2114C320.953 20.3478 323.676 22.0642 325.996 24.3606C328.34 26.657 330.163 29.5452 331.465 33.0253C332.767 36.4818 333.418 40.5301 333.418 45.1702V49.3251H287.36V39.9501H319.178C319.178 37.772 318.704 35.8426 317.757 34.1617C316.81 32.4808 315.497 31.1669 313.816 30.2199C312.158 29.2493 310.229 28.764 308.027 28.764C305.731 28.764 303.695 29.2967 301.919 30.362C300.167 31.4037 298.794 32.8123 297.8 34.5878C296.806 36.3397 296.297 38.2929 296.273 40.4472V49.3606C296.273 52.0594 296.77 54.3913 297.765 56.3563C298.783 58.3213 300.215 59.8364 302.061 60.9018C303.908 61.9671 306.098 62.4998 308.631 62.4998C310.312 62.4998 311.851 62.263 313.247 61.7896C314.644 61.3161 315.84 60.6058 316.834 59.6589C317.828 58.7119 318.586 57.5519 319.107 56.1788L333.098 57.1021C332.388 60.4638 330.932 63.3994 328.73 65.9089C326.552 68.3947 323.735 70.336 320.279 71.7327C316.846 73.1058 312.881 73.7924 308.382 73.7924ZM354.844 73.7569C351.364 73.7569 348.263 73.1532 345.54 71.9458C342.818 70.7147 340.663 68.9037 339.077 66.5126C337.515 64.0978 336.733 61.0912 336.733 57.4927C336.733 54.4624 337.29 51.9174 338.402 49.8577C339.515 47.7981 341.03 46.1409 342.948 44.8861C344.865 43.6314 347.043 42.6844 349.482 42.0452C351.944 41.406 354.524 40.9562 357.223 40.6958C360.396 40.3644 362.953 40.0566 364.894 39.7725C366.835 39.4647 368.244 39.0149 369.12 38.4231C369.996 37.8312 370.434 36.9553 370.434 35.7952V35.5822C370.434 33.3331 369.723 31.5931 368.303 30.362C366.906 29.1309 364.917 28.5154 362.337 28.5154C359.614 28.5154 357.448 29.1191 355.838 30.3265C354.229 31.5102 353.163 33.0017 352.642 34.8009L338.651 33.6646C339.361 30.3502 340.758 27.4856 342.841 25.0708C344.925 22.6324 347.612 20.7621 350.902 19.46C354.217 18.1342 358.052 17.4714 362.408 17.4714C365.438 17.4714 368.338 17.8265 371.108 18.5367C373.902 19.2469 376.376 20.3478 378.53 21.8393C380.708 23.3307 382.425 25.2484 383.679 27.5921C384.934 29.9122 385.561 32.6939 385.561 35.9373V72.7271H371.215V65.1631H370.789C369.913 66.8677 368.741 68.371 367.273 69.6731C365.805 70.9515 364.042 71.9576 361.982 72.6915C359.922 73.4018 357.543 73.7569 354.844 73.7569ZM359.176 63.3165C361.402 63.3165 363.367 62.8786 365.071 62.0026C366.776 61.103 368.113 59.8956 369.084 58.3805C370.055 56.8653 370.54 55.1489 370.54 53.2313V47.443C370.067 47.7507 369.416 48.0348 368.587 48.2952C367.782 48.532 366.871 48.7569 365.853 48.9699C364.835 49.1593 363.817 49.3369 362.799 49.5026C361.781 49.6447 360.857 49.7749 360.029 49.8932C358.253 50.1537 356.703 50.568 355.377 51.1361C354.051 51.7043 353.021 52.4737 352.287 53.4444C351.553 54.3913 351.186 55.5751 351.186 56.9955C351.186 59.0552 351.932 60.6295 353.424 61.7185C354.939 62.7839 356.856 63.3165 359.176 63.3165ZM387.82 30.0779V18.1816H437.252V30.0779H419.674V72.7271H405.256V30.0779H387.82ZM442.423 93.1816V18.1816H457.338V27.3435H458.012C458.675 25.8757 459.634 24.3842 460.889 22.8691C462.167 21.3303 463.824 20.0519 465.86 19.0339C467.92 17.9922 470.477 17.4714 473.531 17.4714C477.508 17.4714 481.178 18.513 484.539 20.5964C487.901 22.656 490.588 25.7692 492.6 29.9359C494.613 34.0788 495.619 39.2753 495.619 45.5253C495.619 51.6096 494.636 56.7469 492.671 60.9373C490.73 65.1039 488.079 68.2645 484.717 70.4188C481.379 72.5495 477.638 73.6148 473.495 73.6148C470.56 73.6148 468.062 73.1295 466.002 72.1589C463.966 71.1882 462.297 69.969 460.995 68.5012C459.693 67.0097 458.699 65.5064 458.012 63.9913H457.551V93.1816H442.423ZM457.231 45.4543C457.231 48.6977 457.681 51.5268 458.581 53.9415C459.48 56.3563 460.782 58.2384 462.487 59.5878C464.191 60.9136 466.263 61.5765 468.701 61.5765C471.163 61.5765 473.247 60.9018 474.951 59.5523C476.656 58.1792 477.946 56.2853 478.822 53.8705C479.722 51.4321 480.171 48.6267 480.171 45.4543C480.171 42.3056 479.734 39.5358 478.858 37.1447C477.982 34.7536 476.691 32.8833 474.987 31.5339C473.282 30.1844 471.187 29.5097 468.701 29.5097C466.239 29.5097 464.156 30.1608 462.451 31.4628C460.77 32.7649 459.48 34.6115 458.581 37.0026C457.681 39.3937 457.231 42.211 457.231 45.4543Z" fill="black" fill-opacity="0.12"/>
</g>
<defs>
<filter id="filter0_iii_4672_11798" x="-2" y="-1" width="498.619" height="96.1816" filterUnits="userSpaceOnUse" color-interpolation-filters="sRGB">
<feFlood flood-opacity="0" result="BackgroundImageFix"/>
<feBlend mode="normal" in="SourceGraphic" in2="BackgroundImageFix" result="shape"/>
<feColorMatrix in="SourceAlpha" type="matrix" values="0 0 0 0 0 0 0 0 0 0 0 0 0 0 0 0 0 0 127 0" result="hardAlpha"/>
<feOffset dx="1" dy="-1"/>
<feGaussianBlur stdDeviation="0.5"/>
<feComposite in2="hardAlpha" operator="arithmetic" k2="-1" k3="1"/>
<feColorMatrix type="matrix" values="0 0 0 0 1 0 0 0 0 1 0 0 0 0 1 0 0 0 0.6 0"/>
<feBlend mode="normal" in2="shape" result="effect1_innerShadow_4672_11798"/>
<feColorMatrix in="SourceAlpha" type="matrix" values="0 0 0 0 0 0 0 0 0 0 0 0 0 0 0 0 0 0 127 0" result="hardAlpha"/>
<feOffset dx="-2" dy="2"/>
<feGaussianBlur stdDeviation="0.5"/>
<feComposite in2="hardAlpha" operator="arithmetic" k2="-1" k3="1"/>
<feColorMatrix type="matrix" values="0 0 0 0 0.996154 0 0 0 0 0.996154 0 0 0 0 0.996154 0 0 0 0.12 0"/>
<feBlend mode="normal" in2="effect1_innerShadow_4672_11798" result="effect2_innerShadow_4672_11798"/>
<feColorMatrix in="SourceAlpha" type="matrix" values="0 0 0 0 0 0 0 0 0 0 0 0 0 0 0 0 0 0 127 0" result="hardAlpha"/>
<feOffset dx="-2" dy="2"/>
<feGaussianBlur stdDeviation="1.5"/>
<feComposite in2="hardAlpha" operator="arithmetic" k2="-1" k3="1"/>
<feColorMatrix type="matrix" values="0 0 0 0 0 0 0 0 0 0 0 0 0 0 0 0 0 0 0.19 0"/>
<feBlend mode="normal" in2="effect2_innerShadow_4672_11798" result="effect3_innerShadow_4672_11798"/>
</filter>
</defs>
</svg>
