<svg width="530" height="94" viewBox="0 0 530 94" fill="none" xmlns="http://www.w3.org/2000/svg">
<g filter="url(#filter0_iii_4672_11971)">
<path d="M-2.22623e-05 -0.000224113H18.963L38.9915 48.8634H39.8437L59.8721 -0.000224113H78.8352V72.7271H63.9204V25.3904H63.3167L44.4957 72.3719H34.3395L15.5184 25.2128H14.9148V72.7271H-2.22623e-05V-0.000224113ZM96.5593 93.1816C94.6417 93.1816 92.8424 93.0277 91.1616 92.7199C89.5044 92.4359 88.1313 92.0689 87.0422 91.6191L90.4513 80.3265C92.2269 80.871 93.8249 81.1669 95.2454 81.2143C96.6895 81.2616 97.9324 80.9302 98.9741 80.2199C100.039 79.5097 100.904 78.3023 101.566 76.5978L102.454 74.2896L82.8874 18.1816H98.7965L110.089 58.2384H110.657L122.056 18.1816H138.072L116.872 78.6219C115.854 81.5575 114.469 84.1144 112.717 86.2924C110.989 88.4941 108.799 90.1868 106.147 91.3705C103.496 92.5779 100.3 93.1816 96.5593 93.1816ZM134.223 72.7271L134.152 60.7242H135.963C137.241 60.7242 138.342 60.4164 139.266 59.8009C140.213 59.1617 140.994 58.1319 141.609 56.7114C142.225 55.291 142.71 53.4089 143.065 51.0651C143.42 48.6977 143.657 45.7858 143.776 42.3293L144.663 18.1816H186.141V72.7271H171.723V30.0779H158.264L157.412 46.7327C157.199 51.3019 156.642 55.2318 155.743 58.5225C154.867 61.8132 153.648 64.5121 152.085 66.6191C150.523 68.7024 148.641 70.2413 146.439 71.2356C144.237 72.2299 141.68 72.7271 138.768 72.7271H134.223ZM203.35 34.943H219.649C226.87 34.943 232.505 36.6712 236.553 40.1276C240.601 43.5604 242.625 48.1532 242.625 53.906C242.625 57.6466 241.714 60.9373 239.891 63.7782C238.068 66.5954 235.44 68.7971 232.007 70.3833C228.575 71.9458 224.455 72.7271 219.649 72.7271H193.868V18.1816H208.321V60.8307H219.649C222.183 60.8307 224.266 60.1915 225.899 58.9131C227.533 57.6347 228.362 56.0012 228.385 54.0126C228.362 51.9056 227.533 50.1892 225.899 48.8634C224.266 47.514 222.183 46.8393 219.649 46.8393H203.35V34.943ZM240.152 30.0779V18.1816H289.584V30.0779H272.006V72.7271H257.588V30.0779H240.152ZM309.208 52.7697L328.846 18.1816H343.761V72.7271H329.343V38.0324L309.776 72.7271H294.755V18.1816H309.208V52.7697ZM351.888 93.1816V18.1816H366.803V27.3435H367.477C368.14 25.8757 369.099 24.3842 370.354 22.8691C371.632 21.3303 373.289 20.0519 375.325 19.0339C377.385 17.9922 379.942 17.4714 382.996 17.4714C386.973 17.4714 390.642 18.513 394.004 20.5964C397.366 22.656 400.053 25.7692 402.065 29.9359C404.078 34.0788 405.084 39.2753 405.084 45.5253C405.084 51.6096 404.101 56.7469 402.136 60.9373C400.195 65.1039 397.544 68.2645 394.182 70.4188C390.844 72.5495 387.103 73.6148 382.96 73.6148C380.025 73.6148 377.527 73.1295 375.467 72.1589C373.431 71.1882 371.762 69.969 370.46 68.5012C369.158 67.0097 368.164 65.5064 367.477 63.9913H367.016V93.1816H351.888ZM366.696 45.4543C366.696 48.6977 367.146 51.5268 368.045 53.9415C368.945 56.3563 370.247 58.2384 371.952 59.5878C373.656 60.9136 375.728 61.5765 378.166 61.5765C380.628 61.5765 382.712 60.9018 384.416 59.5523C386.121 58.1792 387.411 56.2853 388.287 53.8705C389.187 51.4321 389.636 48.6267 389.636 45.4543C389.636 42.3056 389.198 39.5358 388.322 37.1447C387.446 34.7536 386.156 32.8833 384.452 31.5339C382.747 30.1844 380.652 29.5097 378.166 29.5097C375.704 29.5097 373.621 30.1608 371.916 31.4628C370.235 32.7649 368.945 34.6115 368.045 37.0026C367.146 39.3937 366.696 42.211 366.696 45.4543ZM418.751 93.1816C416.833 93.1816 415.034 93.0277 413.353 92.7199C411.696 92.4359 410.323 92.0689 409.234 91.6191L412.643 80.3265C414.418 80.871 416.016 81.1669 417.437 81.2143C418.881 81.2616 420.124 80.9302 421.165 80.2199C422.231 79.5097 423.095 78.3023 423.758 76.5978L424.646 74.2896L405.079 18.1816H420.988L432.281 58.2384H432.849L444.248 18.1816H460.263L439.063 78.6219C438.045 81.5575 436.66 84.1144 434.908 86.2924C433.18 88.4941 430.99 90.1868 428.339 91.3705C425.687 92.5779 422.491 93.1816 418.751 93.1816ZM496.249 56.0012L511.022 18.1816H522.528L501.256 72.7271H491.207L470.433 18.1816H481.903L496.249 56.0012ZM478.458 18.1816V72.7271H464.005V18.1816H478.458ZM514.786 72.7271V18.1816H529.062V72.7271H514.786Z" fill="white" fill-opacity="0.24"/>
</g>
<defs>
<filter id="filter0_iii_4672_11971" x="-2" y="-1" width="532.062" height="96.1816" filterUnits="userSpaceOnUse" color-interpolation-filters="sRGB">
<feFlood flood-opacity="0" result="BackgroundImageFix"/>
<feBlend mode="normal" in="SourceGraphic" in2="BackgroundImageFix" result="shape"/>
<feColorMatrix in="SourceAlpha" type="matrix" values="0 0 0 0 0 0 0 0 0 0 0 0 0 0 0 0 0 0 127 0" result="hardAlpha"/>
<feOffset dx="1" dy="-1"/>
<feGaussianBlur stdDeviation="0.5"/>
<feComposite in2="hardAlpha" operator="arithmetic" k2="-1" k3="1"/>
<feColorMatrix type="matrix" values="0 0 0 0 0.269231 0 0 0 0 0.239978 0 0 0 0 0.239978 0 0 0 0.6 0"/>
<feBlend mode="normal" in2="shape" result="effect1_innerShadow_4672_11971"/>
<feColorMatrix in="SourceAlpha" type="matrix" values="0 0 0 0 0 0 0 0 0 0 0 0 0 0 0 0 0 0 127 0" result="hardAlpha"/>
<feOffset dx="-2" dy="2"/>
<feGaussianBlur stdDeviation="0.5"/>
<feComposite in2="hardAlpha" operator="arithmetic" k2="-1" k3="1"/>
<feColorMatrix type="matrix" values="0 0 0 0 0.261538 0 0 0 0 0.261538 0 0 0 0 0.261538 0 0 0 0.12 0"/>
<feBlend mode="normal" in2="effect1_innerShadow_4672_11971" result="effect2_innerShadow_4672_11971"/>
<feColorMatrix in="SourceAlpha" type="matrix" values="0 0 0 0 0 0 0 0 0 0 0 0 0 0 0 0 0 0 127 0" result="hardAlpha"/>
<feOffset dx="-2" dy="2"/>
<feGaussianBlur stdDeviation="1.5"/>
<feComposite in2="hardAlpha" operator="arithmetic" k2="-1" k3="1"/>
<feColorMatrix type="matrix" values="0 0 0 0 0 0 0 0 0 0 0 0 0 0 0 0 0 0 0.19 0"/>
<feBlend mode="normal" in2="effect2_innerShadow_4672_11971" result="effect3_innerShadow_4672_11971"/>
</filter>
</defs>
</svg>
