<svg width="40" height="40" viewBox="0 0 40 40" fill="none" xmlns="http://www.w3.org/2000/svg">
<path opacity="0.7" fill-rule="evenodd" clip-rule="evenodd" d="M26.0639 3.37357C21.8448 5.69363 23.1243 12.1168 27.8057 12.1168C30.1146 12.1168 31.2104 11.5116 32.1335 9.72622C34.1296 5.8658 29.7902 1.32409 26.0639 3.37357ZM17.1768 13.1156C16.1177 13.6581 14.052 15.1739 12.5868 16.4845C10.4037 18.4374 9.98089 19.0496 10.2436 19.8771C10.8604 21.8217 12.1599 21.6101 15.2146 19.0677C18.0099 16.7416 19.6361 15.8296 20.989 15.8296C22.113 15.8296 21.739 16.795 19.7985 18.9002C18.2856 20.5412 17.9421 21.2536 17.9421 22.7476C17.9421 24.6782 17.9751 24.7219 23.1689 29.6562C24.5036 30.9241 25.579 32.5095 26.1289 34.0193C27.2182 37.0123 28.2466 37.7548 29.5271 36.4739C30.3931 35.6083 30.4093 35.4125 29.7879 33.3477C28.8894 30.3616 26.768 27.3998 23.9973 25.2635C22.7308 24.2866 21.6856 23.168 21.6749 22.7773C21.6638 22.3869 22.3864 21.3776 23.2803 20.5343C24.1741 19.6915 25.0322 18.4955 25.1877 17.8768C25.6295 16.116 24.9663 13.6057 23.8539 12.8264C22.4268 11.8267 19.4412 11.9562 17.1768 13.1156ZM33.1206 17.5134C32.9605 17.6735 31.6425 17.9348 30.1917 18.0935C27.2497 18.4156 26.1387 19.3768 27.0413 20.8188C28.3645 22.9323 36.0422 21.4759 36.0422 19.1113C36.0422 17.9645 33.8623 16.7718 33.1206 17.5134ZM15.8045 30.0906C15.0786 31.042 13.8009 32.4213 12.9646 33.1551C11.3755 34.5507 11.0613 35.6812 12.0016 36.6215C13.0496 37.6694 14.2103 37.177 16.8014 34.5859C19.6519 31.7354 20.3722 30.403 19.7275 29.1726C19.0003 27.7854 17.2502 28.1948 15.8045 30.0906Z" fill="#17263C"/>
<path d="M14.936 28.8875C15.2055 28.8244 15.425 28.8459 15.5972 28.9216C15.7461 28.9872 15.8926 29.1076 16.019 29.3123L16.0718 29.405C16.195 29.6404 16.246 29.8637 16.231 30.1052C16.2154 30.3543 16.1275 30.6544 15.9224 31.0339C15.5046 31.8068 14.6595 32.8076 13.2349 34.2322C11.9354 35.5317 11.0591 36.2342 10.4146 36.5076C10.1076 36.6378 9.88789 36.655 9.71631 36.6199C9.54362 36.5844 9.35794 36.4841 9.14209 36.2683C8.78041 35.9066 8.69878 35.5694 8.80322 35.1931C8.9084 34.8146 9.21762 34.3445 9.81006 33.7791L10.0815 33.531C10.9446 32.7738 12.2443 31.37 12.9888 30.3943C13.6728 29.4972 14.3822 29.0172 14.936 28.8875ZM17.6382 12.6609C18.793 12.6109 19.7682 12.8258 20.354 13.2361C20.7667 13.5252 21.1695 14.2091 21.4077 15.1111C21.6411 15.9947 21.6854 16.9745 21.4897 17.7546C21.4364 17.9667 21.232 18.3561 20.8921 18.8298C20.5636 19.2876 20.1459 19.773 19.7241 20.1707C19.256 20.6123 18.8305 21.0998 18.519 21.5349C18.3637 21.7519 18.2303 21.965 18.1343 22.1599C18.0477 22.3357 17.9562 22.5646 17.9624 22.7908C17.9664 22.9366 18.0138 23.0682 18.0581 23.1648C18.1055 23.2682 18.1686 23.3727 18.2378 23.4744C18.3767 23.6782 18.5664 23.9066 18.7866 24.1423C19.2286 24.6154 19.8277 25.1565 20.479 25.6589V25.6599C23.1774 27.7405 25.2314 30.618 26.0962 33.4919C26.252 34.0097 26.3623 34.3928 26.4302 34.6951C26.4984 34.9991 26.5155 35.1863 26.5044 35.3191C26.4865 35.533 26.3989 35.6816 25.9604 36.1199V36.1208C25.6741 36.4072 25.4519 36.5281 25.2905 36.5632C25.1542 36.5929 25.014 36.5723 24.8364 36.4441C24.6419 36.3036 24.4137 36.0389 24.1606 35.5974C23.9105 35.1608 23.6531 34.5818 23.3862 33.8484C22.8062 32.2562 21.6829 30.6071 20.3003 29.2937C17.6838 26.8079 16.4192 25.6013 15.7935 24.7742C15.4939 24.3782 15.3662 24.0993 15.3022 23.8318C15.2341 23.5466 15.229 23.2426 15.229 22.7478C15.229 22.0446 15.3096 21.575 15.5405 21.0964C15.781 20.598 16.2009 20.0555 16.9536 19.239C17.4449 18.706 17.8439 18.2375 18.1479 17.8328C18.4476 17.4339 18.6738 17.0726 18.7964 16.7566C18.91 16.4634 18.9922 16.0527 18.7368 15.7126C18.4934 15.389 18.0878 15.3298 17.7759 15.3298C16.9828 15.3299 16.1519 15.5982 15.1851 16.1404C14.2201 16.6815 13.0873 17.5141 11.6821 18.6833C10.927 19.3118 10.2931 19.7855 9.76025 20.115C9.22169 20.4481 8.81909 20.6134 8.52197 20.6619C8.24729 20.7066 8.08469 20.65 7.9585 20.5447C7.80854 20.4195 7.64929 20.1738 7.50732 19.7263V19.7253C7.4601 19.5764 7.4521 19.467 7.47119 19.3611C7.49142 19.249 7.54964 19.1005 7.69678 18.8875C8.00316 18.4439 8.60841 17.8404 9.70752 16.8572C11.0678 15.6404 12.9358 14.2595 13.9917 13.6677L14.1919 13.5603C15.2561 13.0155 16.4977 12.7103 17.6382 12.6609ZM30.6362 17.7869C30.8586 17.8052 31.1329 17.893 31.4067 18.0427C31.6788 18.1916 31.922 18.3866 32.0913 18.5916C32.2644 18.8012 32.3295 18.9817 32.3296 19.1111C32.3296 19.4188 32.0649 19.8239 31.355 20.2419C30.6786 20.6402 29.7369 20.9624 28.7319 21.1531C27.7284 21.3434 26.7005 21.3957 25.8608 21.281C24.9896 21.162 24.4596 20.8842 24.2524 20.5535C24.0615 20.2484 24.0128 20.0248 24.0249 19.8689C24.036 19.7263 24.1024 19.576 24.2886 19.4148C24.6977 19.0609 25.5764 18.7501 27.0337 18.5906L27.0327 18.5896C27.7697 18.509 28.4774 18.4032 29.0249 18.2947C29.2974 18.2407 29.5383 18.184 29.7271 18.1287C29.8207 18.1012 29.9107 18.0716 29.9888 18.0388C30.0491 18.0135 30.1671 17.9611 30.2612 17.8669C30.3041 17.8241 30.409 17.7681 30.6362 17.7869ZM23.0923 3.81128C24.7116 2.92086 26.4874 3.44123 27.6704 4.67944C28.8541 5.91852 29.3573 7.7926 28.4761 9.49683C28.0412 10.3379 27.5959 10.843 27.0347 11.1531C26.4642 11.4682 25.7116 11.6169 24.5933 11.6169C22.5277 11.6169 21.2131 10.2171 20.8745 8.51733C20.5348 6.81175 21.1943 4.85497 23.0923 3.81128Z" fill="#478BEB" stroke="url(#paint0_linear_1191_6219)"/>
<defs>
<linearGradient id="paint0_linear_1191_6219" x1="32.8293" y1="20" x2="15.2397" y2="20" gradientUnits="userSpaceOnUse">
<stop stop-color="#32A2D0"/>
<stop offset="1" stop-color="white" stop-opacity="0"/>
</linearGradient>
</defs>
</svg>
