<svg width="40" height="40" viewBox="0 0 40 40" fill="none" xmlns="http://www.w3.org/2000/svg">
<g clip-path="url(#clip0_1191_6215)">
<path d="M28.9043 19.4004C30.0606 21.37 30.6399 23.6251 30.5762 25.9082C30.5001 28.1208 29.8777 30.2806 28.7646 32.1943L28.7637 32.1963C26.1735 36.7041 21.3869 39.5 16.2783 39.5C11.1798 39.5 6.39887 36.7095 3.80762 32.2119L3.80566 32.21C2.75596 30.4088 2.14006 28.3905 2.00293 26.3145L1.98145 25.8984C1.9155 23.5996 2.495 21.3281 3.65527 19.3428L16.2773 1.71289L28.9043 19.4004ZM24.4883 24.0225C23.7837 24.0226 23.2122 24.5933 23.2119 25.2979L23.2031 25.6602C23.0166 29.2571 20.133 32.1399 16.5361 32.3262L16.1738 32.3359C15.4692 32.3361 14.8975 32.9076 14.8975 33.6123C14.8975 34.317 15.4691 34.8885 16.1738 34.8887H16.1748C21.4687 34.883 25.7587 30.5927 25.7646 25.2988V25.2979C25.7644 24.5932 25.193 24.0225 24.4883 24.0225Z" fill="url(#paint0_linear_1191_6215)" stroke="url(#paint1_linear_1191_6215)"/>
<path d="M37.8423 23.8599C39.0257 20.7866 38.7873 17.5583 37.171 14.7658L26.6297 0L22.0967 6.33238L30.6109 18.2584C30.6245 18.2777 30.6374 18.2978 30.6495 18.3183C32.0186 20.6301 32.7043 23.2823 32.6278 25.9678C32.5823 27.4776 32.3094 28.9718 31.8185 30.4C34.5765 29.0536 36.7272 26.7191 37.8423 23.8599Z" fill="url(#paint2_linear_1191_6215)"/>
</g>
<defs>
<linearGradient id="paint0_linear_1191_6215" x1="16.2788" y1="0.853516" x2="16.2788" y2="40.0001" gradientUnits="userSpaceOnUse">
<stop stop-color="#2D93D0"/>
<stop offset="1" stop-color="#478BEB"/>
</linearGradient>
<linearGradient id="paint1_linear_1191_6215" x1="16.2788" y1="0.853516" x2="16.2788" y2="40.0001" gradientUnits="userSpaceOnUse">
<stop stop-color="#33A3D0"/>
<stop offset="1" stop-color="#33A3D0" stop-opacity="0"/>
</linearGradient>
<linearGradient id="paint2_linear_1191_6215" x1="30.3405" y1="0" x2="30.3405" y2="9.63628" gradientUnits="userSpaceOnUse">
<stop stop-color="#257FB0"/>
<stop offset="1" stop-color="#3666A9"/>
</linearGradient>
<clipPath id="clip0_1191_6215">
<rect width="40" height="40" fill="white"/>
</clipPath>
</defs>
</svg>
