<svg width="40" height="40" viewBox="0 0 40 40" fill="none" xmlns="http://www.w3.org/2000/svg">
<path opacity="0.2" d="M19.4819 14.9402C19.4822 14.7239 19.7371 14.6049 19.9028 14.7439C21.6864 16.2401 24.2085 18.7954 26.2349 21.7996C28.2687 24.8147 29.7548 28.2119 29.5786 31.4128C29.411 34.4565 27.812 37.0911 24.7212 39.2468L24.4175 39.4539C24.2011 39.5981 23.9312 39.356 24.0464 39.1257C24.525 38.1685 25.0605 36.8543 25.2729 35.5837C25.4807 34.341 25.4048 32.9652 24.4224 32.0984L24.2476 31.9441L24.0171 31.9783C22.6157 32.1887 21.5224 32.1835 20.6606 31.99C19.5918 31.7499 18.9527 31.2268 18.6274 30.5505C18.2934 29.8558 18.2498 28.9143 18.5581 27.7781L19.0093 26.1169L17.7388 27.2781C14.3317 30.3916 14.24 34.9467 15.4468 39.1707C15.5115 39.3983 15.2546 39.5849 15.0581 39.4539C14.9783 39.4007 13.8028 38.6048 12.6519 37.2351C11.4982 35.8622 10.4068 33.9581 10.4067 31.6785C10.4067 27.9153 12.5072 25.9635 14.7866 23.8181C17.0567 21.6816 19.4819 19.3663 19.4819 14.9402Z" fill="#378FDB" stroke="url(#paint0_linear_1191_6252)"/>
<path d="M18.9224 1.17285C18.9226 0.604474 19.5902 0.292731 20.0259 0.658203C22.8055 2.98993 26.7319 6.96732 29.8882 11.6465C33.052 16.3368 35.3937 21.6625 35.1157 26.7109C34.8418 31.6842 32.148 35.9474 26.9966 39.3818C26.428 39.7607 25.718 39.1324 26.0229 38.5225C26.7585 37.0514 27.5761 35.0431 27.8989 33.1123C28.2171 31.2093 28.0806 29.207 26.6704 27.9629L26.4956 27.8086L26.2651 27.8438C24.2121 28.152 22.5627 28.1668 21.2271 27.9121L20.9644 27.8574C19.2423 27.4708 18.1725 26.6159 17.6255 25.4785C17.0697 24.3227 17.0133 22.7911 17.5015 20.9922L17.9517 19.3311L16.6812 20.4922C11.5167 25.2118 11.3512 32.1344 13.2095 38.6387C13.3804 39.237 12.7086 39.7269 12.1909 39.3818C12.0547 39.291 10.2105 38.0415 8.40479 35.8926C6.59537 33.7392 4.86182 30.7283 4.86182 27.1064C4.86183 21.1444 8.20902 18.0461 11.7349 14.7275C15.2513 11.4179 18.9224 7.90336 18.9224 1.17285Z" fill="#378FDB" stroke="url(#paint1_linear_1191_6252)"/>
<defs>
<linearGradient id="paint0_linear_1191_6252" x1="9.90674" y1="27.0917" x2="30.0933" y2="27.0917" gradientUnits="userSpaceOnUse">
<stop stop-color="white" stop-opacity="0"/>
<stop offset="1" stop-color="#59ADDD"/>
</linearGradient>
<linearGradient id="paint1_linear_1191_6252" x1="4.36182" y1="19.9999" x2="35.6385" y2="19.9999" gradientUnits="userSpaceOnUse">
<stop stop-color="white" stop-opacity="0"/>
<stop offset="1" stop-color="#59ADDD"/>
</linearGradient>
</defs>
</svg>
