<svg width="40" height="40" viewBox="0 0 40 40" fill="none" xmlns="http://www.w3.org/2000/svg">
<path d="M22.0601 38.3027C22.0288 38.8373 21.5814 39.2666 21.0396 39.2666H19.062C18.5203 39.2665 18.0728 38.8372 18.0415 38.3027H22.0601ZM23.6226 35.2549C23.5915 35.7898 23.144 36.2197 22.6021 36.2197H17.4995C16.9574 36.2197 16.5101 35.7897 16.479 35.2549H23.6226ZM25.0952 32.208C25.0645 32.7311 24.6353 33.1544 24.1089 33.1719H15.9253C15.3835 33.1719 14.9351 32.7425 14.9038 32.208H25.0952ZM19.9995 9.17578C24.9018 9.17578 28.8763 13.1496 28.8765 18.0518C28.8765 20.5085 28.1124 21.6291 27.2241 23.1621C26.3446 24.68 25.4121 26.5054 25.1333 30.124H14.8657C14.5869 26.5055 13.6554 24.68 12.7759 23.1621C11.8876 21.6291 11.1235 20.5084 11.1235 18.0518C11.1237 13.1498 15.0975 9.17599 19.9995 9.17578ZM19.9995 11.124C18.0863 11.1241 16.3532 11.9001 15.1001 13.1533C13.8473 14.4064 13.0719 16.1387 13.0718 18.0518C13.0718 18.6172 13.1153 19.1075 13.2349 19.6006C13.3248 19.9709 13.4524 20.3211 13.6255 20.6855L13.814 21.0557C14.0861 21.5616 14.7172 21.7514 15.2231 21.4795C15.7291 21.2074 15.9188 20.5762 15.647 20.0703L15.646 20.0693C15.4954 19.7901 15.3905 19.5537 15.3179 19.3311L15.2554 19.1113C15.1852 18.8219 15.1548 18.4945 15.1548 18.0527C15.1548 16.714 15.6967 15.503 16.5737 14.626C17.4507 13.7491 18.661 13.2071 19.9995 13.207C20.5748 13.207 21.0415 12.7401 21.0415 12.165C21.0413 11.59 20.5746 11.124 19.9995 11.124ZM2.72314 18.4277H6.73975C6.76243 18.4278 6.78057 18.4461 6.78076 18.4688C6.78076 18.4916 6.76256 18.5107 6.73975 18.5107H2.72314C2.70027 18.5107 2.68115 18.4916 2.68115 18.4688C2.68134 18.4461 2.70042 18.4277 2.72314 18.4277ZM33.2603 17.5938H37.2769C37.2996 17.5938 37.3186 17.6121 37.3188 17.6348C37.3188 17.6576 37.2997 17.6768 37.2769 17.6768H33.2603C33.2374 17.6768 33.2183 17.6576 33.2183 17.6348C33.2185 17.6121 33.2375 17.5938 33.2603 17.5938ZM4.84912 9.74023H4.8501L8.32861 11.749C8.34712 11.7604 8.35317 11.7849 8.34229 11.8037C8.33112 11.8224 8.30655 11.8291 8.2876 11.8184L8.28662 11.8174L4.80908 9.80957C4.78988 9.79845 4.78349 9.77397 4.79443 9.75488C4.80559 9.73563 4.83002 9.72917 4.84912 9.74023ZM34.7886 9.03223C34.7996 9.0513 34.7931 9.07573 34.7739 9.08691L31.2964 11.0957H31.2954C31.2763 11.1068 31.2519 11.1002 31.2407 11.0811C31.2297 11.062 31.2353 11.0366 31.2544 11.0254L34.7329 9.01758H34.7339C34.7529 9.00668 34.7774 9.01317 34.7886 9.03223ZM10.98 3.26367C10.9988 3.25275 11.0233 3.25868 11.0347 3.27734L13.0435 6.75586V6.75684C13.0545 6.77593 13.048 6.80036 13.0288 6.81152C13.0097 6.82259 12.9843 6.81613 12.9731 6.79688L10.9653 3.31934V3.31836C10.9544 3.29934 10.9609 3.27488 10.98 3.26367ZM28.2974 2.84668C28.3165 2.85778 28.3231 2.88223 28.312 2.90137V2.90234L26.3042 6.37988C26.293 6.39913 26.2676 6.4056 26.2485 6.39453C26.2296 6.3833 26.223 6.3588 26.2339 6.33984L26.2349 6.33887L28.2417 2.86035L28.2427 2.86133C28.2538 2.84211 28.2783 2.83569 28.2974 2.84668ZM19.5825 0.733398C19.6054 0.733398 19.6245 0.752549 19.6245 0.775391V4.79199C19.6244 4.81479 19.6054 4.83301 19.5825 4.83301C19.5599 4.83277 19.5416 4.81462 19.5415 4.79199V0.775391C19.5415 0.752659 19.5598 0.73363 19.5825 0.733398Z" fill="url(#paint0_linear_1191_6249)" stroke="url(#paint1_linear_1191_6249)"/>
<defs>
<linearGradient id="paint0_linear_1191_6249" x1="19.9999" y1="0.233398" x2="19.9999" y2="39.7668" gradientUnits="userSpaceOnUse">
<stop stop-color="#3C8EDF"/>
<stop offset="1" stop-color="#3666A9"/>
</linearGradient>
<linearGradient id="paint1_linear_1191_6249" x1="19.9999" y1="9.26159" x2="19.9999" y2="39.7668" gradientUnits="userSpaceOnUse">
<stop stop-color="white" stop-opacity="0"/>
<stop offset="1" stop-color="#32A1CF"/>
</linearGradient>
</defs>
</svg>
