<svg width="40" height="40" viewBox="0 0 40 40" fill="none" xmlns="http://www.w3.org/2000/svg">
<path opacity="0.2" d="M30.2237 21.835H26.5918C25.9445 21.835 25.4199 21.3104 25.4199 20.6631C25.4199 20.0158 25.9445 19.4912 26.5918 19.4912H30.2237C30.8707 19.4912 31.3956 20.0158 31.3956 20.6631C31.3956 21.3104 30.8707 21.835 30.2237 21.835Z" fill="#388FDC"/>
<path opacity="0.4" d="M30.2237 17.1465H26.5918C25.9445 17.1465 25.4199 16.6219 25.4199 15.9746C25.4199 15.3273 25.9445 14.8027 26.5918 14.8027H30.2237C30.8707 14.8027 31.3956 15.3273 31.3956 15.9746C31.3956 16.6219 30.8707 17.1465 30.2237 17.1465Z" fill="#388FDC"/>
<path opacity="0.7" d="M30.2237 12.4583H26.5918C25.9445 12.4583 25.4199 11.9337 25.4199 11.2864C25.4199 10.6391 25.9445 10.1145 26.5918 10.1145H30.2237C30.8707 10.1145 31.3956 10.6391 31.3956 11.2864C31.3956 11.9337 30.8707 12.4583 30.2237 12.4583Z" fill="#388FDC"/>
<path d="M30.2237 7.76978H26.5918C25.9445 7.76978 25.4199 7.24518 25.4199 6.5979C25.4199 5.95093 25.9445 5.42603 26.5918 5.42603H30.2237C30.8707 5.42603 31.3956 5.95093 31.3956 6.5979C31.3956 7.24518 30.8707 7.76978 30.2237 7.76978Z" fill="#388FDC"/>
<path d="M17.2598 0.5C19.7597 0.5 21.7948 2.53486 21.7949 5.03516V24.5098L21.9873 24.6592L22.2871 24.8945C24.2832 26.4548 25.4268 28.7996 25.4268 31.332C25.4266 35.8355 21.7622 39.5 17.2598 39.5C12.7578 39.4998 9.09388 35.8354 9.09375 31.332C9.09375 28.7997 10.2372 26.4551 12.2334 24.8945L12.5332 24.6602L12.7256 24.5098V5.03516C12.7257 2.53496 14.7604 0.500199 17.2598 0.5ZM17.2598 9.5957C16.3369 9.5959 15.5879 10.3442 15.5879 11.2676V26.3447C13.5053 27.0451 12 29.0144 12 31.332C12.0001 34.2333 14.359 36.5926 17.2598 36.5928C20.1607 36.5928 22.5205 34.2333 22.5205 31.332C22.5205 29.0138 21.0147 27.0438 18.9316 26.3438V11.2676C18.9316 10.3442 18.1832 9.5957 17.2598 9.5957Z" fill="#388FDC" stroke="url(#paint0_linear_1191_6258)"/>
<path d="M17.2601 33.7488C15.9277 33.7488 14.8438 32.6646 14.8438 31.3315C14.8438 29.9988 15.9277 28.9146 17.2601 28.9146C18.5928 28.9146 19.6768 29.9988 19.6768 31.3315C19.6768 32.6646 18.5928 33.7488 17.2601 33.7488Z" fill="#388FDC"/>
<defs>
<linearGradient id="paint0_linear_1191_6258" x1="25.9268" y1="20" x2="8.59375" y2="20" gradientUnits="userSpaceOnUse">
<stop stop-color="#33A3D1"/>
<stop offset="1" stop-color="white" stop-opacity="0"/>
</linearGradient>
</defs>
</svg>
