<svg width="144" height="29" viewBox="0 0 144 29" fill="none" xmlns="http://www.w3.org/2000/svg">
<path d="M3.0601 14.3623H0L14.1071 0.5L27.9694 14.3623H25.0929V25.0727C25.0929 27.0624 23.9057 28.5 21.6656 28.5H6.48743C4.48668 28.5 3.0601 26.9953 3.0601 25.0727V14.3623Z" fill="#FFC96E"/>
<rect x="8.17188" y="16.8163" width="11.6281" height="5.87398" rx="2.93699" fill="white"/>
<g clip-path="url(#paint0_angular_1861_24958_clip_path)" data-figma-skip-parse="true"><g transform="matrix(0 0.00176694 -0.00176694 0 17.0013 19.699)"><foreignObject x="-1565.95" y="-1565.95" width="3131.9" height="3131.9"><div xmlns="http://www.w3.org/1999/xhtml" style="background:conic-gradient(from 90deg,rgba(26, 45, 57, 1) 0deg,rgba(72, 125, 159, 1) 360deg);height:100%;width:100%;opacity:1"></div></foreignObject></g></g><rect x="15.2344" y="17.9321" width="3.53388" height="3.53388" rx="1.76694" data-figma-gradient-fill="{&#34;type&#34;:&#34;GRADIENT_ANGULAR&#34;,&#34;stops&#34;:[{&#34;color&#34;:{&#34;r&#34;:0.10196078568696976,&#34;g&#34;:0.17647059261798859,&#34;b&#34;:0.22352941334247589,&#34;a&#34;:1.0},&#34;position&#34;:0.0},{&#34;color&#34;:{&#34;r&#34;:0.28441691398620605,&#34;g&#34;:0.49226006865501404,&#34;b&#34;:0.62352943420410156,&#34;a&#34;:1.0},&#34;position&#34;:1.0}],&#34;stopsVar&#34;:[{&#34;color&#34;:{&#34;r&#34;:0.10196078568696976,&#34;g&#34;:0.17647059261798859,&#34;b&#34;:0.22352941334247589,&#34;a&#34;:1.0},&#34;position&#34;:0.0},{&#34;color&#34;:{&#34;r&#34;:0.28441691398620605,&#34;g&#34;:0.49226006865501404,&#34;b&#34;:0.62352943420410156,&#34;a&#34;:1.0},&#34;position&#34;:1.0}],&#34;transform&#34;:{&#34;m00&#34;:2.1638785420547107e-16,&#34;m01&#34;:-3.5338816642761230,&#34;m02&#34;:18.768257141113281,&#34;m10&#34;:3.5338816642761230,&#34;m11&#34;:2.1638785420547107e-16,&#34;m12&#34;:17.932067871093750},&#34;opacity&#34;:1.0,&#34;blendMode&#34;:&#34;NORMAL&#34;,&#34;visible&#34;:true}"/>
<rect x="15.2344" y="17.9321" width="3.53388" height="3.53388" rx="1.76694" fill="#FFC96E"/>
<path d="M44.9545 10.5653C44.8864 9.87784 44.5938 9.34375 44.0767 8.96307C43.5597 8.58239 42.858 8.39204 41.9716 8.39204C41.3693 8.39204 40.8608 8.47727 40.446 8.64773C40.0313 8.8125 39.7131 9.04261 39.4915 9.33807C39.2756 9.63352 39.1676 9.96875 39.1676 10.3438C39.1563 10.6562 39.2216 10.929 39.3636 11.1619C39.5114 11.3949 39.7131 11.5966 39.9688 11.767C40.2244 11.9318 40.5199 12.0767 40.8551 12.2017C41.1903 12.321 41.5483 12.4233 41.929 12.5085L43.4972 12.8835C44.2585 13.054 44.9574 13.2812 45.5938 13.5653C46.2301 13.8494 46.7813 14.1989 47.2472 14.6136C47.7131 15.0284 48.0739 15.517 48.3295 16.0795C48.5909 16.642 48.7244 17.2869 48.7301 18.0142C48.7244 19.0824 48.4517 20.0085 47.9119 20.7926C47.3778 21.571 46.6051 22.1761 45.5938 22.608C44.5881 23.0341 43.375 23.2472 41.9545 23.2472C40.5455 23.2472 39.3182 23.0312 38.2727 22.5994C37.233 22.1676 36.4205 21.5284 35.8352 20.6818C35.2557 19.8295 34.9517 18.7756 34.9233 17.5199H38.4943C38.5341 18.1051 38.7017 18.5937 38.9972 18.9858C39.2983 19.3722 39.6989 19.6648 40.1989 19.8636C40.7045 20.0568 41.2756 20.1534 41.9119 20.1534C42.5369 20.1534 43.0795 20.0625 43.5398 19.8807C44.0057 19.6989 44.3665 19.446 44.6222 19.1222C44.8778 18.7983 45.0057 18.4261 45.0057 18.0057C45.0057 17.6136 44.8892 17.2841 44.6562 17.017C44.429 16.75 44.0938 16.5227 43.6506 16.3352C43.2131 16.1477 42.6761 15.9773 42.0398 15.8239L40.1392 15.3466C38.6676 14.9886 37.5057 14.429 36.6534 13.6676C35.8011 12.9062 35.3778 11.8807 35.3835 10.5909C35.3778 9.53409 35.6591 8.6108 36.2273 7.82102C36.8011 7.03125 37.5881 6.41477 38.5881 5.97159C39.5881 5.52841 40.7244 5.30682 41.9972 5.30682C43.2926 5.30682 44.4233 5.52841 45.3892 5.97159C46.3608 6.41477 47.1165 7.03125 47.6562 7.82102C48.196 8.6108 48.4744 9.52557 48.4915 10.5653H44.9545ZM50.9442 23V9.90909H54.4044V12.2188H54.5578C54.8305 11.4517 55.2851 10.8466 55.9214 10.4034C56.5578 9.96023 57.3192 9.73864 58.2055 9.73864C59.1033 9.73864 59.8675 9.96307 60.4982 10.4119C61.1288 10.8551 61.5493 11.4574 61.7595 12.2188H61.8959C62.1629 11.4688 62.6459 10.8693 63.3447 10.4205C64.0493 9.96591 64.8817 9.73864 65.8419 9.73864C67.0635 9.73864 68.055 10.1278 68.8163 10.9062C69.5834 11.679 69.9669 12.7756 69.9669 14.196V23H66.3447V14.9119C66.3447 14.1847 66.1516 13.6392 65.7652 13.2756C65.3788 12.9119 64.8959 12.7301 64.3163 12.7301C63.6572 12.7301 63.143 12.9403 62.7737 13.3608C62.4044 13.7756 62.2197 14.3239 62.2197 15.0057V23H58.6999V14.8352C58.6999 14.1932 58.5152 13.6818 58.1459 13.3011C57.7822 12.9205 57.3021 12.7301 56.7055 12.7301C56.3021 12.7301 55.9385 12.8324 55.6146 13.0369C55.2964 13.2358 55.0436 13.517 54.8561 13.8807C54.6686 14.2386 54.5749 14.6591 54.5749 15.142V23H50.9442ZM76.3678 23.2472C75.5325 23.2472 74.7882 23.1023 74.1348 22.8125C73.4814 22.517 72.9643 22.0824 72.5837 21.5085C72.2087 20.929 72.0212 20.2074 72.0212 19.3438C72.0212 18.6165 72.1547 18.0057 72.4217 17.5114C72.6888 17.017 73.0524 16.6193 73.5126 16.3182C73.9729 16.017 74.4956 15.7898 75.0808 15.6364C75.6717 15.483 76.291 15.375 76.9388 15.3125C77.7001 15.233 78.3138 15.1591 78.7797 15.0909C79.2456 15.017 79.5837 14.9091 79.7939 14.767C80.0041 14.625 80.1092 14.4148 80.1092 14.1364V14.0852C80.1092 13.5455 79.9388 13.1278 79.5979 12.8324C79.2626 12.5369 78.7854 12.3892 78.166 12.3892C77.5126 12.3892 76.9928 12.5341 76.6064 12.8239C76.22 13.108 75.9643 13.4659 75.8393 13.8977L72.4814 13.625C72.6518 12.8295 72.9871 12.142 73.4871 11.5625C73.9871 10.9773 74.632 10.5284 75.4217 10.2159C76.2172 9.89773 77.1376 9.73864 78.1831 9.73864C78.9104 9.73864 79.6064 9.82386 80.2712 9.99432C80.9416 10.1648 81.5354 10.429 82.0524 10.7869C82.5751 11.1449 82.9871 11.6051 83.2882 12.1676C83.5893 12.7244 83.7399 13.392 83.7399 14.1705V23H80.2967V21.1847H80.1945C79.9842 21.5938 79.703 21.9545 79.3507 22.267C78.9984 22.5739 78.5751 22.8153 78.0808 22.9915C77.5865 23.1619 77.0155 23.2472 76.3678 23.2472ZM77.4075 20.7415C77.9416 20.7415 78.4132 20.6364 78.8223 20.4261C79.2314 20.2102 79.5524 19.9205 79.7854 19.5568C80.0183 19.1932 80.1348 18.7812 80.1348 18.321V16.9318C80.0212 17.0057 79.8649 17.0739 79.6661 17.1364C79.4729 17.1932 79.2541 17.2472 79.0098 17.2983C78.7655 17.3437 78.5212 17.3864 78.2768 17.4261C78.0325 17.4602 77.8109 17.4915 77.6121 17.5199C77.1859 17.5824 76.8138 17.6818 76.4956 17.8182C76.1774 17.9545 75.9303 18.1392 75.7541 18.3722C75.578 18.5994 75.4899 18.8835 75.4899 19.2244C75.4899 19.7188 75.6689 20.0966 76.0268 20.358C76.3905 20.6136 76.8507 20.7415 77.4075 20.7415ZM86.3567 23V9.90909H89.8766V12.1932H90.0129C90.2516 11.3807 90.6521 10.767 91.2146 10.3523C91.7771 9.93182 92.4249 9.72159 93.1578 9.72159C93.3396 9.72159 93.5357 9.73295 93.7459 9.75568C93.9561 9.77841 94.1408 9.80966 94.2999 9.84943V13.071C94.1294 13.0199 93.8936 12.9744 93.5925 12.9347C93.2913 12.8949 93.0158 12.875 92.7658 12.875C92.2317 12.875 91.7544 12.9915 91.334 13.2244C90.9192 13.4517 90.5896 13.7699 90.3453 14.179C90.1067 14.5881 89.9874 15.0597 89.9874 15.5938V23H86.3567ZM103.596 9.90909V12.6364H95.7128V9.90909H103.596ZM97.5026 6.77273H101.133V18.9773C101.133 19.3125 101.184 19.5739 101.287 19.7614C101.389 19.9432 101.531 20.071 101.713 20.1449C101.9 20.2187 102.116 20.2557 102.361 20.2557C102.531 20.2557 102.701 20.2415 102.872 20.2131C103.042 20.179 103.173 20.1534 103.264 20.1364L103.835 22.8381C103.653 22.8949 103.397 22.9602 103.068 23.0341C102.738 23.1136 102.338 23.1619 101.866 23.179C100.991 23.2131 100.224 23.0966 99.5651 22.8295C98.9116 22.5625 98.4031 22.1477 98.0395 21.5852C97.6759 21.0227 97.4969 20.3125 97.5026 19.4545V6.77273ZM110.519 8.58807V5.54545H124.855V8.58807H119.511V23H115.863V8.58807H110.519ZM130.169 5.54545L134.388 18.8068H134.55L138.777 5.54545H142.868L136.851 23H132.095L126.069 5.54545H130.169Z" fill="url(#paint1_linear_1861_24958)"/>
<defs>
<clipPath id="paint0_angular_1861_24958_clip_path"><rect x="15.2344" y="17.9321" width="3.53388" height="3.53388" rx="1.76694"/></clipPath><linearGradient id="paint1_linear_1861_24958" x1="142.597" y1="2.76006" x2="42.874" y2="21.1091" gradientUnits="userSpaceOnUse">
<stop stop-color="#478BEB"/>
<stop offset="0.461538" stop-color="#E27500"/>
<stop offset="1" stop-color="#FFC96E"/>
</linearGradient>
</defs>
</svg>
