<svg width="42" height="42" viewBox="0 0 42 42" fill="none" xmlns="http://www.w3.org/2000/svg">
<g clip-path="url(#clip0_1184_6085)">
<path d="M41.2133 31.7484L32.3669 22.9019C32.2298 22.7638 32.0667 22.6541 31.8871 22.5792C31.7074 22.5044 31.5147 22.4658 31.32 22.4658C31.1254 22.4658 30.9327 22.5044 30.753 22.5792C30.5733 22.6541 30.4103 22.7638 30.2732 22.9019L26.7936 26.3963C26.6915 26.1137 26.5054 25.869 26.2603 25.6951C26.0153 25.5212 25.7229 25.4263 25.4224 25.4232C25.0314 25.4232 24.6564 25.5785 24.3799 25.855C24.1033 26.1315 23.948 26.5066 23.948 26.8976V29.2419L21.4268 31.7484C21.2893 31.8859 21.1803 32.0491 21.1059 32.2287C21.0315 32.4083 20.9932 32.6008 20.9932 32.7952C20.9932 32.9896 21.0315 33.1821 21.1059 33.3617C21.1803 33.5414 21.2893 33.7046 21.4268 33.842C21.5642 33.9795 21.7274 34.0886 21.9071 34.163C22.0867 34.2374 22.2792 34.2757 22.4736 34.2757C22.668 34.2757 22.8605 34.2374 23.0401 34.163C23.2198 34.0886 23.383 33.9795 23.5204 33.842L23.948 33.3997V37.2184C23.948 37.6095 24.1033 37.9845 24.3799 38.261C24.6564 38.5375 25.0314 38.6928 25.4224 38.6928H29.8456V34.2696C29.8456 33.8786 30.001 33.5036 30.2775 33.2271C30.554 32.9505 30.929 32.7952 31.32 32.7952C31.7111 32.7952 32.0861 32.9505 32.3626 33.2271C32.6391 33.5036 32.7944 33.8786 32.7944 34.2696V38.6928H37.2177C37.6087 38.6928 37.9837 38.5375 38.2602 38.261C38.5367 37.9845 38.6921 37.6095 38.6921 37.2184V33.3997L39.1196 33.842C39.2567 33.9802 39.4198 34.0899 39.5995 34.1648C39.7791 34.2396 39.9718 34.2782 40.1665 34.2782C40.3611 34.2782 40.5538 34.2396 40.7335 34.1648C40.9132 34.0899 41.0762 33.9802 41.2133 33.842C41.3515 33.705 41.4612 33.5419 41.536 33.3622C41.6109 33.1826 41.6494 32.9899 41.6494 32.7952C41.6494 32.6006 41.6109 32.4079 41.536 32.2282C41.4612 32.0485 41.3515 31.8854 41.2133 31.7484Z" fill="#0B0D10"/>
<path d="M0.711279 18.0512H13.6271V3.30713L0.357422 9.20475C0.357422 12.4927 0.46063 15.4267 0.711279 18.0512Z" fill="#0B0D10"/>
<path d="M29.8458 9.20475L16.5762 3.30713V18.0512H29.492C29.7426 15.4267 29.8458 12.4927 29.8458 9.20475Z" fill="#0B0D10"/>
<path d="M13.6267 38.6929V21H0.710938C1.68405 30.9375 4.88351 36.3633 13.6267 38.6929Z" fill="#0B0D10"/>
<path d="M19.3481 29.6695L20.9994 28.0182V26.8976C20.9994 25.7245 21.4654 24.5995 22.2949 23.7699C23.1244 22.9404 24.2495 22.4744 25.4226 22.4744C25.7602 22.4763 26.0964 22.5159 26.4252 22.5924L28.0176 21H16.5762V38.6929C18.1118 38.2891 19.5959 37.7103 20.9994 36.9678C20.3536 36.7609 19.7671 36.4019 19.2891 35.921C18.4685 35.0838 18.0138 33.9552 18.0249 32.783C18.036 31.6109 18.5119 30.491 19.3481 29.6695Z" fill="#0B0D10"/>
</g>
<defs>
<clipPath id="clip0_1184_6085">
<rect width="42" height="42" fill="white"/>
</clipPath>
</defs>
</svg>
