<svg width="42" height="42" viewBox="0 0 42 42" fill="none" xmlns="http://www.w3.org/2000/svg">
<path d="M40.979 0.699699L23.8892 17.7895C23.697 17.9817 23.445 18.0779 23.1932 18.0779C22.9414 18.0779 22.6894 17.9818 22.4972 17.7895C22.1128 17.405 22.1128 16.7818 22.4972 16.3974L38.2348 0.659668H33.8263C33.674 0.659668 33.528 0.720207 33.4203 0.827914L19.577 14.6735C17.1641 13.7159 14.5446 13.4582 11.975 13.9291C9.21178 14.4355 6.69777 15.7572 4.70498 17.7512C2.09409 20.3621 0.65625 23.8331 0.65625 27.5248C0.65625 31.2166 2.09409 34.6875 4.70498 37.2984C7.39988 39.9934 10.9387 41.3406 14.4786 41.3403C18.0177 41.34 21.5578 39.9928 24.252 37.2985C26.2462 35.3056 27.5679 32.7916 28.0743 30.0284C28.5452 27.4588 28.2876 24.8393 27.33 22.4265L30.6159 19.1429C30.7236 19.0352 30.7842 18.8891 30.7842 18.7366V15.7277H33.0737C33.3908 15.7277 33.6479 15.4706 33.6479 15.1534V13.7425H35.3841C35.7012 13.7425 35.9583 13.4854 35.9583 13.1683V10.1831H38.5684C38.7206 10.1831 38.8667 10.1226 38.9744 10.0149L41.1756 7.81378C41.2833 7.70615 41.3438 7.56005 41.3438 7.40772V1.23389C41.3438 0.990746 41.1925 0.783453 40.979 0.699699ZM14.4786 32.4971C13.9253 32.4971 13.4741 32.0459 13.4741 31.4927C13.4741 30.9395 13.9253 30.4859 14.4786 30.4859C15.0319 30.4859 15.483 30.9395 15.483 31.4927C15.483 32.0459 15.0318 32.4971 14.4786 32.4971ZM18.2235 29.1277C18.0297 29.3807 17.7371 29.5136 17.4412 29.5136C17.2325 29.5136 17.022 29.4475 16.8434 29.3106C16.1587 28.7862 15.341 28.5091 14.4785 28.5091C13.616 28.5091 12.7984 28.7863 12.1136 29.3106C11.6821 29.6412 11.0642 29.5593 10.7336 29.1277C10.403 28.6961 10.485 28.0783 10.9166 27.7477C11.9478 26.9579 13.1795 26.5404 14.4785 26.5404C15.7776 26.5404 17.0093 26.9578 18.0405 27.7477C18.4721 28.0783 18.554 28.6961 18.2234 29.1277H18.2235ZM21.005 26.3546C20.8103 26.5797 20.536 26.6949 20.2602 26.6949C20.0319 26.6949 19.8027 26.616 19.6165 26.455C18.1902 25.2209 16.3656 24.5412 14.4786 24.5412C12.5916 24.5412 10.767 25.2208 9.34065 26.455C8.92959 26.8107 8.30796 26.7659 7.95219 26.3546C7.5965 25.9435 7.64138 25.3219 8.05252 24.9662C9.83653 23.4226 12.1186 22.5725 14.4786 22.5725C16.8386 22.5725 19.1207 23.4226 20.9047 24.9662C21.3158 25.3219 21.3608 25.9436 21.005 26.3546Z" fill="#0B0D10"/>
</svg>
