<svg width="42" height="42" viewBox="0 0 42 42" fill="none" xmlns="http://www.w3.org/2000/svg">
<path d="M39.5793 0.393912C39.348 0.142986 39.0227 0 38.6807 0H38.6597C35.7579 1.54621 28.9591 2.63402 20.9995 2.63402C13.04 2.63402 6.24253 1.54621 3.33935 0H3.31973C2.97909 0 2.65246 0.142986 2.42256 0.393912C2.19126 0.644838 2.07771 0.979874 2.10575 1.32052L4.27157 26.8715C5.13649 35.4605 12.3671 42 20.9995 42C29.6333 42 36.8625 35.4605 37.7275 26.8715L39.8933 1.32052C39.9241 0.979874 39.8092 0.644838 39.5793 0.393912ZM9.5284 15.1509C9.79194 13.9159 11.7839 13.2935 13.9792 13.7617C16.1744 14.2285 17.7417 15.6093 17.4781 16.8443C17.2146 18.0793 15.2226 18.7003 13.0273 18.2335C10.8321 17.7667 9.26486 16.3859 9.5284 15.1509ZM28.5161 28.7808C27.5124 31.9784 24.5307 34.3012 21.0009 34.3012C17.4711 34.3012 14.4894 31.9798 13.4857 28.7808C13.3904 28.4766 13.4451 28.1458 13.6329 27.8879C13.8208 27.6313 14.1194 27.4813 14.4376 27.4813H27.5628C27.8825 27.4813 28.1782 27.6313 28.3675 27.8879C28.5567 28.1458 28.6114 28.4766 28.5161 28.7808ZM28.9759 18.2335C26.7834 18.7003 24.7886 18.0793 24.5251 16.8443C24.2616 15.6093 25.8288 14.2285 28.024 13.7617C30.2179 13.2949 32.2127 13.9159 32.4748 15.1509C32.7384 16.3859 31.1711 17.7667 28.9759 18.2335Z" fill="#0B0D10"/>
</svg>
