<svg width="42" height="42" viewBox="0 0 42 42" fill="none" xmlns="http://www.w3.org/2000/svg">
<path d="M32.8594 37.0651C30.9675 38.649 28.5525 39.4697 26.0872 39.3665C23.622 39.2633 21.284 38.2437 19.531 36.5073L5.48726 22.4701C3.68195 20.6377 2.65697 18.1769 2.6276 15.6047C2.59823 13.0325 3.56676 10.549 5.32976 8.67576C5.55366 8.41409 5.829 8.20128 6.13866 8.05056C6.44832 7.89985 6.78567 7.81445 7.12975 7.79967C7.47382 7.7849 7.81725 7.84107 8.13869 7.96469C8.46012 8.08832 8.75269 8.27675 8.9982 8.51826L12.5157 12.0358C12.7761 12.2991 12.9749 12.617 13.0978 12.9664C13.2207 13.3158 13.2645 13.6881 13.2262 14.0565C13.188 14.4249 13.0685 14.7802 12.8764 15.0969C12.6843 15.4136 12.4244 15.6838 12.1154 15.888C11.8398 16.0691 11.6032 16.3035 11.4195 16.5773C11.2358 16.8512 11.1087 17.159 11.0457 17.4827C10.9834 17.7938 10.9838 18.1143 11.0469 18.4253C11.11 18.7364 11.2345 19.0317 11.4132 19.2939C12.9969 21.4469 14.7621 23.4602 16.6894 25.3118C18.5178 27.2134 20.5022 28.9586 22.6219 30.5289C22.8935 30.7182 23.1998 30.852 23.5232 30.9225C23.8467 30.9929 24.1809 30.9988 24.5065 30.9396C24.8322 30.8804 25.143 30.7575 25.421 30.5777C25.699 30.398 25.9387 30.1651 26.1263 29.8924C26.3315 29.5844 26.6023 29.3256 26.9192 29.1346C27.2362 28.9435 27.5914 28.825 27.9596 28.7873C28.3277 28.7497 28.6996 28.7939 29.0487 28.9169C29.3977 29.0399 29.7152 29.2385 29.9785 29.4986L33.4763 32.9964C34.7232 34.2761 34.2835 36.1201 32.8594 37.0651Z" fill="#0B0D10"/>
<path d="M32.0906 29.4806C32.1858 29.4808 32.2799 29.4602 32.3664 29.4203C32.4528 29.3803 32.5295 29.3221 32.5911 29.2495C34.8767 26.5541 36.065 23.0977 35.92 19.5667C35.7751 16.0356 34.3074 12.6883 31.8084 10.1894C29.3095 7.69047 25.9622 6.22278 22.4312 6.07778C18.9001 5.93279 15.4437 7.12109 12.7483 9.40671C12.6824 9.46249 12.628 9.53074 12.5885 9.60756C12.5489 9.68437 12.5249 9.76824 12.5178 9.85435C12.5108 9.94046 12.5207 10.0271 12.5472 10.1094C12.5737 10.1916 12.6161 10.2678 12.6721 10.3336C12.7281 10.3994 12.7965 10.4536 12.8734 10.4929C12.9504 10.5322 13.0343 10.556 13.1204 10.5628C13.2066 10.5696 13.2932 10.5593 13.3754 10.5326C13.4575 10.5059 13.5336 10.4632 13.5993 10.407C15.9024 8.45125 18.8259 7.37807 21.8475 7.37923C32.6047 7.29691 38.6129 20.2626 31.5908 28.3985C31.5114 28.4946 31.4608 28.6111 31.4447 28.7346C31.4287 28.8582 31.4479 28.9838 31.5001 29.0969C31.5524 29.21 31.6355 29.3061 31.74 29.374C31.8445 29.4419 31.966 29.4789 32.0906 29.4806Z" fill="#0B0D10"/>
<path d="M21.8479 2.62501C17.5957 2.6215 13.4877 4.16636 10.2914 6.97092C10.2261 7.02769 10.1726 7.09681 10.1341 7.17431C10.0956 7.25181 10.0727 7.33616 10.0669 7.42251C10.0611 7.50887 10.0724 7.59552 10.1002 7.67749C10.128 7.75946 10.1717 7.83513 10.2288 7.90015C10.2859 7.96518 10.3553 8.01827 10.433 8.05638C10.5107 8.09449 10.5952 8.11686 10.6816 8.12222C10.768 8.12757 10.8546 8.1158 10.9364 8.08758C11.0182 8.05936 11.0936 8.01524 11.1583 7.95777C14.1147 5.36358 17.9146 3.93475 21.8477 3.93832C35.6829 3.89247 43.1916 20.4895 34.0403 30.8396C33.9256 30.9705 33.8675 31.1416 33.8789 31.3152C33.8902 31.4889 33.97 31.651 34.1008 31.7658C34.2315 31.8807 34.4025 31.939 34.5762 31.9279C34.7499 31.9168 34.912 31.8372 35.0271 31.7066C37.2471 29.1733 38.6903 26.0541 39.1838 22.7221C39.6774 19.39 39.2004 15.9864 37.8101 12.9184C36.4197 9.85032 34.1748 7.24787 31.344 5.42238C28.5132 3.5969 25.2163 2.6257 21.8479 2.62501Z" fill="#0B0D10"/>
<path d="M25.0898 12.311V18.8735C25.0898 19.3957 24.8824 19.8964 24.5132 20.2657C24.144 20.6349 23.6432 20.8423 23.1211 20.8423C22.5989 20.8423 22.0982 20.6349 21.729 20.2657C21.3598 19.8964 21.1523 19.3957 21.1523 18.8735V12.311C21.1523 11.7889 21.3598 11.2881 21.729 10.9189C22.0982 10.5497 22.5989 10.3423 23.1211 10.3423C23.6432 10.3423 24.144 10.5497 24.5132 10.9189C24.8824 11.2881 25.0898 11.7889 25.0898 12.311Z" fill="#0B0D10"/>
<path d="M23.1201 26.0991C24.2074 26.0991 25.0889 25.2177 25.0889 24.1304C25.0889 23.0431 24.2074 22.1616 23.1201 22.1616C22.0328 22.1616 21.1514 23.0431 21.1514 24.1304C21.1514 25.2177 22.0328 26.0991 23.1201 26.0991Z" fill="#0B0D10"/>
</svg>
