<svg width="430" height="500" viewBox="0 0 430 500" fill="none" xmlns="http://www.w3.org/2000/svg">
<path d="M52.8975 474.801V96.9443C44.5399 116.076 34.9074 129.059 24 135.891V87.3783C36.1823 76.4457 47.5146 55.0362 57.9971 23.1496H72.0209V474.801H52.8975Z" fill="url(#paint0_linear_12157_86806)"/>
<path d="M145.898 474.801V471.384C145.898 404.422 159.922 336.777 187.969 268.449C199.868 239.751 207.447 218.797 210.705 205.587C214.53 189.643 216.442 169.828 216.442 146.141C216.442 93.7556 208.368 67.563 192.219 67.563C176.637 67.563 167.359 95.3499 164.384 150.924H146.111C147.385 110.838 151.848 78.9511 159.497 55.2639C167.571 29.7546 178.479 17 192.219 17C206.81 17 218 30.4379 225.791 57.3138C232.449 80.5455 235.778 109.699 235.778 144.774C235.778 177.116 233.228 204.22 228.129 226.085C225.579 236.562 221.967 248.406 217.292 261.616C213.751 271.637 208.297 285.759 200.931 303.979C182.091 350.443 171.113 389.846 167.996 422.188H241.302L238.54 474.801H145.898Z" fill="url(#paint1_linear_12157_86806)"/>
<path d="M314.57 132.475C315.987 100.588 319.953 74.3959 326.469 53.8973C334.402 29.2991 345.239 17 358.979 17C372.578 17 383.202 28.8436 390.851 52.5308C397.651 73.9404 401.051 101.044 401.051 133.842C401.051 158.895 399.067 179.849 395.101 196.704C391.843 210.825 387.664 220.847 382.565 226.768V228.135C389.647 235.423 395.313 247.495 399.563 264.349C404.521 284.848 407 310.585 407 341.56C407 381.191 403.246 413.76 395.738 439.27C387.098 468.423 374.703 483 358.554 483C343.822 483 332.136 469.79 323.495 443.369C316.27 421.049 312.021 392.806 310.746 358.642H329.232C330.79 380.507 333.906 397.817 338.581 410.572C343.964 425.604 350.905 433.12 359.404 433.12C368.895 433.12 376.119 424.01 381.077 405.789C385.61 389.846 387.877 368.664 387.877 342.243C387.877 283.936 377.748 254.783 357.492 254.783H347.505V205.587H355.792C373.357 205.587 382.14 182.355 382.14 135.891C382.14 90.3392 374.207 67.563 358.342 67.563C350.551 67.563 344.53 73.9404 340.281 86.695C336.739 96.7165 334.19 111.977 332.631 132.475H314.57Z" fill="url(#paint2_linear_12157_86806)"/>
<defs>
<linearGradient id="paint0_linear_12157_86806" x1="215.5" y1="17" x2="215.5" y2="483" gradientUnits="userSpaceOnUse">
<stop stop-color="#1A1A1A"/>
<stop offset="1" stop-color="white"/>
</linearGradient>
<linearGradient id="paint1_linear_12157_86806" x1="215.5" y1="17" x2="215.5" y2="483" gradientUnits="userSpaceOnUse">
<stop stop-color="#1A1A1A"/>
<stop offset="1" stop-color="white"/>
</linearGradient>
<linearGradient id="paint2_linear_12157_86806" x1="215.5" y1="17" x2="215.5" y2="483" gradientUnits="userSpaceOnUse">
<stop stop-color="#1A1A1A"/>
<stop offset="1" stop-color="white"/>
</linearGradient>
</defs>
</svg>
