<svg width="188" height="55" viewBox="0 0 188 55" fill="none" xmlns="http://www.w3.org/2000/svg">
<path d="M26.1255 43.1284V40.4437C26.1255 38.4054 26.5564 36.5327 27.4181 34.8258C28.2964 33.1023 29.5642 31.7269 31.2214 30.6994C32.8951 29.6554 34.9335 29.1333 37.3364 29.1333C39.7725 29.1333 41.8191 29.6471 43.4763 30.6745C45.1501 31.702 46.4096 33.0775 47.2548 34.801C48.1165 36.5079 48.5474 38.3888 48.5474 40.4437V43.1284C48.5474 45.1667 48.1165 47.0476 47.2548 48.7711C46.393 50.478 45.1253 51.8452 43.4515 52.8727C41.7777 53.9167 39.7394 54.4387 37.3364 54.4387C34.9003 54.4387 32.8537 53.9167 31.1965 52.8727C29.5393 51.8452 28.2798 50.478 27.4181 48.7711C26.5564 47.0476 26.1255 45.1667 26.1255 43.1284ZM33.3592 40.4437V43.1284C33.3592 44.305 33.6409 45.4153 34.2043 46.4593C34.7843 47.5034 35.8284 48.0254 37.3364 48.0254C38.8445 48.0254 39.8719 47.5117 40.4188 46.4842C40.9823 45.4567 41.264 44.3381 41.264 43.1284V40.4437C41.264 39.234 40.9988 38.1071 40.4685 37.063C39.9382 36.019 38.8942 35.497 37.3364 35.497C35.845 35.497 34.8092 36.019 34.2292 37.063C33.6492 38.1071 33.3592 39.234 33.3592 40.4437ZM-0.000221804 13.9949V11.3102C-0.000221804 9.25527 0.438935 7.37435 1.31725 5.66743C2.19556 3.94395 3.46332 2.56848 5.12052 1.54102C6.79429 0.513553 8.81607 -0.000178695 11.1859 -0.000178695C13.6385 -0.000178695 15.6934 0.513553 17.3506 1.54102C19.0078 2.56848 20.2673 3.94395 21.129 5.66743C21.9908 7.37435 22.4217 9.25527 22.4217 11.3102V13.9949C22.4217 16.0498 21.9825 17.9307 21.1042 19.6376C20.2424 21.3445 18.9747 22.7117 17.3009 23.7392C15.6437 24.7501 13.6054 25.2555 11.1859 25.2555C8.76635 25.2555 6.71971 24.7418 5.04594 23.7143C3.38875 22.6703 2.12928 21.3031 1.26753 19.6127C0.422363 17.9058 -0.000221804 16.0332 -0.000221804 13.9949ZM7.28316 11.3102V13.9949C7.28316 15.2046 7.56488 16.3232 8.12833 17.3507C8.70835 18.3781 9.72753 18.8919 11.1859 18.8919C12.7105 18.8919 13.7462 18.3781 14.2931 17.3507C14.8565 16.3232 15.1383 15.2046 15.1383 13.9949V11.3102C15.1383 10.1004 14.8731 8.97354 14.3428 7.92951C13.8125 6.88547 12.7602 6.36346 11.1859 6.36346C9.71095 6.36346 8.69178 6.89376 8.12833 7.95437C7.56488 9.01497 7.28316 10.1336 7.28316 11.3102ZM3.28103 52.6738L38.281 1.76474H44.7938L9.79381 52.6738H3.28103ZM72.3708 47.2193V45.6852C72.3708 44.5204 72.617 43.4503 73.1094 42.475C73.6113 41.4901 74.3358 40.7041 75.2827 40.117C76.2392 39.5204 77.4039 39.2221 78.7771 39.2221C80.1691 39.2221 81.3386 39.5157 82.2856 40.1028C83.242 40.6899 83.9617 41.4759 84.4447 42.4608C84.9371 43.4361 85.1833 44.5109 85.1833 45.6852V47.2193C85.1833 48.3841 84.9371 49.4589 84.4447 50.4437C83.9522 51.4191 83.2278 52.2003 82.2714 52.7875C81.3149 53.3841 80.1502 53.6824 78.7771 53.6824C77.385 53.6824 76.2155 53.3841 75.2685 52.7875C74.3216 52.2003 73.6019 51.4191 73.1094 50.4437C72.617 49.4589 72.3708 48.3841 72.3708 47.2193ZM76.5043 45.6852V47.2193C76.5043 47.8916 76.6653 48.5261 76.9873 49.1227C77.3187 49.7193 77.9153 50.0176 78.7771 50.0176C79.6388 50.0176 80.2259 49.724 80.5384 49.1369C80.8604 48.5498 81.0214 47.9106 81.0214 47.2193V45.6852C81.0214 44.9939 80.8699 44.35 80.5668 43.7534C80.2638 43.1568 79.6672 42.8585 78.7771 42.8585C77.9248 42.8585 77.3329 43.1568 77.0015 43.7534C76.67 44.35 76.5043 44.9939 76.5043 45.6852ZM57.4418 30.5716V29.0375C57.4418 27.8632 57.6928 26.7884 58.1947 25.813C58.6966 24.8282 59.421 24.0422 60.368 23.4551C61.3244 22.868 62.4797 22.5744 63.8339 22.5744C65.2354 22.5744 66.4096 22.868 67.3566 23.4551C68.3036 24.0422 69.0233 24.8282 69.5157 25.813C70.0081 26.7884 70.2543 27.8632 70.2543 29.0375V30.5716C70.2543 31.7458 70.0034 32.8206 69.5015 33.796C69.0091 34.7714 68.2846 35.5526 67.3282 36.1397C66.3812 36.7174 65.2164 37.0062 63.8339 37.0062C62.4513 37.0062 61.2818 36.7127 60.3253 36.1255C59.3784 35.5289 58.6587 34.7477 58.1663 33.7818C57.6833 32.8064 57.4418 31.7363 57.4418 30.5716ZM61.6038 29.0375V30.5716C61.6038 31.2628 61.7647 31.902 62.0867 32.4892C62.4181 33.0763 63.0005 33.3699 63.8339 33.3699C64.7051 33.3699 65.2969 33.0763 65.6094 32.4892C65.9314 31.902 66.0924 31.2628 66.0924 30.5716V29.0375C66.0924 28.3462 65.9409 27.7022 65.6378 27.1056C65.3348 26.5091 64.7335 26.2108 63.8339 26.2108C62.9911 26.2108 62.4087 26.5138 62.0867 27.1199C61.7647 27.7259 61.6038 28.3651 61.6038 29.0375ZM59.3168 52.6738L79.3168 23.5829H83.0384L63.0384 52.6738H59.3168ZM106.546 47.2193V45.6852C106.546 44.5204 106.792 43.4503 107.284 42.475C107.786 41.4901 108.511 40.7041 109.458 40.117C110.414 39.5204 111.579 39.2221 112.952 39.2221C114.344 39.2221 115.514 39.5157 116.461 40.1028C117.417 40.6899 118.137 41.4759 118.62 42.4608C119.112 43.4361 119.358 44.5109 119.358 45.6852V47.2193C119.358 48.3841 119.112 49.4589 118.62 50.4437C118.127 51.4191 117.403 52.2003 116.446 52.7875C115.49 53.3841 114.325 53.6824 112.952 53.6824C111.56 53.6824 110.39 53.3841 109.444 52.7875C108.497 52.2003 107.777 51.4191 107.284 50.4437C106.792 49.4589 106.546 48.3841 106.546 47.2193ZM110.679 45.6852V47.2193C110.679 47.8916 110.84 48.5261 111.162 49.1227C111.494 49.7193 112.09 50.0176 112.952 50.0176C113.814 50.0176 114.401 49.724 114.713 49.1369C115.035 48.5498 115.196 47.9106 115.196 47.2193V45.6852C115.196 44.9939 115.045 44.35 114.742 43.7534C114.439 43.1568 113.842 42.8585 112.952 42.8585C112.1 42.8585 111.508 43.1568 111.176 43.7534C110.845 44.35 110.679 44.9939 110.679 45.6852ZM91.6168 30.5716V29.0375C91.6168 27.8632 91.8678 26.7884 92.3697 25.813C92.8716 24.8282 93.596 24.0422 94.543 23.4551C95.4994 22.868 96.6547 22.5744 98.0089 22.5744C99.4104 22.5744 100.585 22.868 101.532 23.4551C102.479 24.0422 103.198 24.8282 103.691 25.813C104.183 26.7884 104.429 27.8632 104.429 29.0375V30.5716C104.429 31.7458 104.178 32.8206 103.676 33.796C103.184 34.7714 102.46 35.5526 101.503 36.1397C100.556 36.7174 99.3914 37.0062 98.0089 37.0062C96.6263 37.0062 95.4568 36.7127 94.5003 36.1255C93.5534 35.5289 92.8337 34.7477 92.3413 33.7818C91.8583 32.8064 91.6168 31.7363 91.6168 30.5716ZM95.7788 29.0375V30.5716C95.7788 31.2628 95.9397 31.902 96.2617 32.4892C96.5931 33.0763 97.1755 33.3699 98.0089 33.3699C98.8801 33.3699 99.4719 33.0763 99.7844 32.4892C100.106 31.902 100.267 31.2628 100.267 30.5716V29.0375C100.267 28.3462 100.116 27.7022 99.8128 27.1056C99.5098 26.5091 98.9085 26.2108 98.0089 26.2108C97.1661 26.2108 96.5837 26.5138 96.2617 27.1199C95.9397 27.7259 95.7788 28.3651 95.7788 29.0375ZM93.4918 52.6738L113.492 23.5829H117.213L97.2134 52.6738H93.4918ZM140.721 47.2193V45.6852C140.721 44.5204 140.967 43.4503 141.459 42.475C141.961 41.4901 142.686 40.7041 143.633 40.117C144.589 39.5204 145.754 39.2221 147.127 39.2221C148.519 39.2221 149.689 39.5157 150.636 40.1028C151.592 40.6899 152.312 41.4759 152.795 42.4608C153.287 43.4361 153.533 44.5109 153.533 45.6852V47.2193C153.533 48.3841 153.287 49.4589 152.795 50.4437C152.302 51.4191 151.578 52.2003 150.621 52.7875C149.665 53.3841 148.5 53.6824 147.127 53.6824C145.735 53.6824 144.565 53.3841 143.619 52.7875C142.672 52.2003 141.952 51.4191 141.459 50.4437C140.967 49.4589 140.721 48.3841 140.721 47.2193ZM144.854 45.6852V47.2193C144.854 47.8916 145.015 48.5261 145.337 49.1227C145.669 49.7193 146.265 50.0176 147.127 50.0176C147.989 50.0176 148.576 49.724 148.888 49.1369C149.21 48.5498 149.371 47.9106 149.371 47.2193V45.6852C149.371 44.9939 149.22 44.35 148.917 43.7534C148.614 43.1568 148.017 42.8585 147.127 42.8585C146.275 42.8585 145.683 43.1568 145.351 43.7534C145.02 44.35 144.854 44.9939 144.854 45.6852ZM125.792 30.5716V29.0375C125.792 27.8632 126.043 26.7884 126.545 25.813C127.047 24.8282 127.771 24.0422 128.718 23.4551C129.674 22.868 130.83 22.5744 132.184 22.5744C133.585 22.5744 134.76 22.868 135.707 23.4551C136.654 24.0422 137.373 24.8282 137.866 25.813C138.358 26.7884 138.604 27.8632 138.604 29.0375V30.5716C138.604 31.7458 138.353 32.8206 137.851 33.796C137.359 34.7714 136.635 35.5526 135.678 36.1397C134.731 36.7174 133.566 37.0062 132.184 37.0062C130.801 37.0062 129.632 36.7127 128.675 36.1255C127.728 35.5289 127.009 34.7477 126.516 33.7818C126.033 32.8064 125.792 31.7363 125.792 30.5716ZM129.954 29.0375V30.5716C129.954 31.2628 130.115 31.902 130.437 32.4892C130.768 33.0763 131.351 33.3699 132.184 33.3699C133.055 33.3699 133.647 33.0763 133.959 32.4892C134.281 31.902 134.442 31.2628 134.442 30.5716V29.0375C134.442 28.3462 134.291 27.7022 133.988 27.1056C133.685 26.5091 133.083 26.2108 132.184 26.2108C131.341 26.2108 130.759 26.5138 130.437 27.1199C130.115 27.7259 129.954 28.3651 129.954 29.0375ZM127.667 52.6738L147.667 23.5829H151.388L131.388 52.6738H127.667ZM174.896 47.2193V45.6852C174.896 44.5204 175.142 43.4503 175.634 42.475C176.136 41.4901 176.861 40.7041 177.808 40.117C178.764 39.5204 179.929 39.2221 181.302 39.2221C182.694 39.2221 183.864 39.5157 184.811 40.1028C185.767 40.6899 186.487 41.4759 186.97 42.4608C187.462 43.4361 187.708 44.5109 187.708 45.6852V47.2193C187.708 48.3841 187.462 49.4589 186.97 50.4437C186.477 51.4191 185.753 52.2003 184.796 52.7875C183.84 53.3841 182.675 53.6824 181.302 53.6824C179.91 53.6824 178.74 53.3841 177.794 52.7875C176.847 52.2003 176.127 51.4191 175.634 50.4437C175.142 49.4589 174.896 48.3841 174.896 47.2193ZM179.029 45.6852V47.2193C179.029 47.8916 179.19 48.5261 179.512 49.1227C179.844 49.7193 180.44 50.0176 181.302 50.0176C182.164 50.0176 182.751 49.724 183.063 49.1369C183.385 48.5498 183.546 47.9106 183.546 47.2193V45.6852C183.546 44.9939 183.395 44.35 183.092 43.7534C182.789 43.1568 182.192 42.8585 181.302 42.8585C180.45 42.8585 179.858 43.1568 179.526 43.7534C179.195 44.35 179.029 44.9939 179.029 45.6852ZM159.967 30.5716V29.0375C159.967 27.8632 160.218 26.7884 160.72 25.813C161.222 24.8282 161.946 24.0422 162.893 23.4551C163.849 22.868 165.005 22.5744 166.359 22.5744C167.76 22.5744 168.935 22.868 169.882 23.4551C170.829 24.0422 171.548 24.8282 172.041 25.813C172.533 26.7884 172.779 27.8632 172.779 29.0375V30.5716C172.779 31.7458 172.528 32.8206 172.026 33.796C171.534 34.7714 170.81 35.5526 169.853 36.1397C168.906 36.7174 167.741 37.0062 166.359 37.0062C164.976 37.0062 163.807 36.7127 162.85 36.1255C161.903 35.5289 161.184 34.7477 160.691 33.7818C160.208 32.8064 159.967 31.7363 159.967 30.5716ZM164.129 29.0375V30.5716C164.129 31.2628 164.29 31.902 164.612 32.4892C164.943 33.0763 165.526 33.3699 166.359 33.3699C167.23 33.3699 167.822 33.0763 168.134 32.4892C168.456 31.902 168.617 31.2628 168.617 30.5716V29.0375C168.617 28.3462 168.466 27.7022 168.163 27.1056C167.86 26.5091 167.258 26.2108 166.359 26.2108C165.516 26.2108 164.934 26.5138 164.612 27.1199C164.29 27.7259 164.129 28.3651 164.129 29.0375ZM161.842 52.6738L181.842 23.5829H185.563L165.563 52.6738H161.842Z" fill="url(#paint0_linear_12157_86810)"/>
<defs>
<linearGradient id="paint0_linear_12157_86810" x1="61.5909" y1="0.673826" x2="72.8599" y2="90.2802" gradientUnits="userSpaceOnUse">
<stop stop-color="#0D41BB"/>
<stop offset="0.518487" stop-color="#77BDDE"/>
<stop offset="1" stop-color="#A3CFF2"/>
</linearGradient>
</defs>
</svg>
