<svg width="42" height="42" viewBox="0 0 42 42" fill="none" xmlns="http://www.w3.org/2000/svg">
<path fill-rule="evenodd" clip-rule="evenodd" d="M3.98959 23.1302V37.4364H1.75358C1.6366 37.4364 1.52441 37.4829 1.44169 37.5656C1.35897 37.6483 1.3125 37.7605 1.3125 37.8775C1.3125 37.9945 1.35897 38.1067 1.44169 38.1894C1.52441 38.2721 1.6366 38.3186 1.75358 38.3186H40.2461C40.3631 38.3186 40.4753 38.2721 40.558 38.1894C40.6407 38.1067 40.6872 37.9945 40.6872 37.8775C40.6872 37.7605 40.6407 37.6483 40.558 37.5656C40.4753 37.4829 40.3631 37.4364 40.2461 37.4364H38.0094V23.1302H35.4812V37.4364H34.5991V33.4579H31.9472V37.4364H31.0647V33.4579H26.694V37.4364H25.8115V33.4579H21.4408V37.4364H20.5583V33.4579H16.1876V37.4364H15.3051V33.4579H10.9343V37.4364H10.0519V33.4579H7.40061V37.4364H6.51779V23.1302H3.98959ZM31.9472 19.1475V32.576H34.5991V22.232C34.2524 21.8844 33.9959 21.4573 33.8519 20.9879C33.7079 20.5185 33.6808 20.021 33.773 19.5388C33.152 19.4751 32.5397 19.3439 31.9472 19.1475ZM10.0519 19.1475C9.4593 19.3439 8.84705 19.475 8.22601 19.5385C8.31821 20.0202 8.2912 20.5173 8.14734 20.9862C8.00347 21.4552 7.74712 21.8819 7.40061 22.2291V32.5756H10.0519V19.1475ZM36.7448 17.9606C36.3208 17.9606 35.9064 18.0864 35.5539 18.322C35.2014 18.5577 34.9267 18.8925 34.7645 19.2842C34.6023 19.676 34.5599 20.107 34.6427 20.5228C34.7255 20.9387 34.9297 21.3206 35.2295 21.6204C35.5294 21.9201 35.9114 22.1243 36.3273 22.2069C36.7431 22.2896 37.1741 22.247 37.5658 22.0847C37.9575 21.9224 38.2923 21.6476 38.5278 21.295C38.7633 20.9425 38.8889 20.528 38.8889 20.104C38.8896 19.8223 38.8346 19.5432 38.7271 19.2828C38.6196 19.0224 38.4617 18.7858 38.2624 18.5867C38.0632 18.3875 37.8266 18.2297 37.5662 18.1222C37.3058 18.0148 37.0267 17.9598 36.745 17.9606H36.7448ZM5.25386 17.9606C4.82984 17.9605 4.41533 18.0862 4.06274 18.3217C3.71016 18.5573 3.43534 18.8921 3.27305 19.2838C3.11075 19.6755 3.06827 20.1066 3.15098 20.5224C3.23369 20.9383 3.43786 21.3203 3.73769 21.6201C4.03751 21.92 4.41952 22.1241 4.83539 22.2069C5.25126 22.2896 5.68232 22.2471 6.07405 22.0848C6.46577 21.9225 6.80057 21.6477 7.0361 21.2951C7.27164 20.9425 7.39731 20.528 7.39725 20.104C7.39787 19.8223 7.34285 19.5434 7.23536 19.283C7.12788 19.0227 6.97003 18.7862 6.7709 18.5871C6.57176 18.3879 6.33525 18.23 6.07494 18.1225C5.81463 18.015 5.53565 17.96 5.25402 17.9606H5.25386ZM26.6938 16.8609V32.5756H31.0647V18.8283C30.231 18.4899 29.4017 18.0718 28.5038 17.6462C27.9347 17.3761 27.3332 17.1089 26.694 16.8609H26.6938ZM15.3049 16.8609C14.6656 17.1089 14.0642 17.3761 13.4948 17.6462C12.5969 18.0718 11.7676 18.4899 10.9339 18.8283V32.5756H15.3049V16.8609ZM21.4408 15.7877V32.5756H25.8115V16.5467C24.4001 16.0791 22.9272 15.8233 21.4408 15.7877H21.4408ZM20.5583 15.7877C19.072 15.8235 17.5991 16.0792 16.1876 16.5465V32.5754H20.5583V15.7877ZM20.9995 11.5394C20.7245 11.5394 20.4556 11.6209 20.2269 11.7737C19.9982 11.9265 19.82 12.1436 19.7147 12.3977C19.6094 12.6518 19.5819 12.9314 19.6355 13.2012C19.6892 13.4709 19.8216 13.7187 20.0161 13.9132C20.2106 14.1077 20.4584 14.2401 20.7281 14.2937C20.9979 14.3474 21.2775 14.3198 21.5315 14.2146C21.7856 14.1093 22.0028 13.9311 22.1556 13.7024C22.3084 13.4737 22.3899 13.2048 22.3899 12.9298C22.388 12.5616 22.241 12.209 21.9806 11.9486C21.7203 11.6883 21.3677 11.5412 20.9995 11.5394ZM20.9995 8.94584C19.9322 8.945 18.8943 9.2958 18.0464 9.944C17.9548 10.0155 17.8951 10.1203 17.8803 10.2355C17.8655 10.3508 17.8968 10.4673 17.9674 10.5596C18.0379 10.6519 18.1421 10.7127 18.2572 10.7286C18.3723 10.7446 18.4891 10.7144 18.5821 10.6448C19.2766 10.115 20.126 9.828 20.9995 9.828C21.873 9.828 22.7224 10.115 23.4169 10.6448C23.4628 10.6807 23.5154 10.7071 23.5717 10.7225C23.6279 10.7379 23.6866 10.742 23.7444 10.7346C23.8023 10.7272 23.858 10.7083 23.9086 10.6792C23.9591 10.6501 24.0033 10.6113 24.0387 10.565C24.0741 10.5187 24.1 10.4658 24.1148 10.4094C24.1297 10.353 24.1332 10.2943 24.1252 10.2365C24.1172 10.1788 24.0978 10.1232 24.0682 10.073C24.0386 10.0228 23.9993 9.97894 23.9526 9.944C23.1047 9.29569 22.0668 8.94488 20.9995 8.94584ZM20.9995 6.26826C19.2684 6.2663 17.585 6.83519 16.21 7.88682C16.1631 7.92164 16.1236 7.96541 16.0939 8.0156C16.0641 8.06579 16.0445 8.12139 16.0364 8.17919C16.0282 8.23698 16.0317 8.29582 16.0464 8.35228C16.0612 8.40874 16.087 8.46171 16.1225 8.50812C16.1579 8.55452 16.2021 8.59343 16.2527 8.6226C16.3032 8.65176 16.3591 8.6706 16.417 8.67802C16.4749 8.68543 16.5336 8.68128 16.5899 8.66581C16.6462 8.65033 16.6988 8.62384 16.7448 8.58786C17.9671 7.65546 19.4619 7.15042 20.9992 7.15042C22.5365 7.15042 24.0313 7.65546 25.2536 8.58786C25.2995 8.62384 25.3522 8.65033 25.4084 8.66581C25.4647 8.68128 25.5235 8.68543 25.5814 8.67802C25.6393 8.6706 25.6951 8.65176 25.7457 8.6226C25.7962 8.59343 25.8405 8.55452 25.8759 8.50812C25.9113 8.46171 25.9371 8.40874 25.9519 8.35228C25.9667 8.29582 25.9701 8.23698 25.962 8.17919C25.9538 8.12139 25.9343 8.06579 25.9045 8.0156C25.8747 7.96541 25.8352 7.92164 25.7884 7.88682C24.4136 6.8352 22.7304 6.2663 20.9995 6.26826ZM20.9995 3.6814C18.7017 3.67877 16.4672 4.43392 14.6421 5.82988C14.5961 5.86502 14.5574 5.90887 14.5284 5.95894C14.4993 6.00901 14.4804 6.06431 14.4727 6.1217C14.465 6.17908 14.4687 6.23741 14.4835 6.29337C14.4984 6.34933 14.5241 6.40181 14.5592 6.44783C14.5944 6.49384 14.6382 6.53248 14.6883 6.56155C14.7384 6.59062 14.7937 6.60954 14.851 6.61723C14.9084 6.62492 14.9668 6.62124 15.0227 6.60639C15.0787 6.59154 15.1312 6.56581 15.1772 6.53068C16.85 5.2547 18.8956 4.56356 20.9995 4.56356C23.1034 4.56356 25.149 5.2547 26.8218 6.53068C26.9148 6.60163 27.0321 6.63277 27.148 6.61723C27.2639 6.60169 27.3688 6.54076 27.4398 6.44783C27.5107 6.35489 27.5419 6.23758 27.5263 6.1217C27.5108 6.00581 27.4499 5.90084 27.3569 5.82988C25.5319 4.43381 23.2973 3.67864 20.9995 3.6814Z" fill="url(#paint0_linear_12157_59541)"/>
<defs>
<linearGradient id="paint0_linear_12157_59541" x1="20.9998" y1="3.6814" x2="20.9998" y2="38.3186" gradientUnits="userSpaceOnUse">
<stop stop-color="#0B0D10"/>
<stop offset="1" stop-color="#516076"/>
</linearGradient>
</defs>
</svg>
