<svg width="32" height="32" viewBox="0 0 32 32" fill="none" xmlns="http://www.w3.org/2000/svg">
<path d="M31.9648 15.8428H28.6777V28.083C28.6777 30.357 27.3209 32 24.7607 32H7.41406C5.12757 31.9999 3.49707 30.2803 3.49707 28.083V15.8428H0L16.1221 0L31.9648 15.8428ZM12.2969 17.1328C10.2225 17.133 8.54102 18.8152 8.54102 20.8896C8.54109 22.964 10.2225 24.6453 12.2969 24.6455H19.6562C21.7308 24.6455 23.413 22.9642 23.4131 20.8896C23.4131 18.8151 21.7308 17.1328 19.6562 17.1328H12.2969ZM19.8389 18.5605C21.087 18.5605 22.0986 19.5722 22.0986 20.8203C22.0985 22.0683 21.0869 23.0801 19.8389 23.0801C18.591 23.0799 17.5792 22.0682 17.5791 20.8203C17.5791 19.5723 18.5909 18.5607 19.8389 18.5605Z" fill="white"/>
</svg>
