<svg width="32" height="32" viewBox="0 0 32 32" fill="none" xmlns="http://www.w3.org/2000/svg">
<path d="M6.60898 11.4219C6.16113 11.4219 5.7806 11.578 5.46821 11.8907C5.15582 12.2032 4.99951 12.5782 4.99951 13.0156V19.7348C4.99951 20.1824 5.15576 20.5626 5.46821 20.8752C5.7806 21.1878 6.16091 21.3438 6.60881 21.3438C7.05682 21.3438 7.43439 21.1877 7.74164 20.8752C8.04911 20.5626 8.20273 20.1824 8.20273 19.7348V13.0156C8.20273 12.578 8.04637 12.2031 7.73398 11.8907C7.42153 11.5782 7.04637 11.4219 6.60898 11.4219Z" fill="#0B0D10"/>
<path d="M8.82861 22.1256C8.82861 22.6047 8.99532 23.0109 9.32862 23.3443C9.66197 23.6773 10.0681 23.844 10.5474 23.844H11.7037L11.7195 27.391C11.7195 27.839 11.8757 28.2189 12.1882 28.5316C12.5006 28.8441 12.8757 29.0003 13.3131 29.0003C13.7613 29.0003 14.1414 28.8441 14.4539 28.5316C14.7665 28.2189 14.9226 27.839 14.9226 27.391V23.844H17.0788V27.391C17.0788 27.839 17.235 28.2189 17.5473 28.5316C17.8601 28.8441 18.2403 29.0003 18.6883 29.0003C19.136 29.0003 19.5162 28.8441 19.8286 28.5316C20.1409 28.2189 20.297 27.839 20.297 27.391V23.844H21.469C21.9375 23.844 22.3387 23.6777 22.672 23.3443C23.0054 23.0109 23.1721 22.6047 23.1721 22.1256V11.7189H8.82861V22.1256Z" fill="#0B0D10"/>
<path d="M19.5466 5.3907L20.6557 3.34368C20.7287 3.20828 20.7025 3.10413 20.5777 3.03128C20.4421 2.96873 20.338 2.99998 20.2653 3.12509L19.1401 5.18754C18.1505 4.75004 17.1039 4.53129 15.9996 4.53129C14.8955 4.53129 13.8485 4.75004 12.8588 5.18754L11.7338 3.12514C11.6612 3.00003 11.5569 2.96878 11.4215 3.03134C11.2964 3.10418 11.2705 3.20833 11.3434 3.34373L12.4528 5.3907C11.3276 5.96354 10.4321 6.76308 9.7652 7.78913C9.09854 8.81524 8.76514 9.93773 8.76514 11.1563H23.2187C23.2187 9.93773 22.8854 8.81519 22.2187 7.78913C21.5517 6.76308 20.6615 5.96349 19.5466 5.3907ZM13.1323 8.36718C13.0126 8.48703 12.8695 8.54691 12.7028 8.54691C12.5361 8.54691 12.3955 8.48709 12.2808 8.36718C12.1664 8.24748 12.109 8.1042 12.109 7.93756C12.109 7.77085 12.1664 7.62757 12.2808 7.50772C12.3954 7.38786 12.5361 7.3281 12.7028 7.3281C12.8692 7.3281 13.0125 7.3878 13.1323 7.50772C13.2522 7.62757 13.3121 7.77085 13.3121 7.93756C13.3121 8.10426 13.2522 8.24732 13.1323 8.36718ZM19.7187 8.36718C19.6038 8.48703 19.4632 8.54691 19.2965 8.54691C19.1298 8.54691 18.9869 8.48709 18.867 8.36718C18.7472 8.24748 18.6875 8.1042 18.6875 7.93756C18.6875 7.77085 18.7472 7.62757 18.867 7.50772C18.9869 7.38786 19.1298 7.3281 19.2965 7.3281C19.4632 7.3281 19.6038 7.3878 19.7187 7.50772C19.8329 7.62757 19.8905 7.77085 19.8905 7.93756C19.8905 8.10426 19.8331 8.24732 19.7187 8.36718Z" fill="#0B0D10"/>
<path d="M26.5306 11.8828C26.2182 11.5756 25.838 11.4219 25.39 11.4219C24.9527 11.4219 24.5777 11.5756 24.2653 11.8828C23.9527 12.1902 23.7964 12.5678 23.7964 13.0156V19.7348C23.7964 20.1824 23.9527 20.5626 24.2653 20.8752C24.5777 21.1878 24.9527 21.3438 25.39 21.3438C25.838 21.3438 26.2182 21.1877 26.5306 20.8752C26.8434 20.5626 26.9996 20.1824 26.9996 19.7348V13.0156C26.9996 12.5678 26.8434 12.1901 26.5306 11.8828Z" fill="#0B0D10"/>
</svg>
