<svg width="64" height="64" viewBox="0 0 64 64" fill="none" xmlns="http://www.w3.org/2000/svg">
<rect opacity="0.35" x="1.25" y="18.25" width="56.0479" height="27.5" rx="8.75" stroke="#D34E4E" stroke-width="2.5"/>
<path opacity="0.4" d="M60.8906 27.7693V37.0001C62.7752 36.2183 64.0008 34.3996 64.0008 32.3847C64.0008 30.3697 62.7752 28.5511 60.8906 27.7693Z" fill="#D34E4E"/>
<path d="M10.2305 21.6152C13.2917 21.6152 15.7732 24.097 15.7734 27.1582V36.8418C15.7733 39.9031 13.2918 42.3848 10.2305 42.3848C7.16923 42.3847 4.68762 39.903 4.6875 36.8418L4.6875 27.1582C4.68772 24.0971 7.16929 21.6153 10.2305 21.6152ZM22.8711 21.6152C25.9323 21.6152 28.4138 24.097 28.4141 27.1582L28.4141 36.8418C28.4139 39.9031 25.9324 42.3848 22.8711 42.3848C19.8099 42.3847 17.3282 39.903 17.3281 36.8418V27.1582C17.3283 24.0971 19.8099 21.6153 22.8711 21.6152Z" fill="url(#paint0_linear_2358_39331)"/>
<defs>
<linearGradient id="paint0_linear_2358_39331" x1="25.7907" y1="32" x2="4.6875" y2="32" gradientUnits="userSpaceOnUse">
<stop stop-color="#D34E4E" stop-opacity="0"/>
<stop offset="1" stop-color="#D34E4E"/>
</linearGradient>
</defs>
</svg>
