<svg width="42" height="42" viewBox="0 0 42 42" fill="none" xmlns="http://www.w3.org/2000/svg">
<path d="M21 10.5C18.9233 10.5 16.8932 11.1158 15.1665 12.2696C13.4398 13.4233 12.094 15.0632 11.2993 16.9818C10.5046 18.9004 10.2966 21.0116 10.7018 23.0484C11.1069 25.0852 12.1069 26.9562 13.5754 28.4246C15.0438 29.8931 16.9148 30.8931 18.9516 31.2982C20.9884 31.7034 23.0996 31.4955 25.0182 30.7007C26.9368 29.906 28.5767 28.5602 29.7304 26.8335C30.8842 25.1068 31.5 23.0767 31.5 21C31.4969 18.2162 30.3896 15.5473 28.4211 13.5789C26.4527 11.6104 23.7838 10.5031 21 10.5ZM21 13.3C18.9586 13.3024 17.0015 14.1144 15.5579 15.5579C14.1144 17.0014 13.3024 18.9586 13.3 21C13.3 21.1857 13.2263 21.3637 13.095 21.495C12.9637 21.6263 12.7857 21.7 12.6 21.7C12.4144 21.7 12.2363 21.6263 12.105 21.495C11.9738 21.3637 11.9 21.1857 11.9 21C11.9028 18.5874 12.8624 16.2744 14.5684 14.5684C16.2744 12.8624 18.5874 11.9028 21 11.9C21.1857 11.9 21.3637 11.9737 21.495 12.105C21.6263 12.2363 21.7 12.4143 21.7 12.6C21.7 12.7857 21.6263 12.9637 21.495 13.095C21.3637 13.2263 21.1857 13.3 21 13.3Z" fill="#0B0D10"/>
<path d="M21.0016 6.99995C21.3729 6.99995 21.729 6.85245 21.9915 6.5899C22.2541 6.32735 22.4016 5.97125 22.4016 5.59995V2.09995C22.4016 1.72865 22.2541 1.37255 21.9915 1.11C21.729 0.847451 21.3729 0.699951 21.0016 0.699951C20.6303 0.699951 20.2742 0.847451 20.0116 1.11C19.7491 1.37255 19.6016 1.72865 19.6016 2.09995V5.59995C19.6016 5.97125 19.7491 6.32735 20.0116 6.5899C20.2742 6.85245 20.6303 6.99995 21.0016 6.99995Z" fill="#0B0D10"/>
<path d="M9.12531 11.1005C9.38791 11.363 9.74404 11.5104 10.1154 11.5104C10.4867 11.5103 10.8427 11.3627 11.1053 11.1001C11.3678 10.8375 11.5152 10.4814 11.5151 10.1101C11.5151 9.73877 11.3675 9.38269 11.1049 9.12018L8.63041 6.64568C8.36637 6.39066 8.01272 6.24955 7.64565 6.25274C7.27857 6.25593 6.92743 6.40317 6.66786 6.66274C6.40829 6.92231 6.26106 7.27345 6.25787 7.64052C6.25468 8.0076 6.39579 8.36124 6.65081 8.62528L9.12531 11.1005Z" fill="#0B0D10"/>
<path d="M5.60313 22.3999C5.97443 22.3999 6.33052 22.2524 6.59307 21.9898C6.85563 21.7273 7.00313 21.3712 7.00313 20.9999C7.00313 20.6286 6.85563 20.2725 6.59307 20.0099C6.33052 19.7474 5.97443 19.5999 5.60313 19.5999H2.10313C1.73182 19.5999 1.37573 19.7474 1.11318 20.0099C0.850625 20.2725 0.703125 20.6286 0.703125 20.9999C0.703125 21.3712 0.850625 21.7273 1.11318 21.9898C1.37573 22.2524 1.73182 22.3999 2.10313 22.3999H5.60313Z" fill="#0B0D10"/>
<path d="M9.12692 30.8995L6.65242 33.374C6.38982 33.6365 6.24225 33.9925 6.24219 34.3639C6.24212 34.7352 6.38956 35.0913 6.65207 35.3539C6.91458 35.6165 7.27066 35.7641 7.64198 35.7641C8.01329 35.7642 8.36942 35.6168 8.63202 35.3543L11.1065 32.8798C11.2366 32.7497 11.3398 32.5954 11.4102 32.4255C11.4805 32.2556 11.5168 32.0735 11.5168 31.8896C11.5168 31.7057 11.4805 31.5236 11.4102 31.3537C11.3398 31.1838 11.2366 31.0295 11.1065 30.8995C10.8376 30.6493 10.484 30.5103 10.1167 30.5103C9.74946 30.5103 9.39582 30.6493 9.12692 30.8995Z" fill="#0B0D10"/>
<path d="M21.0016 35C20.6303 35 20.2742 35.1475 20.0116 35.41C19.7491 35.6726 19.6016 36.0287 19.6016 36.4V39.9C19.6016 40.2713 19.7491 40.6274 20.0116 40.89C20.2742 41.1525 20.6303 41.3 21.0016 41.3C21.3729 41.3 21.729 41.1525 21.9915 40.89C22.2541 40.6274 22.4016 40.2713 22.4016 39.9V36.4C22.4016 36.0287 22.2541 35.6726 21.9915 35.41C21.729 35.1475 21.3729 35 21.0016 35Z" fill="#0B0D10"/>
<path d="M32.882 30.8995C32.6131 30.6493 32.2595 30.5103 31.8922 30.5103C31.525 30.5103 31.1713 30.6493 30.9024 30.8995C30.7724 31.0295 30.6692 31.1838 30.5988 31.3537C30.5284 31.5236 30.4922 31.7057 30.4922 31.8896C30.4922 32.0735 30.5284 32.2556 30.5988 32.4255C30.6692 32.5954 30.7724 32.7497 30.9024 32.8798L33.3769 35.3543C33.641 35.6093 33.9946 35.7504 34.3617 35.7472C34.7288 35.744 35.0799 35.5968 35.3395 35.3372C35.5991 35.0776 35.7463 34.7265 35.7495 34.3594C35.7527 33.9923 35.6116 33.6387 35.3565 33.3747L32.882 30.8995Z" fill="#0B0D10"/>
<path d="M39.9 19.5999H36.4C36.0287 19.5999 35.6726 19.7474 35.41 20.0099C35.1475 20.2725 35 20.6286 35 20.9999C35 21.3712 35.1475 21.7273 35.41 21.9898C35.6726 22.2524 36.0287 22.3999 36.4 22.3999H39.9C40.2713 22.3999 40.6274 22.2524 40.89 21.9898C41.1525 21.7273 41.3 21.3712 41.3 20.9999C41.3 20.6286 41.1525 20.2725 40.89 20.0099C40.6274 19.7474 40.2713 19.5999 39.9 19.5999Z" fill="#0B0D10"/>
<path d="M32.882 11.1005L35.3565 8.62603C35.6191 8.36351 35.7667 8.00744 35.7668 7.63612C35.7668 7.26481 35.6194 6.90868 35.3569 6.64608C35.0944 6.38347 34.7383 6.23591 34.367 6.23584C33.9957 6.23577 33.6395 6.38322 33.3769 6.64573L30.9024 9.12023C30.7724 9.25021 30.6692 9.40453 30.5989 9.57438C30.5285 9.74422 30.4922 9.92627 30.4922 10.1101C30.4922 10.294 30.5283 10.476 30.5987 10.6459C30.669 10.8158 30.7721 10.9701 30.9021 11.1002C31.0321 11.2302 31.1864 11.3334 31.3562 11.4037C31.5261 11.4741 31.7081 11.5104 31.892 11.5104C32.0758 11.5104 32.2579 11.4743 32.4278 11.4039C32.5976 11.3336 32.752 11.2305 32.882 11.1005Z" fill="#0B0D10"/>
<path d="M14.4606 7.03984C14.5317 7.21138 14.6681 7.34765 14.8396 7.41867C15.0112 7.48969 15.204 7.48965 15.3755 7.41854C15.5471 7.34744 15.6833 7.2111 15.7543 7.03952C15.8254 6.86794 15.8253 6.67518 15.7542 6.50364L13.8782 1.97674C13.8071 1.8052 13.6708 1.66893 13.4992 1.59791C13.3276 1.52689 13.1349 1.52694 12.9633 1.59804C12.7918 1.66915 12.6555 1.80548 12.5845 1.97706C12.5135 2.14864 12.5135 2.3414 12.5846 2.51294L14.4606 7.03984Z" fill="#0B0D10"/>
<path d="M1.977 13.8769L6.5046 15.7501C6.67614 15.8212 6.8689 15.8212 7.04048 15.7502C7.21206 15.6792 7.3484 15.5429 7.4195 15.3714C7.4906 15.1998 7.49065 15.007 7.41963 14.8355C7.34861 14.6639 7.21234 14.5276 7.0408 14.4565L2.5132 12.584C2.42791 12.5464 2.33598 12.5263 2.2428 12.5248C2.14963 12.5232 2.05708 12.5403 1.9706 12.575C1.88411 12.6097 1.80542 12.6613 1.73915 12.7268C1.67288 12.7923 1.62035 12.8704 1.58465 12.9565C1.54895 13.0426 1.5308 13.1349 1.53126 13.2281C1.53172 13.3213 1.55078 13.4134 1.58732 13.4992C1.62386 13.5849 1.67716 13.6625 1.74407 13.7273C1.81099 13.7922 1.89018 13.843 1.977 13.8769Z" fill="#0B0D10"/>
<path d="M7.42214 26.6238C7.38695 26.5388 7.33537 26.4616 7.27034 26.3966C7.20531 26.3316 7.12811 26.28 7.04315 26.2449C6.95818 26.2097 6.86713 26.1916 6.77517 26.1917C6.68322 26.1917 6.59218 26.2098 6.50724 26.2451L1.97894 28.1204C1.8074 28.1915 1.67113 28.3278 1.60011 28.4994C1.52909 28.671 1.52913 28.8637 1.60024 29.0353C1.67134 29.2068 1.80768 29.3431 1.97926 29.4141C2.15083 29.4851 2.3436 29.4851 2.51514 29.414L7.04204 27.5387C7.12712 27.5036 7.20445 27.4521 7.26961 27.3871C7.33476 27.3222 7.38648 27.245 7.42178 27.16C7.45708 27.075 7.47529 26.9839 7.47535 26.8919C7.47541 26.7999 7.45733 26.7088 7.42214 26.6238Z" fill="#0B0D10"/>
<path d="M15.38 34.58C15.2951 34.5448 15.2041 34.5266 15.1121 34.5266C15.0202 34.5266 14.9291 34.5447 14.8441 34.5798C14.7592 34.615 14.682 34.6666 14.6169 34.7316C14.5519 34.7966 14.5003 34.8738 14.4651 34.9587L12.5905 39.4856C12.553 39.5709 12.5329 39.6628 12.5313 39.756C12.5298 39.8492 12.5469 39.9417 12.5816 40.0282C12.6163 40.1147 12.6679 40.1934 12.7334 40.2597C12.7989 40.3259 12.877 40.3785 12.9631 40.4142C13.0492 40.4499 13.1415 40.468 13.2347 40.4676C13.3279 40.4671 13.42 40.448 13.5058 40.4115C13.5915 40.375 13.669 40.3217 13.7339 40.2548C13.7988 40.1878 13.8496 40.1086 13.8834 40.0218L15.7566 35.4956C15.792 35.4108 15.8104 35.3198 15.8106 35.2279C15.8108 35.1359 15.793 35.0448 15.758 34.9598C15.723 34.8748 15.6716 34.7975 15.6068 34.7323C15.5419 34.6672 15.4649 34.6154 15.38 34.58Z" fill="#0B0D10"/>
<path d="M27.5423 34.9601C27.4712 34.7886 27.3348 34.6523 27.1633 34.5813C26.9917 34.5103 26.7989 34.5103 26.6274 34.5814C26.4558 34.6525 26.3196 34.7889 26.2485 34.9605C26.1775 35.132 26.1776 35.3248 26.2487 35.4963L28.1247 40.0232C28.1958 40.1948 28.3321 40.3311 28.5037 40.4021C28.6753 40.4731 28.868 40.473 29.0396 40.4019C29.2111 40.3308 29.3474 40.1945 29.4184 40.0229C29.4894 39.8513 29.4894 39.6586 29.4183 39.487L27.5423 34.9601Z" fill="#0B0D10"/>
<path d="M40.0271 28.1231L35.4995 26.2499C35.4146 26.2147 35.3235 26.1966 35.2316 26.1965C35.1396 26.1965 35.0486 26.2146 34.9636 26.2498C34.8787 26.2849 34.8015 26.3365 34.7364 26.4015C34.6714 26.4665 34.6198 26.5437 34.5846 26.6286C34.5494 26.7135 34.5313 26.8046 34.5313 26.8965C34.5312 26.9885 34.5493 27.0795 34.5845 27.1645C34.6196 27.2494 34.6712 27.3266 34.7362 27.3917C34.8012 27.4567 34.8784 27.5083 34.9633 27.5435L39.4909 29.4181C39.5762 29.4556 39.6681 29.4758 39.7613 29.4773C39.8545 29.4788 39.947 29.4617 40.0335 29.4271C40.12 29.3924 40.1987 29.3407 40.265 29.2752C40.3312 29.2097 40.3838 29.1316 40.4195 29.0456C40.4552 28.9595 40.4733 28.8671 40.4729 28.7739C40.4724 28.6808 40.4533 28.5886 40.4168 28.5029C40.3802 28.4172 40.327 28.3396 40.26 28.2747C40.1931 28.2099 40.1139 28.159 40.0271 28.1252V28.1231Z" fill="#0B0D10"/>
<path d="M34.5847 15.376C34.6199 15.461 34.6714 15.5382 34.7365 15.6032C34.8015 15.6682 34.8787 15.7198 34.9637 15.7549C35.0486 15.7901 35.1397 15.8082 35.2316 15.8081C35.3236 15.8081 35.4146 15.79 35.4996 15.7547L40.0265 13.8794C40.1114 13.8442 40.1886 13.7926 40.2536 13.7276C40.3186 13.6626 40.3701 13.5854 40.4053 13.5004C40.4405 13.4155 40.4585 13.3244 40.4585 13.2325C40.4585 13.1405 40.4404 13.0495 40.4052 12.9645C40.37 12.8796 40.3184 12.8024 40.2533 12.7374C40.1883 12.6724 40.1111 12.6209 40.0261 12.5857C39.9412 12.5505 39.8501 12.5324 39.7582 12.5325C39.6662 12.5325 39.5752 12.5506 39.4903 12.5858L34.9634 14.4611C34.8784 14.4963 34.8012 14.5479 34.7362 14.6129C34.6712 14.678 34.6196 14.7552 34.5845 14.8401C34.5493 14.9251 34.5312 15.0161 34.5313 15.1081C34.5313 15.2001 34.5494 15.2911 34.5847 15.376Z" fill="#0B0D10"/>
<path d="M26.6259 7.42002C26.7108 7.45525 26.8019 7.4734 26.8938 7.47343C26.9858 7.47347 27.0768 7.45538 27.1618 7.42021C27.2468 7.38505 27.324 7.33348 27.389 7.26847C27.454 7.20346 27.5056 7.12627 27.5408 7.04132L29.4154 2.51442C29.4529 2.42913 29.473 2.3372 29.4746 2.24402C29.4761 2.15085 29.459 2.0583 29.4243 1.97182C29.3896 1.88533 29.338 1.80665 29.2725 1.74037C29.207 1.6741 29.1289 1.62157 29.0428 1.58587C28.9568 1.55017 28.8644 1.53202 28.7712 1.53248C28.678 1.53294 28.5859 1.552 28.5002 1.58854C28.4144 1.62508 28.3369 1.67838 28.272 1.74529C28.2072 1.81221 28.1563 1.8914 28.1225 1.97822L26.2493 6.50442C26.2139 6.58927 26.1955 6.68025 26.1953 6.77219C26.1951 6.86412 26.213 6.9552 26.2479 7.04023C26.2829 7.12525 26.3343 7.20255 26.3991 7.26772C26.464 7.33288 26.541 7.38463 26.6259 7.42002Z" fill="#0B0D10"/>
</svg>
