<svg width="42" height="42" viewBox="0 0 42 42" fill="none" xmlns="http://www.w3.org/2000/svg">
<g clip-path="url(#clip0_2190_34805)">
<path fill-rule="evenodd" clip-rule="evenodd" d="M29.0729 27.922C29.9342 26.5931 30.7232 25.3754 30.7232 22.6736C30.7269 21.3974 30.4787 20.133 29.9929 18.9529C29.5071 17.7728 28.7932 16.7001 27.8921 15.7964C26.991 14.8927 25.9205 14.1756 24.7418 13.6864C23.5631 13.1972 22.2994 12.9453 21.0232 12.9453C19.747 12.9453 18.4833 13.1972 17.3046 13.6864C16.1259 14.1756 15.0554 14.8927 14.1543 15.7964C13.2532 16.7001 12.5393 17.7728 12.0535 18.9529C11.5677 20.133 11.3195 21.3974 11.3232 22.6736C11.3232 25.3754 12.1123 26.5929 12.9735 27.9221C13.6845 29.0191 14.4396 30.1846 14.9148 32.1422H27.1317C27.6068 30.1846 28.3622 29.0191 29.0729 27.922ZM6.79017 18.5446L0.986947 15.1941C0.835681 15.1075 0.656283 15.0843 0.487976 15.1296C0.31967 15.1749 0.176149 15.285 0.0887932 15.4358C0.00143735 15.5866 -0.0226462 15.7659 0.0218083 15.9345C0.0662628 16.103 0.175639 16.2471 0.326021 16.3352L6.12924 19.6858C6.20419 19.7297 6.28708 19.7583 6.37315 19.7701C6.45922 19.7819 6.54676 19.7766 6.63076 19.7544C6.71476 19.7323 6.79355 19.6937 6.8626 19.641C6.93166 19.5883 6.98962 19.5225 7.03316 19.4473C7.0767 19.3722 7.10496 19.2891 7.1163 19.203C7.12765 19.1169 7.12187 19.0293 7.09929 18.9455C7.07671 18.8616 7.03778 18.783 6.98473 18.7142C6.93168 18.6454 6.86556 18.5878 6.79017 18.5446ZM12.1171 10.7336L8.8311 5.04211C8.74414 4.89078 8.60063 4.7802 8.43214 4.73469C8.26365 4.68918 8.08398 4.71246 7.93266 4.79942C7.78133 4.88638 7.67075 5.02989 7.62524 5.19838C7.57972 5.36687 7.60301 5.54654 7.68997 5.69787L10.976 11.3894C11.0191 11.4644 11.0765 11.5301 11.145 11.5828C11.2135 11.6355 11.2917 11.6743 11.3751 11.6968C11.4586 11.7193 11.5456 11.7252 11.6313 11.714C11.7171 11.7029 11.7997 11.675 11.8747 11.6319C11.9496 11.5888 12.0153 11.5314 12.068 11.4629C12.1208 11.3944 12.1595 11.3162 12.182 11.2327C12.2045 11.1493 12.2104 11.0622 12.1992 10.9765C12.1881 10.8908 12.1602 10.8081 12.1171 10.7332V10.7336ZM21.6842 7.68499V1.17171C21.6822 0.997687 21.6117 0.831449 21.488 0.709075C21.3643 0.586701 21.1972 0.518066 21.0232 0.518066C20.8492 0.518066 20.6822 0.586701 20.5584 0.709075C20.4347 0.831449 20.3642 0.997687 20.3622 1.17171V7.68499C20.3642 7.85902 20.4347 8.02525 20.5584 8.14763C20.6822 8.27 20.8492 8.33864 21.0232 8.33864C21.1972 8.33864 21.3643 8.27 21.488 8.14763C21.6117 8.02525 21.6822 7.85902 21.6842 7.68499ZM41.0107 15.0452L35.2197 18.3886C35.1448 18.4317 35.0791 18.489 35.0263 18.5575C34.9736 18.626 34.9349 18.7041 34.9123 18.7876C34.8898 18.871 34.8839 18.958 34.895 19.0437C34.9061 19.1294 34.934 19.2121 34.977 19.287C35.0201 19.362 35.0775 19.4277 35.146 19.4804C35.2144 19.5332 35.2926 19.5719 35.376 19.5945C35.4594 19.617 35.5465 19.6229 35.6322 19.6118C35.7179 19.6007 35.8006 19.5728 35.8755 19.5297L41.6669 16.1863C41.7418 16.1432 41.8075 16.0858 41.8603 16.0174C41.913 15.9489 41.9518 15.8708 41.9743 15.7873C41.9969 15.7039 42.0027 15.6169 41.9916 15.5312C41.9805 15.4455 41.9526 15.3628 41.9096 15.2879C41.8665 15.2129 41.8091 15.1472 41.7407 15.0945C41.6722 15.0417 41.5941 15.003 41.5106 14.9804C41.4272 14.9579 41.3401 14.952 41.2544 14.9631C41.1687 14.9742 41.0861 15.0021 41.0111 15.0452H41.0107ZM31.0376 11.3629L34.3226 5.67318C34.4096 5.52185 34.4329 5.34215 34.3875 5.17362C34.342 5.00508 34.2314 4.86151 34.0801 4.77448C33.9288 4.68746 33.7491 4.66411 33.5806 4.70958C33.412 4.75505 33.2684 4.8656 33.1814 5.01693L29.8965 10.7068C29.8095 10.8581 29.7862 11.0378 29.8318 11.2063C29.8773 11.3748 29.9878 11.5183 30.1392 11.6052C30.2905 11.6922 30.4702 11.7155 30.6387 11.67C30.8071 11.6244 30.9507 11.5139 31.0376 11.3625V11.3629ZM25.0879 37.544H16.9583C16.9918 38.5997 17.4348 39.601 18.1934 40.3359C18.9521 41.0709 19.967 41.4818 21.0232 41.4818C22.0795 41.4818 23.0944 41.0709 23.853 40.3359C24.6117 39.601 25.0547 38.5997 25.0882 37.544H25.0879ZM26.8754 33.4641H15.1707C15.2746 34.1778 15.3415 34.8964 15.371 35.617C15.3773 35.7688 15.4377 35.9133 15.5413 36.0243C15.5495 36.0314 15.5577 36.0387 15.566 36.0462C15.6847 36.1596 15.8426 36.2226 16.0068 36.2221H26.0399C26.2041 36.2226 26.3621 36.1596 26.4808 36.0462L26.4821 36.0476C26.5995 35.9343 26.6687 35.7801 26.6754 35.617C26.7049 34.8964 26.7718 34.1778 26.8757 33.4641H26.8754ZM27.5735 22.6735C27.5737 21.8132 27.4044 20.9614 27.0753 20.1666C26.7462 19.3718 26.2637 18.6496 25.6554 18.0413C25.0471 17.433 24.3249 16.9505 23.5301 16.6214C22.7353 16.2923 21.8835 16.123 21.0232 16.1231C20.848 16.1231 20.6798 16.0535 20.5559 15.9296C20.4319 15.8056 20.3623 15.6375 20.3623 15.4622C20.3623 15.2869 20.4319 15.1188 20.5559 14.9949C20.6798 14.8709 20.848 14.8013 21.0232 14.8013C22.0571 14.8012 23.0808 15.0047 24.0359 15.4003C24.9911 15.7958 25.859 16.3757 26.59 17.1067C27.321 17.8377 27.9009 18.7056 28.2964 19.6608C28.692 20.6159 28.8955 21.6397 28.8954 22.6735C28.8954 22.8488 28.8257 23.0169 28.7018 23.1408C28.5778 23.2648 28.4097 23.3344 28.2344 23.3344C28.0592 23.3344 27.8911 23.2648 27.7671 23.1408C27.6432 23.0169 27.5735 22.8488 27.5735 22.6735Z" fill="#0B0D10"/>
</g>
<defs>
<clipPath id="clip0_2190_34805">
<rect width="42" height="42" fill="white"/>
</clipPath>
</defs>
</svg>
