<svg width="42" height="42" viewBox="0 0 42 42" fill="none" xmlns="http://www.w3.org/2000/svg">
<path d="M28.0141 20.9999C28.0141 15.4874 23.7156 10.8937 18.2228 10.5327C18.2163 10.5327 18.2097 10.5327 18.2031 10.5327C18.1244 10.5327 18.0522 10.5655 17.9866 10.618C17.9144 10.6837 17.875 10.7821 17.875 10.8805V31.1193C17.875 31.2177 17.9144 31.3096 17.9866 31.3818C18.0522 31.4408 18.1441 31.4737 18.2228 31.4671C23.7091 31.1062 28.0141 26.5124 28.0141 20.9999Z" fill="#0B0D10"/>
<path d="M17.5294 0.65625C16.9387 0.65625 16.4531 1.13531 16.4531 1.7325V4.89563C16.4531 5.48625 16.9322 5.97188 17.5294 5.97188C18.1266 5.97188 18.6056 5.49281 18.6056 4.89563V1.7325C18.6056 1.14188 18.1266 0.65625 17.5294 0.65625Z" fill="#0B0D10"/>
<path d="M32.2341 7.36971C32.2341 7.08096 32.1225 6.81189 31.9191 6.60846C31.7156 6.40502 31.4334 6.29346 31.1578 6.29346C30.8822 6.29346 30.6066 6.39846 30.3966 6.60846L28.1587 8.84627C27.9553 9.04971 27.8438 9.31877 27.8438 9.60752C27.8438 9.89627 27.9553 10.1653 28.1587 10.3688C28.5787 10.7888 29.2612 10.7888 29.6812 10.3688L31.9191 8.13096C32.1225 7.92752 32.2341 7.65846 32.2341 7.36971Z" fill="#0B0D10"/>
<path d="M33.6387 22.0697H36.8019C37.3925 22.0697 37.8781 21.5907 37.8781 20.9935C37.8781 20.3963 37.3991 19.9172 36.8019 19.9172H33.6387C33.0481 19.9172 32.5625 20.3963 32.5625 20.9935C32.5625 21.5907 33.0416 22.0697 33.6387 22.0697Z" fill="#0B0D10"/>
<path d="M28.1666 33.1471L30.4044 35.3849C30.8244 35.8049 31.5069 35.8049 31.9269 35.3849C32.1303 35.1814 32.2419 34.9124 32.2419 34.6236C32.2419 34.3349 32.1303 34.0658 31.9269 33.8624L29.6891 31.6246C29.4856 31.4211 29.2166 31.3096 28.9278 31.3096C28.6391 31.3096 28.37 31.4211 28.1666 31.6246C27.9631 31.828 27.8516 32.0971 27.8516 32.3858C27.8516 32.6746 27.9631 32.9436 28.1666 33.1471Z" fill="#0B0D10"/>
<path d="M17.5372 36.0281C16.9466 36.0281 16.4609 36.5071 16.4609 37.1043V40.2675C16.4609 40.8581 16.94 41.3437 17.5372 41.3437C18.1344 41.3437 18.6134 40.8646 18.6134 40.2675V37.1043C18.6134 36.5137 18.1344 36.0281 17.5372 36.0281Z" fill="#0B0D10"/>
<path d="M4.125 18.6505C4.125 18.9458 4.24312 19.228 4.45969 19.438L5.85094 20.8227C5.98875 20.9539 5.98875 21.1771 5.85094 21.3083L4.47281 22.6996C4.03969 23.1327 4.04625 23.8414 4.48594 24.2746C4.78125 24.5699 5.22094 24.6749 5.62781 24.5436C5.78531 24.4911 5.93625 24.3927 6.06094 24.268L8.04281 22.2664C8.10844 22.2008 8.19375 22.168 8.28562 22.1614L12.3216 22.1352C12.4331 22.1352 12.5316 22.1877 12.5972 22.273C12.6628 22.3649 12.6825 22.4764 12.6497 22.5814L11.4225 26.4336C11.3962 26.5189 11.3306 26.5911 11.2519 26.6371L8.75156 27.9299C8.20687 28.2121 7.99031 28.888 8.26594 29.4393C8.55469 29.9839 9.23063 30.1939 9.77531 29.9118L11.5144 29.0127C11.5669 28.9864 11.6194 28.9733 11.6719 28.9733C11.7047 28.9733 11.7441 28.9733 11.7769 28.9864C11.8622 29.0127 11.9344 29.0783 11.9803 29.1571L12.8794 30.9027C13.1287 31.3949 13.6997 31.6246 14.2247 31.4474C14.2641 31.4277 14.3297 31.408 14.3888 31.3752C14.6512 31.2439 14.8481 31.0077 14.9334 30.7255C15.0187 30.4433 14.9991 30.1349 14.8612 29.8724L13.5684 27.3721C13.5291 27.2933 13.5159 27.1949 13.5487 27.1096L14.7759 23.2639C14.8088 23.1589 14.8941 23.0736 14.9991 23.0408C15.1041 23.008 15.2156 23.0211 15.3075 23.0868L17.1844 24.4255V17.5086L15.2878 18.8999C15.1959 18.9655 15.0844 18.9852 14.9794 18.9524C14.8744 18.9196 14.7891 18.8343 14.7562 18.7293L13.4831 14.8968C13.4569 14.8114 13.4634 14.713 13.5028 14.6343L14.7759 12.1208C14.9072 11.8518 14.9334 11.5499 14.835 11.2677C14.7431 10.9855 14.5397 10.7558 14.2772 10.618C13.7259 10.3424 13.05 10.5589 12.7744 11.1102L11.895 12.8624C11.8097 13.033 11.5997 13.0986 11.4291 13.0133L9.67687 12.1339C9.41437 11.9961 9.1125 11.9764 8.83031 12.0749C8.54812 12.1668 8.31844 12.3702 8.18062 12.6327C7.905 13.1839 8.12156 13.8599 8.67281 14.1355L11.1928 15.3955C11.2716 15.4349 11.3372 15.5071 11.3634 15.5924L12.6366 19.4249C12.6694 19.5299 12.6562 19.6414 12.5906 19.7333C12.525 19.8252 12.42 19.8777 12.315 19.8777L8.27906 19.8974C8.21344 19.8843 8.10187 19.8646 8.03625 19.7989L6.03469 17.8171C5.82469 17.6071 5.53594 17.5152 5.24062 17.4955C4.93875 17.4955 4.66312 17.6136 4.45312 17.8302C4.24313 18.0402 4.13156 18.3224 4.13156 18.6177L4.125 18.6505Z" fill="#0B0D10"/>
</svg>
