<svg width="54" height="54" viewBox="0 0 54 54" fill="none" xmlns="http://www.w3.org/2000/svg">
<circle cx="27" cy="27" r="26.5" fill="#448BE8" stroke="url(#paint0_linear_12157_61989)"/>
<path fill-rule="evenodd" clip-rule="evenodd" d="M17.8294 11.852C18.3273 11.6306 18.8982 11.8909 19.0901 12.4008C19.282 12.9109 19.0219 13.4773 18.5257 13.7026C16.1613 14.7763 14.1137 16.4538 12.5941 18.5737C10.8823 20.9616 9.9172 23.8042 9.82062 26.7407C9.72414 29.6769 10.5011 32.5756 12.0521 35.0707C13.4291 37.286 15.3618 39.095 17.6507 40.3217C18.1309 40.5792 18.3522 41.1614 18.1273 41.6576C17.9022 42.1536 17.3164 42.3759 16.8343 42.1225C14.1907 40.7321 11.9585 38.6595 10.3753 36.1127C8.61827 33.2861 7.73855 30.0017 7.84796 26.6752C7.95739 23.3487 9.05143 20.1294 10.9905 17.4243C12.7376 14.987 15.1003 13.0657 17.8294 11.852ZM34.9056 12.4008C35.0976 11.8909 35.6685 11.6306 36.1663 11.852C38.8954 13.0657 41.2582 14.9871 43.0052 17.4243C44.9442 20.1294 46.0374 23.3487 46.1468 26.6752C46.2562 30.0018 45.3766 33.286 43.6194 36.1127C42.0363 38.6595 39.805 40.7321 37.1614 42.1225C36.6792 42.3761 36.0925 42.1539 35.8675 41.6576C35.6425 41.1613 35.8647 40.5791 36.345 40.3217C38.6339 39.095 40.5666 37.286 41.9437 35.0707C43.4947 32.5755 44.2717 29.6761 44.1751 26.7397C44.0784 23.8034 43.1123 20.9615 41.4007 18.5737C39.8811 16.4538 37.8335 14.7762 35.4691 13.7026C34.9731 13.4772 34.7137 12.9108 34.9056 12.4008ZM19.9485 17.6918C20.4753 17.431 21.0922 17.714 21.2991 18.2641C21.5058 18.8141 21.2233 19.4219 20.7034 19.6957C19.5373 20.31 18.5248 21.1889 17.7513 22.268C16.7703 23.6366 16.2178 25.2657 16.1624 26.9487C16.1071 28.6316 16.5518 30.293 17.4407 31.7231C18.1416 32.8506 19.0939 33.7943 20.2171 34.4838C20.718 34.7913 20.9598 35.4172 20.7171 35.9526C20.4743 36.4876 19.8406 36.7288 19.3323 36.434C17.8288 35.562 16.5564 34.3324 15.6331 32.8471C14.5219 31.0595 13.9653 28.9821 14.0345 26.8784C14.1037 24.7747 14.7955 22.7384 16.0218 21.0278C17.0407 19.6065 18.3911 18.4631 19.9485 17.6918ZM32.6966 18.2641C32.9035 17.714 33.5205 17.431 34.0472 17.6918C35.6046 18.4632 36.9551 19.6065 37.9739 21.0278C39.2002 22.7384 39.891 24.7747 39.9603 26.8784C40.0295 28.9821 39.4738 31.0595 38.3626 32.8471C37.4393 34.3324 36.1668 35.562 34.6634 36.434C34.1551 36.7288 33.5215 36.4875 33.2786 35.9526C33.036 35.4172 33.2777 34.7913 33.7786 34.4838C34.9017 33.7943 35.8541 32.8505 36.555 31.7231C37.4438 30.2931 37.8886 28.6315 37.8333 26.9487C37.778 25.2657 37.2245 23.6366 36.2435 22.268C35.47 21.189 34.4574 20.31 33.2913 19.6957C32.7716 19.4218 32.4899 18.814 32.6966 18.2641ZM27.1995 21.7436C30.2288 21.7436 32.6849 24.1997 32.6849 27.2289C32.6846 30.258 30.2286 32.7133 27.1995 32.7133C24.1704 32.7133 21.7144 30.258 21.7142 27.2289C21.7142 24.1997 24.1703 21.7436 27.1995 21.7436Z" fill="url(#paint1_linear_12157_61989)"/>
<defs>
<linearGradient id="paint0_linear_12157_61989" x1="27" y1="0" x2="27" y2="54" gradientUnits="userSpaceOnUse">
<stop stop-color="#33A3D0"/>
<stop offset="1" stop-color="#33A3D0" stop-opacity="0"/>
</linearGradient>
<linearGradient id="paint1_linear_12157_61989" x1="46.1559" y1="27.0003" x2="7.83887" y2="27.0003" gradientUnits="userSpaceOnUse">
<stop stop-color="#D1DFF2" stop-opacity="0.35"/>
<stop offset="0.5" stop-color="white"/>
<stop offset="1" stop-color="#D1DFF2" stop-opacity="0.35"/>
</linearGradient>
</defs>
</svg>
