<svg width="54" height="54" viewBox="0 0 54 54" fill="none" xmlns="http://www.w3.org/2000/svg">
<rect width="54" height="54" rx="12" fill="url(#paint0_linear_8001_17197)"/>
<path d="M29.0863 22.9778C28.375 22.9778 27.8911 22.2561 28.1611 21.5981L31.764 12.8196C32.0341 12.1616 31.5502 11.4399 30.8389 11.4399H23.3101C22.902 11.4399 22.5348 11.6879 22.3825 12.0665L16.0216 27.8693C15.7571 28.5264 16.2408 29.2427 16.9492 29.2427H24.1799C24.8883 29.2427 25.3721 29.9589 25.1076 30.6161L20.3469 42.4434C20.1507 42.9308 20.5095 43.4619 21.0348 43.4619C21.2494 43.4619 21.4535 43.369 21.5943 43.2071L37.7535 24.6342C38.3166 23.987 37.8569 22.9778 36.9991 22.9778H29.0863Z" fill="white"/>
<defs>
<linearGradient id="paint0_linear_8001_17197" x1="54" y1="3.17149" x2="-3.43069e-07" y2="51.8442" gradientUnits="userSpaceOnUse">
<stop stop-color="#C17FFF"/>
<stop offset="0.549008" stop-color="#9C47EB"/>
<stop offset="1" stop-color="#D8ADFF"/>
</linearGradient>
</defs>
</svg>
