<svg width="67" height="64" viewBox="0 0 67 64" fill="none" xmlns="http://www.w3.org/2000/svg">
<mask id="mask0_12157_64098" style="mask-type:luminance" maskUnits="userSpaceOnUse" x="1" y="0" width="65" height="64">
<path d="M1.08594 0H65.0859V64H1.08594V0Z" fill="white"/>
</mask>
<g mask="url(#mask0_12157_64098)">
<path d="M30.3813 63.2267C28.9093 63.2267 27.4987 62.4107 26.8027 61.0187L23.9253 55.2613C23.5946 54.6027 23.8639 53.8027 24.5226 53.472C25.1813 53.144 25.984 53.4107 26.312 54.0693L29.1893 59.8267C29.504 60.456 30.2613 60.7307 30.9013 60.4533L44.6693 54.5547C45.008 54.408 45.2667 54.1387 45.392 53.7893C45.5173 53.4427 45.4987 53.0693 45.3333 52.7387L42.5947 47.2613C42.264 46.6027 42.5333 45.8027 43.192 45.472C43.8507 45.1467 44.6507 45.408 44.9813 46.0693L47.72 51.5467C48.2107 52.5253 48.2747 53.6773 47.8987 54.7067C47.52 55.736 46.728 56.5733 45.72 57.0053L31.952 62.904C31.44 63.1227 30.9067 63.2267 30.3813 63.2267Z" fill="url(#paint0_linear_12157_64098)"/>
<path d="M52.1485 12.9653C44.2712 5.088 35.3005 0 29.2899 0C27.1725 0 25.4819 0.613333 24.2713 1.82667C19.5779 6.52 24.4713 18.7653 35.4099 29.704C43.2872 37.5787 52.2579 42.6667 58.2685 42.6667C60.3859 42.6667 62.0765 42.0533 63.2872 40.84C67.9805 36.1493 63.0872 23.904 52.1485 12.9653ZM61.4019 38.9573C60.7085 39.648 59.6552 40 58.2685 40C53.8952 40 45.7139 36.232 37.2979 27.816C36.7779 27.296 36.7779 26.4507 37.2979 25.9307C37.8179 25.4107 38.6632 25.4107 39.1832 25.9307C47.5485 34.2987 55.1779 37.3333 58.2685 37.3333C59.2259 37.3333 59.4899 37.0987 59.5165 37.0693C60.0365 36.5493 60.8819 36.5493 61.4019 37.0693C61.9219 37.5893 61.9219 38.4347 61.4019 38.9573Z" fill="url(#paint1_linear_12157_64098)"/>
<path d="M55.272 40.1013L54.7573 40.312L53.3547 38.9093C48.92 37.2693 43.1813 33.704 37.296 27.8187C36.776 27.2987 36.776 26.4533 37.296 25.9333C37.816 25.4133 38.6613 25.4133 39.1813 25.9333C41.8 28.552 44.3253 30.5947 46.6827 32.24L24.8001 10.3547L25.0108 9.84C25.2908 9.16 24.9654 8.37867 24.2854 8.09867C23.6054 7.82667 22.8294 8.144 22.5468 8.82667L5.23211 50.8747C3.37077 50.3547 2.3601 50.9627 1.8881 51.44C1.3441 51.984 0.589432 53.2693 1.6561 55.7573C2.28277 57.2187 3.41877 58.816 4.85877 60.256C6.29877 61.696 7.89611 62.832 9.35744 63.4587C10.2721 63.8533 11.0241 64 11.6401 64C12.6908 64 13.3308 63.5707 13.6748 63.2267C14.1548 62.7467 14.7681 61.7227 14.2268 59.8373L56.288 42.568C56.968 42.288 57.2933 41.5093 57.0133 40.8293C56.7333 40.1467 55.9493 39.816 55.272 40.1013Z" fill="url(#paint2_linear_12157_64098)"/>
</g>
<defs>
<linearGradient id="paint0_linear_12157_64098" x1="33.0917" y1="0" x2="33.0917" y2="64" gradientUnits="userSpaceOnUse">
<stop stop-color="#C1A6E5"/>
<stop offset="1" stop-color="#478BEB"/>
</linearGradient>
<linearGradient id="paint1_linear_12157_64098" x1="33.0917" y1="0" x2="33.0917" y2="64" gradientUnits="userSpaceOnUse">
<stop stop-color="#C1A6E5"/>
<stop offset="1" stop-color="#478BEB"/>
</linearGradient>
<linearGradient id="paint2_linear_12157_64098" x1="33.0917" y1="0" x2="33.0917" y2="64" gradientUnits="userSpaceOnUse">
<stop stop-color="#C1A6E5"/>
<stop offset="1" stop-color="#478BEB"/>
</linearGradient>
</defs>
</svg>
