<svg width="114" height="114" viewBox="0 0 114 114" fill="none" xmlns="http://www.w3.org/2000/svg">
<g filter="url(#filter0_f_212_35481)">
<path d="M56.955 31.8325C55.5809 31.8325 54.467 30.7185 54.467 29.3445V22.488C54.467 21.1139 55.5809 20 56.955 20C58.3291 20 59.443 21.1139 59.443 22.488V29.3445C59.443 30.7185 58.3291 31.8325 56.955 31.8325Z" fill="url(#paint0_linear_212_35481)"/>
<path d="M74.7193 39.1907C73.7477 38.2191 73.7477 36.6437 74.7193 35.6721L79.5676 30.8239C80.5392 29.8522 82.1145 29.8522 83.0861 30.8239C84.0578 31.7955 84.0578 33.3708 83.0862 34.3424L78.2379 39.1907C77.2663 40.1623 75.691 40.1623 74.7193 39.1907Z" fill="url(#paint1_linear_212_35481)"/>
<path d="M82.0776 56.955C82.0776 55.5809 83.1915 54.467 84.5656 54.467H91.422C92.7961 54.467 93.91 55.5809 93.91 56.955C93.91 58.3291 92.7961 59.443 91.422 59.443H84.5656C83.1915 59.443 82.0776 58.3291 82.0776 56.955Z" fill="url(#paint2_linear_212_35481)"/>
<path d="M74.7194 74.7193C75.691 73.7477 77.2663 73.7477 78.2379 74.7193L83.0862 79.5676C84.0578 80.5392 84.0578 82.1145 83.0862 83.0861C82.1145 84.0578 80.5392 84.0578 79.5676 83.0861L74.7194 78.2379C73.7477 77.2663 73.7477 75.6909 74.7194 74.7193Z" fill="url(#paint3_linear_212_35481)"/>
<path d="M56.955 93.91C55.5809 93.91 54.467 92.7961 54.467 91.422V84.5656C54.467 83.1915 55.5809 82.0776 56.955 82.0776C58.3291 82.0776 59.443 83.1915 59.443 84.5656V91.422C59.443 92.7961 58.3291 93.91 56.955 93.91Z" fill="url(#paint4_linear_212_35481)"/>
<path d="M30.8239 83.0861C29.8522 82.1145 29.8522 80.5392 30.8239 79.5676L35.6721 74.7193C36.6437 73.7477 38.2191 73.7477 39.1907 74.7193C40.1623 75.691 40.1623 77.2663 39.1907 78.2379L34.3424 83.0861C33.3708 84.0578 31.7955 84.0578 30.8239 83.0861Z" fill="url(#paint5_linear_212_35481)"/>
<path d="M20 56.955C20 55.5809 21.1139 54.467 22.488 54.467H29.3445C30.7185 54.467 31.8325 55.5809 31.8325 56.955C31.8325 58.3291 30.7185 59.443 29.3445 59.443H22.488C21.1139 59.443 20 58.3291 20 56.955Z" fill="url(#paint6_linear_212_35481)"/>
<path d="M30.8239 30.8239C31.7955 29.8522 33.3708 29.8522 34.3425 30.8239L39.1907 35.6721C40.1623 36.6437 40.1623 38.219 39.1907 39.1907C38.2191 40.1623 36.6438 40.1623 35.6721 39.1907L30.8239 34.3424C29.8523 33.3708 29.8523 31.7955 30.8239 30.8239Z" fill="url(#paint7_linear_212_35481)"/>
<path d="M79.3897 57.0931C79.3897 69.4835 69.3453 79.5279 56.955 79.5279C44.5646 79.5279 34.5203 69.4835 34.5203 57.0931C34.5203 44.7028 44.5646 34.6584 56.955 34.6584C69.3453 34.6584 79.3897 44.7028 79.3897 57.0931Z" fill="url(#paint8_linear_212_35481)"/>
<path d="M56.9551 82.8779C57.8873 82.878 58.6425 83.6333 58.6426 84.5654V91.4219C58.6426 92.3541 57.8873 93.1103 56.9551 93.1104C56.0228 93.1104 55.2666 92.3541 55.2666 91.4219V84.5654C55.2667 83.6332 56.0229 82.8779 56.9551 82.8779ZM36.2383 75.2852C36.8975 74.6261 37.9659 74.626 38.625 75.2852C39.2841 75.9443 39.284 77.0127 38.625 77.6719L33.7764 82.5205C33.1172 83.1795 32.0488 83.1796 31.3896 82.5205C30.7304 81.8613 30.7304 80.792 31.3896 80.1328L36.2383 75.2852ZM75.2852 75.2852C75.9443 74.626 77.0127 74.6261 77.6719 75.2852L82.5205 80.1328C83.1797 80.792 83.1797 81.8613 82.5205 82.5205C81.8613 83.1797 80.792 83.1797 80.1328 82.5205L75.2852 77.6719C74.6261 77.0127 74.626 75.9443 75.2852 75.2852ZM56.9551 35.458C68.9034 35.4581 78.5896 45.1444 78.5898 57.0928C78.5898 69.0413 68.9036 78.7275 56.9551 78.7275C45.0065 78.7275 35.3203 69.0413 35.3203 57.0928C35.3205 45.1444 45.0067 35.458 56.9551 35.458ZM22.4883 55.2666H29.3447C30.2769 55.2667 31.0322 56.0229 31.0322 56.9551C31.0322 57.8872 30.2768 58.6424 29.3447 58.6426H22.4883C21.556 58.6426 20.7998 57.8873 20.7998 56.9551C20.7998 56.0228 21.556 55.2666 22.4883 55.2666ZM84.5654 55.2666H91.4219C92.3541 55.2666 93.1104 56.0228 93.1104 56.9551C93.1103 57.8873 92.3541 58.6426 91.4219 58.6426H84.5654C83.6333 58.6425 82.878 57.8873 82.8779 56.9551C82.8779 56.0229 83.6332 55.2667 84.5654 55.2666ZM31.3896 31.3896C32.0488 30.7305 33.1172 30.7306 33.7764 31.3896L38.625 36.2373C39.2842 36.8965 39.2842 37.9658 38.625 38.625C37.9659 39.2841 36.8975 39.284 36.2383 38.625L31.3896 33.7764C30.7306 33.1172 30.7305 32.0488 31.3896 31.3896ZM80.1328 31.3896C80.792 30.7304 81.8613 30.7304 82.5205 31.3896C83.1796 32.0488 83.1795 33.1172 82.5205 33.7764L77.6719 38.625C77.0127 39.284 75.9443 39.2841 75.2852 38.625C74.626 37.9659 74.6261 36.8975 75.2852 36.2383L80.1328 31.3896ZM56.9551 20.7998C57.8873 20.7998 58.6426 21.556 58.6426 22.4883V29.3447C58.6424 30.2768 57.8872 31.0322 56.9551 31.0322C56.0229 31.0322 55.2667 30.2769 55.2666 29.3447V22.4883C55.2666 21.556 56.0228 20.7998 56.9551 20.7998Z" stroke="url(#paint9_linear_212_35481)" stroke-width="1.6"/>
</g>
<g filter="url(#filter1_iii_212_35481)">
<path d="M55.3046 32.8461C53.9305 32.8461 52.8166 31.7322 52.8166 30.3581V23.5017C52.8166 22.1276 53.9305 21.0137 55.3046 21.0137C56.6787 21.0137 57.7926 22.1276 57.7926 23.5017V30.3581C57.7926 31.7322 56.6787 32.8461 55.3046 32.8461Z" fill="url(#paint10_linear_212_35481)"/>
<path d="M73.069 40.2044C72.0973 39.2327 72.0973 37.6574 73.069 36.6858L77.9172 31.8375C78.8888 30.8659 80.4641 30.8659 81.4358 31.8375C82.4074 32.8092 82.4074 34.3845 81.4358 35.3561L76.5875 40.2044C75.6159 41.176 74.0406 41.176 73.069 40.2044Z" fill="url(#paint11_linear_212_35481)"/>
<path d="M80.4272 57.9687C80.4272 56.5946 81.5411 55.4807 82.9152 55.4807H89.7716C91.1457 55.4807 92.2596 56.5946 92.2596 57.9687C92.2596 59.3428 91.1457 60.4567 89.7716 60.4567H82.9152C81.5411 60.4567 80.4272 59.3428 80.4272 57.9687Z" fill="url(#paint12_linear_212_35481)"/>
<path d="M73.069 75.733C74.0406 74.7614 75.6159 74.7614 76.5875 75.733L81.4358 80.5812C82.4074 81.5529 82.4074 83.1282 81.4358 84.0998C80.4641 85.0714 78.8888 85.0714 77.9172 84.0998L73.069 79.2516C72.0973 78.2799 72.0973 76.7046 73.069 75.733Z" fill="url(#paint13_linear_212_35481)"/>
<path d="M55.3046 94.9237C53.9305 94.9237 52.8166 93.8098 52.8166 92.4357V85.5793C52.8166 84.2052 53.9305 83.0913 55.3046 83.0913C56.6787 83.0913 57.7926 84.2052 57.7926 85.5793V92.4357C57.7926 93.8098 56.6787 94.9237 55.3046 94.9237Z" fill="url(#paint14_linear_212_35481)"/>
<path d="M29.1735 84.0998C28.2019 83.1282 28.2019 81.5529 29.1735 80.5813L34.0217 75.733C34.9934 74.7614 36.5687 74.7614 37.5403 75.733C38.5119 76.7046 38.5119 78.2799 37.5403 79.2516L32.692 84.0998C31.7204 85.0714 30.1451 85.0714 29.1735 84.0998Z" fill="url(#paint15_linear_212_35481)"/>
<path d="M18.3496 57.9687C18.3496 56.5946 19.4635 55.4807 20.8376 55.4807H27.6941C29.0681 55.4807 30.1821 56.5946 30.1821 57.9687C30.1821 59.3428 29.0681 60.4567 27.6941 60.4567H20.8376C19.4635 60.4567 18.3496 59.3428 18.3496 57.9687Z" fill="url(#paint16_linear_212_35481)"/>
<path d="M29.1735 31.8375C30.1451 30.8659 31.7204 30.8659 32.6921 31.8375L37.5403 36.6858C38.5119 37.6574 38.5119 39.2327 37.5403 40.2043C36.5687 41.176 34.9934 41.176 34.0217 40.2043L29.1735 35.3561C28.2019 34.3845 28.2019 32.8092 29.1735 31.8375Z" fill="url(#paint17_linear_212_35481)"/>
<path d="M77.7393 58.1068C77.7393 70.4972 67.695 80.5415 55.3046 80.5415C42.9142 80.5415 32.8699 70.4972 32.8699 58.1068C32.8699 45.7164 42.9142 35.6721 55.3046 35.6721C67.695 35.6721 77.7393 45.7164 77.7393 58.1068Z" fill="url(#paint18_linear_212_35481)"/>
</g>
<path d="M55.3047 83.8916C56.2369 83.8916 56.9921 84.6469 56.9922 85.5791V92.4355C56.9922 93.3678 56.2369 94.124 55.3047 94.124C54.3724 94.124 53.6162 93.3678 53.6162 92.4355V85.5791C53.6163 84.6469 54.3725 83.8916 55.3047 83.8916ZM34.5879 76.2988C35.2471 75.6398 36.3155 75.6397 36.9746 76.2988C37.6337 76.958 37.6336 78.0263 36.9746 78.6855L32.126 83.5342C31.4668 84.1931 30.3984 84.1932 29.7393 83.5342C29.0801 82.875 29.0801 81.8057 29.7393 81.1465L34.5879 76.2988ZM73.6348 76.2988C74.2939 75.6397 75.3623 75.6397 76.0215 76.2988L80.8701 81.1465C81.5293 81.8057 81.5293 82.875 80.8701 83.5342C80.2109 84.1934 79.1416 84.1934 78.4824 83.5342L73.6348 78.6855C72.9757 78.0263 72.9756 76.958 73.6348 76.2988ZM55.3047 36.4717C67.2531 36.4717 76.9393 46.1581 76.9395 58.1064C76.9395 70.0549 67.2532 79.7412 55.3047 79.7412C43.3562 79.7412 33.6699 70.055 33.6699 58.1064C33.6701 46.1581 43.3563 36.4717 55.3047 36.4717ZM20.8379 56.2803H27.6943C28.6265 56.2804 29.3818 57.0366 29.3818 57.9688C29.3818 58.9009 28.6264 59.6561 27.6943 59.6562H20.8379C19.9057 59.6562 19.1495 58.901 19.1494 57.9688C19.1494 57.0365 19.9056 56.2803 20.8379 56.2803ZM82.915 56.2803H89.7715C90.7037 56.2803 91.46 57.0365 91.46 57.9688C91.4599 58.901 90.7037 59.6562 89.7715 59.6562H82.915C81.9829 59.6562 81.2276 58.9009 81.2275 57.9688C81.2275 57.0365 81.9828 56.2803 82.915 56.2803ZM29.7393 32.4033C30.3984 31.7442 31.4668 31.7443 32.126 32.4033L36.9746 37.251C37.6338 37.9102 37.6338 38.9795 36.9746 39.6387C36.3155 40.2978 35.2471 40.2976 34.5879 39.6387L29.7393 34.79C29.0802 34.1308 29.0801 33.0625 29.7393 32.4033ZM78.4824 32.4033C79.1416 31.7441 80.2109 31.7441 80.8701 32.4033C81.5292 33.0625 81.5291 34.1308 80.8701 34.79L76.0215 39.6387C75.3623 40.2977 74.2939 40.2978 73.6348 39.6387C72.9756 38.9795 72.9757 37.9112 73.6348 37.252L78.4824 32.4033ZM55.3047 21.8135C56.2369 21.8135 56.9922 22.5697 56.9922 23.502V30.3584C56.992 31.2905 56.2368 32.0459 55.3047 32.0459C54.3725 32.0459 53.6164 31.2905 53.6162 30.3584V23.502C53.6162 22.5697 54.3724 21.8135 55.3047 21.8135Z" stroke="url(#paint19_linear_212_35481)" stroke-width="1.6"/>
<defs>
<filter id="filter0_f_212_35481" x="0" y="0" width="113.91" height="113.91" filterUnits="userSpaceOnUse" color-interpolation-filters="sRGB">
<feFlood flood-opacity="0" result="BackgroundImageFix"/>
<feBlend mode="normal" in="SourceGraphic" in2="BackgroundImageFix" result="shape"/>
<feGaussianBlur stdDeviation="10" result="effect1_foregroundBlur_212_35481"/>
</filter>
<filter id="filter1_iii_212_35481" x="16.3496" y="17.0137" width="78.9102" height="79.9102" filterUnits="userSpaceOnUse" color-interpolation-filters="sRGB">
<feFlood flood-opacity="0" result="BackgroundImageFix"/>
<feBlend mode="normal" in="SourceGraphic" in2="BackgroundImageFix" result="shape"/>
<feColorMatrix in="SourceAlpha" type="matrix" values="0 0 0 0 0 0 0 0 0 0 0 0 0 0 0 0 0 0 127 0" result="hardAlpha"/>
<feOffset dx="3" dy="-4"/>
<feGaussianBlur stdDeviation="4.05"/>
<feComposite in2="hardAlpha" operator="arithmetic" k2="-1" k3="1"/>
<feColorMatrix type="matrix" values="0 0 0 0 0.765385 0 0 0 0 0.765385 0 0 0 0 0.765385 0 0 0 1 0"/>
<feBlend mode="normal" in2="shape" result="effect1_innerShadow_212_35481"/>
<feColorMatrix in="SourceAlpha" type="matrix" values="0 0 0 0 0 0 0 0 0 0 0 0 0 0 0 0 0 0 127 0" result="hardAlpha"/>
<feOffset dx="-2" dy="2"/>
<feGaussianBlur stdDeviation="1"/>
<feComposite in2="hardAlpha" operator="arithmetic" k2="-1" k3="1"/>
<feColorMatrix type="matrix" values="0 0 0 0 0 0 0 0 0 0 0 0 0 0 0 0 0 0 0.15 0"/>
<feBlend mode="normal" in2="effect1_innerShadow_212_35481" result="effect2_innerShadow_212_35481"/>
<feColorMatrix in="SourceAlpha" type="matrix" values="0 0 0 0 0 0 0 0 0 0 0 0 0 0 0 0 0 0 127 0" result="hardAlpha"/>
<feOffset dx="-1" dy="1"/>
<feGaussianBlur stdDeviation="0.5"/>
<feComposite in2="hardAlpha" operator="arithmetic" k2="-1" k3="1"/>
<feColorMatrix type="matrix" values="0 0 0 0 0.534615 0 0 0 0 0.513411 0 0 0 0 0.449797 0 0 0 0.25 0"/>
<feBlend mode="normal" in2="effect2_innerShadow_212_35481" result="effect3_innerShadow_212_35481"/>
</filter>
<linearGradient id="paint0_linear_212_35481" x1="52.5866" y1="70.2496" x2="73.9788" y2="41.2336" gradientUnits="userSpaceOnUse">
<stop stop-color="#D1D1D1" stop-opacity="0"/>
<stop offset="0.663155" stop-color="#D1D1D1"/>
<stop offset="1" stop-color="#D1D1D1" stop-opacity="0.5"/>
</linearGradient>
<linearGradient id="paint1_linear_212_35481" x1="52.5866" y1="70.2496" x2="73.9788" y2="41.2336" gradientUnits="userSpaceOnUse">
<stop stop-color="#D1D1D1" stop-opacity="0"/>
<stop offset="0.663155" stop-color="#D1D1D1"/>
<stop offset="1" stop-color="#D1D1D1" stop-opacity="0.5"/>
</linearGradient>
<linearGradient id="paint2_linear_212_35481" x1="52.5866" y1="70.2496" x2="73.9788" y2="41.2336" gradientUnits="userSpaceOnUse">
<stop stop-color="#D1D1D1" stop-opacity="0"/>
<stop offset="0.663155" stop-color="#D1D1D1"/>
<stop offset="1" stop-color="#D1D1D1" stop-opacity="0.5"/>
</linearGradient>
<linearGradient id="paint3_linear_212_35481" x1="52.5866" y1="70.2496" x2="73.9788" y2="41.2336" gradientUnits="userSpaceOnUse">
<stop stop-color="#D1D1D1" stop-opacity="0"/>
<stop offset="0.663155" stop-color="#D1D1D1"/>
<stop offset="1" stop-color="#D1D1D1" stop-opacity="0.5"/>
</linearGradient>
<linearGradient id="paint4_linear_212_35481" x1="52.5866" y1="70.2496" x2="73.9788" y2="41.2336" gradientUnits="userSpaceOnUse">
<stop stop-color="#D1D1D1" stop-opacity="0"/>
<stop offset="0.663155" stop-color="#D1D1D1"/>
<stop offset="1" stop-color="#D1D1D1" stop-opacity="0.5"/>
</linearGradient>
<linearGradient id="paint5_linear_212_35481" x1="52.5866" y1="70.2496" x2="73.9788" y2="41.2336" gradientUnits="userSpaceOnUse">
<stop stop-color="#D1D1D1" stop-opacity="0"/>
<stop offset="0.663155" stop-color="#D1D1D1"/>
<stop offset="1" stop-color="#D1D1D1" stop-opacity="0.5"/>
</linearGradient>
<linearGradient id="paint6_linear_212_35481" x1="52.5866" y1="70.2496" x2="73.9788" y2="41.2336" gradientUnits="userSpaceOnUse">
<stop stop-color="#D1D1D1" stop-opacity="0"/>
<stop offset="0.663155" stop-color="#D1D1D1"/>
<stop offset="1" stop-color="#D1D1D1" stop-opacity="0.5"/>
</linearGradient>
<linearGradient id="paint7_linear_212_35481" x1="52.5866" y1="70.2496" x2="73.9788" y2="41.2336" gradientUnits="userSpaceOnUse">
<stop stop-color="#D1D1D1" stop-opacity="0"/>
<stop offset="0.663155" stop-color="#D1D1D1"/>
<stop offset="1" stop-color="#D1D1D1" stop-opacity="0.5"/>
</linearGradient>
<linearGradient id="paint8_linear_212_35481" x1="52.5866" y1="70.2496" x2="73.9788" y2="41.2336" gradientUnits="userSpaceOnUse">
<stop stop-color="#D1D1D1" stop-opacity="0"/>
<stop offset="0.663155" stop-color="#D1D1D1"/>
<stop offset="1" stop-color="#D1D1D1" stop-opacity="0.5"/>
</linearGradient>
<linearGradient id="paint9_linear_212_35481" x1="59.6258" y1="56.955" x2="30.4674" y2="89.7748" gradientUnits="userSpaceOnUse">
<stop stop-opacity="0"/>
<stop offset="1" stop-color="#535353" stop-opacity="0.6"/>
</linearGradient>
<linearGradient id="paint10_linear_212_35481" x1="55.3046" y1="78.9959" x2="55.3046" y2="31.119" gradientUnits="userSpaceOnUse">
<stop stop-color="#464646"/>
<stop offset="0.503979" stop-color="#FBEDCA"/>
<stop offset="1" stop-color="#FFFFF5"/>
</linearGradient>
<linearGradient id="paint11_linear_212_35481" x1="55.3046" y1="78.9959" x2="55.3046" y2="31.119" gradientUnits="userSpaceOnUse">
<stop stop-color="#464646"/>
<stop offset="0.503979" stop-color="#FBEDCA"/>
<stop offset="1" stop-color="#FFFFF5"/>
</linearGradient>
<linearGradient id="paint12_linear_212_35481" x1="55.3046" y1="78.9959" x2="55.3046" y2="31.119" gradientUnits="userSpaceOnUse">
<stop stop-color="#464646"/>
<stop offset="0.503979" stop-color="#FBEDCA"/>
<stop offset="1" stop-color="#FFFFF5"/>
</linearGradient>
<linearGradient id="paint13_linear_212_35481" x1="55.3046" y1="78.9959" x2="55.3046" y2="31.119" gradientUnits="userSpaceOnUse">
<stop stop-color="#464646"/>
<stop offset="0.503979" stop-color="#FBEDCA"/>
<stop offset="1" stop-color="#FFFFF5"/>
</linearGradient>
<linearGradient id="paint14_linear_212_35481" x1="55.3046" y1="78.9959" x2="55.3046" y2="31.119" gradientUnits="userSpaceOnUse">
<stop stop-color="#464646"/>
<stop offset="0.503979" stop-color="#FBEDCA"/>
<stop offset="1" stop-color="#FFFFF5"/>
</linearGradient>
<linearGradient id="paint15_linear_212_35481" x1="55.3046" y1="78.9959" x2="55.3046" y2="31.119" gradientUnits="userSpaceOnUse">
<stop stop-color="#464646"/>
<stop offset="0.503979" stop-color="#FBEDCA"/>
<stop offset="1" stop-color="#FFFFF5"/>
</linearGradient>
<linearGradient id="paint16_linear_212_35481" x1="55.3046" y1="78.9959" x2="55.3046" y2="31.119" gradientUnits="userSpaceOnUse">
<stop stop-color="#464646"/>
<stop offset="0.503979" stop-color="#FBEDCA"/>
<stop offset="1" stop-color="#FFFFF5"/>
</linearGradient>
<linearGradient id="paint17_linear_212_35481" x1="55.3046" y1="78.9959" x2="55.3046" y2="31.119" gradientUnits="userSpaceOnUse">
<stop stop-color="#464646"/>
<stop offset="0.503979" stop-color="#FBEDCA"/>
<stop offset="1" stop-color="#FFFFF5"/>
</linearGradient>
<linearGradient id="paint18_linear_212_35481" x1="55.3046" y1="78.9959" x2="55.3046" y2="31.119" gradientUnits="userSpaceOnUse">
<stop stop-color="#464646"/>
<stop offset="0.503979" stop-color="#FBEDCA"/>
<stop offset="1" stop-color="#FFFFF5"/>
</linearGradient>
<linearGradient id="paint19_linear_212_35481" x1="57.9754" y1="57.9687" x2="28.817" y2="90.7885" gradientUnits="userSpaceOnUse">
<stop stop-opacity="0"/>
<stop offset="1" stop-color="#535353" stop-opacity="0.3"/>
</linearGradient>
</defs>
</svg>
