<svg width="76" height="75" viewBox="0 0 76 75" fill="none" xmlns="http://www.w3.org/2000/svg">
<path d="M36.9551 63.8916C37.8873 63.8916 38.6425 64.6469 38.6426 65.5791V72.4355C38.6426 73.3678 37.8873 74.124 36.9551 74.124C36.0228 74.124 35.2666 73.3678 35.2666 72.4355V65.5791C35.2667 64.6469 36.0229 63.8916 36.9551 63.8916ZM16.2383 56.2988C16.8975 55.6398 17.9659 55.6397 18.625 56.2988C19.2841 56.958 19.284 58.0263 18.625 58.6855L13.7764 63.5342C13.1172 64.1931 12.0488 64.1932 11.3896 63.5342C10.7304 62.875 10.7304 61.8057 11.3896 61.1465L16.2383 56.2988ZM55.2852 56.2988C55.9443 55.6397 57.0127 55.6397 57.6719 56.2988L62.5205 61.1465C63.1797 61.8057 63.1797 62.875 62.5205 63.5342C61.8613 64.1934 60.792 64.1934 60.1328 63.5342L55.2852 58.6855C54.6261 58.0263 54.626 56.958 55.2852 56.2988ZM36.9551 16.4717C48.9034 16.4717 58.5896 26.1581 58.5898 38.1064C58.5898 50.0549 48.9036 59.7412 36.9551 59.7412C25.0065 59.7412 15.3203 50.055 15.3203 38.1064C15.3205 26.1581 25.0067 16.4717 36.9551 16.4717ZM2.48828 36.2803H9.34473C10.2769 36.2804 11.0322 37.0366 11.0322 37.9688C11.0322 38.9009 10.2768 39.6561 9.34473 39.6562H2.48828C1.55605 39.6562 0.799842 38.901 0.799805 37.9688C0.799805 37.0365 1.55603 36.2803 2.48828 36.2803ZM64.5654 36.2803H71.4219C72.3541 36.2803 73.1104 37.0365 73.1104 37.9688C73.1103 38.901 72.3541 39.6562 71.4219 39.6562H64.5654C63.6333 39.6562 62.878 38.9009 62.8779 37.9688C62.8779 37.0365 63.6332 36.2803 64.5654 36.2803ZM11.3896 12.4033C12.0488 11.7442 13.1172 11.7443 13.7764 12.4033L18.625 17.251C19.2842 17.9102 19.2842 18.9795 18.625 19.6387C17.9659 20.2978 16.8975 20.2976 16.2383 19.6387L11.3896 14.79C10.7306 14.1308 10.7305 13.0625 11.3896 12.4033ZM60.1328 12.4033C60.792 11.7441 61.8613 11.7441 62.5205 12.4033C63.1796 13.0625 63.1795 14.1308 62.5205 14.79L57.6719 19.6387C57.0127 20.2977 55.9443 20.2978 55.2852 19.6387C54.626 18.9795 54.6261 17.9112 55.2852 17.252L60.1328 12.4033ZM36.9551 1.81348C37.8873 1.81351 38.6426 2.56972 38.6426 3.50195V10.3584C38.6424 11.2905 37.8872 12.0459 36.9551 12.0459C36.0229 12.0459 35.2667 11.2905 35.2666 10.3584V3.50195C35.2666 2.5697 36.0228 1.81348 36.9551 1.81348Z" fill="url(#paint0_linear_212_35481)" stroke="url(#paint1_linear_212_35481)" stroke-width="1.6"/>
<defs>
<linearGradient id="paint0_linear_212_35481" x1="36.955" y1="58.9959" x2="36.955" y2="11.119" gradientUnits="userSpaceOnUse">
<stop stop-color="#464646"/>
<stop offset="0.503979" stop-color="#FBEDCA"/>
<stop offset="1" stop-color="#FFFFF5"/>
</linearGradient>
<linearGradient id="paint1_linear_212_35481" x1="39.6258" y1="37.9687" x2="10.4674" y2="70.7885" gradientUnits="userSpaceOnUse">
<stop stop-opacity="0"/>
<stop offset="1" stop-color="#535353" stop-opacity="0.3"/>
</linearGradient>
</defs>
</svg>
