<svg width="74" height="74" viewBox="0 0 74 74" fill="none" xmlns="http://www.w3.org/2000/svg">
<g filter="url(#filter0_ii_212_35919)">
<path d="M21.1417 27.3139C23.8541 26.4614 25.3593 23.5742 24.5079 20.8627C23.8165 18.666 21.7857 17.2604 19.5989 17.2604C19.0892 17.2604 18.5697 17.3373 18.056 17.4986C15.3453 18.3508 13.8402 21.24 14.6935 23.9505C15.3808 26.1472 17.41 27.5529 19.5947 27.5529C20.1066 27.5529 20.6281 27.4758 21.1417 27.3139Z" fill="url(#paint0_linear_212_35919)"/>
<path d="M23.9431 27.9411C23.9431 27.9411 19.0724 29.502 18.9998 29.5282C17.1681 30.1902 15.8369 31.7506 15.5253 33.6888L13.7137 44.9346C13.4925 46.3135 14.4308 47.6114 15.8077 47.8327C15.9439 47.8554 16.0803 47.8652 16.2147 47.8652C17.4335 47.8652 18.5063 46.9812 18.7077 45.7385L19.0795 43.4303L19.98 51.9249C20.0176 52.2726 20.2072 52.5857 20.4995 52.7774C20.7918 52.9689 21.1554 53.0193 21.4894 52.9148L23.1003 52.4081L24.6276 57.2618H16.8113C16.5921 57.2618 16.4122 57.0831 16.4122 56.8627V49.3657C16.3464 49.3689 16.283 49.3834 16.2166 49.3834C16.0013 49.3834 15.7859 49.3657 15.5667 49.3311C14.0054 49.0791 12.8125 47.9579 12.3662 46.5454V56.8629C12.3662 59.3136 14.3595 61.3078 16.811 61.3078H25.1775V27.7334C24.8499 27.7572 24.5223 27.8127 24.1965 27.8984C24.1126 27.9205 24.0268 27.9148 23.9431 27.9411Z" fill="url(#paint1_linear_212_35919)"/>
<path d="M46.3859 8.75382H16.8114C14.3565 8.75382 12.3666 10.7439 12.3666 13.1988V43.7617L14.028 33.448C14.2972 31.7706 15.1612 30.307 16.4124 29.266V28.8268C14.7052 27.9818 13.3642 26.474 12.7635 24.558C12.1887 22.7316 12.3606 20.7907 13.2436 19.0927C13.9526 17.7325 15.0636 16.6783 16.4124 16.0095V13.1987C16.4124 12.9792 16.5921 12.7996 16.8114 12.7996H36.4705L29.1467 14.2643C28.0147 14.4905 27.2009 15.4842 27.2009 16.6389V66.3187C27.2009 67.0444 27.5268 67.7321 28.0879 68.1912C28.649 68.6517 29.3859 68.8363 30.0968 68.6932L55.599 63.5934C56.7313 63.3672 57.5449 62.3735 57.5449 61.2188V10.6996C57.5449 9.61667 56.6662 8.73926 55.5834 8.74072L46.3859 8.75382ZM32.3054 44.4506C31.211 44.4506 30.3239 43.5634 30.3239 42.47C30.3239 41.3756 31.211 40.4886 32.3054 40.4886C33.4001 40.4886 34.2869 41.3756 34.2869 42.47C34.2869 43.5634 33.4002 44.4506 32.3054 44.4506ZM47.8175 23.9425C47.8175 24.5164 47.4124 25.0102 46.8475 25.1219L39.0401 26.6689C38.6863 26.7388 38.3211 26.647 38.0426 26.4177C37.7661 26.1896 37.604 25.8489 37.604 25.4884V23.3944C37.604 22.8206 38.0091 22.3267 38.574 22.215L46.3812 20.668C46.7351 20.598 47.1003 20.6898 47.3788 20.9191C47.6553 21.1473 47.8175 21.4879 47.8175 21.8484V23.9425Z" fill="url(#paint2_linear_212_35919)"/>
</g>
<path d="M55.584 9.54053C56.2246 9.53966 56.7451 10.0591 56.7451 10.6997V61.2192C56.7449 61.9929 56.1999 62.6577 55.4424 62.8091L29.9404 67.9087H29.9395C29.4649 68.0042 28.9718 67.8813 28.5957 67.5728L28.5947 67.5718L28.4609 67.4497C28.1679 67.1493 28.001 66.7438 28.001 66.3188V16.6392C28.001 15.8653 28.5462 15.1997 29.3037 15.0483L36.627 13.5845L36.4707 11.9995H16.8115C16.1505 11.9995 15.6123 12.5373 15.6123 13.1987V15.5317C14.6579 16.0799 13.824 16.8131 13.167 17.7075V13.1987C13.167 11.1857 14.7985 9.5542 16.8115 9.5542H46.3867L55.584 9.54053ZM13.166 49.0942C13.7982 49.6129 14.5694 49.9802 15.4395 50.1206L15.4414 50.1216C15.4981 50.1305 15.5556 50.134 15.6123 50.1411V56.8628C15.6123 57.5264 16.1519 58.062 16.8115 58.062H24.3779V60.5083H16.8115C14.8019 60.5083 13.166 58.8718 13.166 56.8628V49.0942ZM24.3779 53.8032L23.8633 52.1685L23.623 51.4048L22.8604 51.645L21.251 52.1509C21.1449 52.1841 21.0291 52.1679 20.9375 52.1079C20.8705 52.0638 20.8193 51.998 20.793 51.9204L20.7754 51.8394L19.875 43.3462L18.29 43.3032L17.918 45.6108C17.78 46.4606 17.0465 47.0649 16.2148 47.0649C16.1191 47.0649 16.027 47.0581 15.9395 47.0435L15.9346 47.0425C14.9947 46.8913 14.353 46.0051 14.5039 45.062L16.3154 33.8159C16.563 32.276 17.5681 31.0142 18.9834 30.396L19.2715 30.2808C19.2793 30.2784 19.3431 30.258 19.4785 30.2144C19.6182 30.1693 19.8145 30.1058 20.0479 30.0308C20.5144 29.8808 21.1299 29.6835 21.7432 29.4868C22.3564 29.2901 22.9671 29.0935 23.4248 28.9468C23.6535 28.8735 23.8442 28.8127 23.9775 28.77C24.0442 28.7487 24.0971 28.7317 24.1328 28.7202C24.1404 28.7178 24.1472 28.7153 24.1533 28.7134C24.1542 28.7133 24.1552 28.7135 24.1562 28.7134C24.1702 28.7119 24.208 28.7079 24.2451 28.7026C24.2805 28.6976 24.3259 28.688 24.3779 28.6753V53.8032ZM32.3057 39.689C30.7695 39.689 29.5234 40.9339 29.5234 42.4702C29.5235 44.0055 30.7697 45.2505 32.3057 45.2505C33.842 45.2503 35.0868 44.0053 35.0869 42.4702C35.0869 40.934 33.8421 39.6891 32.3057 39.689ZM13.167 27.1089C13.764 27.9268 14.5071 28.6185 15.3555 29.1509C14.2542 30.262 13.498 31.7027 13.2383 33.3208L13.167 33.7632V27.1089ZM19.5986 18.0601C21.4463 18.0601 23.1605 19.2489 23.7441 21.1021C24.4633 23.3924 23.1921 25.8304 20.9014 26.5503V26.5513C20.4666 26.6883 20.0261 26.7534 19.5947 26.7534C17.7491 26.7534 16.0367 25.5642 15.457 23.7114V23.7104L15.3945 23.4956C14.8346 21.3424 15.999 19.1083 18.084 18.3345L18.2959 18.2622C18.7314 18.1255 19.1699 18.0601 19.5986 18.0601ZM46.4473 19.8521L46.2256 19.8833L38.4189 21.4302C37.4794 21.6159 36.8039 22.4383 36.8037 23.394V25.4888C36.8038 26.0894 37.0739 26.6556 37.5332 27.0347L37.5342 27.0356C37.9399 27.3696 38.4567 27.5282 38.9736 27.4849L39.1953 27.4536L47.0029 25.9067C47.942 25.7209 48.617 24.8988 48.6172 23.9429V21.8481C48.6171 21.2472 48.347 20.6812 47.8877 20.3022V20.3013C47.4819 19.9672 46.9645 19.8085 46.4473 19.8521Z" stroke="url(#paint3_linear_212_35919)" stroke-width="1.6"/>
<defs>
<filter id="filter0_ii_212_35919" x="10.3662" y="8.74072" width="47.1787" height="62" filterUnits="userSpaceOnUse" color-interpolation-filters="sRGB">
<feFlood flood-opacity="0" result="BackgroundImageFix"/>
<feBlend mode="normal" in="SourceGraphic" in2="BackgroundImageFix" result="shape"/>
<feColorMatrix in="SourceAlpha" type="matrix" values="0 0 0 0 0 0 0 0 0 0 0 0 0 0 0 0 0 0 127 0" result="hardAlpha"/>
<feOffset dx="-2" dy="2"/>
<feGaussianBlur stdDeviation="1"/>
<feComposite in2="hardAlpha" operator="arithmetic" k2="-1" k3="1"/>
<feColorMatrix type="matrix" values="0 0 0 0 0 0 0 0 0 0 0 0 0 0 0 0 0 0 0.25 0"/>
<feBlend mode="normal" in2="shape" result="effect1_innerShadow_212_35919"/>
<feColorMatrix in="SourceAlpha" type="matrix" values="0 0 0 0 0 0 0 0 0 0 0 0 0 0 0 0 0 0 127 0" result="hardAlpha"/>
<feOffset dx="-2" dy="2"/>
<feGaussianBlur stdDeviation="1"/>
<feComposite in2="hardAlpha" operator="arithmetic" k2="-1" k3="1"/>
<feColorMatrix type="matrix" values="0 0 0 0 0.426923 0 0 0 0 0.41861 0 0 0 0 0.393672 0 0 0 0.25 0"/>
<feBlend mode="normal" in2="effect1_innerShadow_212_35919" result="effect2_innerShadow_212_35919"/>
</filter>
<linearGradient id="paint0_linear_212_35919" x1="5.36071" y1="35.0734" x2="91.8616" y2="34.1629" gradientUnits="userSpaceOnUse">
<stop stop-color="#C8E8C8"/>
<stop offset="0.189497" stop-color="#FFFFF5"/>
<stop offset="0.287127" stop-color="#77B194"/>
<stop offset="0.439783" stop-color="#447E61"/>
<stop offset="0.568294" stop-color="#2C5440"/>
</linearGradient>
<linearGradient id="paint1_linear_212_35919" x1="5.36071" y1="35.0734" x2="91.8616" y2="34.1629" gradientUnits="userSpaceOnUse">
<stop stop-color="#C8E8C8"/>
<stop offset="0.189497" stop-color="#FFFFF5"/>
<stop offset="0.287127" stop-color="#77B194"/>
<stop offset="0.439783" stop-color="#447E61"/>
<stop offset="0.568294" stop-color="#2C5440"/>
</linearGradient>
<linearGradient id="paint2_linear_212_35919" x1="5.36071" y1="35.0734" x2="91.8616" y2="34.1629" gradientUnits="userSpaceOnUse">
<stop stop-color="#C8E8C8"/>
<stop offset="0.189497" stop-color="#FFFFF5"/>
<stop offset="0.287127" stop-color="#77B194"/>
<stop offset="0.439783" stop-color="#447E61"/>
<stop offset="0.568294" stop-color="#2C5440"/>
</linearGradient>
<linearGradient id="paint3_linear_212_35919" x1="57.5449" y1="21.9406" x2="23.3234" y2="28.541" gradientUnits="userSpaceOnUse">
<stop stop-color="#62776C" stop-opacity="0.25"/>
<stop offset="0.139423" stop-color="#2A4737" stop-opacity="0.3"/>
<stop offset="1" stop-color="#709E81" stop-opacity="0.2"/>
</linearGradient>
</defs>
</svg>
