<svg width="86" height="100" viewBox="0 0 86 100" fill="none" xmlns="http://www.w3.org/2000/svg">
<g opacity="0.4" filter="url(#filter0_f_212_35919)">
<path d="M28.7755 38.5731C31.4879 37.7207 32.9931 34.8335 32.1416 32.1219C31.4503 29.9252 29.4194 28.5196 27.2326 28.5196C26.7229 28.5196 26.2035 28.5966 25.6898 28.7578C22.9791 29.61 21.474 32.4993 22.3273 35.2098C23.0146 37.4065 25.0438 38.8122 27.2285 38.8122C27.7404 38.8122 28.2618 38.7351 28.7755 38.5731Z" fill="url(#paint0_linear_212_35919)"/>
<path d="M31.5769 39.2004C31.5769 39.2004 26.7062 40.7613 26.6336 40.7875C24.8019 41.4495 23.4707 43.0099 23.1591 44.9481L21.3475 56.1938C21.1263 57.5728 22.0646 58.8706 23.4415 59.0919C23.5777 59.1147 23.7141 59.1245 23.8485 59.1245C25.0673 59.1245 26.14 58.2405 26.3415 56.9978L26.7133 54.6896L27.6138 63.1841C27.6514 63.5319 27.841 63.845 28.1333 64.0367C28.4256 64.2281 28.7892 64.2786 29.1232 64.174L30.7341 63.6674L32.2614 68.5211H24.4451C24.2258 68.5211 24.046 68.3424 24.046 68.122V60.625C23.9802 60.6282 23.9168 60.6427 23.8504 60.6427C23.6351 60.6427 23.4197 60.625 23.2004 60.5903C21.6391 60.3384 20.4463 59.2172 20 57.8047V68.1221C20 70.5728 21.9933 72.5671 24.4448 72.5671H32.8113V38.9926C32.4837 39.0165 32.1561 39.072 31.8302 39.1576C31.7464 39.1798 31.6606 39.174 31.5769 39.2004Z" fill="url(#paint1_linear_212_35919)"/>
<path d="M54.0196 20.0131H24.4452C21.9903 20.0131 20.0004 22.0032 20.0004 24.4581V55.0209L21.6618 44.7073C21.931 43.0299 22.795 41.5662 24.0461 40.5253V40.0861C22.3389 39.2411 20.998 37.7333 20.3973 35.8173C19.8225 33.9908 19.9944 32.05 20.8774 30.3519C21.5864 28.9918 22.6973 27.9376 24.0461 27.2688V24.4579C24.0461 24.2385 24.2258 24.0589 24.4452 24.0589H44.1043L36.7805 25.5236C35.6485 25.7498 34.8347 26.7435 34.8347 27.8982V77.5779C34.8347 78.3037 35.1606 78.9914 35.7217 79.4505C36.2828 79.911 37.0197 80.0956 37.7306 79.9525L63.2328 74.8527C64.3651 74.6265 65.1787 73.6328 65.1787 72.4781V21.9589C65.1787 20.8759 64.3 19.9985 63.2172 20L54.0196 20.0131ZM39.9392 55.7098C38.8448 55.7098 37.9577 54.8226 37.9577 53.7293C37.9577 52.6349 38.8448 51.7479 39.9392 51.7479C41.0339 51.7479 41.9207 52.6349 41.9207 53.7293C41.9207 54.8226 41.034 55.7098 39.9392 55.7098ZM55.4513 35.2018C55.4513 35.7757 55.0462 36.2695 54.4812 36.3812L46.6739 37.9282C46.3201 37.9981 45.9549 37.9063 45.6764 37.677C45.3999 37.4488 45.2378 37.1082 45.2378 36.7477V34.6537C45.2378 34.0798 45.6429 33.5859 46.2078 33.4743L54.015 31.9273C54.3689 31.8573 54.7341 31.9491 55.0126 32.1784C55.2891 32.4065 55.4513 32.7472 55.4513 33.1077V35.2018Z" fill="url(#paint2_linear_212_35919)"/>
</g>
<g filter="url(#filter1_ii_212_35919)">
<path d="M24.0079 41.9704C26.7203 41.1179 28.2255 38.2307 27.3741 35.5192C26.6827 33.3224 24.6519 31.9169 22.4651 31.9169C21.9554 31.9169 21.4359 31.9938 20.9223 32.1551C18.2116 33.0072 16.7064 35.8965 17.5597 38.607C18.2471 40.8037 20.2762 42.2094 22.4609 42.2094C22.9728 42.2094 23.4943 42.1323 24.0079 41.9704Z" fill="url(#paint3_linear_212_35919)"/>
<path d="M26.8093 42.5976C26.8093 42.5976 21.9386 44.1585 21.866 44.1847C20.0343 44.8467 18.7031 46.4071 18.3915 48.3453L16.5799 59.5911C16.3587 60.97 17.2971 62.2679 18.6739 62.4892C18.8101 62.5119 18.9465 62.5217 19.0809 62.5217C20.2997 62.5217 21.3725 61.6377 21.5739 60.395L21.9457 58.0868L22.8462 66.5813C22.8838 66.9291 23.0734 67.2422 23.3657 67.4339C23.658 67.6254 24.0216 67.6758 24.3556 67.5713L25.9665 67.0646L27.4938 71.9183H19.6775C19.4583 71.9183 19.2785 71.7396 19.2785 71.5192V64.0222C19.2126 64.0254 19.1492 64.0399 19.0828 64.0399C18.8675 64.0399 18.6521 64.0222 18.4329 63.9875C16.8716 63.7356 15.6787 62.6144 15.2324 61.2019V71.5194C15.2324 73.9701 17.2257 75.9643 19.6773 75.9643H28.0438V42.3899C27.7161 42.4137 27.3885 42.4692 27.0627 42.5549C26.9788 42.577 26.893 42.5713 26.8093 42.5976Z" fill="url(#paint4_linear_212_35919)"/>
<path d="M49.2521 23.4103H19.6776C17.2227 23.4103 15.2328 25.4004 15.2328 27.8553V58.4182L16.8942 48.1045C17.1634 46.4271 18.0275 44.9635 19.2786 43.9225V43.4833C17.5714 42.6383 16.2304 41.1305 15.6297 39.2145C15.0549 37.3881 15.2268 35.4472 16.1098 33.7492C16.8188 32.389 17.9298 31.3348 19.2786 30.666V27.8552C19.2786 27.6357 19.4583 27.4561 19.6776 27.4561H39.3368L32.0129 28.9208C30.8809 29.147 30.0671 30.1407 30.0671 31.2954V80.9752C30.0671 81.7009 30.393 82.3886 30.9541 82.8477C31.5152 83.3082 32.2521 83.4928 32.963 83.3497L58.4653 78.2499C59.5975 78.0237 60.4112 77.03 60.4112 75.8753V25.3561C60.4112 24.2732 59.5324 23.3957 58.4496 23.3972L49.2521 23.4103ZM35.1716 59.1071C34.0772 59.1071 33.1901 58.2199 33.1901 57.1265C33.1901 56.0321 34.0772 55.1451 35.1716 55.1451C36.2663 55.1451 37.1531 56.0321 37.1531 57.1265C37.1531 58.2199 36.2664 59.1071 35.1716 59.1071ZM50.6837 38.599C50.6837 39.1729 50.2786 39.6667 49.7137 39.7784L41.9063 41.3254C41.5526 41.3953 41.1873 41.3035 40.9088 41.0742C40.6323 40.8461 40.4702 40.5054 40.4702 40.1449V38.0509C40.4702 37.4771 40.8753 36.9831 41.4402 36.8715L49.2474 35.3245C49.6013 35.2545 49.9666 35.3463 50.245 35.5756C50.5215 35.8038 50.6837 36.1444 50.6837 36.5049V38.599Z" fill="url(#paint5_linear_212_35919)"/>
</g>
<path d="M58.4502 24.197C59.0908 24.1962 59.6113 24.7156 59.6113 25.3562V75.8757C59.6111 76.6494 59.0661 77.3142 58.3086 77.4656L32.8066 82.5652H32.8057C32.3311 82.6607 31.838 82.5378 31.4619 82.2292L31.4609 82.2283L31.3271 82.1062C31.0342 81.8058 30.8672 81.4003 30.8672 80.9753V31.2957C30.8672 30.5218 31.4124 29.8562 32.1699 29.7048L39.4932 28.241L39.3369 26.656H19.6777C19.0167 26.656 18.4785 27.1938 18.4785 27.8552V30.1882C17.5241 30.7364 16.6903 31.4696 16.0332 32.364V27.8552C16.0332 25.8422 17.6647 24.2107 19.6777 24.2107H49.2529L58.4502 24.197ZM16.0322 63.7507C16.6644 64.2694 17.4356 64.6367 18.3057 64.7771L18.3076 64.7781C18.3643 64.787 18.4219 64.7905 18.4785 64.7976V71.5193C18.4785 72.1829 19.0181 72.7185 19.6777 72.7185H27.2441V75.1648H19.6777C17.6681 75.1648 16.0322 73.5283 16.0322 71.5193V63.7507ZM27.2441 68.4597L26.7295 66.825L26.4893 66.0613L25.7266 66.3015L24.1172 66.8074C24.0111 66.8406 23.8953 66.8244 23.8037 66.7644C23.7368 66.7203 23.6856 66.6545 23.6592 66.5769L23.6416 66.4958L22.7412 58.0027L21.1562 57.9597L20.7842 60.2673C20.6462 61.1171 19.9127 61.7214 19.0811 61.7214C18.9853 61.7214 18.8932 61.7146 18.8057 61.7L18.8008 61.699C17.861 61.5478 17.2192 60.6616 17.3701 59.7185L19.1816 48.4724C19.4293 46.9325 20.4343 45.6707 21.8496 45.0525L22.1377 44.9373C22.1455 44.9349 22.2093 44.9145 22.3447 44.8708C22.4845 44.8258 22.6807 44.7622 22.9141 44.6873C23.3807 44.5373 23.9962 44.34 24.6094 44.1433C25.2226 43.9466 25.8333 43.75 26.291 43.6033C26.5197 43.5299 26.7104 43.4692 26.8438 43.4265C26.9104 43.4051 26.9633 43.3881 26.999 43.3767C27.0067 43.3743 27.0135 43.3718 27.0195 43.3699C27.0205 43.3698 27.0215 43.37 27.0225 43.3699C27.0364 43.3684 27.0742 43.3644 27.1113 43.3591C27.1467 43.3541 27.1921 43.3445 27.2441 43.3318V68.4597ZM35.1719 54.3455C33.6357 54.3455 32.3896 55.5904 32.3896 57.1267C32.3897 58.662 33.6359 59.907 35.1719 59.907C36.7082 59.9068 37.953 58.6618 37.9531 57.1267C37.9531 55.5905 36.7083 54.3456 35.1719 54.3455ZM16.0332 41.7654C16.6302 42.5833 17.3733 43.275 18.2217 43.8074C17.1204 44.9185 16.3643 46.3592 16.1045 47.9773L16.0332 48.4197V41.7654ZM22.4648 32.7166C24.3125 32.7166 26.0267 33.9054 26.6104 35.7585C27.3296 38.0489 26.0583 40.4869 23.7676 41.2068V41.2078C23.3329 41.3448 22.8923 41.4099 22.4609 41.4099C20.6154 41.4099 18.9029 40.2207 18.3232 38.3679V38.3669L18.2607 38.1521C17.7008 35.9989 18.8652 33.7648 20.9502 32.991L21.1621 32.9187C21.5977 32.782 22.0361 32.7166 22.4648 32.7166ZM49.3135 34.5085L49.0918 34.5398L41.2852 36.0867C40.3456 36.2723 39.6701 37.0948 39.6699 38.0505V40.1453C39.67 40.7459 39.9402 41.3121 40.3994 41.6912L40.4004 41.6921C40.8061 42.026 41.3229 42.1847 41.8398 42.1414L42.0615 42.1101L49.8691 40.5632C50.8082 40.3773 51.4832 39.5553 51.4834 38.5994V36.5046C51.4833 35.9037 51.2132 35.3377 50.7539 34.9587V34.9578C50.3481 34.6237 49.8308 34.465 49.3135 34.5085Z" stroke="url(#paint6_linear_212_35919)" stroke-width="1.6"/>
<defs>
<filter id="filter0_f_212_35919" x="0" y="0" width="85.1787" height="100" filterUnits="userSpaceOnUse" color-interpolation-filters="sRGB">
<feFlood flood-opacity="0" result="BackgroundImageFix"/>
<feBlend mode="normal" in="SourceGraphic" in2="BackgroundImageFix" result="shape"/>
<feGaussianBlur stdDeviation="10" result="effect1_foregroundBlur_212_35919"/>
</filter>
<filter id="filter1_ii_212_35919" x="13.2324" y="23.3972" width="47.1787" height="62" filterUnits="userSpaceOnUse" color-interpolation-filters="sRGB">
<feFlood flood-opacity="0" result="BackgroundImageFix"/>
<feBlend mode="normal" in="SourceGraphic" in2="BackgroundImageFix" result="shape"/>
<feColorMatrix in="SourceAlpha" type="matrix" values="0 0 0 0 0 0 0 0 0 0 0 0 0 0 0 0 0 0 127 0" result="hardAlpha"/>
<feOffset dx="-2" dy="2"/>
<feGaussianBlur stdDeviation="1"/>
<feComposite in2="hardAlpha" operator="arithmetic" k2="-1" k3="1"/>
<feColorMatrix type="matrix" values="0 0 0 0 0 0 0 0 0 0 0 0 0 0 0 0 0 0 0.25 0"/>
<feBlend mode="normal" in2="shape" result="effect1_innerShadow_212_35919"/>
<feColorMatrix in="SourceAlpha" type="matrix" values="0 0 0 0 0 0 0 0 0 0 0 0 0 0 0 0 0 0 127 0" result="hardAlpha"/>
<feOffset dx="-2" dy="2"/>
<feGaussianBlur stdDeviation="1"/>
<feComposite in2="hardAlpha" operator="arithmetic" k2="-1" k3="1"/>
<feColorMatrix type="matrix" values="0 0 0 0 0.426923 0 0 0 0 0.41861 0 0 0 0 0.393672 0 0 0 0.25 0"/>
<feBlend mode="normal" in2="effect1_innerShadow_212_35919" result="effect2_innerShadow_212_35919"/>
</filter>
<linearGradient id="paint0_linear_212_35919" x1="65.1787" y1="21.7124" x2="22.3196" y2="77.6923" gradientUnits="userSpaceOnUse">
<stop stop-color="#6F9F81" stop-opacity="0"/>
<stop offset="0.533654" stop-color="#6F9F81"/>
<stop offset="1" stop-color="#6F9F81" stop-opacity="0.5"/>
</linearGradient>
<linearGradient id="paint1_linear_212_35919" x1="65.1787" y1="21.7124" x2="22.3196" y2="77.6923" gradientUnits="userSpaceOnUse">
<stop stop-color="#6F9F81" stop-opacity="0"/>
<stop offset="0.533654" stop-color="#6F9F81"/>
<stop offset="1" stop-color="#6F9F81" stop-opacity="0.5"/>
</linearGradient>
<linearGradient id="paint2_linear_212_35919" x1="65.1787" y1="21.7124" x2="22.3196" y2="77.6923" gradientUnits="userSpaceOnUse">
<stop stop-color="#6F9F81" stop-opacity="0"/>
<stop offset="0.533654" stop-color="#6F9F81"/>
<stop offset="1" stop-color="#6F9F81" stop-opacity="0.5"/>
</linearGradient>
<linearGradient id="paint3_linear_212_35919" x1="8.22692" y1="49.7299" x2="94.7278" y2="48.8194" gradientUnits="userSpaceOnUse">
<stop stop-color="#C8E8C8"/>
<stop offset="0.189497" stop-color="#FFFFF5"/>
<stop offset="0.287127" stop-color="#77B194"/>
<stop offset="0.439783" stop-color="#447E61"/>
<stop offset="0.568294" stop-color="#2C5440"/>
</linearGradient>
<linearGradient id="paint4_linear_212_35919" x1="8.22692" y1="49.7299" x2="94.7278" y2="48.8194" gradientUnits="userSpaceOnUse">
<stop stop-color="#C8E8C8"/>
<stop offset="0.189497" stop-color="#FFFFF5"/>
<stop offset="0.287127" stop-color="#77B194"/>
<stop offset="0.439783" stop-color="#447E61"/>
<stop offset="0.568294" stop-color="#2C5440"/>
</linearGradient>
<linearGradient id="paint5_linear_212_35919" x1="8.22692" y1="49.7299" x2="94.7278" y2="48.8194" gradientUnits="userSpaceOnUse">
<stop stop-color="#C8E8C8"/>
<stop offset="0.189497" stop-color="#FFFFF5"/>
<stop offset="0.287127" stop-color="#77B194"/>
<stop offset="0.439783" stop-color="#447E61"/>
<stop offset="0.568294" stop-color="#2C5440"/>
</linearGradient>
<linearGradient id="paint6_linear_212_35919" x1="60.4112" y1="36.5971" x2="26.1896" y2="43.1975" gradientUnits="userSpaceOnUse">
<stop stop-color="#62776C" stop-opacity="0.25"/>
<stop offset="0.139423" stop-color="#2A4737" stop-opacity="0.3"/>
<stop offset="1" stop-color="#709E81" stop-opacity="0.2"/>
</linearGradient>
</defs>
</svg>
