<svg width="76" height="75" viewBox="0 0 76 75" fill="none" xmlns="http://www.w3.org/2000/svg">
<g filter="url(#filter0_iii_217_2226)">
<path d="M38.4009 8.02635C37.607 7.23243 36.3245 7.23243 35.5306 8.02635C34.5738 8.96276 12.5273 31.0092 12.5273 44.0783C12.5273 57.5546 23.4793 68.5065 36.9556 68.5065C50.4318 68.5065 61.3838 57.5546 61.3838 44.0783C61.3838 31.0092 39.3373 8.96276 38.4009 8.02635ZM36.9556 60.3638C27.9782 60.3638 20.6701 53.0557 20.6701 44.0783C20.6701 42.9587 21.5861 42.0426 22.7058 42.0426C23.8254 42.0426 24.7415 42.9587 24.7415 44.0783C24.7415 50.8164 30.2174 56.2924 36.9556 56.2924C38.0752 56.2924 38.9913 57.2085 38.9913 58.3281C38.9913 59.4478 38.0752 60.3638 36.9556 60.3638Z" fill="url(#paint0_linear_217_2226)"/>
</g>
<path d="M36.0967 8.59204C36.5782 8.11078 37.3535 8.11073 37.835 8.59204C38.2956 9.05267 44.0137 14.7702 49.6113 21.9924C52.4107 25.6043 55.1658 29.575 57.2178 33.4387C59.2796 37.3211 60.584 41.0088 60.584 44.0784C60.584 57.1126 49.9902 67.706 36.9561 67.7063C23.9217 67.7063 13.3272 57.1128 13.3271 44.0784C13.3271 41.0088 14.6312 37.321 16.6934 33.4387C18.7456 29.575 21.5021 25.6043 24.3027 21.9924C29.9031 14.77 35.6254 9.05252 36.0898 8.5979L36.0967 8.59204ZM22.7061 41.2424C21.1446 41.2424 19.8701 42.5169 19.8701 44.0784C19.8701 53.4976 27.5369 61.1633 36.9561 61.1633C38.5172 61.1631 39.7909 59.8895 39.791 58.3284C39.791 56.7671 38.5173 55.4927 36.9561 55.4924C30.6598 55.4924 25.541 50.3746 25.541 44.0784C25.541 42.517 24.2674 41.2426 22.7061 41.2424Z" stroke="url(#paint1_linear_217_2226)" stroke-width="1.6"/>
<defs>
<filter id="filter0_iii_217_2226" x="10.5273" y="3.43091" width="53.8564" height="67.0757" filterUnits="userSpaceOnUse" color-interpolation-filters="sRGB">
<feFlood flood-opacity="0" result="BackgroundImageFix"/>
<feBlend mode="normal" in="SourceGraphic" in2="BackgroundImageFix" result="shape"/>
<feColorMatrix in="SourceAlpha" type="matrix" values="0 0 0 0 0 0 0 0 0 0 0 0 0 0 0 0 0 0 127 0" result="hardAlpha"/>
<feOffset dx="3" dy="-4"/>
<feGaussianBlur stdDeviation="4.05"/>
<feComposite in2="hardAlpha" operator="arithmetic" k2="-1" k3="1"/>
<feColorMatrix type="matrix" values="0 0 0 0 0.764706 0 0 0 0 0.764706 0 0 0 0 0.764706 0 0 0 1 0"/>
<feBlend mode="normal" in2="shape" result="effect1_innerShadow_217_2226"/>
<feColorMatrix in="SourceAlpha" type="matrix" values="0 0 0 0 0 0 0 0 0 0 0 0 0 0 0 0 0 0 127 0" result="hardAlpha"/>
<feOffset dx="-2" dy="2"/>
<feGaussianBlur stdDeviation="1"/>
<feComposite in2="hardAlpha" operator="arithmetic" k2="-1" k3="1"/>
<feColorMatrix type="matrix" values="0 0 0 0 0 0 0 0 0 0 0 0 0 0 0 0 0 0 0.25 0"/>
<feBlend mode="normal" in2="effect1_innerShadow_217_2226" result="effect2_innerShadow_217_2226"/>
<feColorMatrix in="SourceAlpha" type="matrix" values="0 0 0 0 0 0 0 0 0 0 0 0 0 0 0 0 0 0 127 0" result="hardAlpha"/>
<feOffset dx="-1" dy="1"/>
<feGaussianBlur stdDeviation="0.5"/>
<feComposite in2="hardAlpha" operator="arithmetic" k2="-1" k3="1"/>
<feColorMatrix type="matrix" values="0 0 0 0 0.464885 0 0 0 0 0.554586 0 0 0 0 0.596154 0 0 0 0.15 0"/>
<feBlend mode="normal" in2="effect2_innerShadow_217_2226" result="effect3_innerShadow_217_2226"/>
</filter>
<linearGradient id="paint0_linear_217_2226" x1="36.9556" y1="7.43091" x2="36.9556" y2="68.5066" gradientUnits="userSpaceOnUse">
<stop stop-color="#F5FEFF"/>
<stop offset="0.509615" stop-color="#CAFBF4"/>
<stop offset="1" stop-color="#193240"/>
</linearGradient>
<linearGradient id="paint1_linear_217_2226" x1="12.5273" y1="68.5066" x2="22.4169" y2="53.734" gradientUnits="userSpaceOnUse">
<stop stop-color="#8292C4" stop-opacity="0.6"/>
<stop offset="1" stop-opacity="0"/>
</linearGradient>
</defs>
</svg>
