<svg width="89" height="102" viewBox="0 0 89 102" fill="none" xmlns="http://www.w3.org/2000/svg">
<g filter="url(#filter0_f_217_2226)">
<path d="M45.8736 20.5954C45.0796 19.8015 43.7972 19.8015 43.0032 20.5954C42.0465 21.5319 20 43.5783 20 56.6474C20 70.1237 30.952 81.0756 44.4282 81.0756C57.9045 81.0756 68.8564 70.1237 68.8564 56.6474C68.8564 43.5783 46.81 21.5319 45.8736 20.5954ZM44.4282 72.9329C35.4509 72.9329 28.1427 65.6248 28.1427 56.6474C28.1427 55.5278 29.0588 54.6117 30.1784 54.6117C31.2981 54.6117 32.2141 55.5278 32.2141 56.6474C32.2141 63.3855 37.6901 68.8615 44.4282 68.8615C45.5478 68.8615 46.4639 69.7776 46.4639 70.8972C46.4639 72.0168 45.5478 72.9329 44.4282 72.9329Z" fill="url(#paint0_linear_217_2226)"/>
<path d="M43.5693 21.1611C44.0508 20.6799 44.8262 20.6798 45.3076 21.1611C45.7682 21.6218 51.4864 27.3393 57.084 34.5615C59.8834 38.1734 62.6385 42.1441 64.6904 46.0078C66.7523 49.8902 68.0566 53.5779 68.0566 56.6475C68.0566 69.6817 57.4629 80.2751 44.4287 80.2754C31.3943 80.2754 20.7998 69.6818 20.7998 56.6475C20.7998 53.5779 22.1039 49.8901 24.166 46.0078C26.2183 42.1441 28.9747 38.1734 31.7754 34.5615C37.3757 27.3391 43.098 21.6216 43.5625 21.167L43.5693 21.1611ZM30.1787 53.8115C28.6173 53.8115 27.3428 55.086 27.3428 56.6475C27.3428 66.0666 35.0095 73.7324 44.4287 73.7324C45.9899 73.7322 47.2635 72.4586 47.2637 70.8975C47.2637 69.3362 45.9899 68.0618 44.4287 68.0615C38.1324 68.0615 33.0137 62.9437 33.0137 56.6475C33.0137 55.0861 31.74 53.8117 30.1787 53.8115Z" stroke="url(#paint1_linear_217_2226)" stroke-width="1.6"/>
</g>
<g filter="url(#filter1_iii_217_2226)">
<path d="M44.2232 21.6091C43.4293 20.8152 42.1468 20.8152 41.3529 21.6091C40.3961 22.5455 18.3496 44.592 18.3496 57.6611C18.3496 71.1373 29.3016 82.0893 42.7778 82.0893C56.2541 82.0893 67.2061 71.1373 67.2061 57.6611C67.2061 44.592 45.1596 22.5455 44.2232 21.6091ZM42.7778 73.9466C33.8005 73.9466 26.4924 66.6385 26.4924 57.6611C26.4924 56.5415 27.4084 55.6254 28.528 55.6254C29.6477 55.6254 30.5637 56.5415 30.5637 57.6611C30.5637 64.3992 36.0397 69.8752 42.7778 69.8752C43.8975 69.8752 44.8135 70.7913 44.8135 71.9109C44.8135 73.0305 43.8975 73.9466 42.7778 73.9466Z" fill="url(#paint2_linear_217_2226)"/>
</g>
<path d="M41.9189 22.1748C42.4004 21.6935 43.1758 21.6935 43.6572 22.1748C44.1179 22.6354 49.836 28.3529 55.4336 35.5752C58.233 39.1871 60.9881 43.1577 63.04 47.0215C65.1019 50.9038 66.4062 54.5915 66.4062 57.6611C66.4062 70.6954 55.8125 81.2888 42.7783 81.2891C29.7439 81.2891 19.1494 70.6955 19.1494 57.6611C19.1494 54.5916 20.4535 50.9038 22.5156 47.0215C24.5679 43.1578 27.3244 39.187 30.125 35.5752C35.7254 28.3527 41.4476 22.6353 41.9121 22.1807L41.9189 22.1748ZM28.5283 54.8252C26.9669 54.8252 25.6924 56.0997 25.6924 57.6611C25.6924 67.0803 33.3591 74.7461 42.7783 74.7461C44.3395 74.7458 45.6131 73.4723 45.6133 71.9111C45.6133 70.3498 44.3396 69.0755 42.7783 69.0752C36.482 69.0752 31.3633 63.9574 31.3633 57.6611C31.3633 56.0998 30.0896 54.8253 28.5283 54.8252Z" stroke="url(#paint3_linear_217_2226)" stroke-width="1.6"/>
<defs>
<filter id="filter0_f_217_2226" x="0" y="0" width="88.8564" height="101.076" filterUnits="userSpaceOnUse" color-interpolation-filters="sRGB">
<feFlood flood-opacity="0" result="BackgroundImageFix"/>
<feBlend mode="normal" in="SourceGraphic" in2="BackgroundImageFix" result="shape"/>
<feGaussianBlur stdDeviation="10" result="effect1_foregroundBlur_217_2226"/>
</filter>
<filter id="filter1_iii_217_2226" x="16.3496" y="17.0137" width="53.8564" height="67.0757" filterUnits="userSpaceOnUse" color-interpolation-filters="sRGB">
<feFlood flood-opacity="0" result="BackgroundImageFix"/>
<feBlend mode="normal" in="SourceGraphic" in2="BackgroundImageFix" result="shape"/>
<feColorMatrix in="SourceAlpha" type="matrix" values="0 0 0 0 0 0 0 0 0 0 0 0 0 0 0 0 0 0 127 0" result="hardAlpha"/>
<feOffset dx="3" dy="-4"/>
<feGaussianBlur stdDeviation="4.05"/>
<feComposite in2="hardAlpha" operator="arithmetic" k2="-1" k3="1"/>
<feColorMatrix type="matrix" values="0 0 0 0 0.764706 0 0 0 0 0.764706 0 0 0 0 0.764706 0 0 0 1 0"/>
<feBlend mode="normal" in2="shape" result="effect1_innerShadow_217_2226"/>
<feColorMatrix in="SourceAlpha" type="matrix" values="0 0 0 0 0 0 0 0 0 0 0 0 0 0 0 0 0 0 127 0" result="hardAlpha"/>
<feOffset dx="-2" dy="2"/>
<feGaussianBlur stdDeviation="1"/>
<feComposite in2="hardAlpha" operator="arithmetic" k2="-1" k3="1"/>
<feColorMatrix type="matrix" values="0 0 0 0 0 0 0 0 0 0 0 0 0 0 0 0 0 0 0.25 0"/>
<feBlend mode="normal" in2="effect1_innerShadow_217_2226" result="effect2_innerShadow_217_2226"/>
<feColorMatrix in="SourceAlpha" type="matrix" values="0 0 0 0 0 0 0 0 0 0 0 0 0 0 0 0 0 0 127 0" result="hardAlpha"/>
<feOffset dx="-1" dy="1"/>
<feGaussianBlur stdDeviation="0.5"/>
<feComposite in2="hardAlpha" operator="arithmetic" k2="-1" k3="1"/>
<feColorMatrix type="matrix" values="0 0 0 0 0.464885 0 0 0 0 0.554586 0 0 0 0 0.596154 0 0 0 0.15 0"/>
<feBlend mode="normal" in2="effect2_innerShadow_217_2226" result="effect3_innerShadow_217_2226"/>
</filter>
<linearGradient id="paint0_linear_217_2226" x1="44.4282" y1="20" x2="44.4282" y2="81.0756" gradientUnits="userSpaceOnUse">
<stop stop-color="#D1D1D1"/>
<stop offset="0.509615" stop-color="#D1D1D1" stop-opacity="0.5"/>
<stop offset="1" stop-color="#D1D1D1" stop-opacity="0"/>
</linearGradient>
<linearGradient id="paint1_linear_217_2226" x1="20" y1="81.0756" x2="54.3574" y2="54.8429" gradientUnits="userSpaceOnUse">
<stop stop-color="#535353" stop-opacity="0.6"/>
<stop offset="1" stop-opacity="0"/>
</linearGradient>
<linearGradient id="paint2_linear_217_2226" x1="42.7778" y1="21.0137" x2="42.7778" y2="82.0893" gradientUnits="userSpaceOnUse">
<stop stop-color="#F5FEFF"/>
<stop offset="0.509615" stop-color="#CAFBF4"/>
<stop offset="1" stop-color="#193240"/>
</linearGradient>
<linearGradient id="paint3_linear_217_2226" x1="18.3496" y1="82.0893" x2="28.2392" y2="67.3168" gradientUnits="userSpaceOnUse">
<stop stop-color="#8292C4" stop-opacity="0.6"/>
<stop offset="1" stop-opacity="0"/>
</linearGradient>
</defs>
</svg>
