<svg width="42" height="42" viewBox="0 0 42 42" fill="none" xmlns="http://www.w3.org/2000/svg">
<path d="M36.3744 13.5915L15.2527 1.36754C14.0885 0.702287 12.5085 1.11807 11.8433 2.28226L6.0223 12.3442C5.35704 13.5084 5.77283 15.0884 6.93702 15.7536L13.0906 19.3294L12.1046 21.0197C11.6843 21.7402 11.9258 22.665 12.6448 23.088L14.1716 23.9861L11.5938 31.4702L6.77071 33.466V30.7763C6.77071 30.1032 6.22508 29.5576 5.55201 29.5576H2.41792C1.74485 29.5576 1.19922 30.1032 1.19922 30.7763V39.7313C1.19922 40.4044 1.74485 40.9501 2.41792 40.9501H5.55201C6.22508 40.9501 6.77071 40.4044 6.77071 39.7313V37.0417L13.6972 34.2254C14.1042 34.06 14.4192 33.726 14.5606 33.3101L17.1653 25.6492L18.8508 26.6325C19.5733 27.0539 20.5005 26.8099 20.922 26.0875L21.9052 24.4019L28.0588 27.9776C29.223 28.6429 30.8029 28.2271 31.4682 27.0629L37.2892 17.001C37.9544 15.8368 37.5386 14.2568 36.3744 13.5915Z" fill="#0B0D10"/>
<path d="M34.2932 25.8752L37.659 20.0456C37.9007 19.627 38.4359 19.4836 38.8545 19.7253L40.3632 20.5964C40.7818 20.8381 40.9252 21.3733 40.6836 21.7919L37.3178 27.6215C37.0761 28.0401 36.5408 28.1835 36.1223 27.9418L34.6135 27.0707C34.1949 26.829 34.0515 26.2938 34.2932 25.8752Z" fill="#0B0D10"/>
</svg>
