<svg width="42" height="42" viewBox="0 0 42 42" fill="none" xmlns="http://www.w3.org/2000/svg">
<g clip-path="url(#clip0_1070_11894)">
<path d="M30.8733 39.5661C30.8733 39.9402 30.5706 40.2453 30.1965 40.2453H11.8035C11.4294 40.2453 11.1267 39.941 11.1267 39.5661C11.1267 39.1921 11.4286 38.8894 11.8035 38.8894H15.5728L16.9567 35.0224H25.0441L26.428 38.8894H30.1973C30.5706 38.8894 30.8733 39.1921 30.8733 39.5661ZM42 4.50515V30.9159C42 32.4294 40.763 33.6664 39.2495 33.6664H2.75133C1.23703 33.6673 0 32.4302 0 30.9159V4.50515C0 2.99167 1.23703 1.75464 2.75051 1.75464H39.2487C40.763 1.75464 42 2.99167 42 4.50515ZM25.8759 30.2236C25.8759 27.5305 23.6923 25.3476 21 25.3476C18.3053 25.3476 16.1216 27.5313 16.1216 30.2236H25.8759ZM38.3168 5.60765C38.3168 5.38206 38.1306 5.19585 37.905 5.19585H4.095C3.86695 5.19585 3.6832 5.38206 3.6832 5.60765V29.8142C3.6832 30.0398 3.86695 30.2236 4.095 30.2236H9.69855V29.2491C9.69855 28.9956 9.85441 28.7815 10.0939 28.7027L11.5426 28.2327C11.7354 28.1695 11.8707 28.026 11.9216 27.8324C12.1398 27.0047 12.4679 26.2213 12.8888 25.4978C12.9913 25.323 12.9954 25.1278 12.9052 24.9465L12.212 23.5889C12.098 23.3633 12.1398 23.1008 12.3186 22.9212L13.6976 21.5422C13.8764 21.3634 14.1397 21.3216 14.3653 21.4372L15.7229 22.1279C15.9018 22.2206 16.0995 22.2141 16.2742 22.114C16.9952 21.6907 17.7786 21.3626 18.6063 21.1468C18.8016 21.096 18.9435 20.9606 19.0066 20.7678L19.4783 19.3192C19.5554 19.0772 19.7712 18.9213 20.0246 18.9213H21.9729C22.2264 18.9213 22.4429 19.0772 22.5192 19.3192L22.9909 20.7678C23.0516 20.9606 23.1952 21.096 23.3912 21.1468C24.2189 21.3634 25.0023 21.6907 25.7234 22.114C25.8981 22.2141 26.0958 22.2206 26.2746 22.1279L27.6322 21.4372C27.8578 21.3207 28.1203 21.3626 28.3 21.5422L29.6789 22.9212C29.8577 23.1 29.8996 23.3633 29.7839 23.5889L29.0932 24.9465C29.0005 25.1278 29.0071 25.323 29.1096 25.4978C29.5304 26.2213 29.8586 27.0047 30.0768 27.8324C30.1276 28.0251 30.263 28.1695 30.4533 28.2327L31.902 28.7027C32.1439 28.7815 32.2998 28.9956 32.2998 29.2491V30.2236H37.9034C38.1289 30.2236 38.3152 30.0398 38.3152 29.8142V5.60765H38.3168ZM13.3916 7.90944H7.10391C6.72984 7.90944 6.42715 8.21214 6.42715 8.5862V10.6181C6.42715 10.9922 6.72984 11.2973 7.10391 11.2973H13.3916C13.7657 11.2973 14.0684 10.993 14.0684 10.6181V8.5862C14.0684 8.21214 13.7657 7.90944 13.3916 7.90944ZM13.3916 12.737H7.10391C6.72984 12.737 6.42715 13.0389 6.42715 13.4137V15.4457C6.42715 15.8197 6.72984 16.1224 7.10391 16.1224H13.3916C13.7657 16.1224 14.0684 15.8205 14.0684 15.4457V13.4137C14.0684 13.0397 13.7657 12.737 13.3916 12.737ZM35.0142 8.92581H29.9988C29.6248 8.92581 29.3221 9.22851 29.3221 9.60257C29.3221 9.97663 29.6239 10.2818 29.9988 10.2818H35.0142C35.3883 10.2818 35.6934 9.97745 35.6934 9.60257C35.6934 9.22851 35.3891 8.92581 35.0142 8.92581ZM26.9505 10.2818H27.9669C28.341 10.2818 28.6437 9.97745 28.6437 9.60257C28.6437 9.22851 28.341 8.92581 27.9669 8.92581H26.9505C26.5765 8.92581 26.2738 9.22851 26.2738 9.60257C26.2738 9.97663 26.5757 10.2818 26.9505 10.2818ZM35.0142 13.7534H32.5073C32.1333 13.7534 31.8281 14.056 31.8281 14.4301C31.8281 14.8042 32.1325 15.1069 32.5073 15.1069H35.0142C35.3883 15.1069 35.6934 14.8042 35.6934 14.4301C35.6934 14.0552 35.3891 13.7534 35.0142 13.7534ZM30.3803 13.7534H26.9505C26.5765 13.7534 26.2738 14.056 26.2738 14.4301C26.2738 14.8042 26.5765 15.1069 26.9505 15.1069H30.3803C30.7543 15.1069 31.057 14.8042 31.057 14.4301C31.057 14.0552 30.7543 13.7534 30.3803 13.7534Z" fill="#0B0D10"/>
</g>
<defs>
<clipPath id="clip0_1070_11894">
<rect width="42" height="42" fill="white"/>
</clipPath>
</defs>
</svg>
