<svg width="42" height="42" viewBox="0 0 42 42" fill="none" xmlns="http://www.w3.org/2000/svg">
<path d="M38.0457 27.8075L37.7307 25.55L34.9832 6.3175C34.8173 5.17251 34.2453 4.12534 33.3714 3.36714C32.4975 2.60893 31.3801 2.19025 30.2232 2.1875H11.7782C10.6213 2.19025 9.50389 2.60893 8.63003 3.36714C7.75616 4.12534 7.18408 5.17251 7.01821 6.3175L4.27071 25.55L3.95571 27.8075C3.94122 27.8706 3.93533 27.9353 3.93821 28C3.93293 28.3151 4.04523 28.6208 4.25321 28.8575C4.37662 29.001 4.52973 29.1161 4.70195 29.1946C4.87418 29.2732 5.06141 29.3134 5.25071 29.3125H36.7507C36.94 29.3134 37.1272 29.2732 37.2995 29.1946C37.4717 29.1161 37.6248 29.001 37.7482 28.8575C37.9562 28.6208 38.0685 28.3151 38.0632 28C38.0661 27.9353 38.0602 27.8706 38.0457 27.8075ZM24.9032 26.6875C24.8095 27.1063 24.5968 27.4892 24.2907 27.79C24.0909 27.9962 23.8515 28.1598 23.5868 28.2711C23.3222 28.3823 23.0378 28.4389 22.7507 28.4375H19.2507C18.7475 28.4372 18.2599 28.2628 17.8707 27.9438C17.4815 27.6248 17.2147 27.1809 17.1157 26.6875H6.75571L7.24571 23.24L9.62571 6.685C9.7004 6.16667 9.95885 5.69242 10.354 5.34871C10.7491 5.005 11.2545 4.8147 11.7782 4.8125H30.2232C30.7469 4.8147 31.2524 5.005 31.6475 5.34871C32.0426 5.69242 32.301 6.16667 32.3757 6.685L34.7557 23.24L35.2457 26.6875H24.9032Z" fill="#0B0D10"/>
<path d="M38.0625 27.125V35C38.063 35.6321 37.9388 36.2581 37.6971 36.8422C37.4554 37.4263 37.1009 37.957 36.654 38.404C36.207 38.851 35.6763 39.2054 35.0922 39.4471C34.5081 39.6888 33.8821 39.813 33.25 39.8125H8.75C8.11789 39.813 7.49188 39.6888 6.90779 39.4471C6.32371 39.2054 5.793 38.851 5.34602 38.404C4.89905 37.957 4.54458 37.4263 4.30289 36.8422C4.06121 36.2581 3.93704 35.6321 3.9375 35V27.125C3.94003 26.1908 4.27376 25.2878 4.87936 24.5764C5.48495 23.8651 6.32317 23.3916 7.245 23.24C7.45319 23.2051 7.66391 23.1876 7.875 23.1875H14C14.8111 23.1912 15.5879 23.515 16.1614 24.0886C16.735 24.6621 17.0588 25.4389 17.0625 26.25C17.0616 26.3975 17.0793 26.5444 17.115 26.6875C17.214 27.1809 17.4808 27.6248 17.87 27.9438C18.2592 28.2628 18.7468 28.4372 19.25 28.4375H22.75C23.0371 28.4389 23.3215 28.3823 23.5861 28.2711C23.8508 28.1598 24.0902 27.9962 24.29 27.79C24.5961 27.4892 24.8088 27.1063 24.9025 26.6875C24.9236 26.5426 24.9352 26.3964 24.9375 26.25C24.9412 25.4389 25.265 24.6621 25.8386 24.0886C26.4121 23.515 27.1889 23.1912 28 23.1875H34.125C34.3361 23.1876 34.5468 23.2051 34.755 23.24C35.6768 23.3916 36.5151 23.8651 37.1206 24.5764C37.7262 25.2878 38.06 26.1908 38.0625 27.125Z" fill="#0B0D10"/>
<path d="M26.25 18.8125H15.75C15.4019 18.8125 15.0681 18.6742 14.8219 18.4281C14.5758 18.1819 14.4375 17.8481 14.4375 17.5C14.4375 17.1519 14.5758 16.8181 14.8219 16.5719C15.0681 16.3258 15.4019 16.1875 15.75 16.1875H26.25C26.5981 16.1875 26.9319 16.3258 27.1781 16.5719C27.4242 16.8181 27.5625 17.1519 27.5625 17.5C27.5625 17.8481 27.4242 18.1819 27.1781 18.4281C26.9319 18.6742 26.5981 18.8125 26.25 18.8125Z" fill="#0B0D10"/>
<path d="M26.25 11.8125H15.75C15.4019 11.8125 15.0681 11.6742 14.8219 11.4281C14.5758 11.1819 14.4375 10.8481 14.4375 10.5C14.4375 10.1519 14.5758 9.81806 14.8219 9.57192C15.0681 9.32578 15.4019 9.1875 15.75 9.1875H26.25C26.5981 9.1875 26.9319 9.32578 27.1781 9.57192C27.4242 9.81806 27.5625 10.1519 27.5625 10.5C27.5625 10.8481 27.4242 11.1819 27.1781 11.4281C26.9319 11.6742 26.5981 11.8125 26.25 11.8125Z" fill="#0B0D10"/>
</svg>
