<svg width="42" height="42" viewBox="0 0 42 42" fill="none" xmlns="http://www.w3.org/2000/svg">
<path fill-rule="evenodd" clip-rule="evenodd" d="M20.4934 24.5003H21.6261C21.6917 25.4952 22.5199 26.2814 23.5318 26.2814H24.9677C25.5518 26.2814 26.1122 26.0491 26.5256 25.6369C26.9391 25.2235 27.1714 24.6631 27.1714 24.079V18.0139C27.1714 17.1713 26.691 16.4035 25.935 16.0334L22.0172 14.1224C21.4069 13.8244 20.6942 13.8244 20.0839 14.1224L16.1661 16.0334C15.4101 16.4035 14.9297 17.1713 14.9297 18.0139V24.079C14.9297 24.6631 15.162 25.2235 15.5754 25.6369C15.9876 26.0491 16.548 26.2814 17.1321 26.2814H18.5876C19.0942 26.2814 19.5799 26.0806 19.9382 25.7223C20.2663 25.3941 20.4619 24.9597 20.4934 24.5003Z" fill="#0B0D10"/>
<path fill-rule="evenodd" clip-rule="evenodd" d="M31.6163 4.88257C31.6163 2.89019 30.0006 1.27319 28.0069 1.27319H14.0957C12.102 1.27319 10.4863 2.89019 10.4863 4.88257V36.3826C10.4863 38.3763 12.102 39.9919 14.0957 39.9919H28.0069C30.0006 39.9919 31.6163 38.3763 31.6163 36.3826V4.88257ZM29.6475 4.88257V36.3826C29.6475 37.2895 28.9125 38.0232 28.0069 38.0232H14.0957C13.1888 38.0232 12.4551 37.2895 12.4551 36.3826C12.4551 29.6179 12.4551 11.6485 12.4551 4.88257C12.4551 3.97694 13.1888 3.24194 14.0957 3.24194H28.0069C28.9125 3.24194 29.6475 3.97694 29.6475 4.88257Z" fill="#0B0D10"/>
<path fill-rule="evenodd" clip-rule="evenodd" d="M27.9277 3.57007V2.25757C27.9277 1.71419 27.4867 1.27319 26.9434 1.27319H15.1309L14.1465 2.27594V3.57007C14.1465 4.35363 14.4575 5.10569 15.0114 5.65826C15.5653 6.21213 16.3174 6.52319 17.0996 6.52319H24.9746C25.7582 6.52319 26.5089 6.21213 27.0628 5.65826C27.6167 5.10569 27.9277 4.35363 27.9277 3.57007Z" fill="#0B0D10"/>
<path fill-rule="evenodd" clip-rule="evenodd" d="M17.0996 34.7419H24.9746C25.518 34.7419 25.959 34.3009 25.959 33.7576C25.959 33.2155 25.518 32.7732 24.9746 32.7732H17.0996C16.5562 32.7732 16.1152 33.2155 16.1152 33.7576C16.1152 34.3009 16.5562 34.7419 17.0996 34.7419Z" fill="#0B0D10"/>
</svg>
