<svg width="34" height="34" viewBox="0 0 34 34" fill="none" xmlns="http://www.w3.org/2000/svg">
<path fill-rule="evenodd" clip-rule="evenodd" d="M9.14259 14.9996C9.14259 10.5817 12.6604 7 17 7C21.3391 7 24.8569 10.5817 24.8569 14.9996C24.8569 17.2086 23.9778 19.2078 22.5572 20.6554C22.186 21.0334 21.6834 21.4553 21.14 21.9123C19.6015 23.2049 17.7343 24.7738 17.5889 26.3998C17.5598 26.7296 17.3251 27 16.9994 27C16.6743 27 16.4397 26.7296 16.4105 26.3998C16.2652 24.7738 14.398 23.2049 12.8594 21.9123C12.3166 21.4553 11.8141 21.0334 11.4428 20.6554C9.9676 19.1568 9.13977 17.1214 9.14259 14.9996ZM19.7503 15.0002C19.7724 16.5466 18.5591 17.8185 17.0404 17.841C15.5216 17.8635 14.2724 16.6282 14.2503 15.0818C14.2499 15.0546 14.2499 15.0274 14.2503 15.0002C14.2724 13.4539 15.5216 12.2185 17.0404 12.2411C18.528 12.2631 19.7286 13.4856 19.7503 15.0002Z" fill="#0B0D10"/>
</svg>
