<svg width="42" height="42" viewBox="0 0 42 42" fill="none" xmlns="http://www.w3.org/2000/svg">
<path d="M31.1415 2.625H18.2622C17.5661 2.62574 16.8986 2.90262 16.4064 3.39488C15.9141 3.88714 15.6373 4.55457 15.6365 5.25073V14.0044L9.06001 24.9687C8.51911 25.872 8.23311 26.905 8.23242 27.9579V38.7287C8.23583 38.9006 8.30649 39.0642 8.42923 39.1846C8.55197 39.3049 8.71701 39.3723 8.88889 39.3723C9.06078 39.3723 9.2258 39.3048 9.34853 39.1845C9.47126 39.0642 9.5419 38.9005 9.54528 38.7286V27.9579C9.54593 27.1427 9.76746 26.343 10.1863 25.6437L15.6365 16.5563V19.574C15.6397 19.746 15.7102 19.9099 15.833 20.0304C15.9557 20.1509 16.1209 20.2184 16.2929 20.2184C16.465 20.2184 16.6301 20.1509 16.7529 20.0303C16.8756 19.9098 16.9462 19.7459 16.9494 19.5739V5.25073C16.9497 4.90266 17.0882 4.56896 17.3343 4.32283C17.5804 4.07671 17.9141 3.93826 18.2622 3.93786H31.1415C31.4896 3.93826 31.8233 4.07671 32.0694 4.32283C32.3155 4.56896 32.454 4.90266 32.4544 5.25073V29.7752C32.4539 30.1233 32.3155 30.457 32.0693 30.7031C31.8232 30.9492 31.4896 31.0876 31.1415 31.0881H21.6623C21.4899 31.0906 21.3254 31.1609 21.2043 31.2837C21.0832 31.4065 21.0154 31.5721 21.0154 31.7445C21.0154 31.917 21.0833 32.0825 21.2043 32.2054C21.3254 32.3282 21.4899 32.3985 21.6624 32.401H25.0725C24.5122 34.6902 23.1323 35.1691 23.0533 37.1536L23.0534 38.7287C23.0561 38.901 23.1265 39.0653 23.2493 39.1862C23.3721 39.3071 23.5375 39.3748 23.7099 39.3748C23.8822 39.3748 24.0476 39.3071 24.1704 39.1862C24.2932 39.0653 24.3636 38.901 24.3663 38.7287V37.1537C24.3686 36.7265 24.5091 36.3116 24.7669 35.9709C25.5431 34.8965 26.1098 33.6854 26.4373 32.4009H31.1415C31.8377 32.4003 32.5051 32.1234 32.9974 31.6311C33.4897 31.1389 33.7665 30.4714 33.7672 29.7752V5.25073C33.7665 4.55457 33.4896 3.88714 32.9974 3.39488C32.5051 2.90262 31.8377 2.62574 31.1415 2.625Z" fill="#ACACAC"/>
<path d="M27.0005 6.04627C27.1724 6.04291 27.3361 5.97227 27.4564 5.84953C27.5768 5.72679 27.6442 5.56173 27.6442 5.38981C27.6442 5.2179 27.5768 5.05284 27.4564 4.93011C27.336 4.80737 27.1723 4.73674 27.0004 4.7334H22.4055C22.2336 4.73675 22.0699 4.80739 21.9495 4.93013C21.8291 5.05288 21.7617 5.21794 21.7617 5.38985C21.7617 5.56177 21.8292 5.72682 21.9495 5.84956C22.0699 5.97229 22.2336 6.04292 22.4055 6.04627H27.0005Z" fill="#ACACAC"/>
<path d="M21.8091 17.1031C21.461 17.0756 21.1116 17.1369 20.7936 17.2811C20.4755 17.4252 20.1992 17.6477 19.9904 17.9275L12.2671 28.2259C12.1641 28.3653 12.1205 28.5396 12.1456 28.711C12.1708 28.8824 12.2626 29.0369 12.4012 29.1408C12.5398 29.2447 12.7139 29.2896 12.8855 29.2657C13.057 29.2418 13.2122 29.151 13.3171 29.0131L21.0404 18.715C21.1104 18.6148 21.2044 18.5338 21.3139 18.4794C21.4233 18.425 21.5447 18.399 21.6668 18.4037C21.789 18.4084 21.908 18.4437 22.0129 18.5064C22.1178 18.5691 22.2053 18.6571 22.2674 18.7624C22.9456 19.9314 22.6371 21.4072 21.691 22.7059C19.891 25.4547 18.4685 27.6259 18.4051 31.1215C18.3977 32.046 18.1996 32.9589 17.823 33.8033C17.4464 34.6476 16.8995 35.405 16.2165 36.0281C16.0903 36.1447 16.0148 36.3062 16.0064 36.4779C15.9979 36.6496 16.0572 36.8177 16.1714 36.9462C16.2856 37.0746 16.4456 37.1531 16.6171 37.1649C16.7886 37.1766 16.9578 37.1206 17.0884 37.0088C17.9069 36.2654 18.563 35.3609 19.0155 34.352C19.468 33.3431 19.7072 32.2516 19.7179 31.1459C19.7607 27.9441 21.1791 25.8783 22.9687 23.1514C24.6613 20.6658 24.0825 17.3665 21.8091 17.1031Z" fill="#ACACAC"/>
<path d="M25.5 21.1573C26.6381 21.8651 27.2601 19.5447 27.2354 18.7341C27.2356 17.7816 26.8703 16.8652 26.2147 16.174C25.5592 15.4829 24.6634 15.0697 23.7122 15.0196C23.6259 15.0148 23.5397 15.0271 23.4582 15.0557C23.3768 15.0843 23.3018 15.1288 23.2375 15.1864C23.1733 15.2441 23.121 15.3139 23.0838 15.3918C23.0465 15.4696 23.025 15.5541 23.0204 15.6403C23.0159 15.7265 23.0284 15.8128 23.0572 15.8942C23.0861 15.9756 23.1307 16.0504 23.1885 16.1146C23.2463 16.1787 23.3162 16.2307 23.3942 16.2678C23.4722 16.3049 23.5567 16.3262 23.6429 16.3305C24.2584 16.363 24.838 16.6304 25.2621 17.0776C25.6862 17.5249 25.9226 18.1178 25.9225 18.7341C25.9244 19.2797 25.7388 19.8094 25.3968 20.2345C25.2881 20.3705 25.238 20.5442 25.2573 20.7172C25.2767 20.8903 25.364 21.0486 25.5 21.1573Z" fill="#ACACAC"/>
<path d="M17.5795 16.8178C17.5533 16.9003 17.5438 16.9871 17.5513 17.0733C17.5589 17.1595 17.5834 17.2433 17.6234 17.32C17.6635 17.3967 17.7183 17.4647 17.7847 17.5201C17.8511 17.5756 17.9278 17.6173 18.0104 17.643C18.093 17.6687 18.1799 17.6778 18.266 17.6698C18.3521 17.6619 18.4358 17.6369 18.5123 17.5965C18.5888 17.5561 18.6565 17.5009 18.7116 17.4342C18.7667 17.3675 18.8081 17.2906 18.8334 17.2079C19.1016 16.3866 19.5811 15.6504 20.2239 15.0732C20.8667 14.4959 21.65 14.098 22.4953 13.9192C23.3405 13.7405 24.2179 13.7874 25.0393 14.055C25.8607 14.3227 26.5972 14.8018 27.1749 15.4442C27.7526 16.0866 28.1511 16.8696 28.3303 17.7148C28.5096 18.5599 28.4634 19.4373 28.1962 20.2589C27.9291 21.0805 27.4505 21.8173 26.8085 22.3954C26.1665 22.9735 25.3837 23.3725 24.5387 23.5524C24.3766 23.5793 24.2306 23.6658 24.1291 23.795C24.0277 23.9242 23.9783 24.0866 23.9906 24.2504C24.0029 24.4142 24.076 24.5674 24.1956 24.68C24.3152 24.7926 24.4726 24.8564 24.6368 24.8588C26.0715 24.5984 27.3692 23.8427 28.3037 22.7234C29.2382 21.6041 29.7502 20.1924 29.7504 18.7342C29.6209 11.6522 19.8756 10.1129 17.5795 16.8178Z" fill="#ACACAC"/>
</svg>
