<svg width="41" height="41" viewBox="0 0 41 41" fill="none" xmlns="http://www.w3.org/2000/svg">
<path d="M15.0224 27.0872C13.5031 25.5536 12.6508 23.4822 12.6508 21.3235C12.6508 19.1647 13.5032 17.0933 15.0225 15.5597C21.6016 9.20446 31.9488 16.5501 28.1363 24.8515C28.0671 25.004 28.0604 25.1776 28.1176 25.335C28.1749 25.4924 28.2915 25.6212 28.4426 25.6936C28.5936 25.7661 28.767 25.7765 28.9256 25.7227C29.0842 25.6689 29.2154 25.555 29.2911 25.4056C30.1344 23.6436 30.4107 21.6635 30.0818 19.738C29.753 17.8124 28.8353 16.0362 27.4551 14.6539C21.6152 8.7371 11.2842 13.0139 11.3539 21.3233C11.3505 22.5625 11.593 23.79 12.0672 24.9349C12.5414 26.0797 13.238 27.1192 14.1166 27.993L20.3329 34.2093C20.3923 34.2692 20.4629 34.3168 20.5408 34.3493C20.6186 34.3819 20.7021 34.3987 20.7864 34.3989C20.8708 34.3991 20.9543 34.3826 21.0323 34.3504C21.1102 34.3182 21.1811 34.2709 21.2407 34.2113C21.3003 34.1516 21.3476 34.0808 21.3798 34.0028C21.412 33.9249 21.4285 33.8413 21.4283 33.757C21.4281 33.6726 21.4113 33.5892 21.3787 33.5113C21.3462 33.4335 21.2986 33.3629 21.2387 33.3035L15.0224 27.0872Z" fill="#ACACAC"/>
<path d="M29.1065 12.1794C26.8224 10.125 23.8588 8.98828 20.7867 8.98828C17.7145 8.98828 14.751 10.125 12.4669 12.1794C7.28689 16.6962 7.08323 25.3166 12.0454 30.0652L16.1894 34.2096C16.3102 34.326 16.472 34.3903 16.6398 34.3887C16.8076 34.3871 16.968 34.3197 17.0867 34.2011C17.2053 34.0824 17.2727 33.922 17.2743 33.7542C17.2759 33.5864 17.2115 33.4246 17.0951 33.3038L12.9511 29.1594C8.50403 24.9023 8.68509 17.1749 13.3303 13.1266C22.3169 5.2167 35.6914 14.8913 30.8868 25.8896C30.7181 26.2431 30.4672 26.5511 30.1551 26.7879C29.843 27.0246 29.4787 27.1832 29.0928 27.2503C28.7068 27.3175 28.3104 27.2913 27.9367 27.1739C27.563 27.0565 27.2228 26.8514 26.9445 26.5757C26.6456 26.2657 26.4529 25.8688 26.3941 25.4423C26.3354 25.0157 26.4137 24.5815 26.6177 24.2023C27.3243 22.7835 27.4865 21.155 27.0736 19.6247C26.6607 18.0945 25.7013 16.7686 24.3769 15.8978C20.4133 13.1428 14.6889 15.9245 14.3152 20.6974C14.2216 21.6524 14.3412 22.6164 14.6653 23.5197C14.9894 24.423 15.5099 25.243 16.1894 25.9208L24.4779 34.2096C24.5988 34.326 24.7605 34.3903 24.9283 34.3887C25.0961 34.3871 25.2566 34.3198 25.3752 34.2011C25.4939 34.0824 25.5612 33.922 25.5628 33.7542C25.5644 33.5864 25.5001 33.4247 25.3837 33.3038L17.0952 25.0149C12.7593 20.5387 18.3858 13.5874 23.6607 16.9601C24.7262 17.659 25.4986 18.7243 25.8319 19.9542C26.1651 21.1842 26.0361 22.4937 25.4691 23.6349C25.1501 24.2552 25.0335 24.9598 25.1356 25.6498C25.2378 26.3398 25.5536 26.9804 26.0387 27.4816C26.4643 27.9022 26.9845 28.2147 27.5557 28.3928C28.1269 28.5709 28.7325 28.6094 29.3217 28.5052C29.9109 28.4009 30.4665 28.157 30.9419 27.7937C31.4174 27.4304 31.7988 26.9585 32.0542 26.4174C33.1326 24.0376 33.4282 21.377 32.8985 18.8185C32.3689 16.26 31.0412 13.9354 29.1065 12.1794Z" fill="#ACACAC"/>
<path d="M24.1686 27.9455C23.2963 27.0778 22.6047 26.0457 22.1339 24.909C21.6631 23.7723 21.4224 22.5535 21.4257 21.3231C21.4252 21.1536 21.3575 20.9912 21.2374 20.8715C21.1173 20.7518 20.9547 20.6846 20.7852 20.6846C20.6156 20.6846 20.453 20.7518 20.3329 20.8715C20.2128 20.9912 20.1451 21.1536 20.1446 21.3231C20.1408 22.7218 20.4145 24.1073 20.9497 25.3995C21.4849 26.6917 22.2711 27.8649 23.2627 28.8513L26.5486 32.1368C26.6695 32.2532 26.8312 32.3175 26.999 32.3159C27.1668 32.3143 27.3272 32.2469 27.4459 32.1283C27.5645 32.0096 27.6319 31.8491 27.6335 31.6814C27.6351 31.5136 27.5708 31.3518 27.4544 31.231L24.1686 27.9455Z" fill="#ACACAC"/>
<path d="M13.2881 7.99122C13.1436 8.07636 13.0382 8.2148 12.9946 8.37681C12.9511 8.53881 12.9728 8.71144 13.0551 8.8576C13.1375 9.00376 13.2739 9.11179 13.435 9.15846C13.5962 9.20513 13.7692 9.18672 13.9169 9.10719C23.0528 3.83829 34.9449 10.7571 34.7981 21.3236C34.8012 23.2209 34.4173 25.099 33.6696 26.8429C33.6028 26.9991 33.6007 27.1755 33.6639 27.3332C33.727 27.4909 33.8503 27.6171 34.0065 27.684C34.1627 27.7508 34.3391 27.7529 34.4968 27.6897C34.6546 27.6266 34.7807 27.5033 34.8476 27.3471C35.6635 25.4439 36.0826 23.3942 36.0794 21.3235C36.1984 9.7512 23.3111 2.25713 13.2881 7.99122Z" fill="#ACACAC"/>
<path d="M10.4258 32.3248C10.5516 32.3227 10.674 32.284 10.778 32.2132C10.8821 32.1425 10.9631 32.0429 11.0113 31.9267C11.0594 31.8104 11.0725 31.6827 11.0489 31.5591C11.0254 31.4356 10.9662 31.3216 10.8787 31.2312C5.44343 26.0158 5.44308 16.6311 10.8789 11.4162C10.9949 11.2952 11.0589 11.1336 11.0571 10.966C11.0554 10.7984 10.988 10.6381 10.8694 10.5196C10.7509 10.4011 10.5906 10.3338 10.423 10.3321C10.2554 10.3303 10.0938 10.3944 9.97285 10.5104C4.04007 16.2022 4.04046 26.4453 9.97305 32.1371C10.0324 32.1967 10.103 32.2439 10.1807 32.2761C10.2584 32.3084 10.3417 32.3249 10.4258 32.3248Z" fill="#ACACAC"/>
<path d="M38.4144 16.6963C32.475 -3.8383 2.98275 0.03511 2.5625 21.397C2.56352 21.5666 2.63181 21.729 2.75238 21.8484C2.87296 21.9677 3.03597 22.0344 3.20564 22.0337C3.37532 22.033 3.53779 21.9651 3.65741 21.8447C3.77702 21.7244 3.84401 21.5615 3.84367 21.3918C4.23834 1.52241 31.6583 -2.0604 37.1752 17.0205C37.2204 17.1823 37.3274 17.3199 37.4732 17.4036C37.6189 17.4873 37.7917 17.5103 37.9542 17.4678C38.1168 17.4253 38.2562 17.3206 38.3422 17.1762C38.4283 17.0319 38.4543 16.8596 38.4144 16.6963Z" fill="#ACACAC"/>
<path d="M13.4707 36.6097C11.2678 35.5495 9.31911 34.0272 7.75722 32.1465C6.19532 30.2657 5.05688 28.0705 4.41935 25.7103C4.37352 25.5484 4.26584 25.4111 4.11958 25.3279C3.97331 25.2447 3.80021 25.2224 3.63764 25.2658C3.47508 25.3092 3.3361 25.4148 3.25072 25.5598C3.16535 25.7047 3.14043 25.8775 3.18135 26.0407C3.8645 28.5808 5.0881 30.9434 6.76849 32.967C8.44888 34.9906 10.5464 36.6275 12.9177 37.7658C13.071 37.8389 13.247 37.8482 13.4071 37.7916C13.5672 37.735 13.6983 37.6171 13.7716 37.4639C13.8449 37.3108 13.8544 37.1347 13.798 36.9746C13.7415 36.8144 13.6239 36.6832 13.4707 36.6097Z" fill="#ACACAC"/>
<path d="M23.0736 21.322C23.0736 21.4919 23.1411 21.6548 23.2612 21.775C23.3813 21.8951 23.5443 21.9626 23.7142 21.9626C23.8841 21.9626 24.047 21.8951 24.1671 21.775C24.2873 21.6548 24.3548 21.4919 24.3548 21.322C24.3535 20.3758 23.9767 19.4687 23.3072 18.8001C22.6376 18.1314 21.7301 17.7559 20.7838 17.7559C19.8376 17.7559 18.93 18.1314 18.2605 18.8001C17.5909 19.4687 17.2142 20.3758 17.2129 21.322C17.2161 21.4898 17.285 21.6496 17.4048 21.7672C17.5246 21.8847 17.6857 21.9505 17.8535 21.9505C18.0213 21.9505 18.1824 21.8847 18.3022 21.7671C18.422 21.6496 18.4909 21.4898 18.4941 21.322C18.5008 20.7191 18.7451 20.1433 19.1737 19.7194C19.6024 19.2955 20.181 19.0578 20.7838 19.0578C21.3867 19.0578 21.9653 19.2955 22.3939 19.7194C22.8226 20.1433 23.0668 20.7192 23.0736 21.322Z" fill="#ACACAC"/>
</svg>
