<svg width="42" height="42" viewBox="0 0 42 42" fill="none" xmlns="http://www.w3.org/2000/svg">
<path d="M31.433 16.6108H13.9847V14.8592C13.9847 11.0192 17.151 7.85292 20.991 7.85292C24.0225 7.85292 26.7173 9.8066 27.6604 12.6361C27.8625 13.3097 28.6036 13.7139 29.3446 13.4445C30.0183 13.2424 30.4225 12.5013 30.153 11.7603C28.873 7.78556 25.1678 5.1582 20.991 5.1582C15.6689 5.1582 11.3573 9.46976 11.3573 14.7918V16.5434H10.5489C8.32579 16.5434 6.57422 18.295 6.57422 20.5181V32.7791C6.57422 35.0022 8.32579 36.7538 10.5489 36.7538H31.3657C33.5888 36.7538 35.3404 35.0022 35.3404 32.7791V20.5855C35.4077 18.3623 33.5888 16.6108 31.433 16.6108ZM22.3383 29.9496C22.3383 30.6907 21.732 31.297 20.991 31.297C20.2499 31.297 19.6436 30.6907 19.6436 29.9496V25.0991C19.6436 24.3581 20.2499 23.7518 20.991 23.7518C21.732 23.7518 22.3383 24.3581 22.3383 25.0991V29.9496Z" fill="#ACACAC"/>
</svg>
