<svg width="49" height="42" viewBox="0 0 49 42" fill="none" xmlns="http://www.w3.org/2000/svg">
<path d="M31.146 24.3409C32.9914 24.3409 34.4874 22.8449 34.4874 20.9995C34.4874 19.1542 32.9914 17.6582 31.146 17.6582C29.3007 17.6582 27.8047 19.1542 27.8047 20.9995C27.8047 22.8449 29.3007 24.3409 31.146 24.3409Z" fill="#ACACAC"/>
<path d="M43.6734 24.3409C45.5187 24.3409 47.0147 22.8449 47.0147 20.9995C47.0147 19.1542 45.5187 17.6582 43.6734 17.6582C41.828 17.6582 40.332 19.1542 40.332 20.9995C40.332 22.8449 41.828 24.3409 43.6734 24.3409Z" fill="#ACACAC"/>
<path d="M6.72235 15.1364V27.5H4.10835V17.6175H4.03591L1.20459 19.3924V17.0742L4.26531 15.1364H6.72235Z" fill="#ACACAC"/>
<path d="M11.8433 25.3267V23.2681L17.0049 15.1364H18.7797V17.9858H17.7293L14.4754 23.1353V23.2319H21.8103V25.3267H11.8433ZM17.7776 27.5V24.6989L17.8259 23.7873V15.1364H20.2769V27.5H17.7776Z" fill="#ACACAC"/>
</svg>
