<svg width="44" height="44" viewBox="0 0 44 44" fill="none" xmlns="http://www.w3.org/2000/svg">
<g clip-path="url(#clip0_319_3256)">
<rect width="44" height="44" rx="10" fill="url(#paint0_linear_319_3256)"/>
<rect x="12.1628" width="8.97619" height="22.5431" fill="white"/>
<path opacity="0.4" d="M23.1694 0.000176297H32.1456L44.8619 0L44.3276 33.7635L23.1694 20.0255V0.000176297Z" fill="#A6928D"/>
<path opacity="0.4" d="M10.8462 43.9998H1.87L-10.8463 44L-10.312 10.2365L10.8462 23.9745V43.9998Z" fill="#A6928D"/>
<path opacity="0.4" d="M9.98618 8.84767V-0.328125L0.552734 0.0327107V4.77529L8.23721 9.85744C9.41911 10.3426 9.98618 10.1364 9.98618 8.84767Z" fill="#A6928D"/>
<path opacity="0.4" d="M23.1694 34.5005L23.1694 44.3004L41.4958 44.8984L32.6029 38.5729L24.9184 33.4908C23.7365 33.0056 23.1694 33.2118 23.1694 34.5005Z" fill="#A6928D"/>
<g filter="url(#filter0_d_319_3256)">
<circle cx="16.651" cy="27.296" r="9.76918" fill="white"/>
</g>
<circle cx="16.651" cy="27.2959" r="8.18506" fill="white"/>
<g clip-path="url(#clip1_319_3256)">
<path fill-rule="evenodd" clip-rule="evenodd" d="M11.151 25.8956C11.151 22.8031 13.6135 20.2959 16.6512 20.2959C19.6885 20.2959 22.151 22.8031 22.151 25.8956C22.151 27.4419 21.5357 28.8413 20.5412 29.8547C20.2814 30.1193 19.9296 30.4146 19.5492 30.7345C18.4722 31.6393 17.1652 32.7376 17.0635 33.8757C17.043 34.1066 16.8788 34.2959 16.6508 34.2959C16.4232 34.2959 16.259 34.1066 16.2385 33.8757C16.1368 32.7376 14.8298 31.6393 13.7528 30.7345C13.3728 30.4146 13.021 30.1193 12.7612 29.8547C11.7285 28.8057 11.149 27.3809 11.151 25.8956ZM18.5764 25.8961C18.5919 26.9785 17.7426 27.8688 16.6795 27.8846C15.6163 27.9004 14.7419 27.0356 14.7264 25.9532C14.7262 25.9341 14.7262 25.9151 14.7264 25.8961C14.7419 24.8136 15.6163 23.9489 16.6795 23.9646C17.7208 23.9801 18.5612 24.8358 18.5764 25.8961Z" fill="url(#paint1_linear_319_3256)"/>
<path fill-rule="evenodd" clip-rule="evenodd" d="M11.151 25.8956C11.151 22.8031 13.6135 20.2959 16.6512 20.2959C19.6885 20.2959 22.151 22.8031 22.151 25.8956C22.151 27.4419 21.5357 28.8413 20.5412 29.8547C20.2814 30.1193 19.9296 30.4146 19.5492 30.7345C18.4722 31.6393 17.1652 32.7376 17.0635 33.8757C17.043 34.1066 16.8788 34.2959 16.6508 34.2959C16.4232 34.2959 16.259 34.1066 16.2385 33.8757C16.1368 32.7376 14.8298 31.6393 13.7528 30.7345C13.3728 30.4146 13.021 30.1193 12.7612 29.8547C11.7285 28.8057 11.149 27.3809 11.151 25.8956ZM18.5764 25.8961C18.5919 26.9785 17.7426 27.8688 16.6795 27.8846C15.6163 27.9004 14.7419 27.0356 14.7264 25.9532C14.7262 25.9341 14.7262 25.9151 14.7264 25.8961C14.7419 24.8136 15.6163 23.9489 16.6795 23.9646C17.7208 23.9801 18.5612 24.8358 18.5764 25.8961Z" fill="#FF4433"/>
</g>
</g>
<defs>
<filter id="filter0_d_319_3256" x="2.88184" y="11.5269" width="27.5383" height="27.5386" filterUnits="userSpaceOnUse" color-interpolation-filters="sRGB">
<feFlood flood-opacity="0" result="BackgroundImageFix"/>
<feColorMatrix in="SourceAlpha" type="matrix" values="0 0 0 0 0 0 0 0 0 0 0 0 0 0 0 0 0 0 127 0" result="hardAlpha"/>
<feOffset dy="-2"/>
<feGaussianBlur stdDeviation="2"/>
<feComposite in2="hardAlpha" operator="out"/>
<feColorMatrix type="matrix" values="0 0 0 0 0 0 0 0 0 0 0 0 0 0 0 0 0 0 0.25 0"/>
<feBlend mode="normal" in2="BackgroundImageFix" result="effect1_dropShadow_319_3256"/>
<feBlend mode="normal" in="SourceGraphic" in2="effect1_dropShadow_319_3256" result="shape"/>
</filter>
<linearGradient id="paint0_linear_319_3256" x1="36.9978" y1="2.27523" x2="22" y2="44" gradientUnits="userSpaceOnUse">
<stop stop-color="#E0E8EB"/>
<stop offset="1" stop-color="white"/>
</linearGradient>
<linearGradient id="paint1_linear_319_3256" x1="16.651" y1="20.2959" x2="16.651" y2="34.2959" gradientUnits="userSpaceOnUse">
<stop stop-color="#FF6122"/>
<stop offset="1" stop-color="#F22411"/>
</linearGradient>
<clipPath id="clip0_319_3256">
<rect width="44" height="44" rx="10" fill="white"/>
</clipPath>
<clipPath id="clip1_319_3256">
<rect width="11" height="14" fill="white" transform="translate(11.151 20.2959)"/>
</clipPath>
</defs>
</svg>
