<svg width="50" height="50" viewBox="0 0 50 50" fill="none" xmlns="http://www.w3.org/2000/svg">
<rect width="50" height="50" rx="10" fill="url(#paint0_linear_4516_20565)"/>
<g filter="url(#filter0_d_4516_20565)">
<rect x="7.2793" y="12.1865" width="35.4419" height="23.8245" rx="3" fill="url(#paint1_linear_4516_20565)" fill-opacity="0.41" shape-rendering="crispEdges"/>
<rect x="7.7793" y="12.6865" width="34.4419" height="22.8245" rx="2.5" stroke="white" shape-rendering="crispEdges"/>
</g>
<path d="M20.6025 22.7555L8.45312 34.9048C8.90682 35.4446 9.35862 35.6891 10.4813 36.0112H39.7477C40.8883 35.555 40.9694 35.1977 41.3023 34.7847L29.5147 22.7555C26.0824 19.1086 22.5722 20.4737 20.6025 22.7555Z" fill="url(#paint2_linear_4516_20565)" stroke="white"/>
<path d="M20.6025 25.5785L8.45312 14.1036C8.90682 13.5938 9.35862 13.3628 10.4813 13.0586H39.7477C40.8883 13.4895 41.3311 13.7135 41.664 14.1036L29.5147 25.5785C26.0824 29.0229 22.5722 27.7336 20.6025 25.5785Z" fill="url(#paint3_linear_4516_20565)" stroke="url(#paint4_linear_4516_20565)"/>
<defs>
<filter id="filter0_d_4516_20565" x="3.2793" y="8.18652" width="43.4419" height="31.8245" filterUnits="userSpaceOnUse" color-interpolation-filters="sRGB">
<feFlood flood-opacity="0" result="BackgroundImageFix"/>
<feColorMatrix in="SourceAlpha" type="matrix" values="0 0 0 0 0 0 0 0 0 0 0 0 0 0 0 0 0 0 127 0" result="hardAlpha"/>
<feOffset/>
<feGaussianBlur stdDeviation="2"/>
<feComposite in2="hardAlpha" operator="out"/>
<feColorMatrix type="matrix" values="0 0 0 0 0.607692 0 0 0 0 0.54839 0 0 0 0 0.452848 0 0 0 0.33 0"/>
<feBlend mode="normal" in2="BackgroundImageFix" result="effect1_dropShadow_4516_20565"/>
<feBlend mode="normal" in="SourceGraphic" in2="effect1_dropShadow_4516_20565" result="shape"/>
</filter>
<linearGradient id="paint0_linear_4516_20565" x1="42.0429" y1="2.58548" x2="25" y2="50" gradientUnits="userSpaceOnUse">
<stop stop-color="#FFFCB1"/>
<stop offset="1" stop-color="#FFEDD1"/>
</linearGradient>
<linearGradient id="paint1_linear_4516_20565" x1="25.0003" y1="12.1865" x2="25.0003" y2="36.011" gradientUnits="userSpaceOnUse">
<stop stop-color="#FCDFB1"/>
<stop offset="1" stop-color="#436183" stop-opacity="0"/>
</linearGradient>
<linearGradient id="paint2_linear_4516_20565" x1="25.0586" y1="20.5035" x2="25.0586" y2="36.0112" gradientUnits="userSpaceOnUse">
<stop stop-color="#CDAD79"/>
<stop offset="1" stop-color="#FFEBCB"/>
</linearGradient>
<linearGradient id="paint3_linear_4516_20565" x1="25.0586" y1="13.0586" x2="25.0586" y2="27.7054" gradientUnits="userSpaceOnUse">
<stop stop-color="#FFEBCC"/>
<stop offset="1" stop-color="#F7B64E"/>
</linearGradient>
<linearGradient id="paint4_linear_4516_20565" x1="25.0586" y1="13.0586" x2="25.0586" y2="27.7054" gradientUnits="userSpaceOnUse">
<stop stop-color="white" stop-opacity="0"/>
<stop offset="1" stop-color="white"/>
</linearGradient>
</defs>
</svg>
