<svg width="220" height="220" viewBox="0 0 220 220" fill="none" xmlns="http://www.w3.org/2000/svg">
<path fill-rule="evenodd" clip-rule="evenodd" d="M25.5038 109.795C25.5038 66.1589 58.4957 30.259 100.806 25.8534L92.2546 31.8192C90.7786 32.8491 90.7786 35.0233 92.2546 36.0529L100.526 41.8236C67.0791 46.2708 41.2697 75.0058 41.2697 109.795C41.2697 118.497 42.8877 126.818 45.8336 134.476L52.0516 130.872L49.8159 157.601L25.6382 146.18L32.039 142.471C27.8294 132.421 25.5042 121.38 25.5042 109.795L25.5038 109.795ZM180.71 137.848L156.532 149.269L162.739 152.866C155.592 161.743 146.283 168.794 135.617 173.211H165.059C169.278 169.489 173.122 165.35 176.528 160.857L182.945 164.576L180.71 137.848V137.848ZM98.2209 33.9362L120.163 49.2443V42.0504C152.865 47.156 177.895 75.5373 177.895 109.795C177.895 119.04 176.068 127.855 172.764 135.903L181.867 131.603C183.493 130.835 185.369 131.922 185.519 133.72L186.393 144.162C191.062 133.664 193.661 122.035 193.661 109.795C193.661 66.782 161.602 31.2932 120.163 26.0691V18.6282L98.2209 33.9362ZM124.6 98.0121C116.442 106.673 102.722 106.673 94.564 98.0121C84.8744 103.347 78.305 113.681 78.305 125.558H140.86C140.86 113.681 134.29 103.347 124.6 98.0121ZM148.114 78.1188C153.718 78.1188 158.261 82.6791 158.261 88.3046C158.261 93.9301 153.718 98.4903 148.114 98.4903C142.51 98.4903 137.967 93.9301 137.967 88.3046C137.967 82.6791 142.51 78.1188 148.114 78.1188ZM71.0502 78.1188C65.4461 78.1188 60.9031 82.6791 60.9031 88.3046C60.9031 93.9301 65.4461 98.4903 71.0502 98.4903C76.6544 98.4903 81.1974 93.9301 81.1974 88.3046C81.1974 82.6791 76.6544 78.1188 71.0502 78.1188ZM109.582 68.1742C101.005 68.1742 94.052 75.1536 94.052 83.7632C94.052 92.3729 101.005 99.3523 109.582 99.3523C118.159 99.3523 125.112 92.3729 125.112 83.7632C125.112 75.1536 118.159 68.1742 109.582 68.1742ZM159.478 98.5612C164.949 102.242 168.551 108.505 168.551 115.613H144.625C142.925 109.572 139.7 104.075 135.275 99.6526C135.75 99.2676 136.242 98.9033 136.75 98.5612C142.825 105.339 153.404 105.339 159.478 98.5612ZM82.4144 98.5612C76.3393 105.339 65.7611 105.339 59.6857 98.5612C54.2151 102.242 50.6138 108.505 50.6138 115.613H74.5389C76.2392 109.572 79.4633 104.075 83.8886 99.6522C83.4143 99.2672 82.9225 98.9028 82.4144 98.5612ZM6.84766 178.368V194.193H79.7094C69.6877 190.621 60.3693 185.267 52.1972 178.368H6.84766ZM187.989 194.193V201.372L212.316 186.281L187.989 171.189V178.368H109.582C87.5515 178.368 67.9596 167.897 55.4688 151.645L54.6251 161.73C54.4749 163.528 52.5987 164.615 50.9725 163.847L41.559 159.4C56.8219 180.453 81.5428 194.153 109.457 194.193H187.99H187.989Z" fill="white"/>
</svg>
