<svg width="54" height="54" viewBox="0 0 54 54" fill="none" xmlns="http://www.w3.org/2000/svg">
<circle cx="27" cy="27" r="26.5" fill="#448BE8" stroke="url(#paint0_linear_12157_64025)"/>
<path fill-rule="evenodd" clip-rule="evenodd" d="M17.8304 11.8516C18.3282 11.6306 18.8983 11.8915 19.0902 12.4014C19.2818 12.9113 19.0225 13.4768 18.5267 13.7022C16.1621 14.7759 14.1147 16.4543 12.595 18.5743C10.8834 20.9622 9.91818 23.8039 9.8216 26.7403C9.72505 29.6767 10.501 32.5761 12.0521 35.0714C13.4291 37.2865 15.362 39.0947 17.6507 40.3214C18.131 40.5788 18.3532 41.161 18.1282 41.6573C17.9033 42.1536 17.3166 42.3758 16.8343 42.1221C14.1909 40.7318 11.9594 38.6599 10.3763 36.1133C8.6191 33.2866 7.73953 30.0015 7.84894 26.6749C7.95843 23.3484 9.05149 20.129 10.9905 17.4239C12.7376 14.9866 15.1012 13.0653 17.8304 11.8516ZM34.9056 12.4014C35.0975 11.8914 35.6684 11.6302 36.1663 11.8516C38.8955 13.0653 41.2581 14.9867 43.0052 17.4239C44.9443 20.129 46.0383 23.3484 46.1478 26.6749C46.2572 30.0015 45.3776 33.2866 43.6204 36.1133C42.0373 38.6601 39.805 40.7317 37.1614 42.1221C36.6792 42.3757 36.0935 42.1535 35.8685 41.6573C35.6435 41.161 35.8648 40.5788 36.345 40.3214C38.6338 39.0947 40.5666 37.2864 41.9437 35.0714C43.4948 32.5762 44.2717 29.6767 44.1751 26.7403C44.0785 23.8038 43.1134 20.9612 41.4017 18.5733C39.8821 16.4535 37.8345 14.7759 35.47 13.7022C34.974 13.477 34.714 12.9114 34.9056 12.4014ZM19.9486 17.6915C20.4753 17.4306 21.0922 17.7136 21.2991 18.2637C21.5061 18.8139 21.2235 19.4215 20.7034 19.6954C19.5374 20.3096 18.5257 21.1896 17.7523 22.2686C16.7713 23.6371 16.2178 25.2655 16.1624 26.9483C16.1071 28.6311 16.5519 30.2927 17.4407 31.7227C18.1417 32.8503 19.0939 33.7949 20.2171 34.4844C20.718 34.7919 20.9598 35.4169 20.7171 35.9522C20.4744 36.4873 19.8407 36.7293 19.3323 36.4346C17.8288 35.5626 16.5564 34.3321 15.6331 32.8467C14.522 31.0593 13.9664 28.9825 14.0355 26.879C14.1047 24.7754 14.7956 22.7391 16.0218 21.0284C17.0407 19.607 18.391 18.4628 19.9486 17.6915ZM32.6966 18.2637C32.9036 17.7136 33.5205 17.4306 34.0472 17.6915C35.6048 18.4628 36.955 19.607 37.9739 21.0284C39.2001 22.7391 39.8911 24.7754 39.9603 26.879C40.0294 28.9825 39.4737 31.0593 38.3626 32.8467C37.4393 34.3321 36.1669 35.5626 34.6634 36.4346C34.1551 36.7292 33.5213 36.4873 33.2786 35.9522C33.036 35.4169 33.2778 34.792 33.7786 34.4844C34.9019 33.7949 35.8541 32.8503 36.555 31.7227C37.4438 30.2927 37.8887 28.6311 37.8333 26.9483C37.7779 25.2654 37.2244 23.6371 36.2435 22.2686C35.47 21.1895 34.4584 20.3096 33.2923 19.6954C32.7723 19.4215 32.4897 18.8138 32.6966 18.2637ZM27.1995 21.7432C30.2288 21.7432 32.6849 24.1993 32.6849 27.2286C32.6848 30.2578 30.2288 32.713 27.1995 32.713C24.1704 32.7128 21.7152 30.2577 21.7152 27.2286C21.7152 24.1994 24.1704 21.7434 27.1995 21.7432Z" fill="url(#paint1_linear_12157_64025)"/>
<defs>
<linearGradient id="paint0_linear_12157_64025" x1="27" y1="0" x2="27" y2="54" gradientUnits="userSpaceOnUse">
<stop stop-color="#33A3D0"/>
<stop offset="1" stop-color="#33A3D0" stop-opacity="0"/>
</linearGradient>
<linearGradient id="paint1_linear_12157_64025" x1="46.1569" y1="27" x2="7.83984" y2="27" gradientUnits="userSpaceOnUse">
<stop stop-color="#D1DFF2" stop-opacity="0.35"/>
<stop offset="0.5" stop-color="white"/>
<stop offset="1" stop-color="#D1DFF2" stop-opacity="0.35"/>
</linearGradient>
</defs>
</svg>
