<svg width="42" height="42" viewBox="0 0 42 42" fill="none" xmlns="http://www.w3.org/2000/svg">
<g clip-path="url(#clip0_3063_17403)">
<path d="M29.6953 0H12.3047C5.50922 0 0 5.50922 0 12.3047V29.6953C0 36.4908 5.50922 42 12.3047 42H29.6953C36.4908 42 42 36.4908 42 29.6953V12.3047C42 5.50922 36.4908 0 29.6953 0ZM17.6777 32.4434C15.435 34.6861 11.7994 34.6861 9.55746 32.4434C7.31473 30.2006 7.31473 26.565 9.55746 24.3223C11.8002 22.0795 15.4358 22.0795 17.6777 24.3223C19.9205 26.565 19.9205 30.2006 17.6777 32.4434ZM17.6777 17.6777C15.435 19.9205 11.7994 19.9205 9.55746 17.6777C7.31473 15.435 7.31473 11.7994 9.55746 9.55664C11.8002 7.31391 15.4358 7.31391 17.6777 9.55664C19.9205 11.7994 19.9205 15.435 17.6777 17.6777ZM32.4434 32.4434C30.2006 34.6861 26.565 34.6861 24.3231 32.4434C22.0804 30.2006 22.0804 26.565 24.3231 24.3223C26.5658 22.0795 30.2014 22.0795 32.4434 24.3223C34.6861 26.565 34.6861 30.2006 32.4434 32.4434ZM32.4434 17.6777C30.2006 19.9205 26.565 19.9205 24.3231 17.6777C22.0804 15.435 22.0804 11.7994 24.3231 9.55664C26.5658 7.31391 30.2014 7.31391 32.4434 9.55664C34.6861 11.7994 34.6861 15.435 32.4434 17.6777Z" fill="white"/>
</g>
<defs>
<clipPath id="clip0_3063_17403">
<rect width="42" height="42" fill="white"/>
</clipPath>
</defs>
</svg>
