<svg width="42" height="42" viewBox="0 0 42 42" fill="none" xmlns="http://www.w3.org/2000/svg">
<g clip-path="url(#clip0_3063_17407)">
<path d="M41.2029 13.9163C40.3015 10.8328 38.7041 8.12856 36.4547 5.87918C32.7134 2.1388 27.3606 0 21.7467 0C21.7027 0 21.6577 0 21.6129 0.000820312C18.8063 0.0174727 16.0746 0.551332 13.4942 1.58583C10.785 2.67266 8.37007 4.26431 6.31699 6.31747C4.26383 8.37063 2.67226 10.7855 1.58535 13.4947C0.550851 16.075 0.0169911 18.8067 0.000420813 21.6133C-0.0345245 27.2754 2.10846 32.6848 5.87878 36.4551C8.12816 38.7045 10.8324 40.302 13.9159 41.2033C15.7262 41.733 17.638 41.9999 19.5714 41.9999C20.7647 41.9999 21.9654 41.8976 23.1554 41.6939C25.226 41.338 26.9831 39.9818 27.8554 38.0666C28.7351 36.1357 28.6021 33.8996 27.5012 32.0851C26.4101 30.2898 25.8439 28.7373 25.8439 27.6296C25.8439 27.0592 25.9944 26.6076 26.3004 26.3008C27.2018 25.4002 29.3639 25.8484 32.0847 27.5016C33.8992 28.6034 36.1353 28.7356 38.0662 27.8558C39.9813 26.9834 41.3376 25.2263 41.6935 23.1558C42.229 20.0391 42.0594 16.8442 41.2029 13.9163ZM8.75094 21.2973C7.11688 20.8599 6.14727 19.1801 6.58474 17.5461C7.02295 15.912 8.70189 14.9424 10.3359 15.3807C11.97 15.8181 12.9396 17.4978 12.5021 19.1319C12.0639 20.7659 10.385 21.7355 8.75094 21.2973ZM15.1066 32.0611C13.9109 33.2569 11.9717 33.2569 10.775 32.0611C9.57921 30.8653 9.57921 28.9253 10.775 27.7294C11.9716 26.5337 13.9108 26.5337 15.1066 27.7294C16.3032 28.9253 16.3032 30.8653 15.1066 32.0611ZM18.645 12.5766C17.0118 13.0148 15.332 12.0452 14.8938 10.4112C14.4564 8.77718 15.426 7.09743 17.06 6.66004C18.694 6.22182 20.373 7.19143 20.8112 8.82541C21.2495 10.4595 20.279 12.1392 18.645 12.5766ZM31.7255 14.6198C30.5289 15.8155 28.5897 15.8155 27.3939 14.6198C26.1973 13.424 26.1973 11.484 27.3939 10.2881C28.5896 9.09234 30.5288 9.09234 31.7255 10.2881C32.9213 11.484 32.9213 13.424 31.7255 14.6198Z" fill="white"/>
</g>
<defs>
<clipPath id="clip0_3063_17407">
<rect width="42" height="42" fill="white"/>
</clipPath>
</defs>
</svg>
