<svg width="42" height="42" viewBox="0 0 42 42" fill="none" xmlns="http://www.w3.org/2000/svg">
<path d="M27.4328 14.5687C23.8891 11.025 17.9828 11.025 14.4391 14.5687C10.8953 18.1125 10.8953 24.0187 14.4391 27.5625C16.2766 29.4 18.6391 30.1875 20.8703 30.1875C23.1016 30.1875 25.5953 29.2687 27.3016 27.5625C31.1078 23.8875 31.1078 18.1125 27.4328 14.5687Z" fill="white"/>
<path d="M10.7656 12.6C11.0281 12.8625 11.4219 12.9937 11.6844 12.9937C11.9469 12.9937 12.3406 12.8625 12.6031 12.6C13.1281 12.075 13.1281 11.2875 12.6031 10.7625L7.09063 5.24995C6.56563 4.72495 5.77813 4.72495 5.25313 5.24995C4.72812 5.77495 4.72812 6.56245 5.25313 7.08745L10.7656 12.6Z" fill="white"/>
<path d="M10.7656 29.4001L5.25313 34.9126C4.72812 35.4376 4.72812 36.2251 5.25313 36.7501C5.51563 37.0126 5.90937 37.1438 6.17187 37.1438C6.43437 37.1438 6.82813 37.0126 7.09063 36.7501L12.6031 31.2376C13.1281 30.7126 13.1281 29.9251 12.6031 29.4001C12.0781 28.8751 11.2906 28.8751 10.7656 29.4001Z" fill="white"/>
<path d="M31.2391 29.4001C30.7141 28.8751 29.9266 28.8751 29.4016 29.4001C28.8766 29.9251 28.8766 30.7126 29.4016 31.2376L34.9141 36.7501C35.1766 37.0126 35.5703 37.1438 35.8328 37.1438C36.0953 37.1438 36.4891 37.0126 36.7516 36.7501C37.2766 36.2251 37.2766 35.4376 36.7516 34.9126L31.2391 29.4001Z" fill="white"/>
<path d="M30.3203 12.9937C30.7141 12.9937 30.9766 12.8625 31.2391 12.6L36.7516 7.08745C37.2766 6.56245 37.2766 5.77495 36.7516 5.24995C36.2266 4.72495 35.4391 4.72495 34.9141 5.24995L29.4016 10.7625C28.8766 11.2875 28.8766 12.075 29.4016 12.6C29.6641 12.8625 29.9266 12.9937 30.3203 12.9937Z" fill="white"/>
<path d="M21 9.1875C21.7875 9.1875 22.3125 8.6625 22.3125 7.875V3.9375C22.3125 3.15 21.7875 2.625 21 2.625C20.2125 2.625 19.6875 3.15 19.6875 3.9375V7.875C19.6875 8.6625 20.2125 9.1875 21 9.1875Z" fill="white"/>
<path d="M9.1875 21C9.1875 20.2125 8.6625 19.6875 7.875 19.6875H3.9375C3.15 19.6875 2.625 20.2125 2.625 21C2.625 21.7875 3.15 22.3125 3.9375 22.3125H7.875C8.6625 22.3125 9.1875 21.7875 9.1875 21Z" fill="white"/>
<path d="M21 32.8125C20.2125 32.8125 19.6875 33.3375 19.6875 34.125V38.0625C19.6875 38.85 20.2125 39.375 21 39.375C21.7875 39.375 22.3125 38.85 22.3125 38.0625V34.125C22.3125 33.3375 21.7875 32.8125 21 32.8125Z" fill="white"/>
<path d="M38.0625 19.6875H34.125C33.3375 19.6875 32.8125 20.2125 32.8125 21C32.8125 21.7875 33.3375 22.3125 34.125 22.3125H38.0625C38.85 22.3125 39.375 21.7875 39.375 21C39.375 20.2125 38.85 19.6875 38.0625 19.6875Z" fill="white"/>
</svg>
