<svg width="42" height="42" viewBox="0 0 42 42" fill="none" xmlns="http://www.w3.org/2000/svg">
<path d="M36.0938 29.5312C37.5435 29.5312 38.7188 28.0622 38.7188 26.25C38.7188 24.4378 37.5435 22.9688 36.0938 22.9688C34.644 22.9688 33.4688 24.4378 33.4688 26.25C33.4688 28.0622 34.644 29.5312 36.0938 29.5312Z" fill="white"/>
<path d="M36.0938 8.53125C37.5435 8.53125 38.7188 7.06218 38.7188 5.25C38.7188 3.43782 37.5435 1.96875 36.0938 1.96875C34.644 1.96875 33.4688 3.43782 33.4688 5.25C33.4688 7.06218 34.644 8.53125 36.0938 8.53125Z" fill="white"/>
<path d="M5.90625 8.53125C7.356 8.53125 8.53125 7.06218 8.53125 5.25C8.53125 3.43782 7.356 1.96875 5.90625 1.96875C4.4565 1.96875 3.28125 3.43782 3.28125 5.25C3.28125 7.06218 4.4565 8.53125 5.90625 8.53125Z" fill="white"/>
<path d="M5.90625 29.5312C7.356 29.5312 8.53125 28.0622 8.53125 26.25C8.53125 24.4378 7.356 22.9688 5.90625 22.9688C4.4565 22.9688 3.28125 24.4378 3.28125 26.25C3.28125 28.0622 4.4565 29.5312 5.90625 29.5312Z" fill="white"/>
<path d="M28.2183 32.8125V30.1875C28.217 30.1043 28.2326 30.0217 28.2642 29.9447L29.5308 26.7816V9.84375C29.5308 9.49565 29.3925 9.16181 29.1464 8.91567C28.9002 8.66953 28.5664 8.53125 28.2183 8.53125C27.8702 8.53125 27.5364 8.66953 27.2902 8.91567C27.0441 9.16181 26.9058 9.49565 26.9058 9.84375V16.4062C26.9058 16.5803 26.8367 16.7472 26.7136 16.8703C26.5905 16.9934 26.4236 17.0625 26.2495 17.0625C26.0755 17.0625 25.9086 16.9934 25.7855 16.8703C25.6624 16.7472 25.5933 16.5803 25.5933 16.4062V7.21875C25.5933 6.87065 25.455 6.53681 25.2089 6.29067C24.9627 6.04453 24.6289 5.90625 24.2808 5.90625C23.9327 5.90625 23.5989 6.04453 23.3527 6.29067C23.1066 6.53681 22.9683 6.87065 22.9683 7.21875V16.4062C22.9683 16.5803 22.8992 16.7472 22.7761 16.8703C22.653 16.9934 22.4861 17.0625 22.312 17.0625C22.138 17.0625 21.9711 16.9934 21.848 16.8703C21.7249 16.7472 21.6558 16.5803 21.6558 16.4062V3.9375C21.6558 3.5894 21.5175 3.25556 21.2714 3.00942C21.0252 2.76328 20.6914 2.625 20.3433 2.625C19.9952 2.625 19.6614 2.76328 19.4152 3.00942C19.1691 3.25556 19.0308 3.5894 19.0308 3.9375V16.4062C19.0308 16.5803 18.9617 16.7472 18.8386 16.8703C18.7155 16.9934 18.5486 17.0625 18.3745 17.0625C18.2005 17.0625 18.0336 16.9934 17.9105 16.8703C17.7874 16.7472 17.7183 16.5803 17.7183 16.4062V7.21875C17.7183 6.87065 17.58 6.53681 17.3339 6.29067C17.0877 6.04453 16.7539 5.90625 16.4058 5.90625C16.0577 5.90625 15.7239 6.04453 15.4777 6.29067C15.2316 6.53681 15.0933 6.87065 15.0933 7.21875V19.6875H16.4058C17.9715 19.6899 19.4724 20.313 20.5795 21.4201C21.6866 22.5272 22.3096 24.0281 22.312 25.5938V26.9062H20.9995V25.5938C20.9982 24.3758 20.5137 23.2082 19.6525 22.347C18.7913 21.4858 17.6237 21.0014 16.4058 21H14.437C14.3214 21.0005 14.2077 20.9704 14.1074 20.9127C14.0072 20.8551 13.9239 20.772 13.8661 20.6719L11.2411 16.1241C11.1591 15.9672 11.0461 15.8286 10.9091 15.7165C10.7721 15.6044 10.6138 15.5212 10.4438 15.4719C10.2738 15.4226 10.0956 15.4082 9.91986 15.4295C9.74414 15.4509 9.57455 15.5075 9.42129 15.5961C9.26804 15.6847 9.13429 15.8034 9.02808 15.945C8.92188 16.0866 8.84542 16.2482 8.80331 16.4202C8.7612 16.5921 8.7543 16.7708 8.78303 16.9455C8.81176 17.1201 8.87552 17.2872 8.97049 17.4366L16.3205 30.1612C16.3739 30.2626 16.4031 30.3749 16.4058 30.4894V32.8125H28.2183Z" fill="white"/>
<path d="M15.0938 34.125H29.5312V40.0312H15.0938V34.125Z" fill="white"/>
</svg>
