<svg width="42" height="42" viewBox="0 0 42 42" fill="none" xmlns="http://www.w3.org/2000/svg">
<path d="M7.00011 24.4999C6.66895 24.501 6.34426 24.4082 6.06378 24.2321C5.78329 24.0561 5.55852 23.804 5.41557 23.5053C5.27262 23.2066 5.21737 22.8734 5.25623 22.5446C5.29509 22.2157 5.42647 21.9046 5.63511 21.6474L22.9601 3.79742C23.0901 3.64741 23.2672 3.54604 23.4623 3.50995C23.6575 3.47386 23.8591 3.50519 24.0341 3.5988C24.2091 3.69241 24.3471 3.84274 24.4254 4.02511C24.5038 4.20748 24.5177 4.41105 24.4651 4.60242L21.1051 15.1374C21.006 15.4026 20.9728 15.6878 21.0081 15.9687C21.0435 16.2495 21.1465 16.5176 21.3083 16.7499C21.47 16.9822 21.6857 17.1718 21.9368 17.3025C22.188 17.4331 22.467 17.5008 22.7501 17.4999H35.0001C35.3313 17.4988 35.656 17.5917 35.9364 17.7677C36.2169 17.9438 36.4417 18.1958 36.5846 18.4945C36.7276 18.7932 36.7828 19.1264 36.744 19.4553C36.7051 19.7841 36.5737 20.0952 36.3651 20.3524L19.0401 38.2024C18.9102 38.3524 18.7331 38.4538 18.5379 38.4899C18.3427 38.526 18.1411 38.4946 17.9661 38.401C17.7911 38.3074 17.6531 38.1571 17.5748 37.9747C17.4965 37.7924 17.4825 37.5888 17.5351 37.3974L20.8951 26.8624C20.9942 26.5973 21.0275 26.312 20.9921 26.0312C20.9567 25.7503 20.8537 25.4822 20.692 25.2499C20.5302 25.0176 20.3145 24.828 20.0634 24.6974C19.8122 24.5668 19.5332 24.499 19.2501 24.4999H7.00011Z" fill="#ACACAC"/>
</svg>
