<svg width="64" height="64" viewBox="0 0 64 64" fill="none" xmlns="http://www.w3.org/2000/svg">
<path opacity="0.3" fill-rule="evenodd" clip-rule="evenodd" d="M29.0509 5.76115C28.6649 8.83102 28.7466 14.515 29.1957 15.7764C29.7301 17.2776 30.2587 17.4305 34.9194 17.4305C39.2559 17.4305 40.288 17.6811 41.5539 19.0396C43.2932 20.9061 43.4975 23.8929 42.0235 25.9079C41.1414 27.115 41.1414 27.5259 42.0235 28.7851C44.0554 31.6867 43.1792 35.3255 40.0593 36.9384C37.4121 38.3072 29.7963 38.3307 26.5625 36.9795C23.5705 35.7291 22.5421 32.5725 24.1351 29.5313C25.0224 27.839 25.0114 27.2392 24.0579 25.1345C23.0516 22.9159 22.6193 22.6719 19.2194 22.4043C17.1662 22.2433 14.9549 21.8684 14.3066 21.5714C13.2965 21.1083 13.0694 21.8507 12.7158 26.7658C12.4607 30.3083 11.6859 33.8773 10.6869 36.1025C9.28057 39.2378 9.18059 40.0715 9.91718 42.5304C10.9199 45.876 13.6346 47.5704 17.9939 47.5704C20.7977 47.5704 20.98 47.7108 21.7121 50.4301C22.1363 52.0032 23.5309 54.3144 24.8122 55.5671C30.5491 61.176 40.2078 58.3451 42.3397 50.4301C43.0719 47.7108 43.2542 47.5704 46.0579 47.5704C50.3819 47.5704 53.1341 45.8723 54.1082 42.6039C54.8087 40.2552 54.7 39.3194 53.3702 36.2253C52.4616 34.1125 51.5441 29.7805 51.1722 25.8469C50.243 16.0234 47.5524 11.6061 40.1843 7.80699C37.4629 6.40364 29.1619 4.87827 29.0509 5.76115ZM15.8768 9.30076C15.271 10.4321 15.41 10.9357 16.5465 11.7318C17.9579 12.7205 17.9587 12.7683 16.5833 14.8649C14.6565 17.8024 15.7584 18.9007 20.6315 18.9007C25.4231 18.9007 27.4314 17.2364 24.9533 15.3192L23.4228 14.1356L24.8997 12.1383C27.0455 9.23532 25.6627 7.87388 20.5676 7.87388C17.4323 7.87388 16.4862 8.16206 15.8768 9.30076ZM27.6475 21.4347C26.0971 23.3026 27.277 24.7817 30.3182 24.7817H33.0669L29.8984 28.0103C27.4556 30.4994 26.8433 31.5933 27.2226 32.7886C27.6644 34.1809 28.2665 34.3382 33.1521 34.3382C37.6878 34.3382 38.7111 34.1126 39.3168 32.9805C40.2798 31.1816 39.0007 29.9275 36.2043 29.9275H34.06L36.763 26.9356C38.4994 25.014 39.3845 23.371 39.2375 22.3411C39.0309 20.8907 38.5148 20.7179 33.7946 20.5246C29.8191 20.3621 28.3584 20.5782 27.6475 21.4347ZM26.1449 49.3546C26.1449 51.5849 29.3118 54.1865 32.0259 54.1865C34.74 54.1865 37.9069 51.5849 37.9069 49.3546C37.9069 47.6145 37.7621 47.5704 32.0259 47.5704C26.2898 47.5704 26.1449 47.6145 26.1449 49.3546Z" fill="#ACACAC"/>
<path fill-rule="evenodd" clip-rule="evenodd" d="M15.8764 9.30076C15.2707 10.4321 15.4096 10.9357 16.5461 11.7318C17.9576 12.7205 17.9583 12.7683 16.5829 14.8649C14.6562 17.8024 15.7581 18.9007 20.6312 18.9007C25.4227 18.9007 27.4311 17.2364 24.953 15.3192L23.4225 14.1356L24.8993 12.1383C27.0452 9.23532 25.6623 7.87388 20.5672 7.87388C17.4319 7.87388 16.4858 8.16206 15.8764 9.30076ZM27.6472 21.4347C26.0968 23.3026 27.2767 24.7817 30.3179 24.7817H33.0665L29.8981 28.0103C27.4553 30.4994 26.8429 31.5933 27.2223 32.7886C27.6641 34.1809 28.2662 34.3382 33.1518 34.3382C37.6875 34.3382 38.7108 34.1126 39.3165 32.9805C40.2795 31.1816 39.0004 29.9275 36.204 29.9275H34.0596L36.7627 26.9356C38.499 25.014 39.3842 23.371 39.2372 22.3411C39.0306 20.8907 38.5145 20.7179 33.7943 20.5246C29.8188 20.3621 28.358 20.5782 27.6472 21.4347Z" fill="#ACACAC"/>
</svg>
