<svg width="64" height="64" viewBox="0 0 64 64" fill="none" xmlns="http://www.w3.org/2000/svg">
<path opacity="0.3" fill-rule="evenodd" clip-rule="evenodd" d="M39.3911 10.5324C33.9435 13.528 35.5956 21.8214 41.6401 21.8214C44.6212 21.8214 46.036 21.04 47.2279 18.7347C49.8052 13.7503 44.2024 7.88622 39.3911 10.5324ZM27.9164 23.1109C26.5489 23.8114 23.8817 25.7686 21.99 27.4608C19.1712 29.9824 18.6253 30.7728 18.9644 31.8412C19.7608 34.352 21.4387 34.0787 25.3828 30.7961C28.992 27.7928 31.0917 26.6153 32.8385 26.6153C34.2899 26.6153 33.8069 27.8617 31.3015 30.5798C29.348 32.6987 28.9045 33.6185 28.9045 35.5475C28.9045 38.0403 28.9471 38.0966 35.6531 44.4677C37.3765 46.1048 38.7649 48.1518 39.475 50.1011C40.8814 53.9655 42.2093 54.9243 43.8626 53.2704C44.9808 52.1528 45.0018 51.9 44.1994 49.234C43.0393 45.3785 40.3002 41.5542 36.7227 38.7959C35.0874 37.5345 33.738 36.0904 33.7242 35.5858C33.7098 35.0818 34.6428 33.7785 35.7969 32.6897C36.9511 31.6015 38.059 30.0573 38.2598 29.2585C38.8302 26.985 37.9739 23.7437 36.5376 22.7376C34.6949 21.4469 30.8401 21.6141 27.9164 23.1109ZM48.5025 28.7893C48.2957 28.996 46.5939 29.3334 44.7207 29.5383C40.9222 29.9542 39.4876 31.1952 40.6531 33.057C42.3615 35.786 52.2747 33.9056 52.2747 30.8525C52.2747 29.3717 49.4601 27.8317 48.5025 28.7893ZM26.1445 45.0286C25.2073 46.257 23.5576 48.0379 22.4777 48.9853C20.426 50.7872 20.0203 52.2469 21.2343 53.461C22.5874 54.814 24.0861 54.1783 27.4316 50.8327C31.1121 47.1522 32.0421 45.4318 31.2098 43.8433C30.2708 42.0522 28.0111 42.5807 26.1445 45.0286Z" fill="url(#paint0_linear_978_4550)"/>
<path fill-rule="evenodd" clip-rule="evenodd" d="M35.2427 10.5324C29.7951 13.528 31.4471 21.8214 37.4916 21.8214C40.4728 21.8214 41.8876 21.04 43.0795 18.7347C45.6568 13.7503 40.0539 7.88622 35.2427 10.5324ZM23.768 23.1109C22.4005 23.8114 19.7333 25.7686 17.8415 27.4608C15.0227 29.9824 14.4768 30.7728 14.816 31.8412C15.6124 34.352 17.2902 34.0787 21.2344 30.7961C24.8436 27.7928 26.9433 26.6153 28.6901 26.6153C30.1414 26.6153 29.6584 27.8617 27.153 30.5798C25.1995 32.6987 24.7561 33.6185 24.7561 35.5475C24.7561 38.0403 24.7986 38.0966 31.5047 44.4677C33.2281 46.1048 34.6165 48.1518 35.3266 50.1011C36.733 53.9655 38.0609 54.9243 39.7142 53.2704C40.8324 52.1528 40.8533 51.9 40.0509 49.234C38.8908 45.3785 36.1517 41.5542 32.5743 38.7959C30.939 37.5345 29.5895 36.0904 29.5757 35.5858C29.5614 35.0818 30.4944 33.7785 31.6485 32.6897C32.8026 31.6015 33.9106 30.0573 34.1113 29.2585C34.6818 26.985 33.8255 23.7437 32.3891 22.7376C30.5465 21.4469 26.6916 21.6141 23.768 23.1109ZM44.354 28.7893C44.1473 28.996 42.4455 29.3334 40.5723 29.5383C36.7737 29.9542 35.3392 31.1952 36.5047 33.057C38.2131 35.786 48.1262 33.9056 48.1262 30.8525C48.1262 29.3717 45.3116 27.8317 44.354 28.7893ZM21.996 45.0286C21.0588 46.257 19.4091 48.0379 18.3293 48.9853C16.2775 50.7872 15.8719 52.2469 17.0859 53.461C18.439 54.814 19.9376 54.1783 23.2832 50.8327C26.9637 47.1522 27.8937 45.4318 27.0613 43.8433C26.1223 42.0522 23.8626 42.5807 21.996 45.0286Z" fill="#ACACAC"/>
<defs>
<linearGradient id="paint0_linear_978_4550" x1="52.2747" y1="31.9999" x2="25.08" y2="31.9999" gradientUnits="userSpaceOnUse">
<stop stop-color="#949494"/>
<stop offset="1" stop-color="#B99F66" stop-opacity="0"/>
</linearGradient>
</defs>
</svg>
