<svg width="64" height="64" viewBox="0 0 64 64" fill="none" xmlns="http://www.w3.org/2000/svg">
<g opacity="0.3">
<path fill-rule="evenodd" clip-rule="evenodd" d="M38.7733 12.6801C37.8175 13.1197 35.9858 15.597 34.7028 18.1867L32.3704 22.8946L26.714 23.8374C17.4096 25.3874 16.5825 27.684 23.1531 33.7246L27.3686 37.5998L26.5162 43.1634C25.1656 51.9785 27.1976 53.4943 35.0675 49.541C37.2965 48.4216 39.5296 47.5058 40.0303 47.5058C40.531 47.5058 43.2004 48.582 45.9626 49.8976C49.6359 51.6471 51.3691 52.0827 52.4185 51.5209C54.715 50.2924 54.8437 49.5581 53.8326 43.4377L52.8752 37.6389L57.2135 33.246C61.039 29.3725 61.4534 28.6324 60.7232 26.9855C60.0548 25.4794 58.7286 24.8819 53.8668 23.8968L47.8383 22.6756L45.291 17.8781C42.4123 12.4578 41.2596 11.5387 38.7733 12.6801ZM18.9377 13.2695C14.5358 14.1699 7.71283 17.3889 7.16168 18.8249C6.88896 19.5348 7.22034 20.6697 7.89767 21.3462C8.9959 22.4453 9.52344 22.3801 12.8035 20.7421C14.8249 19.7327 19.1355 18.4619 22.383 17.918C27.0209 17.1414 28.3487 16.6065 28.5767 15.4228C29.1059 12.6744 25.6353 11.8994 18.9377 13.2695ZM6.9997 30.0962C3.20028 31.4598 1.9995 33.3591 3.79948 35.1591C4.86189 36.2207 5.51153 36.1694 9.32479 34.7203C12.88 33.3697 13.646 32.7331 13.646 31.1334C13.646 28.7171 11.693 28.4126 6.9997 30.0962ZM12.8319 41.4236C11.0409 42.0684 9.48434 42.6024 9.37199 42.6089C8.74432 42.6464 9.3044 45.8654 10.0151 46.305C11.5318 47.242 22.028 45.0415 22.5523 43.6762C23.8231 40.3637 18.9247 39.2288 12.8319 41.4236Z" fill="url(#paint0_linear_978_4557)"/>
<path fill-rule="evenodd" clip-rule="evenodd" d="M38.7733 12.6801C37.8175 13.1197 35.9858 15.597 34.7028 18.1867L32.3704 22.8946L26.714 23.8374C17.4096 25.3874 16.5825 27.684 23.1531 33.7246L27.3686 37.5998L26.5162 43.1634C25.1656 51.9785 27.1976 53.4943 35.0675 49.541C37.2965 48.4216 39.5296 47.5058 40.0303 47.5058C40.531 47.5058 43.2004 48.582 45.9626 49.8976C49.6359 51.6471 51.3691 52.0827 52.4185 51.5209C54.715 50.2924 54.8437 49.5581 53.8326 43.4377L52.8752 37.6389L57.2135 33.246C61.039 29.3725 61.4534 28.6324 60.7232 26.9855C60.0548 25.4794 58.7286 24.8819 53.8668 23.8968L47.8383 22.6756L45.291 17.8781C42.4123 12.4578 41.2596 11.5387 38.7733 12.6801ZM18.9377 13.2695C14.5358 14.1699 7.71283 17.3889 7.16168 18.8249C6.88896 19.5348 7.22034 20.6697 7.89767 21.3462C8.9959 22.4453 9.52344 22.3801 12.8035 20.7421C14.8249 19.7327 19.1355 18.4619 22.383 17.918C27.0209 17.1414 28.3487 16.6065 28.5767 15.4228C29.1059 12.6744 25.6353 11.8994 18.9377 13.2695ZM6.9997 30.0962C3.20028 31.4598 1.9995 33.3591 3.79948 35.1591C4.86189 36.2207 5.51153 36.1694 9.32479 34.7203C12.88 33.3697 13.646 32.7331 13.646 31.1334C13.646 28.7171 11.693 28.4126 6.9997 30.0962ZM12.8319 41.4236C11.0409 42.0684 9.48434 42.6024 9.37199 42.6089C8.74432 42.6464 9.3044 45.8654 10.0151 46.305C11.5318 47.242 22.028 45.0415 22.5523 43.6762C23.8231 40.3637 18.9247 39.2288 12.8319 41.4236Z" fill="#ACACAC"/>
</g>
<path fill-rule="evenodd" clip-rule="evenodd" d="M38.7732 12.6801C37.8174 13.1197 35.9857 15.597 34.7026 18.1867L32.3702 22.8946L26.7139 23.8374C17.4095 25.3874 16.5823 27.684 23.153 33.7246L27.3684 37.5998L26.516 43.1634C25.1655 51.9785 27.1974 53.4943 35.0674 49.541C37.2964 48.4216 39.5295 47.5058 40.0301 47.5058C40.5308 47.5058 43.2002 48.582 45.9625 49.8976C49.6357 51.6471 51.3689 52.0827 52.4183 51.5209C54.7149 50.2924 54.8435 49.5581 53.8324 43.4377L52.8751 37.6389L57.2134 33.246C61.0389 29.3725 61.4533 28.6324 60.723 26.9855C60.0546 25.4794 58.7285 24.8819 53.8666 23.8968L47.8382 22.6756L45.2908 17.8781C42.4122 12.4578 41.2594 11.5387 38.7732 12.6801Z" fill="url(#paint1_linear_978_4557)"/>
<path fill-rule="evenodd" clip-rule="evenodd" d="M38.7732 12.6801C37.8174 13.1197 35.9857 15.597 34.7026 18.1867L32.3702 22.8946L26.7139 23.8374C17.4095 25.3874 16.5823 27.684 23.153 33.7246L27.3684 37.5998L26.516 43.1634C25.1655 51.9785 27.1974 53.4943 35.0674 49.541C37.2964 48.4216 39.5295 47.5058 40.0301 47.5058C40.5308 47.5058 43.2002 48.582 45.9625 49.8976C49.6357 51.6471 51.3689 52.0827 52.4183 51.5209C54.7149 50.2924 54.8435 49.5581 53.8324 43.4377L52.8751 37.6389L57.2134 33.246C61.0389 29.3725 61.4533 28.6324 60.723 26.9855C60.0546 25.4794 58.7285 24.8819 53.8666 23.8968L47.8382 22.6756L45.2908 17.8781C42.4122 12.4578 41.2594 11.5387 38.7732 12.6801Z" fill="#ACACAC"/>
<defs>
<linearGradient id="paint0_linear_978_4557" x1="31.9997" y1="12.248" x2="31.9997" y2="67.4491" gradientUnits="userSpaceOnUse">
<stop stop-color="#CC58B3"/>
<stop offset="1" stop-color="#3F1836"/>
</linearGradient>
<linearGradient id="paint1_linear_978_4557" x1="31.9997" y1="12.248" x2="31.9997" y2="67.4491" gradientUnits="userSpaceOnUse">
<stop stop-color="#CC58B3"/>
<stop offset="1" stop-color="#3F1836"/>
</linearGradient>
</defs>
</svg>
