<svg width="64" height="64" viewBox="0 0 64 64" fill="none" xmlns="http://www.w3.org/2000/svg">
<g opacity="0.3">
<path fill-rule="evenodd" clip-rule="evenodd" d="M31.1159 14.6263C30.1814 14.9593 29.8005 16.0978 30.2734 17.1432C30.6965 18.0785 32.6387 18.3185 33.4245 17.5326C34.7881 16.169 33.0229 13.9465 31.1159 14.6263ZM23.1148 18.3485C21.0247 20.4386 23.5387 23.7859 26.3205 22.6163C29.0618 21.4633 28.1532 17.6068 25.14 17.6068C24.3509 17.6068 23.571 17.8923 23.1148 18.3485ZM36.9009 18.465C35.4723 19.9858 36.2133 22.1393 38.4358 22.9263C40.0019 23.4807 41.9593 21.5104 41.6941 19.6465C41.3967 17.5575 38.4388 16.8284 36.9009 18.465ZM30.6235 19.8304C29.6036 20.4505 29.4193 20.779 29.4193 21.9773C29.4193 22.7553 29.6281 23.6042 29.8829 23.8634C30.2563 24.2432 30.1599 24.2884 29.3852 24.0974C28.6598 23.9183 28.131 24.1071 27.2283 24.8666C26.2003 25.7314 26.0475 26.0781 26.1384 27.339C26.2344 28.6663 26.1365 28.8503 25.1059 29.2838C23.8747 29.8015 23.4857 30.4579 23.4857 32.0177C23.4857 33.3216 24.3494 34.5232 25.4931 34.8102C26.3004 35.0127 26.3813 35.1877 26.1962 36.3288C25.9159 38.0559 26.8041 39.3802 28.4495 39.6888C29.6756 39.9191 29.7048 39.9662 29.5142 41.3898C29.1986 43.7429 31.1234 45.2827 33.324 44.4379C34.2578 44.0796 34.9502 42.1531 34.593 40.9074C34.3423 40.0333 34.4035 39.8579 34.958 39.8579C35.324 39.8579 36.0783 39.5004 36.6338 39.0631C37.5068 38.3767 37.627 38.0489 37.5157 36.6526C37.4297 35.5708 37.5346 35.0368 37.8328 35.0368C38.0779 35.0368 38.7384 34.6411 39.3003 34.1579C41.0985 32.6111 40.3943 29.3472 38.1944 29.0312C37.5165 28.9337 37.42 28.7067 37.5135 27.4273C37.6307 25.8219 36.7529 24.6229 35.0915 24.1197C34.3987 23.9098 34.3264 23.7329 34.6186 22.9645C35.5502 20.5143 32.9075 18.4416 30.6235 19.8304ZM17.2053 22.6752C16.1562 23.4102 16.224 24.8655 17.3418 25.5979C18.9209 26.6326 20.711 24.9148 19.8094 23.23C19.2958 22.2706 18.1358 22.0233 17.2053 22.6752ZM44.7684 22.4405C44.3379 22.6033 43.8884 22.9901 43.7698 23.2997C43.5936 23.7585 43.3559 23.7881 42.4855 23.4596C40.8871 22.8562 39.4716 23.3617 38.8908 24.7427C38.0572 26.7257 39.2732 28.6956 41.3462 28.7205C42.4047 28.7331 44.2533 26.9252 44.2533 25.8772C44.2533 25.418 44.3605 25.3928 44.7918 25.7507C45.9815 26.7383 47.9652 24.9326 47.2202 23.5404C46.6809 22.5328 45.6948 22.0904 44.7684 22.4405ZM21.4089 23.4533C20.7644 23.8838 20.148 25.2608 20.148 26.2706C20.148 27.3795 21.7134 28.7323 22.9962 28.7323C24.1755 28.7323 25.7108 27.1592 25.7108 25.9509C25.7108 24.0711 22.9146 22.4479 21.4089 23.4533ZM31.2791 24.9426C31.2825 25.0895 31.426 25.4317 31.5984 25.704C31.8536 26.1063 31.9518 26.0948 32.1258 25.642C32.2433 25.3357 32.0994 24.993 31.8065 24.8807C31.5135 24.7683 31.2762 24.7961 31.2791 24.9426ZM31.4879 28.6407C31.3507 29.0735 30.7521 29.6428 30.1577 29.9057C29.337 30.2691 29.123 30.5684 29.2684 31.1488C29.3741 31.5693 29.2884 32.3659 29.0781 32.9189C28.7406 33.8067 28.7837 33.9242 29.4453 33.9242C29.8576 33.9242 30.5752 34.3047 31.0407 34.7702L31.8866 35.6161L32.5244 34.7702C32.9309 34.2313 33.5521 33.9242 34.2355 33.9242C35.2758 33.9242 35.2932 33.8942 34.8026 32.9482C34.4684 32.3044 34.4043 31.6869 34.6142 31.1351C34.8912 30.4067 34.794 30.271 33.8632 30.0848C33.2101 29.9539 32.5886 29.4785 32.266 28.8625C31.7572 27.8916 31.7286 27.8834 31.4879 28.6407ZM16.9587 29.2649C15.1634 30.0418 14.7466 32.0488 16.0831 33.4833C17.2157 34.6993 18.7269 34.6889 20.0553 33.4566C21.0566 32.5276 21.1389 30.9571 20.2407 29.9183C19.3459 28.8833 18.3149 28.6782 16.9587 29.2649ZM44.9557 29.1492C44.0219 29.4885 43.1408 30.8147 43.1408 31.8812C43.1408 33.1807 45.0726 34.4931 46.7566 34.3377C47.6225 34.258 48.7036 32.8158 48.7036 31.7403C48.7036 29.7362 46.8563 28.459 44.9557 29.1492ZM20.9042 35.4778C20.4885 35.9239 20.148 36.7661 20.148 37.3487C20.148 38.6845 21.6396 40.2287 22.9294 40.2287C24.1376 40.2287 25.7108 38.6934 25.7108 37.5141C25.7108 37.0223 25.3648 36.1805 24.942 35.6431C23.9492 34.3808 22.0004 34.301 20.9042 35.4778ZM39.7052 35.1295C38.8037 35.8141 38.3601 37.302 38.7477 38.3407C39.5487 40.4868 41.8042 40.8573 43.2932 39.0876C44.4455 37.7184 44.4655 37.4288 43.5157 35.8712C42.9238 34.9007 42.5408 34.666 41.5484 34.666C40.8704 34.666 40.0412 34.8747 39.7052 35.1295ZM16.8289 38.5376C15.4267 40.2269 17.7749 42.6322 19.3952 41.1659C20.3294 40.3207 20.3557 39.4192 19.4697 38.6174C18.6346 37.8616 17.4204 37.8249 16.8289 38.5376ZM31.5102 38.5599C31.3815 38.8955 31.5083 39.1162 31.8298 39.1162C32.1514 39.1162 32.2782 38.8955 32.1495 38.5599C32.0319 38.2539 31.8881 38.0036 31.8298 38.0036C31.7716 38.0036 31.6277 38.2539 31.5102 38.5599ZM44.1169 38.788C43.5016 39.6665 43.7772 40.8914 44.7239 41.4889C45.5098 41.9843 47.0566 41.2645 47.3132 40.284C47.8009 38.4193 45.2209 37.2118 44.1169 38.788ZM23.2836 41.1392C21.4749 42.9474 22.6898 45.7915 25.271 45.7915C26.8567 45.7915 27.9359 44.663 27.9359 43.0045C27.9359 41.932 27.7223 41.5712 26.7306 40.9663C25.1449 39.9995 24.3846 40.0377 23.2836 41.1392ZM37.1074 41.1087C35.8966 42.2313 35.8143 43.4807 36.8634 44.8143C37.4263 45.5304 37.9715 45.7915 38.9031 45.7915C40.1729 45.7915 41.6133 44.7891 41.7 43.8445C41.874 41.9573 41.0117 40.7486 39.2387 40.3941C38.3642 40.2191 37.8996 40.3748 37.1074 41.1087ZM30.84 46.2551C29.4538 47.3721 30.0994 49.5 31.8243 49.5C33.7134 49.5 34.5289 47.408 33.0451 46.3689C32.0479 45.6702 31.5947 45.6469 30.84 46.2551Z" fill="url(#paint0_linear_978_4572)"/>
<path fill-rule="evenodd" clip-rule="evenodd" d="M31.1159 14.6263C30.1814 14.9593 29.8005 16.0978 30.2734 17.1432C30.6965 18.0785 32.6387 18.3185 33.4245 17.5326C34.7881 16.169 33.0229 13.9465 31.1159 14.6263ZM23.1148 18.3485C21.0247 20.4386 23.5387 23.7859 26.3205 22.6163C29.0618 21.4633 28.1532 17.6068 25.14 17.6068C24.3509 17.6068 23.571 17.8923 23.1148 18.3485ZM36.9009 18.465C35.4723 19.9858 36.2133 22.1393 38.4358 22.9263C40.0019 23.4807 41.9593 21.5104 41.6941 19.6465C41.3967 17.5575 38.4388 16.8284 36.9009 18.465ZM30.6235 19.8304C29.6036 20.4505 29.4193 20.779 29.4193 21.9773C29.4193 22.7553 29.6281 23.6042 29.8829 23.8634C30.2563 24.2432 30.1599 24.2884 29.3852 24.0974C28.6598 23.9183 28.131 24.1071 27.2283 24.8666C26.2003 25.7314 26.0475 26.0781 26.1384 27.339C26.2344 28.6663 26.1365 28.8503 25.1059 29.2838C23.8747 29.8015 23.4857 30.4579 23.4857 32.0177C23.4857 33.3216 24.3494 34.5232 25.4931 34.8102C26.3004 35.0127 26.3813 35.1877 26.1962 36.3288C25.9159 38.0559 26.8041 39.3802 28.4495 39.6888C29.6756 39.9191 29.7048 39.9662 29.5142 41.3898C29.1986 43.7429 31.1234 45.2827 33.324 44.4379C34.2578 44.0796 34.9502 42.1531 34.593 40.9074C34.3423 40.0333 34.4035 39.8579 34.958 39.8579C35.324 39.8579 36.0783 39.5004 36.6338 39.0631C37.5068 38.3767 37.627 38.0489 37.5157 36.6526C37.4297 35.5708 37.5346 35.0368 37.8328 35.0368C38.0779 35.0368 38.7384 34.6411 39.3003 34.1579C41.0985 32.6111 40.3943 29.3472 38.1944 29.0312C37.5165 28.9337 37.42 28.7067 37.5135 27.4273C37.6307 25.8219 36.7529 24.6229 35.0915 24.1197C34.3987 23.9098 34.3264 23.7329 34.6186 22.9645C35.5502 20.5143 32.9075 18.4416 30.6235 19.8304ZM17.2053 22.6752C16.1562 23.4102 16.224 24.8655 17.3418 25.5979C18.9209 26.6326 20.711 24.9148 19.8094 23.23C19.2958 22.2706 18.1358 22.0233 17.2053 22.6752ZM44.7684 22.4405C44.3379 22.6033 43.8884 22.9901 43.7698 23.2997C43.5936 23.7585 43.3559 23.7881 42.4855 23.4596C40.8871 22.8562 39.4716 23.3617 38.8908 24.7427C38.0572 26.7257 39.2732 28.6956 41.3462 28.7205C42.4047 28.7331 44.2533 26.9252 44.2533 25.8772C44.2533 25.418 44.3605 25.3928 44.7918 25.7507C45.9815 26.7383 47.9652 24.9326 47.2202 23.5404C46.6809 22.5328 45.6948 22.0904 44.7684 22.4405ZM21.4089 23.4533C20.7644 23.8838 20.148 25.2608 20.148 26.2706C20.148 27.3795 21.7134 28.7323 22.9962 28.7323C24.1755 28.7323 25.7108 27.1592 25.7108 25.9509C25.7108 24.0711 22.9146 22.4479 21.4089 23.4533ZM31.2791 24.9426C31.2825 25.0895 31.426 25.4317 31.5984 25.704C31.8536 26.1063 31.9518 26.0948 32.1258 25.642C32.2433 25.3357 32.0994 24.993 31.8065 24.8807C31.5135 24.7683 31.2762 24.7961 31.2791 24.9426ZM31.4879 28.6407C31.3507 29.0735 30.7521 29.6428 30.1577 29.9057C29.337 30.2691 29.123 30.5684 29.2684 31.1488C29.3741 31.5693 29.2884 32.3659 29.0781 32.9189C28.7406 33.8067 28.7837 33.9242 29.4453 33.9242C29.8576 33.9242 30.5752 34.3047 31.0407 34.7702L31.8866 35.6161L32.5244 34.7702C32.9309 34.2313 33.5521 33.9242 34.2355 33.9242C35.2758 33.9242 35.2932 33.8942 34.8026 32.9482C34.4684 32.3044 34.4043 31.6869 34.6142 31.1351C34.8912 30.4067 34.794 30.271 33.8632 30.0848C33.2101 29.9539 32.5886 29.4785 32.266 28.8625C31.7572 27.8916 31.7286 27.8834 31.4879 28.6407ZM16.9587 29.2649C15.1634 30.0418 14.7466 32.0488 16.0831 33.4833C17.2157 34.6993 18.7269 34.6889 20.0553 33.4566C21.0566 32.5276 21.1389 30.9571 20.2407 29.9183C19.3459 28.8833 18.3149 28.6782 16.9587 29.2649ZM44.9557 29.1492C44.0219 29.4885 43.1408 30.8147 43.1408 31.8812C43.1408 33.1807 45.0726 34.4931 46.7566 34.3377C47.6225 34.258 48.7036 32.8158 48.7036 31.7403C48.7036 29.7362 46.8563 28.459 44.9557 29.1492ZM20.9042 35.4778C20.4885 35.9239 20.148 36.7661 20.148 37.3487C20.148 38.6845 21.6396 40.2287 22.9294 40.2287C24.1376 40.2287 25.7108 38.6934 25.7108 37.5141C25.7108 37.0223 25.3648 36.1805 24.942 35.6431C23.9492 34.3808 22.0004 34.301 20.9042 35.4778ZM39.7052 35.1295C38.8037 35.8141 38.3601 37.302 38.7477 38.3407C39.5487 40.4868 41.8042 40.8573 43.2932 39.0876C44.4455 37.7184 44.4655 37.4288 43.5157 35.8712C42.9238 34.9007 42.5408 34.666 41.5484 34.666C40.8704 34.666 40.0412 34.8747 39.7052 35.1295ZM16.8289 38.5376C15.4267 40.2269 17.7749 42.6322 19.3952 41.1659C20.3294 40.3207 20.3557 39.4192 19.4697 38.6174C18.6346 37.8616 17.4204 37.8249 16.8289 38.5376ZM31.5102 38.5599C31.3815 38.8955 31.5083 39.1162 31.8298 39.1162C32.1514 39.1162 32.2782 38.8955 32.1495 38.5599C32.0319 38.2539 31.8881 38.0036 31.8298 38.0036C31.7716 38.0036 31.6277 38.2539 31.5102 38.5599ZM44.1169 38.788C43.5016 39.6665 43.7772 40.8914 44.7239 41.4889C45.5098 41.9843 47.0566 41.2645 47.3132 40.284C47.8009 38.4193 45.2209 37.2118 44.1169 38.788ZM23.2836 41.1392C21.4749 42.9474 22.6898 45.7915 25.271 45.7915C26.8567 45.7915 27.9359 44.663 27.9359 43.0045C27.9359 41.932 27.7223 41.5712 26.7306 40.9663C25.1449 39.9995 24.3846 40.0377 23.2836 41.1392ZM37.1074 41.1087C35.8966 42.2313 35.8143 43.4807 36.8634 44.8143C37.4263 45.5304 37.9715 45.7915 38.9031 45.7915C40.1729 45.7915 41.6133 44.7891 41.7 43.8445C41.874 41.9573 41.0117 40.7486 39.2387 40.3941C38.3642 40.2191 37.8996 40.3748 37.1074 41.1087ZM30.84 46.2551C29.4538 47.3721 30.0994 49.5 31.8243 49.5C33.7134 49.5 34.5289 47.408 33.0451 46.3689C32.0479 45.6702 31.5947 45.6469 30.84 46.2551Z" fill="#ACACAC"/>
</g>
<path fill-rule="evenodd" clip-rule="evenodd" d="M31.1159 14.6263C30.1814 14.9593 29.8005 16.0978 30.2734 17.1432C30.6965 18.0785 32.6387 18.3185 33.4245 17.5326C34.7881 16.169 33.0229 13.9465 31.1159 14.6263ZM23.1148 18.3485C21.0247 20.4386 23.5387 23.7859 26.3205 22.6163C29.0618 21.4633 28.1532 17.6068 25.14 17.6068C24.3509 17.6068 23.571 17.8923 23.1148 18.3485ZM30.6235 19.8304C29.6036 20.4505 29.4193 20.779 29.4193 21.9773C29.4193 22.7553 29.6281 23.6042 29.8829 23.8634C30.2563 24.2432 30.1599 24.2884 29.3852 24.0974C28.6598 23.9183 28.131 24.1071 27.2283 24.8666C26.2003 25.7314 26.0475 26.0781 26.1384 27.339C26.2344 28.6663 26.1365 28.8503 25.1059 29.2838C23.8747 29.8015 23.4857 30.4579 23.4857 32.0177C23.4857 33.3216 24.3494 34.5232 25.4931 34.8102C26.3004 35.0127 26.3813 35.1877 26.1962 36.3288C25.9159 38.0559 26.8041 39.3802 28.4495 39.6888C29.6756 39.9191 29.7048 39.9662 29.5142 41.3898C29.1986 43.7429 31.1234 45.2827 33.324 44.4379C34.2578 44.0796 34.9502 42.1531 34.593 40.9074C34.3423 40.0333 34.4035 39.8579 34.958 39.8579C35.324 39.8579 36.0783 39.5004 36.6338 39.0631C37.5068 38.3767 37.627 38.0489 37.5157 36.6526C37.4297 35.5708 37.5346 35.0368 37.8328 35.0368C38.0779 35.0368 38.7384 34.6411 39.3003 34.1579C41.0985 32.6111 40.3943 29.3472 38.1944 29.0312C37.5165 28.9337 37.42 28.7067 37.5135 27.4273C37.6307 25.8219 36.7529 24.6229 35.0915 24.1197C34.3987 23.9098 34.3264 23.7329 34.6186 22.9645C35.5502 20.5143 32.9075 18.4416 30.6235 19.8304ZM44.7684 22.4405C44.3379 22.6033 43.8884 22.9901 43.7698 23.2997C43.5936 23.7585 43.3559 23.7881 42.4855 23.4596C40.8871 22.8562 39.4716 23.3617 38.8908 24.7427C38.0572 26.7257 39.2732 28.6956 41.3462 28.7205C42.4047 28.7331 44.2533 26.9252 44.2533 25.8772C44.2533 25.418 44.3605 25.3928 44.7918 25.7507C45.9815 26.7383 47.9652 24.9326 47.2202 23.5404C46.6809 22.5328 45.6948 22.0904 44.7684 22.4405ZM21.4089 23.4533C20.7644 23.8838 20.148 25.2608 20.148 26.2706C20.148 27.3795 21.7134 28.7323 22.9962 28.7323C24.1755 28.7323 25.7108 27.1592 25.7108 25.9509C25.7108 24.0711 22.9146 22.4479 21.4089 23.4533ZM31.2791 24.9426C31.2825 25.0895 31.426 25.4317 31.5984 25.704C31.8536 26.1063 31.9518 26.0948 32.1258 25.642C32.2433 25.3357 32.0994 24.993 31.8065 24.8807C31.5135 24.7683 31.2762 24.7961 31.2791 24.9426ZM31.4879 28.6407C31.3507 29.0735 30.7521 29.6428 30.1577 29.9057C29.337 30.2691 29.123 30.5684 29.2684 31.1488C29.3741 31.5693 29.2884 32.3659 29.0781 32.9189C28.7406 33.8067 28.7837 33.9242 29.4453 33.9242C29.8576 33.9242 30.5752 34.3047 31.0407 34.7702L31.8866 35.6161L32.5244 34.7702C32.9309 34.2313 33.5521 33.9242 34.2355 33.9242C35.2758 33.9242 35.2932 33.8942 34.8026 32.9482C34.4684 32.3044 34.4043 31.6869 34.6142 31.1351C34.8912 30.4067 34.794 30.271 33.8632 30.0848C33.2101 29.9539 32.5886 29.4785 32.266 28.8625C31.7572 27.8916 31.7286 27.8834 31.4879 28.6407ZM16.9587 29.2649C15.1634 30.0418 14.7466 32.0488 16.0831 33.4833C17.2157 34.6993 18.7269 34.6889 20.0553 33.4566C21.0566 32.5276 21.1389 30.9571 20.2407 29.9183C19.3459 28.8833 18.3149 28.6782 16.9587 29.2649ZM44.9557 29.1492C44.0219 29.4885 43.1408 30.8147 43.1408 31.8812C43.1408 33.1807 45.0726 34.4931 46.7566 34.3377C47.6225 34.258 48.7036 32.8158 48.7036 31.7403C48.7036 29.7362 46.8563 28.459 44.9557 29.1492ZM20.9042 35.4778C20.4885 35.9239 20.148 36.7661 20.148 37.3487C20.148 38.6845 21.6396 40.2287 22.9294 40.2287C24.1376 40.2287 25.7108 38.6934 25.7108 37.5141C25.7108 37.0223 25.3648 36.1805 24.942 35.6431C23.9492 34.3808 22.0004 34.301 20.9042 35.4778ZM39.7052 35.1295C38.8037 35.8141 38.3601 37.302 38.7477 38.3407C39.5487 40.4868 41.8042 40.8573 43.2932 39.0876C44.4455 37.7184 44.4655 37.4288 43.5157 35.8712C42.9238 34.9007 42.5408 34.666 41.5484 34.666C40.8704 34.666 40.0412 34.8747 39.7052 35.1295ZM31.5102 38.5599C31.3815 38.8955 31.5083 39.1162 31.8298 39.1162C32.1514 39.1162 32.2782 38.8955 32.1495 38.5599C32.0319 38.2539 31.8881 38.0036 31.8298 38.0036C31.7716 38.0036 31.6277 38.2539 31.5102 38.5599ZM23.2836 41.1392C21.4749 42.9474 22.6898 45.7915 25.271 45.7915C26.8567 45.7915 27.9359 44.663 27.9359 43.0045C27.9359 41.932 27.7223 41.5712 26.7306 40.9663C25.1449 39.9995 24.3846 40.0377 23.2836 41.1392ZM37.1074 41.1087C35.8966 42.2313 35.8143 43.4807 36.8634 44.8143C37.4263 45.5304 37.9715 45.7915 38.9031 45.7915C40.1729 45.7915 41.6133 44.7891 41.7 43.8445C41.874 41.9573 41.0117 40.7486 39.2387 40.3941C38.3642 40.2191 37.8996 40.3748 37.1074 41.1087Z" fill="url(#paint1_linear_978_4572)"/>
<path fill-rule="evenodd" clip-rule="evenodd" d="M31.1159 14.6263C30.1814 14.9593 29.8005 16.0978 30.2734 17.1432C30.6965 18.0785 32.6387 18.3185 33.4245 17.5326C34.7881 16.169 33.0229 13.9465 31.1159 14.6263ZM23.1148 18.3485C21.0247 20.4386 23.5387 23.7859 26.3205 22.6163C29.0618 21.4633 28.1532 17.6068 25.14 17.6068C24.3509 17.6068 23.571 17.8923 23.1148 18.3485ZM30.6235 19.8304C29.6036 20.4505 29.4193 20.779 29.4193 21.9773C29.4193 22.7553 29.6281 23.6042 29.8829 23.8634C30.2563 24.2432 30.1599 24.2884 29.3852 24.0974C28.6598 23.9183 28.131 24.1071 27.2283 24.8666C26.2003 25.7314 26.0475 26.0781 26.1384 27.339C26.2344 28.6663 26.1365 28.8503 25.1059 29.2838C23.8747 29.8015 23.4857 30.4579 23.4857 32.0177C23.4857 33.3216 24.3494 34.5232 25.4931 34.8102C26.3004 35.0127 26.3813 35.1877 26.1962 36.3288C25.9159 38.0559 26.8041 39.3802 28.4495 39.6888C29.6756 39.9191 29.7048 39.9662 29.5142 41.3898C29.1986 43.7429 31.1234 45.2827 33.324 44.4379C34.2578 44.0796 34.9502 42.1531 34.593 40.9074C34.3423 40.0333 34.4035 39.8579 34.958 39.8579C35.324 39.8579 36.0783 39.5004 36.6338 39.0631C37.5068 38.3767 37.627 38.0489 37.5157 36.6526C37.4297 35.5708 37.5346 35.0368 37.8328 35.0368C38.0779 35.0368 38.7384 34.6411 39.3003 34.1579C41.0985 32.6111 40.3943 29.3472 38.1944 29.0312C37.5165 28.9337 37.42 28.7067 37.5135 27.4273C37.6307 25.8219 36.7529 24.6229 35.0915 24.1197C34.3987 23.9098 34.3264 23.7329 34.6186 22.9645C35.5502 20.5143 32.9075 18.4416 30.6235 19.8304ZM44.7684 22.4405C44.3379 22.6033 43.8884 22.9901 43.7698 23.2997C43.5936 23.7585 43.3559 23.7881 42.4855 23.4596C40.8871 22.8562 39.4716 23.3617 38.8908 24.7427C38.0572 26.7257 39.2732 28.6956 41.3462 28.7205C42.4047 28.7331 44.2533 26.9252 44.2533 25.8772C44.2533 25.418 44.3605 25.3928 44.7918 25.7507C45.9815 26.7383 47.9652 24.9326 47.2202 23.5404C46.6809 22.5328 45.6948 22.0904 44.7684 22.4405ZM21.4089 23.4533C20.7644 23.8838 20.148 25.2608 20.148 26.2706C20.148 27.3795 21.7134 28.7323 22.9962 28.7323C24.1755 28.7323 25.7108 27.1592 25.7108 25.9509C25.7108 24.0711 22.9146 22.4479 21.4089 23.4533ZM31.2791 24.9426C31.2825 25.0895 31.426 25.4317 31.5984 25.704C31.8536 26.1063 31.9518 26.0948 32.1258 25.642C32.2433 25.3357 32.0994 24.993 31.8065 24.8807C31.5135 24.7683 31.2762 24.7961 31.2791 24.9426ZM31.4879 28.6407C31.3507 29.0735 30.7521 29.6428 30.1577 29.9057C29.337 30.2691 29.123 30.5684 29.2684 31.1488C29.3741 31.5693 29.2884 32.3659 29.0781 32.9189C28.7406 33.8067 28.7837 33.9242 29.4453 33.9242C29.8576 33.9242 30.5752 34.3047 31.0407 34.7702L31.8866 35.6161L32.5244 34.7702C32.9309 34.2313 33.5521 33.9242 34.2355 33.9242C35.2758 33.9242 35.2932 33.8942 34.8026 32.9482C34.4684 32.3044 34.4043 31.6869 34.6142 31.1351C34.8912 30.4067 34.794 30.271 33.8632 30.0848C33.2101 29.9539 32.5886 29.4785 32.266 28.8625C31.7572 27.8916 31.7286 27.8834 31.4879 28.6407ZM16.9587 29.2649C15.1634 30.0418 14.7466 32.0488 16.0831 33.4833C17.2157 34.6993 18.7269 34.6889 20.0553 33.4566C21.0566 32.5276 21.1389 30.9571 20.2407 29.9183C19.3459 28.8833 18.3149 28.6782 16.9587 29.2649ZM44.9557 29.1492C44.0219 29.4885 43.1408 30.8147 43.1408 31.8812C43.1408 33.1807 45.0726 34.4931 46.7566 34.3377C47.6225 34.258 48.7036 32.8158 48.7036 31.7403C48.7036 29.7362 46.8563 28.459 44.9557 29.1492ZM20.9042 35.4778C20.4885 35.9239 20.148 36.7661 20.148 37.3487C20.148 38.6845 21.6396 40.2287 22.9294 40.2287C24.1376 40.2287 25.7108 38.6934 25.7108 37.5141C25.7108 37.0223 25.3648 36.1805 24.942 35.6431C23.9492 34.3808 22.0004 34.301 20.9042 35.4778ZM39.7052 35.1295C38.8037 35.8141 38.3601 37.302 38.7477 38.3407C39.5487 40.4868 41.8042 40.8573 43.2932 39.0876C44.4455 37.7184 44.4655 37.4288 43.5157 35.8712C42.9238 34.9007 42.5408 34.666 41.5484 34.666C40.8704 34.666 40.0412 34.8747 39.7052 35.1295ZM31.5102 38.5599C31.3815 38.8955 31.5083 39.1162 31.8298 39.1162C32.1514 39.1162 32.2782 38.8955 32.1495 38.5599C32.0319 38.2539 31.8881 38.0036 31.8298 38.0036C31.7716 38.0036 31.6277 38.2539 31.5102 38.5599ZM23.2836 41.1392C21.4749 42.9474 22.6898 45.7915 25.271 45.7915C26.8567 45.7915 27.9359 44.663 27.9359 43.0045C27.9359 41.932 27.7223 41.5712 26.7306 40.9663C25.1449 39.9995 24.3846 40.0377 23.2836 41.1392ZM37.1074 41.1087C35.8966 42.2313 35.8143 43.4807 36.8634 44.8143C37.4263 45.5304 37.9715 45.7915 38.9031 45.7915C40.1729 45.7915 41.6133 44.7891 41.7 43.8445C41.874 41.9573 41.0117 40.7486 39.2387 40.3941C38.3642 40.2191 37.8996 40.3748 37.1074 41.1087Z" fill="#ACACAC"/>
<defs>
<linearGradient id="paint0_linear_978_4572" x1="32.0002" y1="14.5" x2="32.0002" y2="49.5" gradientUnits="userSpaceOnUse">
<stop stop-color="#478BEB"/>
<stop offset="1" stop-color="#436CA6"/>
</linearGradient>
<linearGradient id="paint1_linear_978_4572" x1="32.0002" y1="14.5" x2="32.0002" y2="49.5" gradientUnits="userSpaceOnUse">
<stop stop-color="#478BEB"/>
<stop offset="1" stop-color="#436CA6"/>
</linearGradient>
</defs>
</svg>
