<svg width="64" height="64" viewBox="0 0 64 64" fill="none" xmlns="http://www.w3.org/2000/svg">
<path opacity="0.3" d="M56.8644 54.3961L51.3874 43.2423C50.8055 44.5891 49.7846 45.684 48.4629 46.3638L30.4782 55.6651C30.476 55.6662 30.4741 55.6673 30.4719 55.6683C29.576 56.1286 28.5723 56.3718 27.5691 56.3718C25.1726 56.3718 23.0042 55.0482 21.9102 52.9179C21.4164 51.9571 21.1808 50.9106 21.2074 49.8601C21.2067 49.6101 21.2201 49.3603 21.2488 49.1116L15.6145 46.1929C14.295 45.5137 13.2756 44.421 12.6935 43.0767L7.13543 54.396C6.85406 54.9689 6.88626 55.6081 7.22371 56.1496C7.56107 56.6913 8.12068 57.0019 8.75889 57.0019H55.2409C55.879 57.0019 56.4387 56.6913 56.7761 56.1496C57.1136 55.6081 57.1457 54.969 56.8644 54.3961Z" fill="#ACACAC"/>
<path d="M30.4793 16.1204C30.9089 16.1204 31.4048 16.1203 31.9801 16.1203C32.5553 16.1204 33.0509 16.1204 33.4804 16.1204C35.2229 15.8641 36.5604 14.3634 36.5604 12.5499V10.6082C36.5604 8.61456 34.9444 6.99854 32.9507 6.99854H31.009C29.0154 6.99854 27.3994 8.61456 27.3994 10.6082V12.55C27.3994 14.3633 28.737 15.864 30.4793 16.1204Z" fill="#ACACAC"/>
<path d="M18.8728 36.8276H18.4527V36.8284C17.1329 36.8551 15.8697 37.587 15.2243 38.8436C14.2879 40.6661 15.0064 42.9029 16.8294 43.8394L22.1884 46.6155C22.7871 45.6641 23.6307 44.8859 24.6563 44.3581L29.0451 42.0883L18.8728 36.8276Z" fill="#ACACAC"/>
<path d="M27.5686 53.5536C28.1394 53.5536 28.7185 53.4215 29.2612 53.1428L47.2495 43.8395C48.5013 43.1964 49.232 41.9404 49.2641 40.6264C49.2524 40.0815 49.1204 39.5308 48.8545 39.0135C48.1969 37.7332 46.8979 36.9976 45.5513 36.9976C44.9806 36.9976 44.4013 37.1297 43.8587 37.4084L25.8703 46.7117C24.6246 47.3518 23.8949 48.5993 23.8564 49.9066C23.8655 50.4574 23.9964 51.0145 24.2651 51.5376C24.9227 52.8179 26.2219 53.5536 27.5686 53.5536Z" fill="#ACACAC"/>
<path d="M12.7422 33.0822L21.454 30.3771C21.832 30.2593 22.1641 30.0647 22.4422 29.8178C22.4966 29.7768 24.3642 28.1415 24.3642 28.1415V36.8552L31.9801 40.5962L39.5962 36.8552V28.1054C39.5962 28.1054 41.5037 29.7759 41.5583 29.817C41.8364 30.0638 42.1683 30.2586 42.5465 30.3763L51.2582 33.0814C52.6834 33.5252 54.1978 32.7296 54.6414 31.3046C55.085 29.8797 54.2898 28.3652 52.8645 27.9215L44.6809 25.3804L38.1183 19.6097C37.5577 19.1159 36.8499 18.8968 36.1591 18.9411C36.0926 18.9375 27.8683 18.9375 27.8022 18.9411C27.1238 18.9074 26.4323 19.1261 25.8824 19.6105L19.3198 25.3811L11.1361 27.9223C9.7109 28.3661 8.91552 29.8805 9.35926 31.3054C9.80261 32.7304 11.3171 33.5257 12.7422 33.0822Z" fill="#ACACAC"/>
</svg>
