<svg width="64" height="64" viewBox="0 0 64 64" fill="none" xmlns="http://www.w3.org/2000/svg">
<g opacity="0.3">
<path fill-rule="evenodd" clip-rule="evenodd" d="M16.0906 9.25918C14.8388 9.46173 13.0462 10.3425 12.1078 11.2157C10.5503 12.6654 10.4009 13.4908 10.4009 20.6378V28.4714L14.0043 28.4547C17.3173 28.4395 17.6996 28.2415 18.7457 25.9892C19.7934 23.7338 20.2039 23.5221 23.928 23.3089C28.4547 23.0495 30.1251 23.9553 30.1251 26.6674C30.1251 29.3635 32.552 28.9296 33.9183 25.9892C34.9576 23.7527 35.3938 23.5206 38.948 23.3142C43.1902 23.0677 45.2976 24.3073 45.2976 27.0482C45.2976 28.3841 45.7392 28.5252 49.2804 28.3212L53.2632 28.0921L53.4795 20.769C53.6812 13.9444 53.5697 13.2989 51.8499 11.2999L50.0041 9.15375L34.1853 9.0225C25.4847 8.95043 17.3423 9.05738 16.0906 9.25918ZM7.28515 32.9875L5.04492 35.2285L5.25736 44.9358C5.46522 54.4445 5.50621 54.6493 7.23208 54.8936C8.49899 55.0734 9.1104 54.7001 9.40702 53.566C9.81288 52.0138 10.1756 51.9888 32.0217 51.9888C53.5864 51.9888 54.2358 52.032 54.6212 53.506C55.0961 55.3229 57.8309 55.5467 58.4924 53.8231C59.2821 51.7665 58.9961 37.9254 58.1123 35.3893C56.57 30.965 55.3077 30.7473 31.2426 30.7473H9.52537L7.28515 32.9875Z" fill="url(#paint0_linear_1032_5179)"/>
<path fill-rule="evenodd" clip-rule="evenodd" d="M16.0906 9.25918C14.8388 9.46173 13.0462 10.3425 12.1078 11.2157C10.5503 12.6654 10.4009 13.4908 10.4009 20.6378V28.4714L14.0043 28.4547C17.3173 28.4395 17.6996 28.2415 18.7457 25.9892C19.7934 23.7338 20.2039 23.5221 23.928 23.3089C28.4547 23.0495 30.1251 23.9553 30.1251 26.6674C30.1251 29.3635 32.552 28.9296 33.9183 25.9892C34.9576 23.7527 35.3938 23.5206 38.948 23.3142C43.1902 23.0677 45.2976 24.3073 45.2976 27.0482C45.2976 28.3841 45.7392 28.5252 49.2804 28.3212L53.2632 28.0921L53.4795 20.769C53.6812 13.9444 53.5697 13.2989 51.8499 11.2999L50.0041 9.15375L34.1853 9.0225C25.4847 8.95043 17.3423 9.05738 16.0906 9.25918ZM7.28515 32.9875L5.04492 35.2285L5.25736 44.9358C5.46522 54.4445 5.50621 54.6493 7.23208 54.8936C8.49899 55.0734 9.1104 54.7001 9.40702 53.566C9.81288 52.0138 10.1756 51.9888 32.0217 51.9888C53.5864 51.9888 54.2358 52.032 54.6212 53.506C55.0961 55.3229 57.8309 55.5467 58.4924 53.8231C59.2821 51.7665 58.9961 37.9254 58.1123 35.3893C56.57 30.965 55.3077 30.7473 31.2426 30.7473H9.52537L7.28515 32.9875Z" fill="#ACACAC"/>
</g>
<path fill-rule="evenodd" clip-rule="evenodd" d="M7.28515 32.9873L5.04492 35.2283L5.25736 44.9356C5.46522 54.4443 5.50621 54.6491 7.23208 54.8934C8.49899 55.0732 9.1104 54.6999 9.40702 53.5658C9.81288 52.0136 10.1756 51.9886 32.0217 51.9886C53.5864 51.9886 54.2358 52.0318 54.6212 53.5058C55.0961 55.3228 57.8309 55.5465 58.4924 53.8229C59.2821 51.7663 58.9961 37.9252 58.1123 35.3891C56.57 30.9648 55.3077 30.7471 31.2426 30.7471H9.52537L7.28515 32.9873Z" fill="url(#paint1_linear_1032_5179)"/>
<path fill-rule="evenodd" clip-rule="evenodd" d="M7.28515 32.9873L5.04492 35.2283L5.25736 44.9356C5.46522 54.4443 5.50621 54.6491 7.23208 54.8934C8.49899 55.0732 9.1104 54.6999 9.40702 53.5658C9.81288 52.0136 10.1756 51.9886 32.0217 51.9886C53.5864 51.9886 54.2358 52.0318 54.6212 53.5058C55.0961 55.3228 57.8309 55.5465 58.4924 53.8229C59.2821 51.7663 58.9961 37.9252 58.1123 35.3891C56.57 30.9648 55.3077 30.7471 31.2426 30.7471H9.52537L7.28515 32.9873Z" fill="#ACACAC"/>
<defs>
<linearGradient id="paint0_linear_1032_5179" x1="31.9996" y1="9" x2="31.9996" y2="55" gradientUnits="userSpaceOnUse">
<stop stop-color="#9ED061"/>
<stop offset="1" stop-color="#97B375"/>
</linearGradient>
<linearGradient id="paint1_linear_1032_5179" x1="31.9996" y1="8.99989" x2="31.9996" y2="54.9999" gradientUnits="userSpaceOnUse">
<stop stop-color="#9ED061"/>
<stop offset="1" stop-color="#97B375"/>
</linearGradient>
</defs>
</svg>
